# This file uses centimeters as units for non-parametric coordinates.

mtllib DonutSigns.mtl
g default
v -22.345368 -0.380484 -6.642755
v -21.781635 -0.380484 -6.782341
v -22.146767 5.423175 -6.691930
v -21.980236 5.423175 -6.733166
v -22.243363 5.423175 -7.082045
v -22.076832 5.423175 -7.123279
v -22.441964 -0.380484 -7.032869
v -21.878231 -0.380484 -7.172454
vt 0.326111 0.980971
vt 0.260388 0.980513
vt 0.275841 0.448260
vt 0.300353 0.447828
vt 0.206555 0.979411
vt 0.237752 0.448234
vt 0.376823 0.980993
vt 0.339242 0.448450
vn 0.240354 0.000000 0.970685
vn 0.240354 0.000000 0.970685
vn 0.240354 0.000000 0.970685
vn 0.240354 0.000000 0.970685
vn 0.970083 0.035231 -0.240203
vn 0.970083 0.035231 -0.240203
vn 0.970083 0.035231 -0.240203
vn 0.970083 0.035231 -0.240203
vn -0.970083 0.035231 0.240203
vn -0.970083 0.035231 0.240203
vn -0.970083 0.035231 0.240203
vn -0.970083 0.035231 0.240203
s off
g DonutStand DonutStand1
usemtl initialShadingGroup
f 1/1/1 2/2/2 4/3/3 3/4/4
f 2/2/5 8/5/6 6/6/7 4/3/8
f 7/7/9 1/1/10 3/4/11 5/8/12
g default
v -20.574729 4.669648 -5.562577
v -16.723998 4.288101 -7.098029
v -20.498905 6.076439 -6.197573
v -16.889367 5.976359 -7.746988
v -20.549049 6.027831 -6.311248
v -16.939511 5.927751 -7.860664
v -20.624872 4.621040 -5.676253
v -16.774142 4.239493 -7.211704
vt 0.478218 0.576363
vt 0.965106 0.576330
vt 0.531873 0.631424
vt 0.991088 0.631392
vt 0.531775 0.594653
vt 0.990991 0.594621
vt 0.478120 0.539593
vt 0.965008 0.539559
vt 0.090691 0.937998
vt 0.937324 0.643576
vt 0.973387 0.993086
vt 0.008131 0.642259
vt 0.040093 0.576394
vt 0.039996 0.539623
vt 0.011888 0.594689
vt 0.011985 0.631460
vn 0.375850 0.364340 0.852052
vn 0.375850 0.364340 0.852052
vn 0.375850 0.364340 0.852052
vn 0.375850 0.364340 0.852052
vn -0.121966 0.930917 -0.344263
vn -0.121966 0.930917 -0.344263
vn -0.121966 0.930917 -0.344263
vn -0.121966 0.930917 -0.344263
vn 0.056287 -0.926745 0.371450
vn 0.056287 -0.926745 0.371450
vn 0.056287 -0.926745 0.371450
vn 0.056287 -0.926745 0.371450
vn 0.922197 -0.056715 -0.382540
vn 0.922197 -0.056715 -0.382540
vn 0.922197 -0.056715 -0.382540
vn 0.922197 -0.056715 -0.382540
vn -0.925381 0.196249 0.324279
vn -0.925381 0.196249 0.324279
vn -0.925381 0.196249 0.324279
vn -0.925381 0.196249 0.324279
s off
g DonutStand1 DonutBoard1
usemtl initialShadingGroup
f 9/20/13 10/18/14 12/19/15 11/17/16
f 11/12/17 12/11/18 14/13/19 13/14/20
f 15/15/21 16/16/22 10/10/23 9/9/24
f 10/24/25 16/23/26 14/13/27 12/11/28
f 15/15/29 9/9/30 11/21/31 13/22/32
g default
v -17.141088 -0.380484 -8.188023
v -16.577356 -0.380484 -8.327610
v -16.942487 5.423175 -8.237199
v -16.775956 5.423175 -8.278435
v -17.039084 5.423175 -8.627313
v -16.872552 5.423175 -8.668548
v -17.237685 -0.380484 -8.578138
v -16.673952 -0.380484 -8.717723
vt 0.097237 0.419964
vt 0.165679 0.421640
vt 0.139877 0.975701
vt 0.114340 0.975703
vt 0.221726 0.423770
vt 0.179545 0.976423
vt 0.044421 0.419017
vt 0.073848 0.974346
vn 0.240354 0.000000 0.970685
vn 0.240354 0.000000 0.970685
vn 0.240354 0.000000 0.970685
vn 0.240354 0.000000 0.970685
vn 0.970083 0.035231 -0.240203
vn 0.970083 0.035231 -0.240203
vn 0.970083 0.035231 -0.240203
vn 0.970083 0.035231 -0.240203
vn -0.970083 0.035231 0.240203
vn -0.970083 0.035231 0.240203
vn -0.970083 0.035231 0.240203
vn -0.970083 0.035231 0.240203
s off
g DonutStand1 DonutStand2
usemtl initialShadingGroup
f 17/25/33 18/26/34 20/27/35 19/28/36
f 18/26/37 24/29/38 22/30/39 20/27/40
f 23/31/41 17/25/42 19/28/43 21/32/44
