# This file uses centimeters as units for non-parametric coordinates.

mtllib Hedge.mtl
g default
v -12.756052 0.007075 7.348282
v -11.701470 0.007075 7.346509
v -13.081765 0.997548 7.361608
v -11.580646 1.007076 7.343802
v -13.151287 1.007076 0.122470
v -11.567956 1.007076 0.087000
v -12.002365 0.007075 0.096732
v -13.017191 1.169724 6.668970
v -11.330389 1.174507 6.634257
v -11.702118 0.007075 6.642584
v -11.575541 0.099447 5.866348
v -11.328649 0.981546 5.860817
v -13.028647 0.975666 5.865892
v -11.676312 0.007075 3.598478
v -11.676903 1.289556 3.598491
v -13.083212 1.271368 3.629996
v -11.981802 0.007075 1.014674
v -11.547392 0.820024 1.004942
v -13.263683 0.820024 1.043391
v -12.398550 0.007075 7.362125
v -12.658524 1.007076 0.111431
v -12.637959 0.820024 1.029373
v -12.537868 1.340140 3.617779
v -12.487039 1.233829 5.886767
v -12.469722 1.385749 6.659781
v -12.448868 1.209984 7.590710
v -20.550680 1.007076 7.678662
v -20.606979 1.007076 6.095935
v -20.559086 0.007075 7.442357
v -14.003511 1.174507 7.456281
v -14.053516 1.174507 6.050508
v -14.012291 0.007075 7.209484
v -15.249852 0.007075 7.253504
v -15.291077 0.889175 6.094529
v -15.241073 0.898845 7.500302
v -17.051857 0.007075 7.353544
v -17.094358 1.289556 6.158672
v -17.044353 1.271368 7.564445
v -19.641495 0.007075 7.409717
v -19.689386 0.820024 6.063295
v -19.628361 0.820024 7.778932
v -20.568201 1.007076 7.186087
v -19.650610 0.820024 7.153448
v -17.063745 1.340140 7.019310
v -15.260464 1.141457 6.955166
v -14.022902 1.385749 6.911146
vt 0.684194 0.584786
vt 0.688348 0.492995
vt 0.745905 0.492995
vt 0.863424 0.254339
vt 0.865229 0.157144
vt 0.095261 0.452062
vt 0.094426 0.339288
vt 0.983990 0.160353
vt 0.984171 0.257601
vt 0.172282 0.348211
vt 0.172836 0.433422
vt 0.023822 0.339288
vt 0.867403 0.040093
vt 0.024094 0.435888
vt 0.957904 0.071138
vt 0.399748 0.339288
vt 0.858126 0.539630
vt 0.399747 0.463176
vt 0.947870 0.542055
vt 0.658903 0.339288
vt 0.847692 0.865083
vt 0.659879 0.417819
vt 0.961370 0.868155
vt 0.755881 0.569302
vt 0.845549 0.980501
vt 0.959226 0.983573
vt 0.782469 0.863321
vt 0.794185 0.979113
vt 0.801281 0.538094
vt 0.658830 0.492995
vt 0.750972 0.339288
vt 0.751948 0.435888
vt 0.631937 0.568575
vt 0.806968 0.256963
vt 0.808162 0.155988
vt 0.801431 0.068899
vt 0.574330 0.120003
vt 0.453647 0.561043
vt 0.452922 0.492995
vt 0.555105 0.492995
vt 0.555830 0.582078
vt 0.703330 0.125538
vt 0.700139 0.233751
vt 0.304754 0.589470
vt 0.304135 0.492995
vt 0.571139 0.228216
vt 0.386362 0.111938
vt 0.091398 0.555029
vt 0.090314 0.492995
vt 0.383170 0.220151
vt 0.116714 0.095072
vt 0.014550 0.492995
vt 0.015244 0.569302
vt 0.112673 0.232143
vt 0.021067 0.090969
vt 0.705351 0.056996
vt 0.576352 0.051461
vt 0.017025 0.228039
vt 0.119034 0.016427
vt 0.022894 0.029034
vt 0.388383 0.043396
vn 0.009995 -0.121972 0.992483
vn 0.013203 -0.121628 0.992488
vn 0.151148 -0.105615 0.982853
vn 0.151148 -0.105615 0.982853
vn -0.006893 0.999975 -0.001747
vn -0.000878 0.999998 0.001582
vn 0.209387 0.977332 -0.031296
vn 0.162593 0.986644 -0.009849
vn 0.959485 -0.255056 0.119726
vn 0.960054 -0.251855 0.121926
vn 0.985826 -0.160005 -0.050463
vn 0.985796 -0.160283 -0.050148
vn 0.009367 0.974806 0.222856
vn 0.226440 0.946556 0.229690
vn 0.965057 -0.218575 0.144531
vn 0.965057 -0.218575 0.144531
vn 0.985329 -0.161148 -0.056191
vn 0.985468 -0.159843 -0.057474
vn -0.007771 0.998103 -0.061071
vn 0.084121 0.994621 -0.060431
vn 0.964445 -0.262836 -0.027638
vn 0.964420 -0.262924 -0.027657
vn -0.006329 0.996689 -0.081067
vn 0.016586 0.997051 -0.074924
vn 0.899668 -0.431836 -0.064153
vn 0.899668 -0.431836 -0.064153
vn 0.004471 0.979873 0.199572
vn 0.004471 0.979873 0.199572
vn -0.046363 0.994833 -0.090320
vn 0.004471 0.979873 0.199572
vn -0.164896 0.984463 -0.060343
vn -0.177280 0.982230 -0.061613
vn -0.053579 0.998128 -0.029486
vn -0.037098 0.965486 0.257801
vn -0.106142 -0.132309 0.985509
vn -0.078932 -0.129411 0.988445
vn 0.008756 0.999960 0.001604
vn -0.027342 0.999587 0.008878
vn -0.048155 0.967883 -0.246746
vn 0.003852 0.977843 -0.209305
vn 0.038023 -0.217965 0.975216
vn 0.037979 -0.217935 0.975224
vn 0.018220 -0.182671 0.983005
vn 0.017521 -0.181829 0.983174
vn -0.052608 0.998597 0.006065
vn -0.060782 0.995021 -0.078980
vn 0.053035 -0.244110 0.968296
vn 0.052686 -0.243690 0.968421
vn -0.080976 0.996689 0.007395
vn -0.075136 0.997051 -0.015598
vn 0.040297 -0.280555 0.958992
vn 0.039974 -0.280666 0.958973
vn 0.199495 0.979873 -0.007096
vn 0.199496 0.979873 -0.007096
vn -0.066857 -0.315371 0.946611
vn -0.066857 -0.315371 0.946611
vn -0.089703 0.994833 0.047548
vn 0.199495 0.979873 -0.007096
vn -0.046663 0.988106 0.146523
vn 0.019716 0.947189 0.320068
vn 0.011640 0.936026 0.351738
s 1
g Hedge1
usemtl initialShadingGroup
f 26/1/1 20/2/2 2/3/3 4/24/4
s 2
f 24/4/5 25/5/6 9/8/7 12/9/8
s 3
f 9/6/9 10/7/10 11/10/11 12/11/12
s 2
f 25/5/6 26/13/13 4/15/14 9/8/7
s 3
f 2/12/15 10/7/10 9/6/9 4/14/16
f 12/11/12 11/10/11 14/16/17 15/18/18
s 2
f 23/17/19 24/4/5 12/9/8 15/19/20
s 3
f 15/18/18 14/16/17 17/20/21 18/22/22
s 2
f 22/21/23 23/17/19 15/19/20 18/23/24
s 3
f 18/22/22 17/20/21 7/31/25 6/32/26
s 2
f 21/25/27 22/21/23 18/23/24 6/26/28
f 19/27/29 22/21/23 21/25/27 5/28/30
f 16/29/31 23/17/19 22/21/23 19/27/29
f 13/34/32 24/4/5 23/17/19 16/29/31
f 8/35/33 25/5/6 24/4/5 13/34/32
f 3/36/34 26/13/13 25/5/6 8/35/33
s 1
f 1/30/35 20/2/2 26/1/1 3/33/36
s 2
f 45/37/37 46/42/38 31/43/39 34/46/40
s 1
f 35/38/41 33/39/42 32/40/43 30/41/44
s 2
f 46/42/38 8/35/33 13/34/32 31/43/39
s 1
f 30/41/44 32/40/43 1/30/35 3/33/36
s 2
f 44/47/45 45/37/37 34/46/40 37/50/46
s 1
f 38/44/47 36/45/48 33/39/42 35/38/41
s 2
f 43/51/49 44/47/45 37/50/46 40/54/50
s 1
f 41/48/51 39/49/52 36/45/48 38/44/47
s 2
f 42/55/53 43/51/49 40/54/50 28/58/54
s 1
f 29/52/55 39/49/52 41/48/51 27/53/56
s 2
f 41/59/57 43/51/49 42/55/53 27/60/58
f 38/61/59 44/47/45 43/51/49 41/59/57
f 35/57/60 45/37/37 44/47/45 38/61/59
f 30/56/61 46/42/38 45/37/37 35/57/60
f 3/36/34 8/35/33 46/42/38 30/56/61
