# This file uses centimeters as units for non-parametric coordinates.

mtllib Blackboard.mtl
g default
v -50.527790 3.579190 1.201181
v -23.029663 3.579190 1.201181
v -49.116409 11.141965 1.201181
v -21.798382 12.124134 1.273111
v -49.116409 11.141965 0.487965
v -21.798382 12.124134 0.559894
v -50.527790 3.579190 0.487965
v -23.029663 3.579190 0.487965
v -50.527790 4.006438 1.201181
v -23.029663 4.006438 1.201181
v -23.029663 4.006438 0.487965
v -50.527790 4.006438 0.487965
v -50.527790 3.579190 1.939010
v -23.029663 3.579190 1.939010
v -23.029663 4.006438 1.939010
v -50.527790 4.006438 1.939010
v -50.077911 3.579190 1.201181
v -50.077911 3.579190 0.487965
v -48.666531 11.141965 0.487965
v -48.666531 11.141965 1.201181
v -50.077911 4.006438 1.201181
v -50.077911 4.006438 1.939010
v -50.077911 3.579190 1.939010
v -23.458065 3.579190 0.487965
v -23.458065 3.579190 1.201181
v -23.458065 3.579190 1.939010
v -23.458065 4.006438 1.939010
v -23.458065 4.006438 1.201181
v -22.226784 12.124134 1.273111
v -22.226784 12.124134 0.559894
v -49.116409 10.743668 0.487965
v -21.798382 11.725838 0.559894
v -21.798382 11.725840 1.273111
v -22.226784 11.725840 1.273111
v -48.666531 10.743668 1.201181
v -49.116409 10.743670 1.201181
v -22.226784 11.725840 1.105974
v -48.666531 10.743668 1.034044
v -50.077911 4.006438 1.034044
v -23.458065 4.006438 1.034044
v -50.527790 3.579190 1.868389
v -50.077911 3.579190 1.868388
v -23.458065 3.579190 1.868389
v -23.029663 3.579190 1.868389
v -23.029663 4.006438 1.868389
v -23.458065 4.006438 1.868388
v -50.077911 4.006438 1.868389
v -50.527790 4.006438 1.868389
v -23.458065 3.904559 1.868388
v -50.077911 3.904559 1.868389
v -23.458065 3.904559 1.201181
v -50.077911 3.904559 1.201181
vt 0.011310 0.153379
vt 0.988527 0.153380
vt 0.023695 0.496328
vt 0.983348 0.085857
vt 0.017861 0.132795
vt 0.983348 0.132795
vt 0.015444 0.244490
vt 0.984556 0.244490
vt 0.015444 0.304493
vt 0.984556 0.304493
vt 0.012418 0.346269
vt 0.989146 0.346269
vt 0.998306 0.436945
vt 0.023695 0.436945
vt 0.616837 0.679003
vt 0.061111 0.423840
vt 0.061111 0.346269
vt 0.943356 0.436945
vt 0.757998 0.604612
vt 0.988527 0.229637
vt 0.599828 0.607495
vt 0.988548 0.601817
vt 0.027297 0.153379
vt 0.027155 0.304493
vt 0.027155 0.244490
vt 0.033613 0.132795
vt 0.033613 0.085857
vt 0.994952 0.649661
vt 0.972545 0.601817
vt 0.027297 0.229637
vt 0.979026 0.244490
vt 0.973303 0.153379
vt 0.979026 0.304493
vt 0.973303 0.229637
vt 0.025580 0.601814
vt 0.993352 0.330037
vt 0.968348 0.085857
vt 0.968348 0.132795
vt 0.074921 0.436945
vt 0.943752 0.346269
vt 0.943752 0.423840
vt 0.740216 0.071650
vt 0.480324 0.071650
vt 0.074921 0.496328
vt 0.740216 0.010605
vt 0.480324 0.010605
vt 0.274478 0.010605
vt 0.975032 0.010605
vt 0.744486 0.604612
vt 0.027297 0.222338
vt 0.973303 0.222338
vt 0.586873 0.677621
vt 0.010344 0.596207
vt 0.206659 0.650045
vt 0.975727 0.524910
vt 0.744486 0.679003
vt 0.961080 0.572753
vt 0.206659 0.616744
vt 0.993349 0.318271
vt 0.994952 0.618539
vt 0.939910 0.958100
vt 0.104675 0.927181
vt 0.060089 0.715091
vt 0.901014 0.715091
vt 0.037021 0.698502
vt 0.037021 0.683158
vt 0.922725 0.683158
vt 0.922725 0.698502
vt 0.022053 0.698502
vt 0.037021 0.698502
vt 0.083981 0.940456
vt 0.069013 0.940456
vt 0.022053 0.683158
vt 0.022053 0.698502
vt 0.936979 0.683158
vt 0.936979 0.698502
vt 0.977947 0.975729
vt 0.963693 0.975729
vt 0.922725 0.698502
vt 0.936979 0.698502
vt 0.963693 0.990032
vt 0.977947 0.990032
vt 0.083981 0.954760
vt 0.069013 0.954760
vt 0.012418 0.423839
vt 0.464484 0.607495
vt 0.998306 0.496328
vt 0.943356 0.496328
vt 0.017861 0.085857
vt 0.989146 0.423840
vt 0.018827 0.318516
vt 0.007902 0.616744
vt 0.274478 0.071650
vt 0.025621 0.543229
vt 0.011310 0.222338
vt 0.011310 0.229637
vt 0.616837 0.604612
vt 0.988527 0.222338
vt 0.599828 0.677621
vt 0.464484 0.677621
vt 0.988552 0.596209
vt 0.757998 0.679003
vt 0.988590 0.543232
vt 0.586873 0.607495
vt 0.010340 0.601814
vt 0.010381 0.543229
vt 0.015387 0.071650
vt 0.975032 0.071650
vt 0.015387 0.010605
vt 0.018830 0.330282
vt 0.005116 0.502645
vt 0.975855 0.513274
vt 0.972549 0.596209
vt 0.004989 0.514281
vt 0.961080 0.547265
vt 0.783744 0.618851
vt 0.972586 0.543232
vt 0.783744 0.649973
vt 0.032910 0.572753
vt 0.032910 0.547265
vt 0.007902 0.650045
vt 0.025584 0.596207
vn -0.001268 -0.004744 0.999988
vn -0.001268 -0.004744 0.999988
vn -0.001268 -0.004744 0.999988
vn -0.001268 -0.004744 0.999988
vn -0.036501 0.999334 0.000000
vn -0.036503 0.999334 0.000000
vn -0.036530 0.999333 0.000000
vn -0.036532 0.999333 0.000000
vn 0.000000 -1.000000 0.000000
vn 0.000000 -1.000000 0.000000
vn 0.000000 -1.000000 0.000000
vn 0.000000 -1.000000 0.000000
vn 0.988764 -0.149487 0.000000
vn 0.988777 -0.149397 0.000000
vn 0.988685 -0.150006 0.000000
vn 0.988698 -0.149921 0.000000
vn -0.981143 0.193282 -0.000000
vn -0.981143 0.193282 -0.000000
vn -0.980994 0.194037 -0.000000
vn -0.980994 0.194037 -0.000000
vn 0.000000 0.000000 1.000000
vn 0.000000 0.000000 1.000000
vn 0.000000 0.000000 1.000000
vn 0.000000 0.000000 1.000000
vn 1.000000 0.000000 0.000000
vn 1.000000 0.000000 0.000000
vn -1.000000 0.000000 0.000000
vn -1.000000 0.000000 0.000000
vn 0.000000 -1.000000 0.000000
vn 0.000000 -1.000000 0.000000
vn 0.000000 -1.000000 0.000000
vn 0.000000 -1.000000 0.000000
vn 1.000000 0.000000 0.000000
vn 1.000000 0.000000 0.000000
vn 1.000000 0.000000 0.000000
vn 1.000000 0.000000 0.000000
vn 0.000000 1.000000 0.000000
vn 0.000000 1.000000 0.000000
vn 0.000000 1.000000 0.000000
vn 0.000000 1.000000 0.000000
vn -1.000000 0.000000 0.000000
vn -1.000000 0.000000 0.000000
vn -1.000000 0.000000 0.000000
vn -1.000000 0.000000 0.000000
vn 0.000000 -1.000000 0.000000
vn 0.000000 -1.000000 0.000000
vn 0.000000 1.000000 0.000000
vn 0.000000 1.000000 0.000000
vn 0.000000 0.000000 1.000000
vn 0.000000 0.000000 1.000000
vn -0.002136 0.000000 0.999998
vn 0.000000 0.000000 1.000000
vn 0.000000 1.000000 0.000000
vn 0.000000 1.000000 0.000000
vn 0.000000 0.000000 1.000000
vn 0.000000 0.000000 1.000000
vn 0.000000 -1.000000 0.000000
vn 0.000000 -1.000000 0.000000
vn 0.000000 -1.000000 0.000000
vn 0.000000 -1.000000 0.000000
vn 0.000000 -1.000000 0.000000
vn 0.000000 -1.000000 0.000000
vn 0.000000 0.000000 1.000000
vn 0.000000 0.000000 1.000000
vn 0.000000 1.000000 0.000000
vn 0.000000 1.000000 0.000000
vn 0.000000 -0.008812 0.999961
vn -0.002010 -0.002325 0.999995
vn 0.000000 -0.009318 0.999957
vn 0.000000 -0.009318 0.999957
vn 0.000000 1.000000 0.000000
vn 0.000000 1.000000 0.000000
vn 1.000000 0.000000 0.000000
vn 1.000000 0.000000 0.000000
vn -0.002676 0.000000 0.999996
vn 0.000000 0.000000 1.000000
vn -0.002676 0.000000 0.999996
vn 0.000000 0.000000 1.000000
vn -1.000000 0.000000 0.000000
vn -1.000000 0.000000 0.000000
vn 0.037122 -0.999311 0.000000
vn 0.037122 -0.999311 0.000000
vn 0.037122 -0.999311 0.000000
vn 0.037122 -0.999311 0.000000
vn 0.978754 -0.205039 0.000000
vn 0.978754 -0.205039 0.000000
vn 0.978754 -0.205039 0.000000
vn 0.978754 -0.205039 0.000000
vn 0.000000 1.000000 0.000000
vn 0.000000 1.000000 0.000000
vn 0.000000 1.000000 0.000000
vn 0.000000 1.000000 0.000000
vn -0.987517 0.157514 0.000000
vn -0.987517 0.157514 0.000000
vn -0.987517 0.157514 0.000000
vn -0.987517 0.157514 0.000000
vn 0.000000 -1.000000 0.000000
vn 0.000000 -1.000000 0.000000
vn 0.000000 -1.000000 0.000000
vn 0.000000 -1.000000 0.000000
vn 1.000000 0.000000 0.000000
vn 1.000000 0.000000 0.000000
vn 0.000000 1.000000 0.000000
vn 0.000000 1.000000 0.000000
vn 0.000000 1.000000 0.000000
vn 0.000000 1.000000 0.000000
vn 0.000000 1.000000 0.000000
vn 0.000000 1.000000 0.000000
vn 0.000000 1.000000 0.000000
vn 0.000000 1.000000 0.000000
vn -1.000000 0.000000 0.000000
vn -1.000000 0.000000 0.000000
vn -0.000000 0.000000 -1.000000
vn -0.000000 0.000000 -1.000000
vn -0.000000 0.000000 -1.000000
vn -0.000000 0.000000 -1.000000
vn -1.000000 0.000000 0.000000
vn -1.000000 0.000000 0.000000
vn -1.000000 0.000000 0.000000
vn -1.000000 0.000000 0.000000
vn 0.000000 0.000000 1.000000
vn 0.000000 0.000000 1.000000
vn 0.000000 0.000000 1.000000
vn 0.000000 0.000000 1.000000
vn 1.000000 0.000000 0.000000
vn 1.000000 0.000000 0.000000
vn 1.000000 0.000000 0.000000
vn 1.000000 0.000000 0.000000
s off
g Chalkboard
usemtl initialShadingGroup
f 37/61/1 38/62/2 39/63/3 40/64/4
s 1
f 19/26/5 20/27/6 29/37/7 30/38/8
s 2
f 17/24/9 18/25/10 24/31/11 25/33/12
s 3
f 10/16/13 11/17/14 32/40/15 33/41/16
s 4
f 12/18/17 9/88/18 36/44/19 31/39/20
s 5
f 22/65/21 23/66/22 26/67/23 27/68/24
s 3
f 2/85/25 8/11/26 11/17/14 10/16/13
s 4
f 7/13/27 1/87/28 9/88/18 12/18/17
s 6
f 23/30/29 42/50/30 43/51/31 26/34/32
s 7
f 44/52/33 45/104/34 15/21/35 14/99/36
s 8
f 27/35/37 46/122/38 47/113/39 22/29/40
s 9
f 48/56/41 41/49/42 13/19/43 16/102/44
s 2
f 7/7/45 18/25/10 17/24/9 1/9/46
s 1
f 3/89/47 20/27/6 19/26/5 5/5/48
s 10
f 9/69/49 21/70/50 35/71/51 36/72/52
s 8
f 22/29/40 47/113/39 48/101/53 16/22/54
s 5
f 13/73/55 23/66/22 22/65/21 16/74/56
s 6
f 41/95/57 42/50/30 23/30/29 13/96/58
s 2
f 25/33/12 24/31/11 8/8/59 2/10/60
s 6
f 26/34/32 43/51/31 44/98/61 14/20/62
s 5
f 27/68/24 26/67/23 14/75/63 15/76/64
s 8
f 45/53/65 46/122/38 27/35/37 15/105/66
s 10
f 33/77/67 34/78/68 28/79/69 10/80/70
s 1
f 30/38/8 29/37/7 4/4/71 6/6/72
s 3
f 33/41/16 32/40/15 6/12/73 4/90/74
s 10
f 29/81/75 34/78/68 33/77/67 4/82/76
f 20/83/77 35/71/51 34/78/68 29/81/75
f 36/72/52 35/71/51 20/83/77 3/84/78
s 4
f 31/39/20 36/44/19 3/3/79 5/14/80
s off
f 34/42/81 35/43/82 38/46/83 37/45/84
f 35/43/85 21/93/86 39/47/87 38/46/88
f 21/93/89 28/107/90 40/109/91 39/47/92
f 28/108/93 34/42/94 37/45/95 40/48/96
s 6
f 1/1/97 17/23/98 42/50/30 41/95/57
f 43/51/31 42/50/30 17/23/98 25/32/99
f 44/98/61 43/51/31 25/32/99 2/2/100
s 7
f 2/100/101 10/86/102 45/104/34 44/52/33
s 8
f 10/106/103 28/94/104 46/122/38 45/53/65
s off
f 50/57/105 49/119/106 51/120/107 52/115/108
s 8
f 48/101/53 47/113/39 21/117/109 9/103/110
s 9
f 9/15/111 1/97/112 41/49/42 48/56/41
s off
f 47/55/113 46/114/114 49/111/115 50/112/116
f 46/54/117 28/121/118 51/92/119 49/58/120
f 28/36/121 21/110/122 52/91/123 51/59/124
f 21/28/125 47/118/126 50/116/127 52/60/128
