# This file uses centimeters as units for non-parametric coordinates.

mtllib Book1.mtl
g default
v -0.160188 1.489090 0.437181
v 0.160188 1.489090 0.437181
v -0.160188 2.520133 0.500000
v 0.160188 2.520133 0.500000
v -0.160188 2.425781 -0.533772
v 0.160188 2.425781 -0.533772
v -0.160188 1.489090 -0.587811
v 0.160188 1.489090 -0.587811
v 0.148248 1.489090 0.437181
v 0.148248 1.489090 -0.587811
v 0.148248 2.425781 -0.533772
v 0.148248 2.520133 0.500000
v -0.148403 1.489090 0.437181
v -0.148403 1.489090 -0.587811
v -0.148403 2.425781 -0.533772
v -0.148403 2.520133 0.500000
v -0.160188 2.520133 0.480365
v -0.148403 2.520133 0.480365
v 0.148248 2.520133 0.480365
v 0.160188 2.520133 0.480365
v 0.160188 1.489090 0.417546
v 0.148248 1.489090 0.417546
v -0.148403 1.489090 0.417546
v -0.160188 1.489090 0.417546
v 0.148003 1.521546 0.404017
v -0.148157 1.521546 0.404017
v -0.148157 1.521546 -0.537702
v 0.148003 1.521546 -0.537702
v -0.148157 2.393325 -0.483663
v 0.148003 2.393325 -0.483663
v -0.148157 2.487677 0.466836
v 0.148003 2.487677 0.466836
vt 0.404549 0.613626
vt 0.418413 0.613038
vt 0.404549 0.946517
vt 0.418413 0.947060
vt 0.433669 0.614887
vt 0.440542 0.823943
vt 0.440542 0.819155
vt 0.849914 0.819155
vt 0.851660 0.807149
vt 0.851660 0.812032
vt 0.399560 0.574792
vt 0.430809 0.043447
vt 0.930906 0.043447
vt 0.904025 0.526168
vt 0.414552 0.613038
vt 0.441725 0.812032
vt 0.441725 0.807149
vt 0.854066 0.681020
vt 0.414552 0.947060
vt 0.408347 0.613626
vt 0.861966 0.625471
vt 0.441725 0.685839
vt 0.441725 0.681020
vt 0.408347 0.946517
vt 0.398227 0.946517
vt 0.434897 0.630767
vt 0.643610 0.954062
vt 0.127228 0.954062
vt 0.847992 0.942894
vt 0.424747 0.947060
vt 0.440542 0.947619
vt 0.424747 0.613038
vt 0.127656 0.970317
vt 0.643182 0.970317
vt 0.398227 0.613626
vt 0.440542 0.942894
vt 0.127228 0.992215
vt 0.643610 0.992215
vt 0.441258 0.012723
vt 0.994707 0.012723
vt 0.967122 0.031233
vt 0.448706 0.031233
vt 0.643182 0.975960
vt 0.127656 0.975960
vt 0.014754 0.016303
vt 0.118540 0.016331
vt 0.118454 0.346348
vt 0.014667 0.346321
vt 0.118373 0.652442
vt 0.014586 0.652415
vt 0.118285 0.987174
vt 0.014498 0.987147
vt 0.994707 0.012723
vt 0.441258 0.012723
vt 0.448706 0.031233
vt 0.967122 0.031233
vt 0.964958 0.546942
vt 0.937374 0.528432
vt 0.964958 0.546942
vt 0.937374 0.528432
vt 0.406676 0.600754
vt 0.414124 0.582243
vt 0.406676 0.600754
vt 0.414124 0.582243
vt 0.930906 0.043447
vt 0.430809 0.043447
vt 0.399560 0.574792
vt 0.904025 0.526168
vt 0.127267 0.948524
vt 0.127267 0.011885
vt 0.390010 0.011885
vt 0.390010 0.948524
vt 0.432668 0.947619
vt 0.432668 0.942894
vt 0.432668 0.823943
vt 0.432668 0.819155
vt 0.433695 0.807149
vt 0.433695 0.812032
vt 0.433695 0.685839
vt 0.433695 0.681020
vt 0.849914 0.823943
vt 0.433670 0.607930
vt 0.980291 0.614975
vt 0.980293 0.608018
vt 0.861965 0.630835
vt 0.854066 0.685839
vt 0.847992 0.947619
vt 0.434898 0.625402
vn 0.000000 -0.060815 0.998149
vn 0.000000 -0.060815 0.998149
vn 0.000000 -0.060815 0.998149
vn 0.000000 -0.060815 0.998149
vn -0.000000 0.995700 -0.092637
vn -0.000000 0.998083 -0.061890
vn -0.000000 0.995861 -0.090892
vn -0.000000 0.995700 -0.092637
vn 0.000000 0.057596 -0.998340
vn 0.000000 0.057596 -0.998340
vn 0.000000 0.057596 -0.998340
vn 0.000000 0.057596 -0.998340
vn 0.000000 -1.000000 0.000000
vn 0.000000 -1.000000 0.000000
vn 0.000000 -1.000000 0.000000
vn 0.000000 -1.000000 0.000000
vn 1.000000 0.000000 0.000000
vn 1.000000 0.000000 0.000000
vn 1.000000 0.000000 0.000000
vn 1.000000 0.000000 0.000000
vn -1.000000 0.000000 0.000000
vn -1.000000 0.000000 0.000000
vn -1.000000 0.000000 0.000000
vn -1.000000 0.000000 0.000000
vn 0.000000 -1.000000 0.000000
vn 0.000000 -1.000000 0.000000
vn 0.000000 -1.000000 0.000000
vn 0.000000 -1.000000 0.000000
vn 0.000000 0.061868 -0.998084
vn 0.000000 0.061868 -0.998084
vn 0.000000 0.061868 -0.998084
vn 0.000000 0.061868 -0.998084
vn 0.000000 0.995109 -0.098781
vn 0.000000 0.995109 -0.098781
vn 0.000000 0.995109 -0.098781
vn 0.000000 0.995109 -0.098781
vn 0.000000 -0.060815 0.998149
vn 0.000000 -0.060815 0.998149
vn 0.000000 -1.000000 0.000000
vn 0.000000 -1.000000 0.000000
vn 0.000000 -1.000000 0.000000
vn 0.000000 -1.000000 0.000000
vn 0.000000 0.057596 -0.998340
vn 0.000000 0.057596 -0.998340
vn 0.000000 0.057596 -0.998340
vn 0.000000 0.057596 -0.998340
vn 0.000000 0.995861 -0.090892
vn 0.000000 0.998099 -0.061631
vn 0.000000 0.995700 -0.092637
vn 0.000000 0.995700 -0.092637
vn 0.000000 -0.060815 0.998149
vn 0.000000 -0.060815 0.998149
vn 0.000000 1.000000 0.000000
vn 0.000000 1.000000 0.000000
vn 0.000000 1.000000 0.000000
vn 0.000000 1.000000 0.000000
vn 1.000000 0.000000 0.000000
vn 1.000000 0.000000 0.000000
vn 0.000000 -1.000000 0.000000
vn 0.000000 -1.000000 0.000000
vn 0.000000 -1.000000 0.000000
vn 0.000000 -1.000000 0.000000
vn -1.000000 -0.000000 0.000000
vn -1.000000 -0.000000 0.000000
vn 0.000000 -0.384751 -0.923020
vn 0.000000 -0.384751 -0.923020
vn 0.000000 -0.384751 -0.923020
vn 0.000000 -0.384751 -0.923020
vn 0.999971 -0.007568 0.000000
vn 0.999971 -0.007568 0.000000
vn 0.999971 -0.007568 0.000000
vn 0.999971 -0.007568 0.000000
vn -0.999971 -0.007568 0.000000
vn -0.999971 -0.007568 0.000000
vn -0.999971 -0.007568 0.000000
vn -0.999971 -0.007568 0.000000
vn 0.999988 0.000293 -0.004902
vn 0.999988 0.000293 -0.004902
vn 0.999988 0.000293 -0.004902
vn 0.999988 0.000293 -0.004902
vn -0.999988 0.000293 -0.004902
vn -0.999988 0.000293 -0.004902
vn -0.999988 0.000293 -0.004902
vn -0.999988 0.000293 -0.004902
vn 0.999974 0.007179 -0.000690
vn 0.999974 0.007179 -0.000690
vn 0.999974 0.007179 -0.000690
vn 0.999974 0.007179 -0.000690
vn 0.000000 0.384752 -0.923020
vn 0.000000 0.384752 -0.923020
vn 0.000000 0.384752 -0.923020
vn 0.000000 0.384752 -0.923020
vn -0.999974 0.007179 -0.000690
vn -0.999974 0.007179 -0.000690
vn -0.999974 0.007179 -0.000690
vn -0.999974 0.007179 -0.000690
s 1
g Book1
usemtl initialShadingGroup
f 12/19/1 9/15/2 2/2/3 4/4/4
s 2
f 11/81/5 19/6/6 20/7/7 6/8/8
s off
f 10/83/9 11/5/10 6/82/11 8/84/12
s 3
f 21/16/13 22/17/14 10/9/15 8/10/16
s 4
f 20/11/17 21/12/18 8/13/19 6/14/20
s 5
f 7/65/21 24/66/22 17/67/23 5/68/24
s off
f 25/45/25 26/46/26 27/47/27 28/48/28
f 27/47/29 29/49/30 30/50/31 28/48/32
f 29/49/33 31/51/34 32/52/35 30/50/36
s 1
f 16/69/37 13/70/38 9/71/2 12/72/1
s 3
f 7/18/39 14/86/40 23/22/41 24/23/42
s off
f 5/26/43 15/88/44 14/21/45 7/85/46
s 2
f 17/31/47 18/36/48 15/29/49 5/87/50
s 1
f 1/1/51 13/20/38 16/24/37 3/3/52
s 2
f 3/73/53 16/74/54 18/36/48 17/31/47
f 19/6/6 18/36/48 16/74/54 12/75/55
f 20/7/7 19/6/6 12/75/55 4/76/56
s 4
f 2/2/57 21/32/18 20/30/17 4/4/58
s 3
f 9/77/59 22/17/14 21/16/13 2/78/60
f 13/79/61 23/22/41 22/17/14 9/77/59
f 24/23/42 23/22/41 13/79/61 1/80/62
s 5
f 17/25/23 24/35/22 1/1/63 3/3/64
s off
f 22/27/65 23/28/66 26/33/67 25/34/68
f 23/39/69 14/40/70 27/41/71 26/42/72
f 10/53/73 22/54/74 25/55/75 28/56/76
f 14/40/77 15/57/78 29/58/79 27/41/80
f 11/59/81 10/53/82 28/56/83 30/60/84
f 15/57/85 18/61/86 31/62/87 29/58/88
f 18/37/89 19/38/90 32/43/91 31/44/92
f 19/63/93 11/59/94 30/60/95 32/64/96
