# This file uses centimeters as units for non-parametric coordinates.

mtllib DonutBagOpen.mtl
g default
v -0.691039 2.015013 -5.250838
v -0.691039 2.890535 -5.250838
v -0.691039 2.890535 -4.397504
v -0.691039 2.015013 -4.397504
v -0.739737 1.970155 -4.824172
v 0.686314 2.015903 -5.240475
v 0.686314 2.869051 -5.240475
v 0.686314 2.869052 -4.369695
v 0.686314 2.015903 -4.408945
v 0.686314 1.972191 -4.824710
v -0.784793 2.415833 -4.823061
v 0.723952 2.415833 -4.823061
v -0.652542 3.255746 -5.118389
v -0.683398 3.262770 -5.028388
v -0.652542 3.269877 -4.787986
v 0.668392 3.224670 -4.827783
v 0.669830 3.224718 -5.112508
v -0.691039 3.064380 -5.194634
v -0.759107 2.819219 -4.841204
v -0.696000 3.182479 -4.519462
v 0.691276 3.153996 -4.525836
v 0.723952 2.819219 -4.920251
v 0.686314 3.038455 -5.186426
v -0.691039 2.496054 -4.351188
v 0.686314 2.484651 -4.363812
v -0.691039 2.472724 -5.339258
v 0.686314 2.461918 -5.326633
v 0.633198 1.954957 -5.272258
v 0.633198 2.436837 -5.365344
v 0.633198 2.876709 -5.272258
v 0.633198 3.059734 -5.211595
v 0.608586 3.240133 -5.130538
v 0.637777 3.182697 -4.506289
v 0.633198 2.876709 -4.334612
v 0.633198 2.461398 -4.325101
v 0.633198 1.954957 -4.373861
v 0.629984 1.907730 -4.823061
v -0.652361 1.954957 -5.272258
v -0.652360 2.436837 -5.365344
v -0.652360 2.876709 -5.272258
v -0.652360 3.059734 -5.211595
v -0.611290 3.261223 -5.130538
v -0.657044 3.182697 -4.506289
v -0.652360 2.876709 -4.373861
v -0.652360 2.461398 -4.325101
v -0.652361 1.954957 -4.373861
v -0.701096 1.907731 -4.823061
v -0.602060 3.371576 -4.772642
v -0.642145 3.371574 -4.612818
v 0.637421 3.371574 -4.618698
v -0.602060 3.371576 -5.055185
v -0.630521 3.371576 -5.011801
v 0.616313 3.371575 -4.872560
v 0.617640 3.371575 -5.049760
v 0.561150 3.371575 -5.066391
v -0.606213 3.371575 -4.600668
v -0.564012 3.371576 -5.066391
v 0.588075 3.371575 -4.600668
v -0.531701 3.635119 -4.787522
v -0.567082 3.592035 -4.602098
v 0.562358 3.662129 -4.644432
v -0.531701 3.635118 -5.029707
v -0.556822 3.635118 -4.991413
v 0.543727 3.605382 -4.852172
v 0.544898 3.605382 -5.024920
v 0.495036 3.605383 -5.039598
v -0.535366 3.592035 -4.591373
v -0.498116 3.635118 -5.039598
v 0.518802 3.662129 -4.628517
v 0.006847 3.626363 -5.039598
v 0.008071 3.371576 -5.066391
v 0.008950 3.250499 -5.130538
v 0.001275 3.059734 -5.211595
v 0.001275 2.876709 -5.272258
v 0.001275 2.436837 -5.365344
v 0.001275 1.954957 -5.272258
v -0.024315 1.907731 -4.823061
v 0.001275 1.954957 -4.373861
v 0.001275 2.461398 -4.325101
v 0.001275 2.876709 -4.373861
v 0.001301 3.182697 -4.467040
v 0.001017 3.371575 -4.564581
v 0.000620 3.622078 -4.628517
v -0.506145 3.634731 -4.783311
v -0.539818 3.593726 -4.611503
v 0.517362 3.606430 -4.854257
v 0.535094 3.660437 -4.653586
v -0.506145 3.634730 -5.020261
v -0.530053 3.634730 -4.983816
v 0.518476 3.606430 -5.015705
v 0.471022 3.606431 -5.029675
v -0.509633 3.593726 -4.601296
v 0.006403 3.626397 -5.029675
v 0.493640 3.660437 -4.638441
v -0.474181 3.634730 -5.029675
v 0.000476 3.622320 -4.638441
v -0.534696 3.406067 -4.922819
v -0.570278 3.362739 -4.639192
v 0.546817 3.376162 -4.993356
v 0.565554 3.433230 -4.644411
v -0.534696 3.406066 -5.031867
v -0.559960 3.406066 -4.993356
v 0.547995 3.376162 -5.027052
v 0.497851 3.376163 -5.041814
v -0.538382 3.362739 -4.628407
v 0.006899 3.397261 -5.041814
v 0.521751 3.433230 -4.628407
v -0.500921 3.406066 -5.041814
v 0.000637 3.392953 -4.589157
vt 0.269951 0.753869
vt 0.243505 0.850581
vt 0.267461 0.957176
vt 0.390800 0.865597
vt 0.443544 0.035714
vt 0.443544 0.177108
vt 0.887821 0.309094
vt 0.887821 0.190196
vt 0.904229 0.196853
vt 0.904229 0.306902
vt 0.460591 0.184467
vt 0.460591 0.053597
vt 0.887821 0.045209
vt 0.745123 0.711929
vt 0.742317 0.633358
vt 0.904229 0.062657
vt 0.511225 0.960161
vt 0.525824 0.848620
vt 0.513715 0.756854
vt 0.389215 0.969086
vt 0.253530 0.567748
vt 0.278446 0.671254
vt 0.254108 0.765874
vt 0.134554 0.660972
vt 0.005343 0.766600
vt 0.003402 0.677336
vt 0.015978 0.568442
vt 0.134724 0.557944
vt 0.334555 0.668210
vt 0.460591 0.353636
vt 0.308825 0.669526
vt 0.286501 0.713697
vt 0.443544 0.359881
vt 0.435645 0.412813
vt 0.757219 0.633004
vt 0.386765 0.771863
vt 0.759686 0.706300
vt 0.479707 0.688635
vt 0.455301 0.408290
vt 0.905762 0.388478
vt 0.889236 0.396694
vt 0.443544 0.306176
vt 0.460591 0.303929
vt 0.692617 0.309094
vt 0.030957 0.035714
vt 0.030957 0.177108
vt 0.240735 0.177108
vt 0.240735 0.035714
vt 0.240735 0.306176
vt 0.692625 0.396694
vt 0.489259 0.396694
vt 0.490706 0.309094
vt 0.490706 0.190196
vt 0.692617 0.190196
vt 0.692617 0.045209
vt 0.030957 0.306176
vt 0.030957 0.359881
vt 0.240735 0.359881
vt 0.243198 0.415855
vt 0.044138 0.419002
vt 0.490706 0.045209
vt 0.744455 0.554772
vt 0.759032 0.559704
vt 0.517148 0.713559
vt 0.510877 0.634363
vt 0.403248 0.667400
vt 0.136451 0.848803
vt 0.050143 0.832642
vt 0.162592 0.754569
vt 0.238782 0.805259
vt 0.217791 0.848577
vt 0.453576 0.644398
vt 0.477225 0.396632
vt 0.478758 0.313052
vt 0.407921 0.643838
vt 0.478758 0.200118
vt 0.478758 0.062402
vt 0.076819 0.883093
vt 0.149342 0.882881
vt 0.018543 0.053335
vt 0.339603 0.643002
vt 0.327210 0.642850
vt 0.018543 0.187638
vt 0.018543 0.310234
vt 0.018543 0.361244
vt 0.030899 0.417395
vt 0.420421 0.451382
vt 0.628510 0.633840
vt 0.633088 0.713612
vt 0.438551 0.451382
vt 0.242916 0.451382
vt 0.059312 0.451382
vt 0.047100 0.451382
vt 0.504961 0.450768
vt 0.493861 0.450768
vt 0.889126 0.450767
vt 0.873883 0.450768
vt 0.692537 0.450768
vt 0.199965 0.882734
vt 0.457266 0.593242
vt 0.526846 0.513882
vt 0.404420 0.582588
vt 0.399202 0.519986
vt 0.415205 0.519986
vt 0.242523 0.526142
vt 0.517049 0.513882
vt 0.080460 0.528711
vt 0.069681 0.528711
vt 0.865938 0.533949
vt 0.852484 0.533949
vt 0.905939 0.638430
vt 0.878059 0.692750
vt 0.873047 0.688176
vt 0.899981 0.636445
vt 0.984213 0.101454
vt 0.983265 0.169576
vt 0.976666 0.172476
vt 0.977256 0.106021
vt 0.936126 0.565854
vt 0.932700 0.577323
vt 0.926217 0.575051
vt 0.931324 0.560411
vt 0.991529 0.222683
vt 0.985052 0.225697
vt 0.988198 0.236709
vt 0.984857 0.243934
vt 0.873070 0.694685
vt 0.866929 0.699053
vt 0.971686 0.396274
vt 0.969116 0.396057
vt 0.661579 0.944137
vt 0.664902 0.936408
vt 0.936211 0.556730
vt 0.935259 0.549132
vt 0.767482 0.828470
vt 0.765792 0.826329
vt 0.824371 0.646518
vt 0.862854 0.573048
vt 0.922385 0.224376
vt 0.919888 0.123804
vt 0.868337 0.553513
vt 0.872704 0.541825
vt 0.922069 0.232502
vt 0.923343 0.244786
vt 0.821411 0.653604
vt 0.912677 0.386138
vt 0.625942 0.886875
vt 0.876365 0.533151
vt 0.730234 0.772316
vt 0.692415 0.522483
vt 0.193027 0.937051
vt 0.335237 0.581741
vt 0.346176 0.581875
vt 0.084367 0.950547
vt 0.143676 0.937195
vt 0.654376 0.943910
vt 0.615562 0.895583
vt 0.651170 0.952499
vt 0.516438 0.555114
vt 0.632403 0.554039
vt 0.504061 0.710464
vt 0.498154 0.634225
vt 0.503420 0.557942
vn 0.035758 -0.189545 -0.981221
vn 0.052932 -0.003522 -0.998592
vn 0.577446 0.035957 -0.815637
vn 0.627120 -0.147735 -0.764784
vn 0.019544 0.066426 0.997600
vn 0.042515 -0.023843 0.998811
vn 0.588045 -0.026469 0.808395
vn 0.568862 0.015828 0.822281
vn 0.071781 -0.991981 0.104026
vn 0.084899 -0.990961 0.103870
vn 0.761179 -0.645275 0.065014
vn 0.761179 -0.645275 0.065014
vn 0.082459 -0.991164 -0.103899
vn 0.073258 -0.991875 -0.104008
vn 0.759525 -0.647200 -0.065222
vn 0.759525 -0.647200 -0.065222
vn -0.985735 0.029073 -0.165776
vn -0.983903 0.000000 -0.178701
vn -0.986040 -0.025875 -0.164483
vn -0.999981 -0.003671 0.004909
vn -0.984322 -0.029824 0.173840
vn -0.980828 0.000000 0.194876
vn -0.986214 0.037327 0.161210
vn -0.994929 -0.100581 -0.000207
vn 0.998125 -0.023053 -0.056708
vn 0.997219 0.000000 -0.074534
vn 0.995419 -0.004280 -0.095512
vn 0.999923 -0.010260 0.007017
vn 0.997392 0.010976 0.071338
vn 0.996605 -0.003784 0.082244
vn 0.997817 -0.029283 0.059199
vn 0.996421 -0.084535 -0.000022
vn -0.979321 0.194276 -0.056464
vn -0.978860 0.152197 -0.136638
vn -0.984405 0.096705 -0.146949
vn -0.995906 0.089658 0.011545
vn -0.987294 0.134010 0.085387
vn -0.973409 0.228761 0.011987
vn 0.990610 0.134035 -0.026972
vn 0.998061 0.041157 0.046687
vn 0.999518 0.030725 -0.004501
vn 0.995760 0.073500 -0.055321
vn 0.992024 0.125110 -0.015387
vn 0.476874 0.323412 -0.817310
vn 0.045470 0.358671 -0.932356
vn 0.035009 0.402422 -0.914785
vn 0.432459 0.391723 -0.812116
vn 0.522654 0.407104 0.749065
vn 0.042540 0.402503 0.914430
vn 0.043577 0.402623 0.914328
vn 0.522654 0.407104 0.749065
vn 0.043218 0.313949 -0.948456
vn 0.510751 0.266092 -0.817514
vn 0.032647 -0.095785 0.994866
vn 0.608797 -0.076031 0.789675
vn 0.045618 0.206821 -0.977315
vn 0.524007 0.176336 -0.833260
vn -0.022270 -0.189620 -0.981605
vn -0.039228 -0.004566 -0.999220
vn 0.000000 -0.000000 -1.000000
vn 0.000000 -0.189667 -0.981849
vn 0.000000 0.207036 -0.978333
vn -0.031529 0.206933 -0.977847
vn -0.015775 0.314440 -0.949146
vn -0.021693 0.348795 -0.936948
vn 0.001684 0.353723 -0.935349
vn 0.000000 0.314614 -0.949220
vn 0.003289 0.390760 -0.920487
vn -0.013066 0.383903 -0.923281
vn -0.014042 0.371550 0.928307
vn -0.014118 0.371410 0.928362
vn -0.048953 0.347806 0.936288
vn -0.041087 0.346983 0.936971
vn -0.037327 0.116524 0.992486
vn -0.038974 -0.002355 0.999238
vn -0.006878 -0.010465 0.999922
vn -0.015161 0.093806 0.995475
vn 0.000000 -0.095837 0.995397
vn -0.018996 -0.095819 0.995218
vn -0.066741 -0.991502 0.111667
vn -0.091007 -0.989288 0.114133
vn -0.000000 -0.994519 0.104559
vn -0.000000 -0.994519 0.104559
vn -0.089000 -0.989494 -0.113931
vn -0.067857 -0.991413 -0.111781
vn -0.000000 -0.994519 -0.104559
vn -0.000000 -0.994519 -0.104559
vn -0.642387 -0.145358 -0.752469
vn -0.513737 0.068010 -0.855248
vn -0.423698 0.187536 -0.886177
vn -0.369129 0.289238 -0.883224
vn -0.338678 0.359532 -0.869502
vn -0.316285 0.407149 -0.856851
vn -0.346713 0.362460 0.865108
vn -0.346713 0.362460 0.865108
vn -0.492166 0.101507 0.864563
vn -0.536068 0.036566 0.843383
vn -0.603681 -0.076405 0.793556
vn -0.849528 -0.506431 0.147748
vn -0.849528 -0.506431 0.147748
vn -0.847188 -0.510293 -0.147894
vn -0.847188 -0.510293 -0.147894
vn -0.944181 0.306129 -0.121686
vn -0.944181 0.306129 -0.121686
vn -0.944181 0.306129 -0.121686
vn -0.944181 0.306129 -0.121686
vn 0.963594 0.263936 -0.042705
vn 0.963594 0.263936 -0.042705
vn 0.963594 0.263936 -0.042705
vn 0.963594 0.263936 -0.042705
vn -0.784442 0.494092 -0.374865
vn -0.784442 0.494092 -0.374865
vn -0.784442 0.494092 -0.374865
vn -0.784442 0.494092 -0.374865
vn -0.898886 0.425447 0.104878
vn -0.898886 0.425447 0.104878
vn -0.898886 0.425447 0.104878
vn -0.898886 0.425447 0.104878
vn 0.942490 0.334186 0.005675
vn 0.942490 0.334186 0.005675
vn 0.942490 0.334186 0.005675
vn 0.942490 0.334186 0.005675
vn 0.304877 0.483321 -0.820640
vn 0.304877 0.483322 -0.820640
vn 0.304877 0.483321 -0.820640
vn 0.304877 0.483321 -0.820640
vn -0.280838 0.488202 0.826310
vn -0.280838 0.488203 0.826310
vn -0.280838 0.488203 0.826310
vn -0.280838 0.488203 0.826310
vn 0.004216 0.468760 -0.883316
vn 0.004213 0.468486 -0.883461
vn 0.004353 0.484168 -0.874964
vn 0.004353 0.484168 -0.874964
vn 0.415462 0.465773 0.781311
vn 0.415462 0.465773 0.781311
vn 0.415462 0.465773 0.781311
vn 0.415462 0.465773 0.781311
vn -0.269643 0.558303 -0.784596
vn -0.269643 0.558303 -0.784596
vn -0.269643 0.558303 -0.784596
vn -0.269643 0.558303 -0.784596
vn -0.052826 0.457926 0.887420
vn 0.000030 0.458629 0.888628
vn -0.000029 0.458629 0.888628
vn -0.052826 0.457926 0.887419
vn -0.943983 0.282157 -0.171126
vn -0.943983 0.282157 -0.171126
vn -0.943983 0.282157 -0.171126
vn -0.943983 0.282157 -0.171126
vn 0.956455 0.268142 -0.115301
vn 0.956455 0.268142 -0.115301
vn 0.956455 0.268142 -0.115301
vn 0.956455 0.268142 -0.115301
vn -0.805949 0.266284 -0.528715
vn -0.805949 0.266284 -0.528715
vn -0.805949 0.266284 -0.528715
vn -0.805949 0.266284 -0.528715
vn -0.958426 0.260738 0.115910
vn -0.958426 0.260738 0.115910
vn -0.958426 0.260738 0.115910
vn -0.958426 0.260738 0.115910
vn 0.955109 0.296176 0.006814
vn 0.955109 0.296176 0.006814
vn 0.955109 0.296176 0.006814
vn 0.955109 0.296176 0.006814
vn 0.277462 0.186458 -0.942469
vn 0.277462 0.186458 -0.942469
vn 0.277462 0.186458 -0.942469
vn 0.277462 0.186458 -0.942469
vn -0.319695 0.062875 0.945432
vn -0.319695 0.062875 0.945432
vn -0.319695 0.062875 0.945432
vn -0.319695 0.062875 0.945432
vn 0.001470 0.105794 -0.994387
vn 0.001488 0.105877 -0.994378
vn 0.000835 0.102730 -0.994709
vn 0.000835 0.102730 -0.994709
vn 0.338230 0.169367 0.925697
vn 0.338230 0.169367 0.925697
vn 0.338230 0.169367 0.925697
vn 0.338230 0.169367 0.925697
vn -0.278601 0.165833 -0.945982
vn -0.278601 0.165833 -0.945982
vn -0.278601 0.165833 -0.945982
vn -0.278601 0.165833 -0.945982
vn -0.002119 0.115559 0.993298
vn 0.012807 0.144766 0.989383
vn 0.013430 0.145982 0.989196
vn -0.002119 0.115559 0.993298
vn 0.002202 0.109319 -0.994004
vn 0.002202 0.109319 -0.994004
vn 0.004080 0.453568 -0.891213
vn 0.004080 0.453568 -0.891213
vn 0.054632 0.458009 0.887267
vn 0.054632 0.458009 0.887267
vn 0.025986 0.170446 0.985024
vn 0.025986 0.170446 0.985024
vn -0.001519 0.973461 0.228848
vn -0.001519 0.973461 0.228848
vn -0.001519 0.973461 0.228848
vn -0.001519 0.973461 0.228848
vn 0.043983 0.963211 -0.265122
vn 0.043983 0.963211 -0.265122
vn 0.043983 0.963211 -0.265122
vn 0.043983 0.963211 -0.265122
vn 0.012223 0.999893 0.008017
vn 0.012223 0.999893 0.008017
vn 0.012223 0.999893 0.008017
vn 0.012223 0.999893 0.008017
vn 0.015252 0.999882 -0.001852
vn 0.015252 0.999882 -0.001852
vn 0.015252 0.999882 -0.001852
vn 0.015252 0.999882 -0.001852
vn 0.039698 0.999212 0.000270
vn 0.039698 0.999212 0.000270
vn 0.039698 0.999212 0.000270
vn 0.039698 0.999212 0.000270
vn 0.018117 0.997941 -0.061525
vn 0.018117 0.997941 -0.061525
vn 0.018117 0.997941 -0.061525
vn 0.018117 0.997941 -0.061525
vn -0.030575 0.995434 0.090422
vn -0.030575 0.995434 0.090422
vn -0.030575 0.995434 0.090422
vn -0.030575 0.995434 0.090422
vn 0.042936 0.999077 -0.001559
vn 0.042936 0.999077 -0.001559
vn 0.042936 0.999077 -0.001559
vn 0.042936 0.999077 -0.001559
vn -0.032190 0.995590 -0.088114
vn -0.032190 0.995590 -0.088114
vn -0.032190 0.995590 -0.088114
vn -0.032190 0.995590 -0.088114
vn 0.006733 0.999716 0.022871
vn 0.006733 0.999716 0.022871
vn 0.006733 0.999716 0.022871
vn 0.006733 0.999716 0.022871
vn -0.053986 0.998160 0.027617
vn -0.053986 0.998160 0.027617
vn -0.053986 0.998160 0.027617
vn -0.053986 0.998160 0.027617
vn 0.017337 0.999846 -0.002715
vn 0.017337 0.999846 -0.002715
vn 0.017337 0.999846 -0.002715
vn 0.017337 0.999846 -0.002715
vn -0.077038 0.996705 0.025379
vn -0.077038 0.996705 0.025379
vn -0.077038 0.996705 0.025379
vn -0.077038 0.996705 0.025379
vn 0.978669 -0.168432 0.117630
vn 0.978669 -0.168432 0.117630
vn 0.978669 -0.168432 0.117630
vn 0.978669 -0.168432 0.117630
vn -0.982967 -0.156228 0.096793
vn -0.982967 -0.156228 0.096793
vn -0.982967 -0.156228 0.096793
vn -0.982967 -0.156228 0.096793
vn 0.828918 -0.131102 0.543790
vn 0.828918 -0.131102 0.543790
vn 0.828918 -0.131102 0.543790
vn 0.828918 -0.131102 0.543790
vn 0.981699 -0.067443 -0.178097
vn 0.981699 -0.067443 -0.178097
vn 0.981699 -0.067443 -0.178097
vn 0.981699 -0.067443 -0.178097
vn -0.992306 -0.123262 -0.011651
vn -0.992306 -0.123262 -0.011651
vn -0.992306 -0.123262 -0.011651
vn -0.992306 -0.123262 -0.011651
vn -0.281432 -0.083187 0.955969
vn -0.281432 -0.083187 0.955969
vn -0.281432 -0.083187 0.955969
vn -0.281432 -0.083187 0.955969
vn 0.319501 0.071133 -0.944912
vn 0.319502 0.071133 -0.944912
vn 0.319501 0.071133 -0.944912
vn 0.319501 0.071133 -0.944912
vn -0.002275 -0.052909 0.998597
vn -0.002275 -0.052909 0.998597
vn -0.002275 -0.052909 0.998597
vn -0.002275 -0.052909 0.998597
vn -0.341976 -0.083646 -0.935978
vn -0.341976 -0.083646 -0.935978
vn -0.341976 -0.083646 -0.935978
vn -0.341976 -0.083646 -0.935978
vn 0.281529 -0.083669 0.955898
vn 0.281529 -0.083669 0.955898
vn 0.281529 -0.083669 0.955898
vn 0.281529 -0.083669 0.955898
vn 0.004716 -0.048402 -0.998817
vn 0.004716 -0.048402 -0.998817
vn 0.004716 -0.048402 -0.998817
vn 0.004716 -0.048402 -0.998817
vn -0.000918 -0.052906 0.998599
vn -0.000918 -0.052906 0.998599
vn -0.000918 -0.052906 0.998599
vn -0.000918 -0.052906 0.998599
vn -0.028263 -0.130506 -0.991045
vn -0.028263 -0.130506 -0.991045
vn -0.028263 -0.130506 -0.991045
vn -0.028263 -0.130506 -0.991045
s 1
g DonutBagOpen
usemtl initialShadingGroup
f 28/5/1 29/6/2 27/11/3 6/12/4
s 2
f 34/7/5 35/8/6 25/9/7 8/10/8
s 3
f 36/14/9 37/15/10 10/35/11 9/37/12
s 4
f 37/15/13 28/62/14 6/63/15 10/35/16
s 5
f 2/1/17 26/2/18 1/3/19 11/4/20
f 4/17/21 24/18/22 3/19/23 11/4/20
f 5/20/24 4/17/21 11/4/20
f 1/3/19 5/20/24 11/4/20
s 7
f 6/21/25 27/22/26 7/23/27 12/24/28
f 8/25/29 25/26/30 9/27/31 12/24/28
f 9/27/31 10/28/32 12/24/28
f 10/28/32 6/21/25 12/24/28
s 5
f 14/29/33 13/31/34 18/32/35 19/36/36
f 19/36/36 20/38/37 15/66/38 14/29/33
s 7
f 16/67/39 21/68/40 22/69/41
f 22/69/41 23/70/42 17/71/43 16/67/39
s 9
f 23/30/44 31/33/45 32/34/46 17/39/47
s 5
f 19/36/36 18/32/35 2/1/17 11/4/20
f 3/19/23 20/38/37 19/36/36 11/4/20
s 10
f 21/40/48 33/41/49 34/7/50 8/10/51
s 7
f 22/69/41 21/68/40 8/25/29 12/24/28
f 7/23/27 23/70/42 22/69/41 12/24/28
s 9
f 30/42/52 31/33/45 23/30/44 7/43/53
s 2
f 25/9/7 35/8/6 36/13/54 9/16/55
s 1
f 27/11/3 29/6/2 30/42/56 7/43/57
f 38/45/58 39/46/59 75/47/60 76/48/61
f 74/49/62 75/47/60 39/46/59 40/56/63
s 9
f 40/56/64 41/57/65 73/58/66 74/49/67
f 72/59/68 73/58/66 41/57/65 42/60/69
s 10
f 80/44/70 81/50/71 43/51/72 44/52/73
s 2
f 44/52/74 45/53/75 79/54/76 80/44/77
f 78/55/78 79/54/76 45/53/75 46/61/79
s 3
f 46/64/80 47/65/81 77/88/82 78/89/83
s 4
f 47/65/84 38/159/85 76/160/86 77/88/87
s 1
f 1/80/88 26/83/89 39/46/59 38/45/58
f 40/56/63 39/46/59 26/83/89 2/84/90
s 9
f 2/84/91 18/85/92 41/57/65 40/56/64
f 42/60/69 41/57/65 18/85/92 13/86/93
s 10
f 44/52/73 43/51/72 20/73/94 3/74/95
s 2
f 3/74/96 24/76/97 45/53/75 44/52/74
f 46/61/79 45/53/75 24/76/97 4/77/98
s 3
f 4/161/99 5/162/100 47/65/81 46/64/80
s 4
f 5/162/101 1/163/102 38/159/85 47/65/84
s off
f 15/66/103 20/38/104 49/72/105 48/75/106
f 50/78/107 21/68/108 16/67/109 53/79/110
f 13/31/111 14/29/112 52/81/113 51/82/114
f 14/29/115 15/66/116 48/75/117 52/81/118
f 16/67/119 17/71/120 54/99/121 53/79/122
f 17/39/123 32/34/124 55/87/125 54/90/126
f 20/73/127 43/51/128 56/94/129 49/95/130
s 16
f 71/91/131 72/59/132 42/60/133 57/92/134
s off
f 33/41/135 21/40/136 50/96/137 58/97/138
f 42/60/139 13/86/140 51/93/141 57/92/142
s 17
f 43/51/143 81/50/144 82/98/145 56/94/146
s off
f 48/75/147 49/72/148 60/100/149 59/102/150
f 64/155/151 61/154/152 50/78/153 53/79/154
f 51/82/155 52/81/156 63/153/157 62/152/158
f 52/81/159 48/75/160 59/102/161 63/153/162
f 53/79/163 54/99/164 65/151/165 64/155/166
f 54/90/167 55/87/168 66/103/169 65/104/170
f 49/95/171 56/94/172 67/101/173 60/106/174
s 18
f 70/105/175 71/91/176 57/92/177 68/107/178
s off
f 58/97/179 50/96/180 61/109/181 69/110/182
f 57/92/183 51/93/184 62/108/185 68/107/186
s 19
f 56/94/187 82/98/188 83/150/189 67/101/190
s 18
f 55/87/191 71/91/176 70/105/175 66/103/192
s 16
f 32/34/193 72/59/132 71/91/131 55/87/194
s 9
f 32/34/46 31/33/45 73/58/66 72/59/68
f 74/49/67 73/58/66 31/33/45 30/42/52
s 1
f 30/42/56 29/6/2 75/47/60 74/49/62
f 76/48/61 75/47/60 29/6/2 28/5/1
s 4
f 77/88/87 76/160/86 28/62/14 37/15/13
s 3
f 78/89/83 77/88/82 37/15/10 36/14/9
s 2
f 36/13/54 35/8/6 79/54/76 78/55/78
f 80/44/77 79/54/76 35/8/6 34/7/5
s 10
f 34/7/50 33/41/49 81/50/71 80/44/70
s 17
f 82/98/145 81/50/144 33/41/195 58/97/196
s 19
f 83/150/189 82/98/188 58/97/197 69/110/198
s off
f 59/111/199 60/112/200 85/113/201 84/114/202
f 61/115/203 64/116/204 86/117/205 87/118/206
f 62/119/207 63/120/208 89/121/209 88/122/210
f 63/120/211 59/111/212 84/114/213 89/121/214
f 64/116/215 65/123/216 90/124/217 86/117/218
f 65/123/219 66/125/220 91/126/221 90/124/222
f 60/112/223 67/127/224 92/128/225 85/113/226
f 66/125/227 70/129/228 93/130/229 91/126/230
f 69/131/231 61/158/232 87/156/233 94/132/234
f 68/133/235 62/119/236 88/122/237 95/134/238
f 67/127/239 83/135/240 96/136/241 92/128/242
f 70/129/243 68/133/244 95/134/245 93/130/246
f 83/135/247 69/131/248 94/132/249 96/136/250
f 84/114/251 85/113/252 98/137/253 97/138/254
f 87/118/255 86/117/256 99/139/257 100/140/258
f 88/122/259 89/121/260 102/141/261 101/142/262
f 89/121/263 84/114/264 97/138/265 102/141/266
f 86/117/267 90/124/268 103/143/269 99/139/270
f 90/124/271 91/126/272 104/144/273 103/143/274
f 85/113/275 92/128/276 105/145/277 98/137/278
f 91/126/279 93/130/280 106/146/281 104/144/282
f 94/132/283 87/156/284 100/157/285 107/147/286
f 95/134/287 88/122/288 101/142/289 108/148/290
f 92/128/291 96/136/292 109/149/293 105/145/294
f 93/130/295 95/134/296 108/148/297 106/146/298
f 96/136/299 94/132/300 107/147/301 109/149/302
