# This file uses centimeters as units for non-parametric coordinates.

mtllib Table2.mtl
g default
v -29.399126 2.862464 19.047161
v -25.826650 2.862464 18.627964
v -29.399126 3.094792 19.047161
v -25.826650 3.094792 18.627964
v -29.399126 3.094792 15.594645
v -25.995147 3.094792 16.050217
v -29.399126 2.862464 15.594645
v -25.995147 2.862464 16.050217
v -29.041877 2.862464 19.047161
v -29.041877 2.862464 15.594645
v -29.041877 3.094792 15.594645
v -29.041877 3.094792 19.047161
v -28.949270 2.862464 19.047161
v -28.949270 3.094792 19.047161
v -28.949270 3.094792 15.594645
v -28.949270 2.862464 15.594645
v -26.116031 2.862464 18.627964
v -26.116031 3.094792 18.627964
v -26.284528 3.094792 16.050217
v -26.284528 2.862464 16.050217
v -26.212156 2.862464 18.627964
v -26.380653 2.862464 16.050217
v -26.380653 3.094792 16.050217
v -26.212156 3.094792 18.627964
v -29.399126 3.094792 15.735948
v -29.041877 3.094792 15.735948
v -28.949270 3.094792 15.735948
v -26.380653 3.094792 16.191521
v -26.284528 3.094792 16.191521
v -25.995147 3.094792 16.191521
v -25.995147 2.862464 16.191521
v -26.284528 2.862464 16.191521
v -26.380653 2.862464 16.191521
v -28.949270 2.862464 15.735948
v -29.041877 2.862464 15.735948
v -29.399126 2.862464 15.735948
v -29.399126 3.094792 15.870186
v -29.041877 3.094792 15.870186
v -28.949270 3.094792 15.870186
v -26.380653 3.094792 16.325758
v -26.284528 3.094792 16.325758
v -25.995147 3.094792 16.325758
v -25.995147 2.862464 16.325758
v -26.284528 2.862464 16.325758
v -26.380653 2.862464 16.325758
v -28.949270 2.862464 15.870186
v -29.041877 2.862464 15.870186
v -29.399126 2.862464 15.870186
v -29.399126 3.094792 18.894339
v -29.041877 3.094792 18.894339
v -28.949270 3.094792 18.894339
v -26.212156 3.094792 18.475142
v -26.116031 3.094792 18.475142
v -25.826650 3.094792 18.475142
v -25.826650 2.862464 18.475142
v -26.116031 2.862464 18.475142
v -26.212156 2.862464 18.475142
v -28.949270 2.862464 18.894339
v -29.041877 2.862464 18.894339
v -29.399126 2.862464 18.894339
v -29.041877 3.094792 18.779564
v -29.399126 3.094792 18.779564
v -29.399126 2.862464 18.779564
v -29.041877 2.862464 18.779564
v -28.949270 2.862464 18.779564
v -26.212156 2.862464 18.360367
v -26.116031 2.862464 18.360367
v -25.842779 2.862464 18.360367
v -25.826650 3.094792 18.360367
v -26.116031 3.094792 18.360367
v -26.212156 3.094792 18.360367
v -28.949270 3.094792 18.779564
v -26.116031 0.426799 16.325758
v -26.212156 0.426799 16.325758
v -26.212156 0.426799 16.191521
v -26.116031 0.426799 16.191521
v -28.949270 0.426799 16.325758
v -29.041877 0.426799 16.325758
v -29.041877 0.426799 16.191521
v -28.949270 0.426799 16.191521
v -26.116031 0.426799 18.621239
v -26.212156 0.426799 18.621239
v -26.212156 0.426799 18.506466
v -26.116031 0.426799 18.506466
v -28.949270 0.426799 18.621239
v -29.041877 0.426799 18.621239
v -29.041877 0.426799 18.506466
v -28.949270 0.426799 18.506466
vt 0.366808 0.017802
vt 0.734139 0.017923
vt 0.570316 0.613433
vt 0.004599 0.543954
vt 0.984684 0.963181
vt 0.033503 0.135642
vt 0.981376 0.934256
vt 0.554313 0.963184
vt 0.890161 0.512478
vt 0.468418 0.653927
vt 0.997537 0.017810
vt 0.997544 0.041487
vt 0.014955 0.017685
vt 0.014948 0.041362
vt 0.403216 0.017814
vt 0.846606 0.517068
vt 0.939359 0.940489
vt 0.516661 0.066060
vt 0.513709 0.613127
vt 0.412654 0.017817
vt 0.834956 0.521614
vt 0.499035 0.613048
vt 0.501987 0.065980
vt 0.927620 0.941579
vt 0.704647 0.017913
vt 0.502460 0.647264
vt 0.050453 0.544201
vt 0.079357 0.135889
vt 0.590264 0.957445
vt 0.694851 0.017910
vt 0.514336 0.643851
vt 0.602827 0.955954
vt 0.094588 0.135972
vt 0.065685 0.544284
vt 0.029348 0.041367
vt 0.573148 0.088755
vt 0.516540 0.088450
vt 0.501866 0.088371
vt 0.094467 0.158362
vt 0.079236 0.158280
vt 0.033382 0.158032
vt 0.983143 0.041491
vt 0.550009 0.947366
vt 0.983137 0.017814
vt 0.655419 0.189986
vt 0.654502 0.203223
vt 0.995483 0.120009
vt 0.995484 0.104657
vt 0.029356 0.017690
vt 0.978659 0.915498
vt 0.043029 0.041371
vt 0.573033 0.110026
vt 0.516425 0.109721
vt 0.501751 0.109641
vt 0.094352 0.179632
vt 0.079121 0.179550
vt 0.033267 0.179303
vt 0.969463 0.041495
vt 0.545231 0.931317
vt 0.969456 0.017818
vt 0.655416 0.234991
vt 0.654501 0.221753
vt 0.991395 0.067429
vt 0.991394 0.082782
vt 0.043036 0.017694
vt 0.973484 0.897594
vt 0.351226 0.041473
vt 0.570447 0.589217
vt 0.513839 0.588912
vt 0.499165 0.588832
vt 0.065815 0.520068
vt 0.050584 0.519986
vt 0.004730 0.519739
vt 0.749705 0.041605
vt 0.471267 0.672320
vt 0.749713 0.017928
vt 0.953912 0.378382
vt 0.963085 0.378382
vt 0.580597 0.154313
vt 0.594512 0.154308
vt 0.351234 0.017796
vt 0.893216 0.530757
vt 0.513938 0.570725
vt 0.339529 0.041470
vt 0.570545 0.571031
vt 0.339537 0.017793
vt 0.897421 0.544999
vt 0.611651 0.156223
vt 0.625566 0.156217
vt 0.974018 0.377726
vt 0.983190 0.377726
vt 0.475408 0.686327
vt 0.761525 0.017875
vt 0.004828 0.501552
vt 0.761402 0.041609
vt 0.050682 0.501799
vt 0.065913 0.501882
vt 0.499263 0.570646
vt 0.738462 0.405466
vt 0.991527 0.221770
vt 0.991528 0.203240
vt 0.992445 0.190003
vt 0.738462 0.362510
vt 0.580601 0.082756
vt 0.584691 0.104631
vt 0.584690 0.119984
vt 0.841472 0.418097
vt 0.963083 0.611224
vt 0.974015 0.610569
vt 0.983188 0.610569
vt 0.839594 0.367505
vt 0.594657 0.522579
vt 0.611796 0.524494
vt 0.625711 0.524488
vt 0.841465 0.367504
vt 0.953910 0.611224
vt 0.799093 0.367511
vt 0.799100 0.418103
vt 0.839440 0.362528
vt 0.580602 0.067403
vt 0.839453 0.292866
vt 0.738475 0.292847
vt 0.931984 0.367404
vt 0.580742 0.522585
vt 0.931903 0.292857
vt 0.839513 0.292958
vt 0.520064 0.676853
vt 0.508728 0.680123
vt 0.506564 0.666057
vt 0.517919 0.662590
vt 0.580423 0.924449
vt 0.592157 0.922785
vt 0.597308 0.938924
vt 0.585477 0.940515
vt 0.694843 0.041587
vt 0.704639 0.041590
vt 0.603196 0.984805
vt 0.591672 0.985581
vt 0.557078 0.991003
vt 0.734131 0.041600
vt 0.928658 0.970384
vt 0.412646 0.041494
vt 0.403208 0.041491
vt 0.940554 0.969209
vt 0.573269 0.066365
vt 0.366800 0.041479
vt 0.915546 0.904090
vt 0.929579 0.904642
vt 0.938667 0.923791
vt 0.922507 0.924652
vt 0.854043 0.554788
vt 0.839491 0.557245
vt 0.837401 0.540735
vt 0.848500 0.534864
vt 0.642704 0.154289
vt 0.642848 0.522560
vt 0.994124 0.378382
vt 0.994120 0.611224
vt 0.991391 0.141884
vt 0.580597 0.141858
vt 0.655420 0.171455
vt 0.798435 0.405466
vt 0.992442 0.235008
vt 0.992446 0.171472
vt 0.798435 0.362521
vt 0.738462 0.362521
vn 0.000000 0.000000 1.000000
vn 0.000000 0.000000 1.000000
vn 0.146541 0.000000 0.989205
vn 0.146541 0.000000 0.989205
vn 0.000000 1.000000 0.000000
vn 0.000000 1.000000 0.000000
vn 0.000000 1.000000 0.000000
vn 0.000000 1.000000 0.000000
vn 0.000000 0.000000 -1.000000
vn 0.000000 0.000000 -1.000000
vn 0.168734 0.000000 -0.985662
vn 0.168734 0.000000 -0.985662
vn 0.000000 -1.000000 0.000000
vn 0.000000 -1.000000 0.000000
vn 0.000000 -1.000000 0.000000
vn 0.000000 -1.000000 0.000000
vn 1.000000 0.000000 0.000000
vn 1.000000 0.000000 0.000000
vn 1.000000 0.000000 0.000000
vn 1.000000 0.000000 0.000000
vn -1.000000 0.000000 0.000000
vn -1.000000 0.000000 0.000000
vn -1.000000 0.000000 0.000000
vn -1.000000 0.000000 0.000000
vn 0.000000 -1.000000 0.000000
vn 0.000000 -1.000000 0.000000
vn 0.000000 0.000000 -1.000000
vn 0.000000 0.000000 -1.000000
vn 0.000000 1.000000 0.000000
vn 0.000000 1.000000 0.000000
vn 0.000000 0.000000 1.000000
vn 0.000000 0.000000 1.000000
vn 0.146363 0.000000 0.989231
vn 0.146363 0.000000 0.989231
vn 0.000000 0.000000 1.000000
vn 0.000000 0.000000 1.000000
vn 0.000000 1.000000 0.000000
vn 0.000000 1.000000 0.000000
vn 0.000000 1.000000 0.000000
vn 0.000000 1.000000 0.000000
vn 0.168518 0.000000 -0.985699
vn 0.168518 0.000000 -0.985699
vn 0.000000 0.000000 -1.000000
vn 0.000000 0.000000 -1.000000
vn 0.000000 -1.000000 0.000000
vn 0.000000 -1.000000 0.000000
vn 0.000000 -1.000000 0.000000
vn 0.000000 -1.000000 0.000000
vn 0.000000 0.000000 1.000000
vn 0.000000 0.000000 1.000000
vn 0.000000 1.000000 0.000000
vn 0.000000 1.000000 0.000000
vn 0.000000 0.000000 -1.000000
vn 0.000000 0.000000 -1.000000
vn 0.000000 -1.000000 0.000000
vn 0.000000 -1.000000 0.000000
vn 0.000000 1.000000 0.000000
vn 0.000000 1.000000 0.000000
vn 0.000000 1.000000 0.000000
vn 0.000000 1.000000 0.000000
vn 0.000000 1.000000 0.000000
vn 0.000000 1.000000 0.000000
vn 0.996750 -0.032455 -0.073731
vn 0.996750 -0.032455 -0.073731
vn 0.000000 -1.000000 -0.000000
vn 0.000000 -1.000000 -0.000000
vn 0.000000 -1.000000 0.000000
vn 0.000000 -1.000000 0.000000
vn 0.000000 -1.000000 0.000000
vn 0.000000 -1.000000 0.000000
vn 0.000000 -1.000000 0.000000
vn 0.000000 -1.000000 0.000000
vn 0.000000 -1.000000 0.000000
vn 0.000000 -1.000000 0.000000
vn 0.000000 -1.000000 0.000000
vn 0.000000 -1.000000 0.000000
vn 0.000000 -1.000000 0.000000
vn 0.000000 -1.000000 0.000000
vn -1.000000 0.000000 0.000000
vn -1.000000 0.000000 0.000000
vn 0.000000 1.000000 0.000000
vn 0.000000 1.000000 0.000000
vn 0.000000 1.000000 0.000000
vn 0.000000 1.000000 0.000000
vn 0.000000 1.000000 0.000000
vn 0.000000 1.000000 0.000000
vn 0.000000 1.000000 0.000000
vn 0.000000 1.000000 0.000000
vn 0.000000 1.000000 0.000000
vn 0.000000 1.000000 0.000000
vn 0.000000 1.000000 0.000000
vn 0.000000 1.000000 0.000000
vn 0.999436 -0.014879 -0.030119
vn 0.999436 -0.014879 -0.030119
vn 0.996345 -0.034583 -0.078111
vn 0.996345 -0.034583 -0.078105
vn 0.000000 -1.000000 0.000000
vn 0.000000 -1.000000 0.000000
vn 0.000000 -1.000000 -0.000000
vn 0.000000 -1.000000 -0.000000
vn 0.000000 -1.000000 0.000000
vn 0.000000 -1.000000 0.000000
vn 0.000000 -1.000000 0.000000
vn 0.000000 -1.000000 0.000000
vn 0.000000 -1.000000 0.000000
vn 0.000000 -1.000000 0.000000
vn 0.000000 -1.000000 0.000000
vn 0.000000 -1.000000 0.000000
vn 0.000000 -1.000000 0.000000
vn 0.000000 -1.000000 0.000000
vn 0.000000 -1.000000 0.000000
vn 0.000000 -1.000000 0.000000
vn 0.000000 -1.000000 0.000000
vn 0.000000 -1.000000 0.000000
vn 0.000000 -1.000000 0.000000
vn 0.000000 -1.000000 0.000000
vn -1.000000 0.000000 0.000000
vn -1.000000 0.000000 0.000000
vn -1.000000 0.000000 0.000000
vn -1.000000 0.000000 0.000000
vn 0.000000 1.000000 0.000000
vn 0.000000 1.000000 0.000000
vn 0.000000 1.000000 0.000000
vn 0.000000 1.000000 0.000000
vn 0.000000 1.000000 0.000000
vn 0.000000 1.000000 0.000000
vn 1.000000 0.000000 0.000000
vn 1.000000 0.000000 0.000000
vn 0.000000 -1.000000 0.000000
vn 0.000000 -1.000000 0.000000
vn 0.000000 -1.000000 0.000000
vn 0.000000 -1.000000 0.000000
vn 0.000000 -1.000000 0.000000
vn 0.000000 -1.000000 0.000000
vn -1.000000 0.000000 0.000000
vn -1.000000 0.000000 0.000000
vn 0.000000 0.000000 1.000000
vn 0.000000 0.000000 1.000000
vn 0.000000 0.000000 1.000000
vn 0.000000 0.000000 1.000000
vn -0.997616 -0.069014 0.000000
vn -0.997616 -0.069014 0.000000
vn -0.997616 -0.069014 0.000000
vn -0.997616 -0.069014 0.000000
vn 0.000000 0.000000 -1.000000
vn 0.000000 0.000000 -1.000000
vn 0.000000 0.000000 -1.000000
vn 0.000000 0.000000 -1.000000
vn 0.997616 0.069014 0.000000
vn 0.997616 0.069014 0.000000
vn 0.997616 0.069014 0.000000
vn 0.997616 0.069014 0.000000
vn 0.000000 0.183855 0.982953
vn 0.000000 0.183855 0.982953
vn 0.000000 0.183855 0.982953
vn 0.000000 0.183855 0.982953
vn -1.000000 0.000000 0.000000
vn -1.000000 0.000000 0.000000
vn -1.000000 0.000000 0.000000
vn -1.000000 0.000000 0.000000
vn 0.000000 -0.183855 -0.982953
vn 0.000000 -0.183855 -0.982953
vn 0.000000 -0.183855 -0.982953
vn 0.000000 -0.183855 -0.982953
vn 1.000000 -0.000003 0.000000
vn 1.000000 -0.000003 0.000000
vn 1.000000 -0.000003 0.000000
vn 1.000000 -0.000003 0.000000
vn 0.000000 0.059875 0.998206
vn 0.000000 0.059875 0.998206
vn 0.000000 0.059875 0.998206
vn 0.000000 0.059875 0.998206
vn -1.000000 0.000000 0.000000
vn -1.000000 0.000000 0.000000
vn -1.000000 0.000000 0.000000
vn -1.000000 0.000000 0.000000
vn 0.000000 -0.059876 -0.998206
vn 0.000000 -0.059876 -0.998206
vn 0.000000 -0.059876 -0.998206
vn 0.000000 -0.059876 -0.998206
vn 1.000000 -0.000001 0.000000
vn 1.000000 -0.000001 0.000000
vn 1.000000 -0.000001 0.000000
vn 1.000000 -0.000001 0.000000
vn 0.000000 -0.111427 0.993773
vn 0.000000 -0.111427 0.993773
vn 0.000000 -0.111427 0.993773
vn 0.000000 -0.111427 0.993773
vn -1.000000 -0.000002 0.000000
vn -1.000000 -0.000002 0.000000
vn -1.000000 -0.000002 0.000000
vn -1.000000 -0.000002 0.000000
vn 0.000000 0.111427 -0.993773
vn 0.000000 0.111427 -0.993773
vn 0.000000 0.111427 -0.993773
vn 0.000000 0.111427 -0.993773
vn 1.000000 0.000000 0.000000
vn 1.000000 0.000000 0.000000
vn 1.000000 0.000000 0.000000
vn 1.000000 0.000000 0.000000
s 1
g Table1 TablenChairSet2
usemtl initialShadingGroup
f 12/143/1 9/15/2 13/20/3 14/142/4
s 2
f 11/18/5 26/37/6 27/38/7 15/23/8
s 3
f 10/17/9 11/144/10 15/141/11 16/24/12
s 4
f 34/150/13 35/149/14 10/17/15 16/24/16
s 5
f 30/42/17 31/44/18 8/11/19 6/12/20
s 6
f 7/13/21 36/49/22 25/35/23 5/14/24
s 4
f 7/7/25 10/17/15 35/149/14 36/50/26
s 3
f 5/5/27 11/144/10 10/17/9 7/7/28
s 2
f 25/36/29 26/37/6 11/18/5 5/145/30
s 1
f 1/1/31 9/15/2 12/143/1 3/146/32
f 24/135/33 21/30/34 17/25/35 18/136/36
s 2
f 23/33/37 28/39/38 29/40/39 19/28/40
s 3
f 22/32/41 23/137/42 19/138/43 20/29/44
s 4
f 32/134/45 33/133/46 22/32/47 20/29/48
s 1
f 18/136/36 17/25/35 2/2/49 4/140/50
s 2
f 19/28/40 29/40/39 30/41/51 6/6/52
s 3
f 20/29/44 19/138/43 6/139/53 8/8/54
s 4
f 31/43/55 32/134/45 20/29/48 8/8/56
f 33/133/46 34/150/13 16/24/16 22/32/47
s 3
f 16/24/12 15/141/11 23/137/42 22/32/41
s 2
f 15/23/8 27/38/7 28/39/38 23/33/37
s 1
f 14/142/4 13/20/3 21/30/34 24/135/33
s 2
f 37/52/57 38/53/58 26/37/6 25/36/29
f 27/38/7 26/37/6 38/53/58 39/54/59
f 28/39/38 27/38/7 39/54/59 40/55/60
f 29/40/39 28/39/38 40/55/60 41/56/61
f 30/41/51 29/40/39 41/56/61 42/57/62
s 5
f 42/58/63 43/60/64 31/44/18 30/42/17
s 4
f 43/59/65 44/131/66 32/134/45 31/43/55
s off
f 73/99/67 74/166/68 75/165/69 76/162/70
s 4
f 45/132/71 46/147/72 34/150/13 33/133/46
s off
f 77/103/73 78/122/74 79/121/75 80/119/76
s 4
f 36/50/26 35/149/14 47/148/77 48/66/78
s 6
f 25/35/23 36/49/22 48/65/79 37/51/80
s 2
f 49/68/81 50/69/82 61/83/83 62/85/84
f 72/98/85 61/83/83 50/69/82 51/70/86
f 71/97/87 72/98/85 51/70/86 52/71/88
f 70/96/89 71/97/87 52/71/88 53/72/90
f 69/94/91 70/96/89 53/72/90 54/73/92
s 5
f 54/74/93 55/76/94 68/93/95 69/95/96
s 4
f 55/75/97 56/129/98 67/128/99 68/92/100
s off
f 81/107/101 82/118/102 83/117/103 84/115/104
s 4
f 57/130/105 58/153/106 65/152/107 66/127/108
s off
f 85/111/109 86/126/110 87/125/111 88/123/112
s 4
f 63/87/113 64/151/114 59/154/115 60/82/116
s 6
f 62/84/117 63/86/118 60/81/119 49/67/120
s 2
f 3/3/121 12/19/122 50/69/82 49/68/81
f 51/70/86 50/69/82 12/19/122 14/22/123
f 52/71/88 51/70/86 14/22/123 24/34/124
f 53/72/90 52/71/88 24/34/124 18/27/125
f 54/73/92 53/72/90 18/27/125 4/4/126
s 5
f 2/2/127 55/76/94 54/74/93 4/140/128
s 4
f 17/26/129 56/129/98 55/75/97 2/10/130
f 21/31/131 57/130/105 56/129/98 17/26/129
f 13/21/132 58/153/106 57/130/105 21/31/131
f 9/16/133 59/154/115 58/153/106 13/21/132
f 60/82/116 59/154/115 9/16/133 1/9/134
s 6
f 49/67/120 60/81/119 1/1/135 3/146/136
s 2
f 62/85/84 61/83/83 38/53/58 37/52/57
s 6
f 37/51/80 48/65/79 63/86/118 62/84/117
s 4
f 48/66/78 47/148/77 64/151/114 63/87/113
f 65/152/107 64/151/114 47/148/77 46/147/72
f 66/127/108 65/152/107 46/147/72 45/132/71
f 67/128/99 66/127/108 45/132/71 44/131/66
f 68/92/100 67/128/99 44/131/66 43/59/65
s 5
f 69/95/96 68/93/95 43/60/64 42/58/63
s 2
f 42/57/62 41/56/61 70/96/89 69/94/91
f 41/56/61 40/55/60 71/97/87 70/96/89
f 40/55/60 39/54/59 72/98/85 71/97/87
f 39/54/59 38/53/58 61/83/83 72/98/85
s off
f 44/61/137 45/62/138 74/100/139 73/163/140
f 45/62/141 33/46/142 75/101/143 74/100/144
f 33/46/145 32/45/146 76/102/147 75/101/148
f 32/45/149 44/161/150 73/164/151 76/102/152
f 46/63/153 47/64/154 78/104/155 77/120/156
f 47/64/157 35/48/158 79/105/159 78/104/160
f 35/48/161 34/47/162 80/106/163 79/105/164
f 34/47/165 46/159/166 77/160/167 80/106/168
f 56/77/169 57/78/170 82/108/171 81/116/172
f 57/78/173 66/90/174 83/109/175 82/108/176
f 66/90/177 67/91/178 84/110/179 83/109/180
f 67/91/181 56/157/182 81/158/183 84/110/184
f 58/79/185 59/80/186 86/112/187 85/124/188
f 59/80/189 64/88/190 87/113/191 86/112/192
f 64/88/193 65/89/194 88/114/195 87/113/196
f 65/89/197 58/155/198 85/156/199 88/114/200
