# This file uses centimeters as units for non-parametric coordinates.

mtllib TeahcerChair.mtl
g default
v -36.387131 2.619665 2.958604
v -36.407928 2.619665 3.097304
v -36.573807 2.619665 6.196038
v -36.573807 2.742109 6.196038
v -36.461334 2.742109 3.094371
v -36.453678 2.742109 2.954948
v -33.966076 2.619665 2.776257
v -33.959465 2.619665 2.916464
v -33.571701 2.619665 6.581418
v -33.571701 2.742109 6.581418
v -33.907188 2.742109 2.919334
v -33.899529 2.742109 2.779912
v -33.155323 6.848391 3.275892
v -33.147667 6.848391 3.136470
v -37.140961 7.058693 2.917213
v -37.148617 7.058693 3.056635
v -36.431412 2.619665 3.228864
v -33.950577 2.619665 3.049802
v -33.900917 2.742109 3.052528
v -36.482147 2.742109 3.226079
v -36.501926 2.742109 3.351200
v -33.894951 2.742109 3.179063
v -33.942139 2.619665 3.176471
v -36.453732 2.619665 3.353846
v -36.517445 2.742109 5.839443
v -33.588692 2.742109 6.220796
v -33.595768 2.619665 6.220407
v -36.510220 2.619665 5.839839
v -36.545628 2.742109 6.017740
v -33.580196 2.742109 6.401104
v -33.583740 2.619665 6.400910
v -36.542011 2.619665 6.017938
v -36.143959 2.619665 3.111797
v -36.127281 2.619665 2.972870
v -36.173859 2.742109 2.970314
v -36.630413 7.058693 2.945245
v -36.638058 7.058693 3.084669
v -36.181526 2.742109 3.109734
v -36.198265 2.742109 3.241664
v -36.214184 2.742109 3.366998
v -36.167358 2.742109 5.858665
v -36.190048 2.742109 6.037263
v -36.212719 2.742109 6.215864
v -36.212719 2.619665 6.215864
v -36.316860 2.619658 6.030300
v -36.291641 2.619658 5.851840
v -36.256931 2.619665 3.364651
v -36.239220 2.619665 3.239417
v -35.980019 2.619665 2.980956
v -35.994385 2.619665 3.120011
v -36.086891 2.619665 3.247780
v -36.101982 2.619665 3.373158
v -36.094471 2.619658 5.862666
v -36.115974 2.619658 6.041330
v -36.008099 2.619665 6.227099
v -36.008099 2.742109 6.227099
v -35.988544 2.742109 6.048327
v -35.968975 2.742109 5.869558
v -36.051125 2.742109 3.375952
v -36.037399 2.742109 3.250497
v -36.022942 2.742109 3.118443
v -36.348743 6.844122 3.100553
v -36.341099 6.844122 2.961131
v -36.015289 2.742109 2.979020
v -34.164864 2.619665 2.765343
v -34.161396 2.619665 2.905376
v -34.088776 2.619665 3.042214
v -34.083858 2.619665 3.168691
v -33.744591 2.619665 6.212234
v -33.737587 2.619665 6.392464
v -33.847939 2.619665 6.566251
v -33.847939 2.742109 6.566251
v -33.852222 2.742109 6.386170
v -33.856514 2.742109 6.206090
v -34.115078 2.742109 3.166975
v -34.118080 2.742109 3.040605
v -34.121243 2.742109 2.907580
v -33.545891 7.000443 3.254448
v -33.538239 7.000443 3.115026
v -34.113590 2.742109 2.768158
v -34.275833 2.619665 2.899093
v -34.277515 2.619665 2.759158
v -34.234894 2.742109 2.761498
v -33.759563 6.804930 3.102874
v -33.767216 6.804930 3.242296
v -34.242554 2.742109 2.900920
v -34.241142 2.742109 3.033847
v -34.239819 2.742109 3.160127
v -34.008270 2.742109 6.197758
v -34.006374 2.742109 6.377706
v -34.004475 2.742109 6.557656
v -34.004475 2.619665 6.557656
v -33.891273 2.619665 6.384025
v -33.895424 2.619665 6.203954
v -34.202400 2.619665 3.162182
v -34.205307 2.619665 3.035814
v -35.585503 0.542252 3.401517
v -35.567799 0.542252 3.276282
v -35.415466 0.542252 3.284645
v -35.430553 0.542252 3.410025
v -35.949306 0.542259 5.599639
v -35.924088 0.542259 5.421180
v -35.726917 0.542259 5.432006
v -35.748421 0.542259 5.610670
v -34.205086 0.542252 3.211198
v -34.207996 0.542252 3.084832
v -34.091465 0.542252 3.091231
v -34.086548 0.542252 3.217708
v -34.146877 0.542252 6.216056
v -34.151028 0.542252 6.035985
v -34.000195 0.542252 6.044266
v -33.993191 0.542252 6.224494
vt 0.755833 0.642714
vt 0.089135 0.251211
vt 0.087427 0.264193
vt 0.752619 0.632678
vt 0.048167 0.104767
vt 0.750063 0.010937
vt 0.722950 0.010937
vt 0.700507 0.010937
vt 0.069648 0.263426
vt 0.903673 0.616416
vt 0.903673 0.636212
vt 0.071631 0.250456
vt 0.609213 0.594741
vt 0.601254 0.596498
vt 0.599724 0.586074
vt 0.607704 0.584458
vt 0.144550 0.997277
vt 0.992485 0.844434
vt 0.992485 0.892219
vt 0.187142 0.624728
vt 0.766037 0.632678
vt 0.770280 0.642714
vt 0.616509 0.445658
vt 0.785518 0.978935
vt 0.811879 0.996522
vt 0.950296 0.018220
vt 0.789712 0.632678
vt 0.620216 0.610780
vt 0.201936 0.624728
vt 0.992485 0.962355
vt 0.617591 0.592893
vt 0.616103 0.582756
vt 0.795776 0.642714
vt 0.885310 0.971490
vt 0.611876 0.612889
vt 0.885310 0.958595
vt 0.076432 0.276121
vt 0.903673 0.946344
vt 0.599750 0.446393
vt 0.058325 0.275341
vt 0.052094 0.519233
vt 0.607915 0.446035
vt 0.056220 0.287032
vt 0.858397 0.996522
vt 0.722950 0.423159
vt 0.750063 0.423159
vt 0.440897 0.608077
vt 0.439035 0.595395
vt 0.402534 0.444524
vt 0.074638 0.287827
vt 0.634596 0.427428
vt 0.672933 0.423159
vt 0.700507 0.423159
vt 0.603803 0.427428
vt 0.075531 0.520243
vt 0.903673 0.706059
vt 0.429555 0.610580
vt 0.427664 0.597699
vt 0.390900 0.445034
vt 0.061475 0.553217
vt 0.059389 0.055309
vt 0.634596 0.011702
vt 0.603803 0.011702
vt 0.575740 0.011702
vt 0.049096 0.535893
vt 0.903673 0.688602
vt 0.072975 0.536923
vt 0.903673 0.378383
vt 0.544365 0.427428
vt 0.575740 0.427428
vt 0.085797 0.554266
vt 0.903673 0.671145
vt 0.530140 0.991748
vt 0.038272 0.262073
vt 0.040744 0.249124
vt 0.582562 0.642714
vt 0.839501 0.423523
vt 0.868279 0.423523
vt 0.155944 0.058612
vt 0.868279 0.011105
vt 0.839501 0.011105
vt 0.814048 0.011973
vt 0.503504 0.430376
vt 0.784907 0.423523
vt 0.814048 0.423523
vt 0.475462 0.430376
vt 0.146383 0.108127
vt 0.503504 0.011905
vt 0.475462 0.011905
vt 0.441980 0.011905
vt 0.022335 0.534739
vt 0.413412 0.430376
vt 0.441980 0.430377
vt 0.885310 0.405107
vt 0.381857 0.463203
vt 0.903673 0.420251
vt 0.393452 0.462424
vt 0.394898 0.472278
vt 0.406470 0.471346
vt 0.405046 0.461645
vt 0.602986 0.468439
vt 0.601816 0.460464
vt 0.611107 0.467785
vt 0.609952 0.459918
vt 0.619655 0.467097
vt 0.171541 0.978758
vt 0.161037 0.624728
vt 0.950296 0.088525
vt 0.593614 0.642714
vt 0.992485 0.147512
vt 0.550305 0.975723
vt 0.587234 0.632678
vt 0.018555 0.551366
vt 0.026114 0.518112
vt 0.032827 0.286024
vt 0.035480 0.274355
vt 0.304890 0.231082
vt 0.305302 0.244155
vt 0.291700 0.243569
vt 0.291500 0.230504
vt 0.313934 0.256930
vt 0.300083 0.256333
vt 0.336917 0.552105
vt 0.300429 0.268130
vt 0.314519 0.268738
vt 0.354845 0.552878
vt 0.379979 0.430376
vt 0.323955 0.585126
vt 0.516260 0.427428
vt 0.650455 0.423159
vt 0.337410 0.568917
vt 0.757955 0.423523
vt 0.379979 0.011905
vt 0.757955 0.011105
vt 0.516260 0.011702
vt 0.650455 0.010937
vt 0.268554 0.130748
vt 0.413412 0.011905
vt 0.257942 0.192779
vt 0.149066 0.194899
vt 0.885310 0.420251
vt 0.885310 0.616416
vt 0.383326 0.473209
vt 0.416293 0.600002
vt 0.950296 0.147512
vt 0.950296 0.844434
vt 0.597498 0.632678
vt 0.563058 0.642714
vt 0.355678 0.569704
vt 0.342561 0.585929
vt 0.992485 0.088525
vt 0.096918 0.997277
vt 0.903673 0.405107
vt 0.328519 0.232101
vt 0.329305 0.245190
vt 0.494553 0.979285
vt 0.950296 0.892219
vt 0.418213 0.613082
vt 0.885310 0.636212
vt 0.330361 0.257638
vt 0.885310 0.671145
vt 0.421601 0.636165
vt 0.921691 0.504521
vt 0.569121 0.632678
vt 0.885310 0.985008
vt 0.331364 0.269464
vt 0.885310 0.688602
vt 0.885310 0.360926
vt 0.885310 0.378383
vt 0.903673 0.360926
vt 0.903673 0.343471
vt 0.432891 0.633311
vt 0.444181 0.630456
vt 0.885310 0.706059
vt 0.885310 0.343471
vt 0.903673 0.047844
vt 0.603954 0.614892
vt 0.885310 0.946344
vt 0.885310 0.047844
vt 0.903673 0.035594
vt 0.903673 0.958595
vt 0.903673 0.971490
vt 0.924108 0.014668
vt 0.885310 0.035594
vt 0.372535 0.553641
vt 0.412381 0.975376
vt 0.939416 0.480639
vt 0.940195 0.990356
vt 0.903673 0.009176
vt 0.373965 0.570493
vt 0.885310 0.009176
vt 0.379265 0.445544
vt 0.885310 0.022700
vt 0.375395 0.587345
vt 0.368035 0.624728
vt 0.379353 0.624728
vt 0.618517 0.459342
vt 0.433029 0.992250
vt 0.399323 0.624728
vt 0.469467 0.979127
vt 0.903673 0.022700
vt 0.938619 0.011996
vt 0.925542 0.992089
vt 0.903673 0.985008
vt 0.157622 0.132908
vt 0.672933 0.010937
vt 0.169118 0.109046
vt 0.167271 0.059141
vt 0.241135 0.061668
vt 0.784907 0.011973
vt 0.244254 0.111616
vt 0.048151 0.196954
vt 0.045518 0.125841
vt 0.544365 0.011702
vt 0.141126 0.129112
vt 0.145567 0.200287
vt 0.950296 0.962355
vt 0.936343 0.502789
vt 0.924906 0.483311
vt 0.992485 0.018220
vn 0.000000 -1.000000 0.000000
vn 0.000000 -1.000000 0.000000
vn 0.000000 -1.000000 0.000001
vn 0.000000 -1.000000 0.000001
vn 0.000000 -1.000000 0.000000
vn 0.000000 -1.000000 0.000000
vn 0.000000 -1.000000 0.000000
vn 0.000000 -1.000000 0.000000
vn -0.152958 0.000000 0.988233
vn -0.152958 0.000000 0.988233
vn -0.054824 0.000000 0.998496
vn -0.054824 0.000000 0.998496
vn 0.000000 1.000000 -0.000000
vn 0.000000 1.000000 -0.000000
vn 0.000000 1.000000 0.000000
vn 0.000000 1.000000 -0.000000
vn 0.087781 0.996128 0.004813
vn 0.087793 0.996127 0.004813
vn 0.258332 0.965952 0.014167
vn 0.258359 0.965945 0.014168
vn -0.105342 0.004812 -0.994424
vn -0.114907 0.005097 -0.993363
vn 0.054824 0.000004 -0.998496
vn 0.054825 0.000002 -0.998496
vn 0.981377 -0.184373 0.053904
vn 0.981377 -0.184373 0.053904
vn 0.981377 -0.184373 0.053904
vn 0.981377 -0.184373 0.053904
vn -0.007265 0.034499 -0.999378
vn -0.010978 0.036558 -0.999271
vn 0.054825 0.000000 -0.998496
vn 0.054825 0.000000 -0.998496
vn -0.986038 -0.157470 -0.054146
vn -0.986038 -0.157470 -0.054146
vn -0.986038 -0.157470 -0.054146
vn -0.986038 -0.157470 -0.054146
vn -0.054824 -0.000000 0.998496
vn -0.054824 -0.000000 0.998496
vn 0.010978 -0.036558 0.999271
vn 0.007264 -0.034499 0.999378
vn -0.893322 -0.440027 -0.091393
vn -0.893322 -0.440027 -0.091393
vn -0.893321 -0.440027 -0.091393
vn -0.893322 -0.440027 -0.091393
vn -0.911570 -0.381451 -0.153409
vn -0.911385 -0.381908 -0.153376
vn -0.973188 -0.229014 -0.021397
vn -0.973252 -0.228761 -0.021171
vn 0.970122 -0.220048 -0.102192
vn 0.969971 -0.220827 -0.101941
vn 0.925529 -0.374998 -0.052646
vn 0.925707 -0.374559 -0.052656
vn 0.899646 -0.436606 0.003374
vn 0.899646 -0.436606 0.003374
vn 0.899646 -0.436606 0.003374
vn 0.899646 -0.436606 0.003374
vn 0.000000 -1.000000 0.000001
vn 0.000000 -1.000000 -0.000001
vn 0.922365 -0.382741 -0.052461
vn 0.922365 -0.382741 -0.052461
vn 0.000000 1.000000 0.000000
vn 0.000000 1.000000 0.000000
vn -0.908139 -0.389789 -0.152800
vn -0.908139 -0.389789 -0.152800
vn 0.000000 1.000000 -0.000000
vn 0.000000 1.000000 0.000000
vn 0.973535 -0.204694 -0.101634
vn 0.973494 -0.204868 -0.101681
vn -0.000009 -1.000000 -0.000002
vn -0.000008 -1.000000 -0.000002
vn 0.000001 -1.000000 -0.000001
vn 0.000002 -1.000000 -0.000001
vn -0.977502 -0.209538 -0.024170
vn -0.977513 -0.209480 -0.024221
vn 0.000000 1.000000 -0.000000
vn 0.000000 1.000000 0.000000
vn 0.997973 -0.028743 -0.056780
vn 0.997971 -0.028802 -0.056780
vn 0.000000 -1.000000 0.000000
vn 0.000000 -1.000000 0.000000
vn 0.000000 -1.000000 0.000000
vn 0.000000 -1.000000 0.000000
vn -0.985709 -0.029395 -0.165875
vn -0.985710 -0.029333 -0.165876
vn 0.000000 1.000000 0.000000
vn 0.000000 1.000000 -0.000000
vn 0.998281 -0.014395 -0.056813
vn 0.998281 -0.014395 -0.056813
vn -0.000006 -1.000000 0.000031
vn -0.000015 -1.000000 0.000015
vn 0.000001 -1.000000 0.000007
vn -0.000001 -1.000000 0.000017
vn -0.986028 -0.014696 -0.165929
vn -0.986028 -0.014696 -0.165929
vn 0.000000 -1.000000 -0.000000
vn 0.000000 -1.000000 0.000002
vn 0.054825 -0.000002 -0.998496
vn 0.054825 -0.000002 -0.998496
vn 0.054825 0.000000 -0.998496
vn 0.054825 0.000000 -0.998496
vn 0.000000 1.000000 0.000003
vn 0.000000 1.000000 0.000003
vn -0.054824 -0.000000 0.998496
vn -0.054824 -0.000000 0.998496
vn 0.000000 1.000000 -0.000000
vn 0.000000 1.000000 0.000001
vn 0.000000 1.000000 -0.000000
vn 0.000000 1.000000 0.000000
vn 0.000000 1.000000 -0.000001
vn 0.000000 1.000000 -0.000001
vn -0.054824 0.000000 0.998496
vn -0.054824 0.000000 0.998496
vn -0.000019 -1.000000 0.000010
vn -0.000012 -1.000000 0.000020
vn -0.000016 -1.000000 -0.000002
vn -0.000015 -1.000000 -0.000001
vn 0.000000 -1.000000 -0.000001
vn 0.000000 -1.000000 0.000001
vn 0.000000 -1.000000 0.000001
vn 0.000000 -1.000000 0.000000
vn 0.000000 -1.000000 0.000000
vn 0.000000 -1.000000 0.000000
vn 0.000000 -1.000000 0.000001
vn 0.000000 -1.000000 0.000000
vn 0.000000 -1.000000 0.000000
vn 0.000000 -1.000000 0.000000
vn 0.000000 -1.000000 0.000000
vn 0.000002 -1.000000 -0.000001
vn 0.000001 -1.000000 -0.000001
vn 0.000000 -1.000000 -0.000000
vn 0.000000 -1.000000 -0.000000
vn 0.000000 -1.000000 0.000000
vn 0.000000 -1.000000 0.000000
vn 0.000000 -1.000000 0.000000
vn 0.000000 -1.000000 0.000000
vn -0.000001 -1.000000 0.000016
vn 0.000001 -1.000000 0.000006
vn 0.000000 -1.000000 0.000001
vn 0.000000 -1.000000 0.000000
vn -0.054823 0.000000 0.998496
vn -0.054823 0.000000 0.998496
vn -0.155103 0.000000 0.987898
vn -0.155103 0.000000 0.987898
vn 0.000000 1.000000 0.000000
vn 0.000000 1.000000 -0.000000
vn 0.000000 1.000000 0.000000
vn 0.000000 1.000000 0.000000
vn 0.000000 1.000000 0.000000
vn 0.000000 1.000000 -0.000000
vn 0.000000 1.000000 0.000000
vn 0.000000 1.000000 -0.000000
vn 0.000000 1.000000 0.000000
vn 0.000000 1.000000 0.000000
vn 0.000000 1.000000 0.000000
vn 0.000000 1.000000 0.000002
vn 0.014241 -0.044427 0.998911
vn 0.015469 -0.042408 0.998981
vn -0.048626 -0.075621 0.995950
vn -0.059179 -0.074091 0.995494
vn -0.070630 0.997495 -0.003874
vn -0.070642 0.997494 -0.003875
vn -0.055517 0.998453 -0.003048
vn -0.055520 0.998453 -0.003048
vn 0.059177 0.074092 -0.995494
vn 0.048626 0.075623 -0.995950
vn -0.015469 0.042408 -0.998981
vn -0.014241 0.044427 -0.998911
vn 0.054822 0.000004 -0.998496
vn 0.054821 0.000003 -0.998496
vn -0.117736 0.005181 -0.993032
vn -0.108554 0.004907 -0.994078
vn 0.000000 -1.000000 0.000002
vn 0.000000 -1.000000 0.000001
vn 0.000000 -1.000000 0.000001
vn 0.000000 -1.000000 0.000000
vn 0.000000 -1.000000 0.000000
vn 0.000000 -1.000000 0.000001
vn 0.000000 -1.000000 0.000002
vn -0.054823 0.000000 0.998496
vn -0.054823 0.000000 0.998496
vn 0.000000 1.000000 0.000000
vn 0.000000 1.000000 -0.000001
vn 0.000000 1.000000 -0.000000
vn 0.000000 1.000000 0.000000
vn 0.000000 1.000000 -0.000000
vn 0.000000 1.000000 0.000002
vn -0.072753 -0.072108 0.994740
vn -0.072753 -0.072108 0.994740
vn 0.361769 0.932056 0.019859
vn 0.361769 0.932056 0.019859
vn 0.072749 0.072109 -0.994740
vn 0.072749 0.072109 -0.994740
vn 0.054824 0.000005 -0.998496
vn 0.054824 0.000005 -0.998496
vn -0.942356 -0.306938 -0.133246
vn -0.942356 -0.306937 -0.133246
vn -0.942356 -0.306938 -0.133246
vn -0.942356 -0.306937 -0.133246
vn 0.054823 -0.000001 -0.998496
vn 0.054823 -0.000001 -0.998496
vn 0.054823 -0.000001 -0.998496
vn 0.054823 -0.000001 -0.998496
vn 0.944772 0.307373 0.113702
vn 0.944772 0.307373 0.113702
vn 0.944772 0.307373 0.113702
vn 0.944772 0.307373 0.113702
vn -0.054822 0.000001 0.998496
vn -0.054822 0.000001 0.998496
vn -0.054822 0.000001 0.998496
vn -0.054822 0.000001 0.998496
vn -0.979749 -0.144646 -0.138453
vn -0.979749 -0.144646 -0.138453
vn -0.979749 -0.144646 -0.138453
vn -0.979749 -0.144646 -0.138453
vn 0.053580 0.211781 -0.975847
vn 0.053580 0.211781 -0.975847
vn 0.053580 0.211781 -0.975847
vn 0.053580 0.211781 -0.975847
vn 0.981722 0.149199 0.118157
vn 0.981722 0.149199 0.118157
vn 0.981722 0.149199 0.118157
vn 0.981722 0.149199 0.118157
vn -0.053581 -0.211780 0.975847
vn -0.053581 -0.211780 0.975847
vn -0.053581 -0.211780 0.975847
vn -0.053581 -0.211780 0.975847
vn -0.999734 0.001836 0.023012
vn -0.999734 0.001836 0.023012
vn -0.999734 0.001836 0.023012
vn -0.999734 0.001836 0.023012
vn 0.054820 -0.023624 -0.998217
vn 0.054820 -0.023624 -0.998217
vn 0.054820 -0.023624 -0.998217
vn 0.054820 -0.023624 -0.998217
vn 0.999243 -0.002208 -0.038848
vn 0.999243 -0.002208 -0.038848
vn 0.999243 -0.002208 -0.038848
vn 0.999243 -0.002208 -0.038848
vn -0.054815 0.023624 0.998217
vn -0.054815 0.023624 0.998217
vn -0.054815 0.023624 0.998217
vn -0.054815 0.023624 0.998217
vn -0.992478 0.120264 0.022875
vn -0.992478 0.120264 0.022875
vn -0.992478 0.120264 0.022875
vn -0.992478 0.120264 0.022875
vn 0.054668 0.073787 -0.995775
vn 0.054668 0.073787 -0.995775
vn 0.054668 0.073787 -0.995775
vn 0.054668 0.073787 -0.995775
vn 0.992151 -0.118955 -0.038555
vn 0.992151 -0.118955 -0.038555
vn 0.992151 -0.118955 -0.038555
vn 0.992151 -0.118955 -0.038555
vn -0.054679 -0.073788 0.995774
vn -0.054679 -0.073788 0.995774
vn -0.054679 -0.073788 0.995774
vn -0.054679 -0.073788 0.995774
s 1
g TeacherChair
usemtl initialShadingGroup
f 49/2/1 50/3/2 33/9/3 34/12/4
s off
f 97/5/5 98/61/6 99/79/7 100/87/8
s 2
f 55/142/9 56/10/10 43/11/11 44/159/12
s 3
f 39/13/13 40/14/14 59/15/15 60/16/16
s 4
f 62/146/17 63/18/18 36/19/19 37/157/20
s 5
f 64/1/21 49/4/22 34/21/23 35/22/24
s off
f 11/183/25 12/202/26 14/187/27 13/219/28
s 6
f 63/24/29 64/1/30 35/22/31 36/25/32
s off
f 6/188/33 5/203/34 16/163/35 15/218/36
s 7
f 37/17/37 38/20/38 61/29/39 62/106/40
s off
f 1/165/41 2/34/42 5/182/43 6/204/44
s 8
f 20/181/45 17/36/46 24/178/47 21/38/48
s 9
f 22/176/49 23/179/50 18/184/51 19/180/52
s off
f 8/193/53 7/191/54 12/189/55 11/201/56
s 1
f 50/3/2 51/37/57 48/40/58 33/9/3
s 9
f 19/180/52 18/184/51 8/193/59 11/201/60
s 3
f 38/31/61 39/13/13 60/16/16 61/32/62
s 8
f 2/34/63 17/36/46 20/181/45 5/182/64
s 3
f 40/14/14 41/47/65 58/48/66 59/15/15
s 9
f 26/171/67 27/175/68 23/179/50 22/176/49
s 1
f 46/41/69 47/43/70 52/50/71 53/55/72
s 8
f 21/38/48 24/178/47 28/174/73 25/56/74
s 3
f 41/47/65 42/57/75 57/58/76 58/48/66
s 9
f 30/170/77 31/168/78 27/175/68 26/171/67
s off
f 101/137/79 102/139/80 103/140/81 104/205/82
s 8
f 25/56/74 28/174/73 32/167/83 29/66/84
s 3
f 56/144/85 57/58/76 42/57/75 43/158/86
s 9
f 9/169/87 31/168/78 30/170/77 10/68/88
s 1
f 44/60/89 45/65/90 54/67/91 55/71/92
s 8
f 29/66/84 32/167/83 3/161/93 4/72/94
s 1
f 34/12/4 33/9/3 2/74/95 1/75/96
s 5
f 35/22/24 34/21/23 1/27/97 6/33/98
s 6
f 36/25/32 35/22/31 6/33/99 15/44/100
s 4
f 37/157/20 36/19/19 15/30/101 16/217/102
s 7
f 5/107/103 38/20/38 37/17/37 16/152/104
s 3
f 20/35/105 39/13/13 38/31/61 5/28/106
f 21/177/107 40/14/14 39/13/13 20/35/105
f 25/173/108 41/47/65 40/14/14 21/177/107
f 29/172/109 42/57/75 41/47/65 25/173/108
f 43/158/86 42/57/75 29/172/109 4/162/110
s 2
f 44/159/12 43/11/11 4/72/111 3/161/112
s 1
f 32/91/113 45/65/90 44/60/89 3/113/114
f 28/114/115 46/41/69 45/65/90 32/91/113
f 24/115/116 47/43/70 46/41/69 28/114/115
f 17/116/117 48/40/58 47/43/70 24/115/116
f 33/9/3 48/40/58 17/116/117 2/74/95
f 65/117/118 66/118/119 81/119/120 82/120/121
f 66/118/119 67/121/122 96/122/123 81/119/120
s off
f 105/207/124 106/208/125 107/209/126 108/211/127
s 1
f 94/123/128 95/124/129 68/125/130 69/126/131
s off
f 109/212/132 110/213/133 111/215/134 112/216/135
s 1
f 92/128/136 93/131/137 70/149/138 71/150/139
s 2
f 71/94/140 72/153/141 91/96/142 92/141/143
s 3
f 72/95/144 73/97/145 90/98/146 91/143/147
f 89/99/148 90/98/146 73/97/145 74/100/149
f 88/101/150 89/99/148 74/100/149 75/102/151
f 87/103/152 88/101/150 75/102/151 76/104/153
f 86/105/154 87/103/152 76/104/153 77/197/155
s 7
f 85/186/156 86/195/157 77/196/158 78/198/159
s 4
f 78/108/160 79/151/161 84/110/162 85/145/163
s 6
f 79/73/164 80/76/165 83/109/166 84/111/167
s 5
f 80/76/168 65/112/169 82/147/170 83/109/171
s 1
f 7/154/172 8/155/173 66/118/119 65/117/118
f 8/155/173 18/160/174 67/121/122 66/118/119
f 68/125/130 67/121/122 18/160/174 23/166/175
f 69/126/131 68/125/130 23/166/175 27/185/176
f 70/149/138 69/126/131 27/185/176 31/190/177
f 71/150/139 70/149/138 31/190/177 9/194/178
s 2
f 9/169/179 10/68/180 72/153/141 71/94/140
s 3
f 10/192/181 30/59/182 73/97/145 72/95/144
f 74/100/149 73/97/145 30/59/182 26/49/183
f 75/102/151 74/100/149 26/49/183 22/39/184
f 76/104/153 75/102/151 22/39/184 19/42/185
f 77/197/155 76/104/153 19/42/185 11/23/186
s 7
f 78/198/159 77/196/158 11/199/187 13/200/188
s 4
f 13/26/189 14/220/190 79/151/161 78/108/160
s 6
f 12/148/191 80/76/165 79/73/164 14/156/192
s 5
f 12/148/193 7/164/194 65/112/169 80/76/168
s 1
f 82/120/121 81/119/120 50/3/2 49/2/1
s 5
f 83/109/171 82/147/170 49/4/22 64/1/21
s 6
f 84/111/167 83/109/166 64/1/30 63/24/29
s 4
f 85/145/163 84/110/162 63/18/18 62/146/17
s 7
f 62/106/40 61/29/39 86/195/157 85/186/156
s 3
f 61/32/62 60/16/16 87/103/152 86/105/154
f 60/16/16 59/15/15 88/101/150 87/103/152
f 59/15/15 58/48/66 89/99/148 88/101/150
f 58/48/66 57/58/76 90/98/146 89/99/148
f 91/143/147 90/98/146 57/58/76 56/144/85
s 2
f 92/141/143 91/96/142 56/10/10 55/142/9
s 1
f 55/71/92 54/67/91 93/131/137 92/128/136
f 54/67/91 53/55/72 94/123/128 93/131/137
f 53/55/72 52/50/71 95/124/129 94/123/128
f 52/50/71 51/37/57 96/122/123 95/124/129
f 81/119/120 96/122/123 51/37/57 50/3/2
s off
f 47/52/195 48/130/196 98/136/197 97/206/198
f 48/46/199 51/45/200 99/7/201 98/6/202
f 51/45/203 52/53/204 100/8/205 99/7/206
f 52/53/207 47/52/208 97/206/209 100/8/210
f 45/69/211 46/129/212 102/135/213 101/214/214
f 46/51/215 53/54/216 103/63/217 102/62/218
f 53/54/219 54/70/220 104/64/221 103/63/222
f 54/70/223 45/69/224 101/214/225 104/64/226
f 95/84/227 96/132/228 106/134/229 105/210/230
f 96/78/231 67/77/232 107/81/233 106/80/234
f 67/77/235 68/85/236 108/82/237 107/81/238
f 68/85/239 95/84/240 105/210/241 108/82/242
f 93/92/243 94/127/244 110/133/245 109/138/246
f 94/83/247 69/86/248 111/89/249 110/88/250
f 69/86/251 70/93/252 112/90/253 111/89/254
f 70/93/255 93/92/256 109/138/257 112/90/258
