# This file uses centimeters as units for non-parametric coordinates.

mtllib DonutPaths.mtl
g default
v -12.020078 -0.092510 11.018453
v -1.967159 -0.094438 11.015895
v -11.497329 0.005801 7.746172
v -1.903241 0.012031 8.111462
v -9.496532 -0.097689 11.018453
v -9.715775 0.011035 8.054729
v -6.835798 -0.112060 11.018453
v -6.641782 0.057899 8.112871
v -4.044599 -0.116514 11.018453
v -4.327875 0.035076 8.110529
v -15.223467 -0.092510 11.018453
v -14.539317 0.005801 7.196542
v -19.692071 -0.092510 11.018453
v -19.716098 0.005801 7.307578
v -12.185123 -0.092510 11.018453
v -11.625488 0.005801 7.168337
vt 0.370096 0.021353
vt 0.482507 0.021353
vt 0.472741 0.162851
vt 0.393382 0.177583
vt 0.609671 0.160075
vt 0.601029 0.021353
vt 0.725362 0.021353
vt 0.712743 0.160187
vt 0.817901 0.021475
vt 0.820748 0.160143
vt 0.362744 0.021353
vt 0.387673 0.205171
vt 0.257877 0.203824
vt 0.227402 0.021353
vt 0.027279 0.198523
vt 0.028349 0.021353
vn -0.002383 0.999450 0.033066
vn -0.004509 0.999140 0.041208
vn -0.004209 0.999188 0.040060
vn -0.002383 0.999450 0.033066
vn -0.000717 0.998694 0.051081
vn -0.000857 0.998699 0.050988
vn 0.002891 0.998748 0.049945
vn 0.003027 0.998733 0.050233
vn 0.000231 0.999016 0.044346
vn 0.000231 0.999016 0.044346
vn -0.002060 0.999675 0.025411
vn -0.000150 0.999672 0.025611
vn 0.000121 0.999671 0.025640
vn 0.000121 0.999671 0.025640
vn 0.000301 0.999659 0.026119
vn 0.000301 0.999659 0.026119
vn 0.000301 0.999659 0.026119
vn 0.000301 0.999659 0.026119
vn -0.041820 0.998900 0.021220
vn -0.041820 0.998900 0.021220
s 1
g LeftGrass DonutPaths
usemtl initialShadingGroup
f 1/1/1 5/2/2 6/3/3 3/4/4
f 8/5/5 6/3/3 5/2/2 7/6/6
f 8/5/5 7/6/6 9/7/7 10/8/8
f 10/8/8 9/7/7 2/9/9 4/10/10
s 2
f 15/11/11 16/12/12 12/13/13 11/14/14
s off
f 11/14/15 12/13/16 14/15/17 13/16/18
s 2
f 1/1/19 3/4/20 16/12/12 15/11/11
g default
v -11.498693 0.107142 7.550509
v -10.103985 0.107142 7.635814
v -11.348967 0.107142 0.334824
v -9.704654 0.107142 0.326880
v -11.226150 0.107142 5.015873
v -9.586392 0.107142 5.077187
v 13.109744 -0.227755 7.282754
v 13.112023 -0.046185 5.056978
v 13.109744 -0.046185 7.282754
v 9.623751 0.132704 4.981059
v 9.403264 0.020676 7.789511
v 9.403264 -0.160895 7.789511
v 8.878230 0.124533 0.250253
v 13.103552 -0.046185 -0.365521
v -1.761014 0.066041 5.081438
v -1.902155 0.016214 7.908671
v -1.902155 -0.165357 7.908671
v 2.253339 0.031506 7.900730
v 2.366205 0.083667 5.058814
v 9.283809 -0.119760 11.019153
v 9.367148 -0.309641 11.038178
v 13.061940 -0.268401 11.035937
v 13.008417 -0.124475 11.021638
v 0.735124 0.063747 5.067390
v 0.631599 -0.014520 7.873085
v 0.632571 -0.196091 7.847092
v -1.966468 -0.092199 11.011761
v -1.966468 -0.254185 11.011761
v 0.602869 -0.284919 11.020414
v 0.602869 -0.103348 11.020414
v 9.280794 -0.318588 12.911543
v 13.007178 -0.341607 12.922360
v 13.013454 -0.137268 12.913691
v 9.281602 -0.120379 12.915062
v 9.279632 -0.318588 12.942624
v 13.006016 -0.341607 12.953442
v -1.630001 0.073712 3.467590
v 0.796035 0.063747 3.457727
vt 0.056505 0.709754
vt 0.116942 0.707439
vt 0.112583 0.886833
vt 0.051978 0.886533
vt 0.046460 0.614034
vt 0.097865 0.610813
vt 0.824973 0.711069
vt 0.816846 0.605009
vt 0.953456 0.624146
vt 0.953540 0.708202
vt 0.497363 0.707809
vt 0.493548 0.601852
vt 0.553320 0.600808
vt 0.557480 0.708133
vt 0.953228 0.912981
vt 0.797495 0.889726
vt 0.400161 0.600509
vt 0.405363 0.707278
vt 0.806115 0.605009
vt 0.805013 0.482324
vt 0.812443 0.483042
vt 0.965651 0.624146
vt 0.949722 0.482948
vt 0.963889 0.482408
vt 0.397790 0.483321
vt 0.382683 0.463774
vt 0.507251 0.463344
vt 0.492489 0.482994
vt 0.385801 0.597080
vt 0.508691 0.600139
vt 0.812332 0.411577
vt 0.949676 0.411168
vt 0.965832 0.411495
vt 0.800566 0.411444
vt 0.812289 0.410403
vt 0.949633 0.409994
vt 0.499608 0.768597
vt 0.410191 0.768225
vt 0.507251 0.463344
vt 0.382683 0.463774
vn -0.000000 1.000000 -0.000000
vn -0.000000 1.000000 -0.000000
vn -0.000000 1.000000 -0.000000
vn -0.000000 1.000000 -0.000000
vn -0.000000 1.000000 -0.000000
vn -0.000000 1.000000 -0.000000
vn 0.010005 0.999578 0.027259
vn 0.008220 0.999588 0.027500
vn 0.035551 0.999084 0.023806
vn 0.035551 0.999084 0.023806
vn -0.004106 0.999733 0.022740
vn -0.003627 0.999735 0.022752
vn -0.005806 0.999602 0.027624
vn -0.005452 0.999600 0.027753
vn 0.044987 0.998979 -0.004145
vn 0.044987 0.998979 -0.004145
vn 0.044987 0.998979 -0.004145
vn 0.044987 0.998979 -0.004145
vn 0.008060 0.999915 0.010237
vn 0.008060 0.999915 0.010237
vn 0.007758 0.999882 0.013280
vn 0.007728 0.999878 0.013588
vn -0.974837 -0.220424 -0.033249
vn -0.974837 -0.220424 -0.033249
vn -0.974837 -0.220424 -0.033249
vn -0.974837 -0.220424 -0.033249
vn 0.986349 0.163163 0.022224
vn 0.986349 0.163163 0.022224
vn 0.986349 0.163163 0.022224
vn 0.986349 0.163163 0.022224
vn 0.011781 0.999427 0.031743
vn 0.011781 0.999427 0.031743
vn 0.011781 0.999427 0.031743
vn 0.011781 0.999427 0.031743
vn -0.003368 0.000000 0.999994
vn -0.003368 0.000000 0.999994
vn -0.003368 0.000000 0.999994
vn -0.003368 0.000000 0.999994
vn -0.999785 0.000000 -0.020721
vn -0.999785 0.000000 -0.020721
vn -0.999785 0.000000 -0.020721
vn -0.999785 0.000000 -0.020721
vn 0.999955 0.002014 0.009301
vn 0.999955 0.002014 0.009301
vn 0.999955 0.002014 0.009301
vn 0.999955 0.002014 0.009301
vn 0.008370 0.999464 0.031664
vn 0.008370 0.999463 0.031664
vn 0.008370 0.999464 0.031664
vn 0.008370 0.999464 0.031664
vn 0.003505 0.994034 0.109011
vn 0.003505 0.994034 0.109011
vn 0.003505 0.994034 0.109011
vn 0.003505 0.994034 0.109011
vn -0.999521 0.030821 0.002869
vn -0.999521 0.030821 0.002869
vn -0.999521 0.030821 0.002869
vn 0.999991 -0.004099 0.001163
vn 0.999991 -0.004099 0.001163
vn 0.999991 -0.004099 0.001163
vn 0.006177 0.999981 0.000231
vn 0.006177 0.999981 0.000231
vn 0.006177 0.999981 0.000231
vn 0.006177 0.999981 0.000231
vn 0.002503 0.999994 0.002529
vn 0.002503 0.999994 0.002529
vn 0.002503 0.999994 0.002529
vn 0.002503 0.999994 0.002529
s 1
g DonutPaths Path
usemtl initialShadingGroup
f 21/17/21 22/18/22 20/19/23 19/20/24
f 17/21/25 18/22/26 22/18/22 21/17/21
s 2
f 26/23/27 27/24/28 25/25/29 24/26/30
f 40/27/31 41/28/32 34/29/33 35/30/34
s off
f 26/23/35 24/26/36 30/31/37 29/32/38
s 2
f 22/18/39 18/22/40 32/33/41 31/34/42
f 35/30/34 34/29/33 27/24/28 26/23/27
s off
f 27/24/43 28/35/44 37/36/45 36/37/46
f 23/38/47 25/25/48 39/39/49 38/40/50
f 25/25/51 27/24/52 36/37/53 39/39/54
s 2
f 31/34/42 32/33/41 41/28/32 40/27/31
s off
f 43/41/55 44/56/56 45/43/57 46/44/58
f 32/33/59 33/45/60 44/42/61 43/41/62
f 42/46/63 41/28/64 46/44/65 45/55/66
f 41/28/67 32/33/68 43/41/69 46/44/70
f 39/39/71 36/37/72 47/47/73 48/48/74
f 39/39/75 48/48/76 49/49/77
f 36/37/78 50/50/79 47/47/80
f 48/48/81 47/47/82 51/51/83 52/52/84
f 31/34/85 40/27/86 54/53/87 53/54/88
g default
v 0.597575 -0.092510 11.018453
v 9.278194 -0.123304 11.018453
v 0.625752 -0.013280 8.078789
v 9.398329 0.012031 7.998159
v 2.058727 -0.097689 11.018453
v 2.112576 0.011035 8.110909
v 3.820772 -0.103935 11.018453
v 3.888643 0.012469 8.118418
v 6.113122 -0.112060 11.018453
v 6.204499 0.002789 8.112871
v 7.369694 -0.116514 11.018453
v 7.443348 0.006449 8.110528
vt 0.031319 0.214575
vt 0.156299 0.214575
vt 0.160905 0.441153
vt 0.033729 0.443657
vt 0.307015 0.214575
vt 0.312821 0.440568
vt 0.503091 0.214575
vt 0.510907 0.441001
vt 0.610572 0.214575
vt 0.616872 0.441183
vt 0.773816 0.214575
vt 0.784091 0.449940
vn -0.006837 0.999463 0.032031
vn -0.002445 0.999360 0.035675
vn -0.002477 0.999361 0.035648
vn -0.006837 0.999464 0.032031
vn 0.002757 0.999219 0.039406
vn 0.002772 0.999219 0.039413
vn 0.002674 0.999186 0.040247
vn 0.002640 0.999186 0.040256
vn 0.001101 0.999095 0.042525
vn 0.001133 0.999092 0.042595
vn 0.001580 0.999049 0.043581
vn 0.001580 0.999049 0.043581
s 1
g DonutPaths RightGrass
usemtl initialShadingGroup
f 55/57/89 59/58/90 60/59/91 57/60/92
f 60/59/91 59/58/90 61/61/93 62/62/94
f 62/62/94 61/61/93 63/63/95 64/64/96
f 64/64/96 63/63/95 65/65/97 66/66/98
f 66/66/98 65/65/97 56/67/99 58/68/100
