# This file uses centimeters as units for non-parametric coordinates.

mtllib Bench.mtl
g default
v -56.726231 0.586140 35.205338
v -53.248425 0.586140 35.205338
v -56.726231 4.877108 36.265881
v -53.248425 4.877108 36.265881
v -56.726231 3.819534 8.542966
v -53.248425 3.819534 8.542966
v -56.726231 0.586140 8.976857
v -53.248425 0.586140 8.976857
v -56.726234 4.465538 36.265877
v -53.248425 4.465538 36.265877
v -53.248421 3.407964 8.542966
v -56.726231 3.407964 8.542966
v -56.726234 4.465538 36.629990
v -53.248425 4.465538 36.629990
v -53.248425 4.877108 36.629993
v -56.726231 4.877108 36.629993
v -56.726231 3.819534 8.178853
v -53.248425 3.819534 8.178853
v -53.248421 3.407964 8.178853
v -56.726231 3.407964 8.178853
v -52.880913 4.465538 36.265877
v -52.880909 3.407964 8.542966
v -52.880913 3.819534 8.542966
v -52.880913 4.877108 36.265881
v -52.880913 4.877108 36.629993
v -52.880913 4.465538 36.629990
v -52.880909 3.407964 8.178853
v -52.880913 3.819534 8.178853
v -56.726231 4.348321 22.404423
v -53.248425 4.348321 22.404423
v -52.880913 4.348321 22.404423
v -52.880913 3.936751 22.404421
v -53.248421 3.936751 22.404421
v -53.248425 0.586140 22.091097
vt 0.768734 0.651563
vt 0.615213 0.680494
vt 0.774308 0.026635
vt 0.774336 0.214564
vt 0.033424 0.241797
vt 0.033453 0.429727
vt 0.648669 0.858026
vt 0.802190 0.829096
vt 0.636923 0.491798
vt 0.539733 0.961577
vt 0.835224 0.961536
vt 0.835227 0.986493
vt 0.539737 0.986533
vt 0.835276 0.961674
vt 0.539785 0.961771
vt 0.974933 0.011153
vt 0.968706 0.199274
vt 0.946443 0.198537
vt 0.952671 0.010417
vt 0.916873 0.988846
vt 0.923101 0.800726
vt 0.945363 0.801463
vt 0.939136 0.989583
vt 0.948923 0.988846
vt 0.971185 0.989583
vt 0.946673 0.761888
vt 0.924411 0.761152
vt 0.967396 0.238848
vt 0.945133 0.238111
vt 0.945785 0.218416
vt 0.968048 0.219153
vt 0.946022 0.781584
vt 0.923759 0.780847
vt 0.649774 0.619399
vt 0.805211 0.603744
vt 0.792360 0.476143
vt 0.539794 0.986728
vt 0.835284 0.986631
vt 0.540012 0.961635
vt 0.835502 0.961635
vt 0.835502 0.986592
vt 0.540012 0.986592
vt 0.835502 0.961635
vt 0.540012 0.961635
vt 0.540012 0.986592
vt 0.835502 0.986592
vt 0.866728 0.961635
vt 0.866449 0.961532
vt 0.866501 0.961664
vt 0.866728 0.961635
vt 0.866509 0.986621
vt 0.866453 0.986489
vt 0.866728 0.986592
vt 0.866728 0.986592
vt 0.782998 0.241685
vt 0.024763 0.214677
vt 0.834963 0.011588
vt 0.866189 0.011578
vt 0.866728 0.011549
vt 0.835502 0.011549
vt 0.866319 0.011446
vt 0.835094 0.011450
vt 0.029945 0.784223
vt 0.028033 0.633068
vt 0.866728 0.011549
vt 0.835502 0.011549
vt 0.920622 0.010417
vt 0.942884 0.011154
vt 0.026726 0.610636
vt 0.048633 0.461066
vt 0.024734 0.026747
vt 0.783026 0.429614
vn 0.000000 -0.000009 1.000000
vn 0.000000 -0.000009 1.000000
vn 0.000000 -0.000009 1.000000
vn 0.000000 -0.000009 1.000000
vn 0.000000 0.999273 -0.038120
vn 0.000000 0.999273 -0.038120
vn 0.000000 0.999273 -0.038120
vn 0.000000 0.999273 -0.038120
vn 0.000000 0.000000 -1.000000
vn 0.000000 0.000000 -1.000000
vn 0.000000 0.000000 -1.000000
vn 0.000000 0.000000 -1.000000
vn 1.000000 -0.000007 -0.000000
vn 1.000000 -0.000007 -0.000000
vn 1.000000 -0.000011 -0.000000
vn 1.000000 -0.000011 -0.000000
vn 0.000000 -0.263701 0.964605
vn 0.000000 -0.263701 0.964604
vn 0.000000 -0.263701 0.964604
vn 0.000000 -0.263701 0.964604
vn 1.000000 -0.000001 0.000000
vn 1.000000 -0.000001 0.000000
vn 1.000000 -0.000001 0.000000
vn 1.000000 -0.000001 0.000000
vn 0.000000 -0.151977 -0.988384
vn 0.000000 -0.151977 -0.988384
vn 0.000000 -0.151977 -0.988384
vn 0.000000 -0.151977 -0.988384
vn 0.000000 -1.000000 0.000000
vn 0.000000 -1.000000 0.000000
vn 0.000000 -1.000000 0.000000
vn 0.000000 -1.000000 0.000000
vn 1.000000 0.000000 0.000000
vn 1.000000 0.000000 0.000000
vn 1.000000 0.000000 0.000000
vn 1.000000 0.000000 0.000000
vn 0.000000 1.000000 0.000000
vn 0.000000 1.000000 0.000000
vn 0.000000 1.000000 0.000000
vn 0.000000 1.000000 0.000000
vn 0.000000 1.000000 0.000000
vn 0.000000 1.000000 0.000000
vn 0.000000 1.000000 0.000000
vn 0.000000 1.000000 0.000000
vn 1.000000 0.000000 0.000000
vn 1.000000 0.000000 0.000000
vn 1.000000 0.000000 0.000000
vn 1.000000 0.000000 0.000000
vn 0.000000 -1.000000 0.000000
vn 0.000000 -1.000000 0.000000
vn 0.000000 -1.000000 0.000000
vn 0.000000 -1.000000 0.000000
vn 0.000000 -0.999273 0.038121
vn 0.000000 -0.999273 0.038121
vn 0.000000 -0.999273 0.038121
vn 0.000000 -0.999273 0.038121
vn 0.000000 0.999273 -0.038120
vn 0.000000 0.999273 -0.038120
vn 0.000000 0.999273 -0.038120
vn 0.000000 0.999273 -0.038120
vn 0.000000 1.000000 0.000000
vn 0.000000 1.000000 0.000000
vn 0.000000 1.000000 0.000000
vn 0.000000 1.000000 0.000000
vn 0.000000 -0.000009 1.000000
vn 0.000000 -0.000009 1.000000
vn 0.000000 -0.000009 1.000000
vn 0.000000 -0.000009 1.000000
vn 0.000000 -1.000000 0.000000
vn 0.000000 -1.000000 0.000000
vn 0.000000 -1.000000 0.000000
vn 0.000000 -1.000000 0.000000
vn 0.000000 -1.000000 0.000000
vn 0.000000 -1.000000 0.000000
vn 0.000000 -1.000000 0.000000
vn 0.000000 -1.000000 0.000000
vn 0.000000 0.000000 -1.000000
vn 0.000000 0.000000 -1.000000
vn 0.000000 0.000000 -1.000000
vn 0.000000 0.000000 -1.000000
vn 0.000000 1.000000 0.000000
vn 0.000000 1.000000 0.000000
vn 0.000000 1.000000 0.000000
vn 0.000000 1.000000 0.000000
vn 0.000000 0.999273 -0.038120
vn 0.000000 0.999273 -0.038120
vn 0.000000 0.999273 -0.038120
vn 0.000000 0.999273 -0.038120
vn 1.000000 -0.000003 0.000000
vn 1.000000 -0.000003 0.000000
vn 0.000000 -0.999273 0.038121
vn 0.000000 -0.999273 0.038121
vn 1.000000 -0.000001 0.000000
vn 1.000000 -0.000001 0.000000
s off
g Bench
usemtl initialShadingGroup
f 13/16/1 14/17/2 15/18/3 16/19/4
s 1
f 29/55/5 30/72/6 6/6/7 5/5/8
s off
f 17/20/9 18/21/10 19/22/11 20/23/12
s 2
f 31/67/13 32/68/14 22/26/15 23/27/16
s off
f 1/1/17 2/2/18 10/7/19 9/8/20
s 3
f 33/69/21 34/70/22 8/9/23 11/34/24
s off
f 12/35/25 11/34/26 8/9/27 7/36/28
f 9/10/29 10/11/30 14/12/31 13/13/32
f 21/28/33 24/29/34 25/30/35 26/31/36
f 4/14/37 3/15/38 16/37/39 15/38/40
f 5/39/41 6/40/42 18/41/43 17/42/44
f 23/27/45 22/26/46 27/32/47 28/33/48
f 11/43/49 12/44/50 20/45/51 19/46/52
s 4
f 32/65/53 33/66/54 11/43/55 22/47/56
s 5
f 6/40/57 30/60/58 31/59/59 23/50/60
s off
f 4/14/61 15/38/62 25/51/63 24/49/64
f 15/18/65 14/17/66 26/31/67 25/30/68
f 14/12/69 10/11/70 21/48/71 26/52/72
f 11/43/73 19/46/74 27/53/75 22/47/76
f 19/22/77 18/21/78 28/33/79 27/32/80
f 18/41/81 6/40/82 23/50/83 28/54/84
s 1
f 3/3/85 4/4/86 30/56/6 29/71/5
s 5
f 31/58/59 30/57/58 4/14/87 24/49/88
s 2
f 21/28/89 32/25/14 31/24/13 24/29/90
s 4
f 10/11/91 33/62/54 32/61/53 21/48/92
s 3
f 2/2/93 34/64/22 33/63/21 10/7/94
