# This file uses centimeters as units for non-parametric coordinates.

mtllib Book2.mtl
g default
v 3.010081 2.772851 -0.343719
v 3.008390 2.772851 -0.238381
v 3.010081 3.214043 -0.343719
v 3.008390 3.214043 -0.238381
v 3.338874 3.153626 -0.338440
v 3.337183 3.153626 -0.233103
v 3.342443 2.711411 -0.338383
v 3.340751 2.711411 -0.233045
v 3.008452 2.772851 -0.242307
v 3.340814 2.711411 -0.236971
v 3.337246 3.153626 -0.237029
v 3.008452 3.214043 -0.242307
v 3.010018 2.772851 -0.339844
v 3.342380 2.711411 -0.334508
v 3.338812 3.153626 -0.334566
v 3.010018 3.214043 -0.339844
v 3.016536 3.214043 -0.343616
v 3.016474 3.214043 -0.339741
v 3.014908 3.214043 -0.242204
v 3.014845 3.214043 -0.238278
v 3.014845 2.772851 -0.238278
v 3.014908 2.772851 -0.242204
v 3.016474 2.772851 -0.339741
v 3.016536 2.772851 -0.343616
v 3.019358 2.788630 -0.242213
v 3.020921 2.788630 -0.339589
v 3.325903 2.727189 -0.334692
v 3.324340 2.727189 -0.237316
v 3.322336 3.137848 -0.334749
v 3.320772 3.137848 -0.237374
v 3.020921 3.198265 -0.339589
v 3.019358 3.198265 -0.242213
vt 0.309328 0.407025
vt 0.829674 0.407085
vt 0.829674 0.411716
vt 0.309327 0.411656
vt 0.949670 0.240236
vt 0.400096 0.147211
vt 0.309327 0.419271
vt 0.949669 0.247323
vt 0.151387 0.240181
vt 0.151386 0.247268
vt 0.829673 0.419331
vt 0.869226 0.146705
vt 0.153669 0.263400
vt 0.829689 0.279848
vt 0.309343 0.279788
vt 0.972243 0.263366
vt 0.492538 0.095345
vt 0.573443 0.095034
vt 0.411795 0.190767
vt 0.995837 0.190924
vt 0.968639 0.206580
vt 0.431180 0.206664
vt 0.573429 0.108631
vt 0.492657 0.108941
vt 0.309341 0.291974
vt 0.829687 0.292033
vt 0.153670 0.270574
vt 0.869232 0.152321
vt 0.972243 0.270539
vt 0.400103 0.152827
vt 0.829688 0.287463
vt 0.309342 0.287403
vt 0.016459 0.010643
vt 0.109063 0.010648
vt 0.109046 0.306512
vt 0.016442 0.306506
vt 0.109025 0.697012
vt 0.016421 0.697007
vt 0.109008 0.989357
vt 0.016404 0.989352
vt 0.565355 0.977073
vt 0.611247 0.486279
vt 0.980232 0.451835
vt 0.930264 0.943397
vt 0.131830 0.464907
vt 0.501562 0.490089
vt 0.559745 0.979578
vt 0.194107 0.955061
vt 0.847438 0.119645
vt 0.830724 0.128514
vt 0.218740 0.122062
vt 0.235522 0.130802
vt 0.218006 0.451321
vt 0.120946 0.257848
vt 0.131764 0.257795
vt 0.225012 0.437995
vt 0.120946 0.193471
vt 0.131765 0.193524
vt 0.218012 0.000000
vt 0.225018 0.013327
vt 0.995917 0.180510
vt 0.498103 0.180490
vt 0.516014 0.162087
vt 0.978306 0.161818
vt 0.980505 0.219675
vt 0.980508 0.227760
vt 0.297495 0.227979
vt 0.297491 0.219894
vt 0.297561 0.436835
vt 0.297559 0.428854
vt 0.980571 0.428635
vt 0.980574 0.436615
vt 0.869069 0.001636
vt 0.869075 0.007179
vt 0.399946 0.007684
vt 0.399940 0.002142
vt 0.878304 0.001626
vt 0.878310 0.007169
vt 0.878461 0.146695
vt 0.878467 0.152311
vt 0.993803 0.227756
vt 0.993800 0.219671
vt 0.993868 0.428630
vt 0.993870 0.436611
vn -0.999871 0.000000 -0.016051
vn -0.999871 0.000000 -0.016051
vn -0.999872 0.000000 -0.016017
vn -0.999872 0.000000 -0.016017
vn 0.184179 0.982888 0.002896
vn 0.122541 0.992462 0.001927
vn 0.180682 0.983538 0.002841
vn 0.184179 0.982888 0.002896
vn 0.999839 0.008071 0.016017
vn 0.999839 0.008071 0.016017
vn 0.999839 0.008071 0.016017
vn 0.999839 0.008071 0.016017
vn -0.181737 -0.983343 -0.002871
vn -0.123698 -0.992318 -0.001954
vn -0.185215 -0.982694 -0.002926
vn -0.185215 -0.982694 -0.002926
vn -0.016053 0.000000 0.999871
vn -0.016053 0.000000 0.999871
vn -0.016053 0.000000 0.999871
vn -0.016053 0.000000 0.999871
vn 0.016053 0.000000 -0.999871
vn 0.016053 0.000000 -0.999871
vn 0.016053 0.000000 -0.999871
vn 0.016053 0.000000 -0.999871
vn -0.197438 -0.980310 -0.003169
vn -0.197438 -0.980310 -0.003169
vn -0.197438 -0.980310 -0.003169
vn -0.197438 -0.980310 -0.003169
vn 0.999833 0.008689 0.016052
vn 0.999833 0.008689 0.016052
vn 0.999833 0.008689 0.016052
vn 0.999833 0.008689 0.016052
vn 0.196485 0.980502 0.003154
vn 0.196485 0.980502 0.003154
vn 0.196485 0.980502 0.003154
vn 0.196485 0.980502 0.003154
vn -0.999871 0.000000 -0.016054
vn -0.999871 0.000000 -0.016054
vn -0.185214 -0.982694 -0.002965
vn -0.185214 -0.982694 -0.002965
vn -0.123182 -0.992382 -0.001970
vn -0.181736 -0.983343 -0.002906
vn 0.999839 0.008071 0.016050
vn 0.999839 0.008071 0.016050
vn 0.999839 0.008071 0.016050
vn 0.999839 0.008071 0.016050
vn 0.180678 0.983538 0.002860
vn 0.122023 0.992526 0.001931
vn 0.184175 0.982889 0.002913
vn 0.184175 0.982889 0.002913
vn -0.999870 0.000000 -0.016110
vn -0.999870 0.000000 -0.016110
vn 0.000000 1.000000 0.000136
vn 0.000000 1.000000 0.000005
vn 0.000000 1.000000 0.000000
vn 0.000000 1.000000 0.000000
vn -0.016054 0.000000 0.999871
vn -0.016054 0.000000 0.999871
vn 0.000000 -1.000000 -0.000000
vn 0.000000 -1.000000 0.000025
vn 0.000000 -1.000000 0.000004
vn 0.000000 -1.000000 0.000136
vn 0.016054 0.000000 -0.999871
vn 0.016054 0.000000 -0.999871
vn 0.962335 -0.271426 0.015452
vn 0.962335 -0.271426 0.015452
vn 0.962335 -0.271426 0.015452
vn 0.962335 -0.271426 0.015452
vn -0.017129 -0.005526 0.999838
vn -0.017129 -0.005526 0.999838
vn -0.017129 -0.005526 0.999838
vn -0.017129 -0.005526 0.999838
vn 0.014979 -0.005519 -0.999873
vn 0.014979 -0.005519 -0.999873
vn 0.014979 -0.005519 -0.999873
vn 0.014979 -0.005519 -0.999873
vn -0.011145 0.000041 0.999938
vn -0.011145 0.000041 0.999938
vn -0.011145 0.000041 0.999938
vn -0.011145 0.000041 0.999938
vn 0.020950 0.000041 -0.999781
vn 0.020950 0.000041 -0.999781
vn 0.020950 0.000041 -0.999781
vn 0.020950 0.000041 -0.999781
vn -0.015129 0.004764 0.999874
vn -0.015129 0.004764 0.999874
vn -0.015129 0.004764 0.999874
vn -0.015129 0.004764 0.999874
vn 0.962337 0.271421 0.015453
vn 0.962337 0.271421 0.015453
vn 0.962337 0.271421 0.015453
vn 0.962337 0.271421 0.015453
vn 0.016974 0.004758 -0.999845
vn 0.016974 0.004758 -0.999845
vn 0.016974 0.004758 -0.999845
vn 0.016974 0.004758 -0.999845
s 1
g Book2
usemtl initialShadingGroup
f 12/1/1 9/2/2 2/3/3 4/4/4
s 2
f 11/6/5 19/12/6 20/28/7 6/30/8
s off
f 10/9/9 11/5/10 6/8/11 8/10/12
s 3
f 21/65/13 22/66/14 10/67/15 8/68/16
s 4
f 20/41/17 21/42/18 8/43/19 6/44/20
s 5
f 7/45/21 24/46/22 17/47/23 5/48/24
s off
f 25/33/25 26/34/26 27/35/27 28/36/28
f 27/35/29 29/37/30 30/38/31 28/36/32
f 29/37/33 31/39/34 32/40/35 30/38/36
s 1
f 16/25/37 13/26/38 9/2/2 12/1/1
s 3
f 7/69/39 14/70/40 23/71/41 24/72/42
s off
f 5/16/43 15/29/44 14/27/45 7/13/46
s 2
f 17/73/47 18/74/48 15/75/49 5/76/50
s 1
f 1/31/51 13/26/38 16/25/37 3/32/52
s 2
f 3/77/53 16/78/54 18/74/48 17/73/47
f 19/12/6 18/74/48 16/78/54 12/79/55
f 20/28/7 19/12/6 12/79/55 4/80/56
s 4
f 2/3/57 21/11/18 20/7/17 4/4/58
s 3
f 9/81/59 22/66/14 21/65/13 2/82/60
f 13/83/61 23/71/41 22/66/14 9/81/59
f 24/72/42 23/71/41 13/83/61 1/84/62
s 5
f 17/15/23 24/14/22 1/31/63 3/32/64
s off
f 22/17/65 23/18/66 26/23/67 25/24/68
f 23/18/69 14/49/70 27/50/71 26/23/72
f 10/51/73 22/17/74 25/24/75 28/52/76
f 14/19/77 15/20/78 29/21/79 27/22/80
f 11/61/81 10/62/82 28/63/83 30/64/84
f 15/53/85 18/54/86 31/55/87 29/56/88
f 18/54/89 19/57/90 32/58/91 31/55/92
f 19/57/93 11/59/94 30/60/95 32/58/96
