# This file uses centimeters as units for non-parametric coordinates.

mtllib Chair2.mtl
g default
v -27.145281 2.181251 19.912958
v -27.134367 2.181251 19.797218
v -26.618606 2.181251 17.108494
v -26.618606 2.282745 17.108494
v -27.090038 2.282745 19.797218
v -27.090038 2.282745 19.912958
v -28.709078 2.181251 19.926641
v -28.720920 2.181251 19.810902
v -28.616996 2.181251 17.743111
v -28.616996 2.282745 17.743111
v -28.764320 2.282745 19.810902
v -28.764320 2.282745 19.926641
v -29.030590 5.232813 19.810902
v -29.030590 5.232813 19.926641
v -26.205013 4.671574 19.926641
v -26.205013 4.671574 19.810902
v -27.120908 2.181251 19.649679
v -28.734333 2.181251 19.700947
v -28.775562 2.282745 19.700947
v -27.078798 2.282745 19.662304
v -27.068113 2.282745 19.510834
v -28.786247 2.282745 19.596493
v -28.747076 2.181251 19.596493
v -27.108114 2.181251 19.510834
v -26.649053 2.282745 17.406193
v -28.586549 2.282745 18.040810
v -28.580677 2.181251 18.040810
v -26.655050 2.181251 17.406193
v -26.633831 2.282745 17.257343
v -28.601772 2.282745 17.891960
v -28.598833 2.181251 17.891960
v -26.636833 2.181251 17.257343
v -27.353500 2.181251 19.810902
v -27.360996 2.181251 19.926641
v -27.322328 2.282745 19.926641
v -26.628851 5.271002 19.926641
v -26.628851 5.271002 19.810902
v -27.322328 2.282745 19.810902
v -27.314460 2.282745 19.700947
v -27.306982 2.282745 19.596493
v -26.939678 2.282745 17.406193
v -26.929020 2.282745 17.257343
v -26.918361 2.282745 17.108494
v -26.918361 2.181251 17.108494
v -26.823734 2.181251 17.257343
v -26.836504 2.181251 17.406193
v -27.271492 2.181251 19.596493
v -27.280456 2.181251 19.700947
v -27.483244 2.181251 19.926641
v -27.477672 2.181251 19.810902
v -27.406915 2.181251 19.700947
v -27.400123 2.181251 19.596493
v -27.000183 2.181251 17.406193
v -26.990505 2.181251 17.257343
v -27.088230 2.181251 17.108494
v -27.088230 2.282745 17.108494
v -27.096292 2.282745 17.257343
v -27.104362 2.282745 17.406193
v -27.442342 2.282745 19.596493
v -27.448002 2.282745 19.700947
v -27.453962 2.282745 19.810902
v -26.869026 5.271002 19.810902
v -26.869026 5.271002 19.926641
v -27.453962 2.282745 19.926641
v -28.544058 2.181251 19.926641
v -28.553285 2.181251 19.810902
v -28.619610 2.181251 19.700947
v -28.629429 2.181251 19.596493
v -28.457132 2.181251 18.040810
v -28.471119 2.181251 17.891960
v -28.387682 2.181251 17.743111
v -28.387682 2.282745 17.743111
v -28.375955 2.282745 17.891960
v -28.364219 2.282745 18.040810
v -28.603512 2.282745 19.596493
v -28.595281 2.282745 19.700947
v -28.586620 2.282745 19.810902
v -28.706360 4.921288 19.810902
v -28.706360 4.921288 19.926641
v -28.586620 2.282745 19.926641
v -28.458288 2.181251 19.810902
v -28.450536 2.181251 19.926641
v -28.485918 2.282745 19.926641
v -28.522627 4.921286 19.926641
v -28.522627 4.921286 19.810902
v -28.485918 2.282745 19.810902
v -28.493124 2.282745 19.700947
v -28.499960 2.282745 19.596493
v -28.238237 2.282745 18.040810
v -28.247986 2.282745 17.891960
v -28.257734 2.282745 17.743111
v -28.257734 2.181251 17.743111
v -28.343538 2.181251 17.891960
v -28.331918 2.181251 18.040810
v -28.531025 2.181251 19.596493
v -28.522873 2.181251 19.700947
v -27.024952 0.459284 19.596493
v -27.033914 0.459284 19.700947
v -27.160373 0.459284 19.700947
v -27.153583 0.459284 19.596493
v -26.823734 0.459284 17.760677
v -26.836504 0.459284 17.909527
v -27.000183 0.459284 17.909527
v -26.990505 0.459284 17.760677
v -28.158809 0.459284 19.596493
v -28.150657 0.459284 19.700947
v -28.247394 0.459284 19.700947
v -28.257213 0.459284 19.596493
v -28.343538 0.459284 17.760677
v -28.331918 0.459284 17.909527
v -28.457132 0.459284 17.909527
v -28.471119 0.459284 17.760677
vt 0.422596 0.443490
vt 0.225767 0.087056
vt 0.352235 0.832435
vt 0.086821 0.620056
vt 0.901506 0.320365
vt 0.414456 0.429528
vt 0.638402 0.439442
vt 0.640251 0.455570
vt 0.628380 0.742478
vt 0.127838 0.623520
vt 0.726322 0.326833
vt 0.645826 0.425141
vt 0.247916 0.091420
vt 0.674177 0.015466
vt 0.276468 0.899767
vt 0.986192 0.067047
vt 0.227121 0.125663
vt 0.642288 0.470871
vt 0.725625 0.338517
vt 0.903479 0.334599
vt 0.200014 0.163949
vt 0.724977 0.349604
vt 0.644206 0.485392
vt 0.417530 0.499543
vt 0.197044 0.723497
vt 0.753474 0.512034
vt 0.623015 0.701291
vt 0.357004 0.791183
vt 0.197041 0.762512
vt 0.752612 0.527723
vt 0.625694 0.721889
vt 0.354622 0.811811
vt 0.451248 0.457988
vt 0.452297 0.442120
vt 0.446535 0.428435
vt 0.276427 0.719820
vt 0.939659 0.005492
vt 0.877242 0.320768
vt 0.878629 0.332082
vt 0.879947 0.342898
vt 0.929374 0.570414
vt 0.931241 0.585963
vt 0.086807 0.545307
vt 0.393743 0.832164
vt 0.992684 0.858546
vt 0.985985 0.782388
vt 0.994661 0.949733
vt 0.994799 0.887638
vt 0.468984 0.441877
vt 0.468374 0.457832
vt 0.997944 0.909396
vt 0.997801 0.927593
vt 0.985979 0.808705
vt 0.992689 0.831731
vt 0.417273 0.831996
vt 0.086800 0.502948
vt 0.913700 0.586812
vt 0.912106 0.571252
vt 0.865756 0.343602
vt 0.864634 0.332725
vt 0.863466 0.321270
vt 0.914438 0.006273
vt 0.276414 0.660950
vt 0.464728 0.427955
vt 0.615558 0.439801
vt 0.617047 0.455879
vt 0.695624 0.752344
vt 0.695273 0.734728
vt 0.987822 0.626569
vt 0.985960 0.651049
vt 0.061425 0.138742
vt 0.775792 0.542296
vt 0.776289 0.526636
vt 0.776784 0.510972
vt 0.744136 0.348778
vt 0.744524 0.337739
vt 0.744950 0.326117
vt 0.247940 0.201633
vt 0.630198 0.059542
vt 0.621236 0.425585
vt 0.603895 0.456061
vt 0.602615 0.440001
vt 0.607303 0.425833
vt 0.276320 0.246662
vt 0.741919 0.048766
vt 0.755504 0.325711
vt 0.755233 0.337301
vt 0.754991 0.348308
vt 0.789993 0.510371
vt 0.789712 0.526017
vt 0.086740 0.171142
vt 0.578616 0.742894
vt 0.985957 0.671998
vt 0.987825 0.606008
vt 0.698763 0.718575
vt 0.699058 0.768223
vt 0.179101 0.016988
vt 0.692395 0.888045
vt 0.695539 0.909803
vt 0.695397 0.927999
vt 0.076284 0.014364
vt 0.697532 0.782334
vt 0.697526 0.808651
vt 0.704236 0.831677
vt 0.220223 0.013403
vt 0.994928 0.768181
vt 0.991494 0.752303
vt 0.991143 0.734686
vt 0.121180 0.015788
vt 0.704244 0.605969
vt 0.704241 0.626530
vt 0.702379 0.651010
vt 0.458704 0.473094
vt 0.457858 0.487502
vt 0.440052 0.487578
vt 0.441206 0.473126
vt 0.614298 0.485700
vt 0.613017 0.471218
vt 0.626408 0.471053
vt 0.627920 0.485559
vt 0.404779 0.790876
vt 0.403592 0.811491
vt 0.380498 0.811645
vt 0.382120 0.791024
vt 0.061431 0.171147
vt 0.061491 0.502952
vt 0.789433 0.541667
vt 0.915297 0.602376
vt 0.247951 0.246669
vt 0.248044 0.660956
vt 0.604759 0.060041
vt 0.374381 0.016765
vt 0.276310 0.201626
vt 0.722647 0.049466
vt 0.086734 0.138738
vt 0.596623 0.742750
vt 0.341117 0.017619
vt 0.248058 0.719826
vt 0.933114 0.601510
vt 0.061498 0.545312
vt 0.223491 0.801537
vt 0.964538 0.599977
vt 0.018851 0.077021
vt 0.284368 0.102104
vt 0.223517 0.762434
vt 0.101561 0.584926
vt 0.061415 0.081559
vt 0.127739 0.584944
vt 0.127652 0.546368
vt 0.962183 0.584454
vt 0.959831 0.568928
vt 0.223554 0.723332
vt 0.101441 0.546266
vt 0.133522 0.142036
vt 0.905398 0.350538
vt 0.228393 0.161998
vt 0.105487 0.142915
vt 0.131683 0.115027
vt 0.198309 0.124392
vt 0.196962 0.089117
vt 0.149983 0.115004
vt 0.103452 0.115861
vt 0.419164 0.480227
vt 0.687494 0.017970
vt 0.177593 0.818054
vt 0.047483 0.711423
vt 0.177454 0.114999
vt 0.177565 0.087572
vt 0.751744 0.543402
vt 0.101304 0.087384
vt 0.047732 0.740204
vt 0.420986 0.459651
vt 0.590345 0.722198
vt 0.588576 0.701608
vt 0.605911 0.701449
vt 0.608012 0.722044
vt 0.019779 0.017581
vt 0.704231 0.858491
vt 0.019371 0.068201
vt 0.074829 0.065043
vt 0.129485 0.014364
vt 0.692257 0.950140
vt 0.124735 0.054516
vt 0.173513 0.057095
vt 0.077907 0.014364
vt 0.702377 0.671959
vt 0.080988 0.065008
vt 0.123459 0.066406
vt 0.182385 0.009791
vt 0.994632 0.718533
vt 0.182327 0.050316
vt 0.219524 0.053867
vt 0.987812 0.696445
vt 0.704231 0.696406
vt 0.994907 0.967957
vt 0.692503 0.968363
vt 0.985965 0.881608
vt 0.697512 0.881553
vt 0.699049 0.700981
vt 0.994918 0.700940
vt 0.149978 0.088804
vt 0.129752 0.086597
vt 0.018794 0.739155
vt 0.018654 0.711568
vt 0.248098 0.899774
vt 0.047680 0.076875
vt 0.150121 0.818059
vt 0.276285 0.091414
vt 0.101671 0.623587
vt 0.086724 0.081554
vt 0.061512 0.620061
vt 0.197026 0.801527
vn 0.000000 -1.000000 -0.000002
vn 0.000000 -1.000000 0.000000
vn 0.000000 -1.000000 0.000000
vn 0.000000 -1.000000 -0.000000
vn 0.000000 -1.000000 0.000000
vn 0.000000 -1.000000 0.000000
vn 0.000000 -1.000000 0.000000
vn 0.000000 -1.000000 0.000000
vn -0.428184 0.000000 -0.903692
vn -0.428184 0.000000 -0.903692
vn 0.000000 0.000000 -1.000000
vn 0.000000 0.000000 -1.000000
vn 0.000000 1.000000 -0.000000
vn 0.000000 1.000000 0.000000
vn 0.000000 1.000000 0.000000
vn 0.000000 1.000000 -0.000001
vn -0.181595 0.983374 0.000000
vn -0.181595 0.983374 0.000000
vn 0.670087 0.742283 0.000000
vn 0.670087 0.742283 0.000000
vn 0.000000 0.000000 1.000000
vn 0.000000 0.000000 1.000000
vn 0.031996 -0.014803 0.999378
vn 0.045074 -0.020853 0.998766
vn -0.995951 -0.089895 0.000000
vn -0.995951 -0.089895 0.000000
vn -0.995951 -0.089895 0.000000
vn -0.995951 -0.089895 0.000000
vn -0.000000 0.000000 1.000000
vn -0.000000 0.000000 1.000000
vn 0.008774 -0.004104 0.999953
vn 0.008159 -0.003816 0.999960
vn 0.937713 -0.347410 0.000000
vn 0.937713 -0.347410 0.000000
vn 0.937713 -0.347410 0.000000
vn 0.937713 -0.347410 0.000000
vn -0.008159 0.003816 -0.999959
vn -0.008774 0.004104 -0.999953
vn -0.000000 0.000000 -1.000000
vn -0.000000 0.000000 -1.000000
vn 0.897002 -0.439999 0.042292
vn 0.897002 -0.439999 0.042292
vn 0.897002 -0.439999 0.042292
vn 0.897002 -0.439999 0.042292
vn 0.918934 -0.386731 0.077458
vn 0.919326 -0.385855 0.077176
vn 0.954930 -0.228443 0.189532
vn 0.955060 -0.227067 0.190529
vn -0.969053 -0.225722 -0.099932
vn -0.969055 -0.225695 -0.099968
vn -0.921250 -0.375004 0.103297
vn -0.921427 -0.374563 0.103318
vn -0.898472 -0.436617 0.045966
vn -0.898472 -0.436617 0.045966
vn -0.898472 -0.436617 0.045966
vn -0.898472 -0.436617 0.045966
vn 0.000000 -1.000000 -0.000000
vn 0.000000 -1.000000 0.000000
vn -0.918092 -0.382771 0.102928
vn -0.918092 -0.382771 0.102928
vn 0.000000 1.000000 -0.000002
vn 0.000000 1.000000 -0.000002
vn 0.915300 -0.394742 0.080035
vn 0.915300 -0.394742 0.080035
vn 0.000000 1.000000 0.000000
vn 0.000000 1.000000 0.000000
vn -0.974924 -0.201163 -0.095167
vn -0.974926 -0.201158 -0.095160
vn 0.000000 -1.000000 0.000000
vn 0.000000 -1.000000 0.000000
vn 0.000000 -1.000000 -0.000000
vn 0.000000 -1.000000 -0.000000
vn 0.959369 -0.205980 0.192830
vn 0.959444 -0.205742 0.192713
vn 0.000000 1.000000 -0.000001
vn 0.000000 1.000000 -0.000000
vn -0.993361 -0.028725 0.111394
vn -0.993360 -0.028784 0.111393
vn 0.000000 -1.000000 0.000000
vn 0.000000 -1.000000 0.000000
vn 0.000000 -1.000000 0.000000
vn 0.000000 -1.000000 0.000000
vn 0.993319 -0.029387 0.111596
vn 0.993321 -0.029326 0.111596
vn 0.000000 1.000000 -0.000000
vn 0.000000 1.000000 -0.000000
vn -0.993667 -0.014380 0.111443
vn -0.993667 -0.014380 0.111443
vn 0.000000 -1.000000 0.000000
vn 0.000000 -1.000000 0.000000
vn 0.000000 -1.000000 -0.000000
vn 0.000000 -1.000000 0.000000
vn 0.993639 -0.014693 0.111651
vn 0.993639 -0.014693 0.111651
vn 0.000000 -1.000000 0.000001
vn 0.000000 -1.000000 0.000001
vn 0.060948 -0.028197 0.997743
vn 0.060948 -0.028197 0.997743
vn 0.014609 -0.006833 0.999870
vn 0.014609 -0.006833 0.999870
vn 0.816512 0.577329 0.000000
vn 0.816512 0.577329 0.000000
vn -0.014608 0.006833 -0.999870
vn -0.014608 0.006833 -0.999870
vn 0.000000 1.000000 0.000001
vn 0.000000 1.000000 -0.000002
vn 0.000000 1.000000 0.000000
vn 0.000000 1.000000 0.000000
vn 0.000000 1.000000 -0.000000
vn 0.000000 1.000000 0.000000
vn 0.000000 0.000000 -1.000000
vn 0.000000 0.000000 -1.000000
vn 0.000000 -1.000000 0.000000
vn 0.000000 -1.000000 0.000000
vn 0.000000 -1.000000 0.000000
vn 0.000000 -1.000000 0.000000
vn 0.000000 -1.000000 0.000000
vn 0.000000 -1.000000 0.000001
vn 0.000000 -1.000000 0.000001
vn 0.000000 -1.000000 0.000000
vn 0.000000 -1.000000 -0.000002
vn 0.000000 -1.000000 0.000000
vn 0.000000 -1.000000 -0.000000
vn 0.000000 -1.000000 0.000000
vn 0.000000 -1.000000 0.000000
vn 0.000000 -1.000000 0.000000
vn 0.000000 -1.000000 0.000000
vn 0.000000 -1.000000 -0.000000
vn 0.000000 -1.000000 -0.000000
vn 0.000000 -1.000000 0.000000
vn 0.000000 -1.000000 -0.000000
vn 0.000000 -1.000000 0.000000
vn 0.000000 -1.000000 0.000000
vn 0.000000 -1.000000 0.000000
vn 0.000000 -1.000000 0.000000
vn 0.000000 -1.000000 0.000000
vn 0.000000 -1.000000 -0.000001
vn 0.000000 -1.000000 -0.000000
vn 0.000000 -1.000000 0.000000
vn 0.000000 0.000000 -1.000000
vn 0.000000 0.000000 -1.000000
vn -0.438836 0.000000 -0.898567
vn -0.438836 0.000000 -0.898567
vn 0.000000 1.000000 -0.000001
vn 0.000000 1.000000 -0.000001
vn 0.000000 1.000000 0.000000
vn 0.000000 1.000000 0.000000
vn 0.000000 1.000000 0.000000
vn 0.000000 1.000000 -0.000000
vn 0.000000 1.000000 0.000000
vn 0.000000 1.000000 -0.000000
vn 0.000000 1.000000 -0.000001
vn 0.000000 1.000000 -0.000000
vn 0.000000 1.000000 -0.000002
vn 0.000000 1.000000 -0.000001
vn -0.000000 0.000000 -1.000000
vn -0.000000 0.000000 -1.000000
vn 0.000001 0.000000 -1.000000
vn 0.000001 0.000000 -1.000000
vn 0.522801 0.852455 0.000000
vn 0.522801 0.852455 0.000000
vn -0.186980 0.982364 0.000000
vn -0.186980 0.982364 0.000000
vn 0.000000 0.000000 1.000000
vn 0.000000 0.000000 1.000000
vn -0.000000 0.000000 1.000000
vn -0.000000 0.000000 1.000000
vn 0.000000 0.000000 1.000000
vn 0.000000 0.000000 1.000000
vn 0.000000 0.000000 1.000000
vn 0.000000 0.000000 1.000000
vn 0.000000 -1.000000 0.000002
vn 0.000000 -1.000000 0.000001
vn 0.000000 -1.000000 0.000000
vn 0.000000 -1.000000 0.000000
vn 0.000000 -1.000000 -0.000000
vn 0.000000 -1.000000 -0.000001
vn 0.000000 -1.000000 0.000000
vn 0.000000 0.000000 -1.000000
vn 0.000000 0.000000 -1.000000
vn 0.000000 1.000000 -0.000002
vn 0.000000 1.000000 -0.000001
vn 0.000000 1.000000 0.000000
vn 0.000000 1.000000 0.000000
vn 0.000000 1.000000 0.000000
vn 0.000000 1.000000 -0.000002
vn 0.000002 0.000000 -1.000000
vn 0.000002 0.000000 -1.000000
vn 0.692839 0.721092 0.000000
vn 0.692839 0.721092 0.000000
vn 0.000000 0.000000 1.000000
vn 0.000000 0.000000 1.000000
vn 0.000000 0.000000 1.000000
vn 0.000000 0.000000 1.000000
vn 0.986353 0.141220 0.084642
vn 0.986353 0.141220 0.084642
vn 0.986353 0.141220 0.084642
vn 0.986353 0.141220 0.084642
vn 0.000000 0.000000 1.000000
vn 0.000000 0.000000 1.000000
vn 0.000000 0.000000 1.000000
vn 0.000000 0.000000 1.000000
vn -0.987862 -0.141436 -0.064226
vn -0.987862 -0.141436 -0.064226
vn -0.987862 -0.141436 -0.064226
vn -0.987862 -0.141436 -0.064226
vn 0.000000 0.000000 -1.000000
vn 0.000000 0.000000 -1.000000
vn 0.000000 0.000000 -1.000000
vn 0.000000 0.000000 -1.000000
vn 0.996029 0.024982 0.085449
vn 0.996029 0.024982 0.085449
vn 0.996029 0.024982 0.085449
vn 0.996029 0.024982 0.085449
vn 0.000000 0.280561 0.959836
vn 0.000000 0.280561 0.959836
vn 0.000000 0.280561 0.959836
vn 0.000000 0.280561 0.959836
vn -0.997714 -0.018958 -0.064869
vn -0.997714 -0.018958 -0.064869
vn -0.997714 -0.018958 -0.064869
vn -0.997714 -0.018958 -0.064869
vn 0.000000 -0.280562 -0.959836
vn 0.000000 -0.280562 -0.959836
vn 0.000000 -0.280562 -0.959836
vn 0.000000 -0.280562 -0.959836
vn 0.974595 0.210665 -0.076061
vn 0.974595 0.210665 -0.076061
vn 0.974595 0.210665 -0.076061
vn 0.974595 0.210665 -0.076061
vn 0.000000 0.000000 1.000000
vn 0.000000 0.000000 1.000000
vn 0.000000 0.000000 1.000000
vn 0.000000 0.000000 1.000000
vn -0.973326 -0.210391 0.091496
vn -0.973326 -0.210391 0.091496
vn -0.973326 -0.210391 0.091496
vn -0.973326 -0.210391 0.091496
vn 0.000000 0.000000 -1.000000
vn 0.000000 0.000000 -1.000000
vn 0.000000 0.000000 -1.000000
vn 0.000000 0.000000 -1.000000
vn 0.996949 0.005933 -0.077825
vn 0.996949 0.005933 -0.077825
vn 0.996949 0.005933 -0.077825
vn 0.996949 0.005933 -0.077825
vn 0.000000 -0.076020 0.997106
vn 0.000000 -0.076020 0.997106
vn 0.000000 -0.076020 0.997106
vn 0.000000 -0.076020 0.997106
vn -0.995589 -0.007132 0.093550
vn -0.995589 -0.007132 0.093550
vn -0.995589 -0.007132 0.093550
vn -0.995589 -0.007132 0.093550
vn 0.000000 0.076019 -0.997106
vn 0.000000 0.076019 -0.997106
vn 0.000000 0.076019 -0.997106
vn 0.000000 0.076019 -0.997106
s 1
g Chair TablenChairSet2
usemtl initialShadingGroup
f 49/49/1 50/50/2 33/33/3 34/34/4
s off
f 97/97/5 98/184/6 99/183/7 100/181/8
s 2
f 55/126/9 56/56/10 43/43/11 44/140/12
s 3
f 39/39/13 40/40/14 59/59/15 60/60/16
s 4
f 62/130/17 63/63/18 36/36/19 37/138/20
s 5
f 64/64/21 49/49/22 34/34/23 35/35/24
s off
f 11/161/25 12/167/26 14/165/27 13/207/28
s 6
f 63/132/29 64/64/30 35/35/31 36/137/32
s off
f 6/166/33 5/204/34 16/143/35 15/206/36
s 7
f 37/37/37 38/38/38 61/61/39 62/62/40
s off
f 1/171/41 2/203/42 5/204/43 6/166/44
s 8
f 20/159/45 17/17/46 24/156/47 21/21/48
s 9
f 22/154/49 23/157/50 18/162/51 19/158/52
s off
f 8/201/53 7/168/54 12/167/55 11/161/56
s 1
f 50/50/2 51/113/57 48/116/58 33/33/3
s 9
f 19/158/52 18/162/51 8/170/59 11/202/60
s 3
f 38/38/61 39/39/13 60/60/16 61/61/62
s 8
f 2/2/63 17/17/46 20/159/45 5/160/64
s 3
f 40/40/14 41/41/65 58/58/66 59/59/15
s 9
f 26/149/67 27/153/68 23/157/50 22/154/49
s 1
f 46/124/69 47/115/70 52/114/71 53/121/72
s 8
f 21/21/48 24/156/47 28/152/73 25/25/74
s 3
f 41/41/65 42/42/75 57/57/76 58/58/66
s 9
f 30/148/77 31/146/78 27/153/68 26/149/67
s off
f 101/101/79 102/180/80 103/179/81 104/177/82
s 8
f 25/25/74 28/152/73 32/145/83 29/29/84
s 3
f 56/128/85 57/57/76 42/42/75 43/139/86
s 9
f 9/209/87 31/146/78 30/148/77 10/10/88
s 1
f 44/44/89 45/123/90 54/122/91 55/55/92
s 8
f 29/29/84 32/145/83 3/141/93 4/212/94
s 1
f 34/34/4 33/33/3 2/172/95 1/1/96
s 5
f 35/35/24 34/34/23 1/1/97 6/6/98
s 6
f 36/137/32 35/35/31 6/6/99 15/144/100
s 4
f 37/138/20 36/36/19 15/15/101 16/205/102
s 7
f 5/5/103 38/38/38 37/37/37 16/16/104
s 3
f 20/20/105 39/39/13 38/38/61 5/5/106
f 21/155/107 40/40/14 39/39/13 20/20/105
f 25/151/108 41/41/65 40/40/14 21/155/107
f 29/150/109 42/42/75 41/41/65 25/151/108
f 43/139/86 42/42/75 29/150/109 4/142/110
s 2
f 44/140/12 43/43/11 4/4/111 3/211/112
s 1
f 32/32/113 45/123/90 44/44/89 3/3/114
f 28/28/115 46/124/69 45/123/90 32/32/113
f 24/24/116 47/115/70 46/124/69 28/28/115
f 17/163/117 48/116/58 47/115/70 24/24/116
f 33/33/3 48/116/58 17/163/117 2/172/95
f 65/65/118 66/66/119 81/81/120 82/82/121
f 66/66/119 67/119/122 96/118/123 81/81/120
s off
f 105/105/124 106/192/125 107/191/126 108/189/127
s 1
f 94/174/128 95/117/129 68/120/130 69/175/131
s off
f 109/109/132 110/188/133 111/187/134 112/185/135
s 1
f 92/92/136 93/173/137 70/176/138 71/136/139
s 2
f 71/71/140 72/135/141 91/91/142 92/125/143
s 3
f 72/72/144 73/73/145 90/90/146 91/127/147
f 89/89/148 90/90/146 73/73/145 74/74/149
f 88/88/150 89/89/148 74/74/149 75/75/151
f 87/87/152 88/88/150 75/75/151 76/76/153
f 86/86/154 87/87/152 76/76/153 77/77/155
s 7
f 85/85/156 86/86/157 77/77/158 78/134/159
s 4
f 78/78/160 79/133/161 84/84/162 85/129/163
s 6
f 79/79/164 80/80/165 83/83/166 84/131/167
s 5
f 80/80/168 65/65/169 82/82/170 83/83/171
s 1
f 7/7/172 8/8/173 66/66/119 65/65/118
f 8/8/173 18/18/174 67/119/122 66/66/119
f 68/120/130 67/119/122 18/18/174 23/23/175
f 69/175/131 68/120/130 23/23/175 27/27/176
f 70/176/138 69/175/131 27/27/176 31/31/177
f 71/136/139 70/176/138 31/31/177 9/9/178
s 2
f 9/147/179 10/210/180 72/135/141 71/71/140
s 3
f 10/169/181 30/30/182 73/73/145 72/72/144
f 74/74/149 73/73/145 30/30/182 26/26/183
f 75/75/151 74/74/149 26/26/183 22/22/184
f 76/76/153 75/75/151 22/22/184 19/19/185
f 77/77/155 76/76/153 19/19/185 11/11/186
s 7
f 78/134/159 77/77/158 11/11/187 13/164/188
s 4
f 13/13/189 14/208/190 79/133/161 78/78/160
s 6
f 12/12/191 80/80/165 79/79/164 14/14/192
s 5
f 12/12/193 7/7/194 65/65/169 80/80/168
s 1
f 82/82/121 81/81/120 50/50/2 49/49/1
s 5
f 83/83/171 82/82/170 49/49/22 64/64/21
s 6
f 84/131/167 83/83/166 64/64/30 63/132/29
s 4
f 85/129/163 84/84/162 63/63/18 62/130/17
s 7
f 62/62/40 61/61/39 86/86/157 85/85/156
s 3
f 61/61/62 60/60/16 87/87/152 86/86/154
f 60/60/16 59/59/15 88/88/150 87/87/152
f 59/59/15 58/58/66 89/89/148 88/88/150
f 58/58/66 57/57/76 90/90/146 89/89/148
f 91/127/147 90/90/146 57/57/76 56/128/85
s 2
f 92/125/143 91/91/142 56/56/10 55/126/9
s 1
f 55/55/92 54/122/91 93/173/137 92/92/136
f 54/122/91 53/121/72 94/174/128 93/173/137
f 53/121/72 52/114/71 95/117/129 94/174/128
f 52/114/71 51/113/57 96/118/123 95/117/129
f 81/81/120 96/118/123 51/113/57 50/50/2
s off
f 47/47/195 48/195/196 98/196/197 97/182/198
f 48/48/199 51/51/200 99/99/201 98/98/202
f 51/51/203 52/52/204 100/100/205 99/99/206
f 52/52/207 47/47/208 97/182/209 100/100/210
f 45/45/211 46/197/212 102/198/213 101/178/214
f 46/46/215 53/53/216 103/103/217 102/102/218
f 53/53/219 54/54/220 104/104/221 103/103/222
f 54/54/223 45/45/224 101/178/225 104/104/226
f 95/95/227 96/199/228 106/200/229 105/190/230
f 96/96/231 67/67/232 107/107/233 106/106/234
f 67/67/235 68/68/236 108/108/237 107/107/238
f 68/68/239 95/95/240 105/190/241 108/108/242
f 93/93/243 94/193/244 110/194/245 109/186/246
f 94/94/247 69/69/248 111/111/249 110/110/250
f 69/69/251 70/70/252 112/112/253 111/111/254
f 70/70/255 93/93/256 109/186/257 112/112/258
