# This file uses centimeters as units for non-parametric coordinates.

mtllib Chair1.mtl
g default
v -20.377705 2.181251 19.926641
v -20.366791 2.181251 19.810898
v -20.370319 2.181251 17.611822
v -20.370319 2.282744 17.611822
v -20.322460 2.282744 19.810898
v -20.322460 2.282744 19.926641
v -22.373213 2.181251 20.187580
v -22.385054 2.181251 20.071842
v -22.872532 2.181251 17.056147
v -22.872532 2.282744 17.056147
v -22.428455 2.282744 20.071842
v -22.428455 2.282744 20.187580
v -23.066940 4.933455 19.810898
v -23.066940 4.933455 19.926641
v -20.241362 5.448637 19.926641
v -20.241362 5.448637 19.810898
v -20.353335 2.181251 19.700947
v -22.398466 2.181251 19.961887
v -22.439695 2.282744 19.961887
v -20.311222 2.282744 19.700947
v -20.300537 2.282744 19.596493
v -22.450380 2.282744 19.857430
v -22.411209 2.181251 19.857430
v -20.340538 2.181251 19.596493
v -20.400767 2.282744 17.909523
v -22.842085 2.282744 17.353848
v -22.836212 2.181251 17.353848
v -20.406761 2.181251 17.909523
v -20.385542 2.282744 17.760677
v -22.857308 2.282744 17.205002
v -22.854366 2.181251 17.205002
v -20.388544 2.181251 17.760677
v -20.585924 2.181251 19.810898
v -20.593422 2.181251 19.926641
v -20.554749 2.282744 19.926641
v -20.665199 5.448637 19.926641
v -20.665199 5.448637 19.810898
v -20.554749 2.282744 19.810898
v -20.546887 2.282744 19.700947
v -20.539406 2.282744 19.596493
v -20.691389 2.282744 17.909523
v -20.680731 2.282744 17.760677
v -20.670073 2.282744 17.611822
v -20.670073 2.181251 17.611822
v -20.575447 2.181251 17.760677
v -20.588215 2.181251 17.909523
v -20.503918 2.181251 19.596493
v -20.512880 2.181251 19.700947
v -20.715668 2.181251 19.926641
v -20.710096 2.181251 19.810898
v -20.639340 2.181251 19.700947
v -20.632549 2.181251 19.596493
v -20.751894 2.181251 17.909523
v -20.742216 2.181251 17.760677
v -20.839939 2.181251 17.611822
v -20.839939 2.282744 17.611822
v -20.848004 2.282744 17.760677
v -20.856075 2.282744 17.909523
v -20.674767 2.282744 19.596493
v -20.680424 2.282744 19.700947
v -20.686386 2.282744 19.810898
v -20.905375 5.448637 19.810898
v -20.905375 5.448637 19.926641
v -20.686386 2.282744 19.926641
v -22.208191 2.181251 20.187580
v -22.217419 2.181251 20.071842
v -22.283743 2.181251 19.961887
v -22.293562 2.181251 19.857430
v -22.712668 2.181251 17.353848
v -22.726654 2.181251 17.205002
v -22.643217 2.181251 17.056147
v -22.643217 2.282744 17.056147
v -22.631491 2.282744 17.205002
v -22.619755 2.282744 17.353848
v -22.267645 2.282744 19.857430
v -22.259415 2.282744 19.961887
v -22.250754 2.282744 20.071842
v -22.742708 5.059488 19.810898
v -22.742708 5.059488 19.926641
v -22.250754 2.282744 20.187580
v -22.122421 2.181251 20.071842
v -22.114670 2.181251 20.187580
v -22.150051 2.282744 20.187580
v -22.558975 5.059486 19.926641
v -22.558975 5.059486 19.810898
v -22.150051 2.282744 20.071842
v -22.157257 2.282744 19.961887
v -22.164093 2.282744 19.857430
v -22.493773 2.282744 17.353848
v -22.503521 2.282744 17.205002
v -22.513270 2.282744 17.056147
v -22.513270 2.181251 17.056147
v -22.599074 2.181251 17.205002
v -22.587454 2.181251 17.353848
v -22.195158 2.181251 19.857430
v -22.187008 2.181251 19.961887
v -21.061300 0.459284 19.596493
v -21.070263 0.459284 19.700947
v -21.196722 0.459284 19.700947
v -21.189932 0.459284 19.596493
v -20.860085 0.459284 17.760677
v -20.872852 0.459284 17.909523
v -21.036532 0.459284 17.909523
v -21.026854 0.459284 17.760677
v -22.195158 0.459284 19.596493
v -22.187008 0.459284 19.700947
v -22.283743 0.459284 19.700947
v -22.293562 0.459284 19.596493
v -22.379889 0.459284 17.760677
v -22.368267 0.459284 17.909523
v -22.493481 0.459284 17.909523
v -22.507465 0.459284 17.760677
vt 0.418251 0.023072
vt 0.962074 0.591348
vt 0.954280 0.303758
vt 0.808798 0.551365
vt 0.749286 0.641978
vt 0.413221 0.007994
vt 0.434222 0.007994
vt 0.954882 0.293654
vt 0.968288 0.293654
vt 0.628572 0.551365
vt 0.750105 0.651737
vt 0.440864 0.023072
vt 0.649960 0.978192
vt 0.380632 0.493394
vt 0.702327 0.944318
vt 0.735277 0.651737
vt 0.954381 0.591348
vt 0.967479 0.303758
vt 0.734658 0.641978
vt 0.074410 0.994745
vt 0.947072 0.551365
vt 0.748424 0.631706
vt 0.962521 0.284056
vt 0.976174 0.284056
vt 0.829628 0.551365
vt 0.734005 0.631706
vt 0.968041 0.127672
vt 0.977142 0.274937
vt 0.819213 0.551365
vt 0.116575 0.994745
vt 0.963254 0.274937
vt 0.950370 0.127672
vt 0.959203 0.101684
vt 0.421891 0.493394
vt 0.471279 0.007994
vt 0.700589 0.944318
vt 0.733457 0.809343
vt 0.715416 0.809343
vt 0.734624 0.823249
vt 0.716300 0.823249
vt 0.717184 0.837156
vt 0.735791 0.837156
vt 0.787956 0.551365
vt 0.969419 0.114678
vt 0.630408 0.439501
vt 0.669018 0.439499
vt 0.668889 0.000020
vt 0.630279 0.000022
vt 0.480769 0.023072
vt 0.951415 0.114678
vt 0.655447 0.439479
vt 0.655318 0.000000
vt 0.644213 0.439480
vt 0.644083 0.000001
vt 0.940864 0.101684
vt 0.776145 0.551365
vt 0.775101 0.641978
vt 0.000000 0.994745
vt 0.773870 0.631706
vt 0.776271 0.651737
vt 0.765292 0.809343
vt 0.766960 0.823249
vt 0.699603 0.944318
vt 0.494701 0.493394
vt 0.065000 0.435583
vt 0.991947 0.293654
vt 0.548101 0.000000
vt 0.507075 0.000000
vt 0.507075 0.551365
vt 0.548102 0.551365
vt 0.644516 0.591348
vt 0.768627 0.837156
vt 0.519647 0.889071
vt 0.520932 0.875164
vt 0.534950 0.875164
vt 0.533882 0.889071
vt 0.536018 0.861258
vt 0.661824 0.978192
vt 0.149512 0.023072
vt 0.166811 0.023072
vt 0.990768 0.303758
vt 0.096563 0.435582
vt 0.156824 0.007994
vt 0.662577 0.944318
vt 0.522218 0.861258
vt 0.572132 0.627358
vt 0.560789 0.627358
vt 0.572881 0.617599
vt 0.561691 0.617599
vt 0.573671 0.607327
vt 0.653552 0.551365
vt 0.989598 0.114678
vt 0.521074 0.000000
vt 0.521075 0.551365
vt 0.533834 0.000000
vt 0.533834 0.551365
vt 0.047719 0.021537
vt 0.682774 0.446635
vt 0.714460 0.446643
vt 0.714971 0.000008
vt 0.023683 0.021537
vt 0.683285 0.000000
vt 0.704245 0.446643
vt 0.704755 0.000008
vt 0.067459 0.021537
vt 0.693166 0.446635
vt 0.693676 0.000000
vt 0.578087 0.473317
vt 0.088299 0.021537
vt 0.618179 0.473291
vt 0.618021 0.000000
vt 0.577929 0.000026
vt 0.653552 0.591348
vt 0.776145 0.591348
vt 0.352773 0.498681
vt 0.406885 0.933769
vt 0.662577 0.978192
vt 0.699603 0.978192
vt 0.172889 0.007994
vt 0.118985 0.023072
vt 0.661824 0.944318
vt 0.439142 0.933769
vt 0.644516 0.551365
vt 0.991566 0.101684
vt 0.009301 0.416859
vt 0.700589 0.978192
vt 0.562639 0.607327
vt 0.787956 0.591348
vt 0.808798 0.591348
vt 0.494528 0.889071
vt 0.702327 0.978192
vt 0.128475 0.007994
vt 0.819213 0.591348
vt 0.618157 0.591348
vt 0.628572 0.591348
vt 0.618157 0.551365
vt 0.607742 0.551365
vt 0.496195 0.875164
vt 0.497863 0.861258
vt 0.829628 0.591348
vt 0.607742 0.591348
vt 0.431364 0.551365
vt 0.540771 0.627358
vt 0.947072 0.591348
vt 0.431364 0.591348
vt 0.424056 0.551365
vt 0.954381 0.551365
vt 0.962074 0.551365
vt 0.401709 0.978192
vt 0.424056 0.591348
vt 0.987631 0.127672
vt 0.541942 0.617599
vt 0.649960 0.944318
vt 0.998455 0.944318
vt 0.408294 0.551365
vt 0.408294 0.591348
vt 0.496065 0.914021
vt 0.416362 0.591348
vt 0.970139 0.591348
vt 0.994781 0.274937
vt 0.993399 0.284056
vt 0.793144 0.326537
vt 0.792147 0.316434
vt 0.802404 0.316434
vt 0.803240 0.326537
vt 0.784986 0.306835
vt 0.795430 0.306835
vt 0.752197 0.079163
vt 0.794550 0.297716
vt 0.783926 0.297716
vt 0.738678 0.079163
vt 0.760206 0.053176
vt 0.750943 0.066170
vt 0.737168 0.066170
vt 0.746177 0.053176
vt 0.775327 0.326537
vt 0.774049 0.316434
vt 0.772601 0.306835
vt 0.771225 0.297716
vt 0.725340 0.079163
vt 0.723380 0.066170
vt 0.721419 0.053176
vt 0.416362 0.551365
vt 0.401709 0.944318
vt 0.998455 0.978192
vt 0.970139 0.551365
vt 0.335093 0.498681
vt 0.078129 0.498681
vt 0.543173 0.607327
vt 0.055019 0.498681
vt 0.014238 0.498681
vt 0.383971 0.498681
vt 0.072024 0.021537
vt 0.605700 0.473300
vt 0.072024 0.040179
vt 0.088299 0.040179
vt 0.053160 0.021537
vt 0.605541 0.000009
vt 0.053160 0.033031
vt 0.067459 0.033031
vt 0.002408 0.021537
vt 0.590802 0.473326
vt 0.002408 0.040179
vt 0.023683 0.040179
vt 0.029027 0.021537
vt 0.590643 0.000035
vt 0.029027 0.033031
vt 0.047719 0.033031
vt 0.563209 0.473291
vt 0.563051 0.000000
vt 0.671710 0.446643
vt 0.672221 0.000008
vt 0.560881 0.000000
vt 0.560881 0.551365
vt 0.619156 0.439499
vt 0.619027 0.000020
vn 0.000000 -1.000000 0.000000
vn 0.000000 -1.000000 0.000000
vn 0.000000 -1.000000 0.000001
vn 0.000000 -1.000000 0.000001
vn 0.000000 -1.000000 0.000000
vn 0.000000 -1.000000 0.000000
vn 0.000000 -1.000000 0.000000
vn 0.000000 -1.000000 0.000000
vn 0.288642 0.000000 -0.957437
vn 0.288642 0.000000 -0.957437
vn 0.000000 0.000000 -1.000000
vn 0.000000 0.000000 -1.000000
vn 0.000000 1.000000 0.000001
vn 0.000000 1.000000 0.000000
vn 0.000000 1.000000 0.000000
vn 0.000000 1.000000 -0.000001
vn -0.201285 0.979533 0.000000
vn -0.201285 0.979533 0.000000
vn 0.000000 1.000000 0.000000
vn 0.000000 1.000000 0.000000
vn 0.159701 0.004799 0.987154
vn 0.169193 0.005084 0.985570
vn 0.000000 0.000000 1.000000
vn 0.000000 0.000000 1.000000
vn -0.972194 -0.234177 0.000000
vn -0.972194 -0.234177 0.000000
vn -0.972194 -0.234177 0.000000
vn -0.972194 -0.234177 0.000000
vn 0.067873 0.045772 0.996644
vn 0.067686 0.045646 0.996662
vn 0.000000 0.000000 1.000000
vn 0.000000 0.000000 1.000000
vn 0.999672 -0.025608 0.000000
vn 0.999672 -0.025608 0.000000
vn 0.999672 -0.025608 0.000000
vn 0.999672 -0.025608 0.000000
vn 0.000000 0.000000 -1.000000
vn 0.000000 0.000000 -1.000000
vn -0.067688 -0.045647 -0.996662
vn -0.067875 -0.045773 -0.996643
vn 0.896995 -0.440014 0.042290
vn 0.896995 -0.440014 0.042290
vn 0.896995 -0.440014 0.042290
vn 0.896995 -0.440014 0.042290
vn 0.918628 -0.381406 0.103207
vn 0.918442 -0.381861 0.103183
vn 0.972283 -0.230595 -0.038634
vn 0.972335 -0.230331 -0.038887
vn -0.963058 -0.220057 0.155224
vn -0.962921 -0.220835 0.154965
vn -0.921250 -0.375005 0.103291
vn -0.921427 -0.374566 0.103311
vn -0.898469 -0.436624 0.045960
vn -0.898469 -0.436624 0.045960
vn -0.898469 -0.436624 0.045960
vn -0.898469 -0.436624 0.045960
vn 0.000000 -1.000000 0.000000
vn 0.000000 -1.000000 0.000000
vn -0.918098 -0.382758 0.102921
vn -0.918098 -0.382758 0.102921
vn 0.000000 1.000000 0.000000
vn 0.000000 1.000000 -0.000001
vn 0.915178 -0.389726 0.102772
vn 0.915178 -0.389726 0.102772
vn 0.000000 1.000000 0.000000
vn 0.000000 1.000000 0.000000
vn -0.966497 -0.204703 0.154853
vn -0.966453 -0.204876 0.154898
vn 0.000000 -1.000000 -0.000000
vn 0.000000 -1.000000 -0.000000
vn 0.000000 -1.000000 0.000000
vn 0.000000 -1.000000 0.000000
vn 0.977669 -0.207140 -0.035454
vn 0.977683 -0.207081 -0.035400
vn 0.000000 1.000000 -0.000000
vn 0.000000 1.000000 -0.000000
vn -0.993361 -0.028740 0.111393
vn -0.993359 -0.028799 0.111393
vn 0.000000 -1.000000 0.000000
vn 0.000000 -1.000000 0.000000
vn 0.000000 -1.000000 0.000000
vn 0.000000 -1.000000 0.000000
vn 0.993319 -0.029395 0.111592
vn 0.993321 -0.029333 0.111592
vn 0.000000 1.000000 -0.000001
vn 0.000000 1.000000 -0.000001
vn -0.993666 -0.014395 0.111446
vn -0.993666 -0.014395 0.111446
vn 0.000000 -1.000000 0.000001
vn 0.000000 -1.000000 0.000000
vn 0.000000 -1.000000 0.000001
vn 0.000000 -1.000000 0.000000
vn 0.993641 -0.014709 0.111634
vn 0.993641 -0.014709 0.111634
vn 0.000000 -1.000000 0.000001
vn 0.000000 -1.000000 0.000001
vn 0.000000 0.000000 1.000000
vn 0.000000 0.000000 1.000000
vn 0.000000 0.000000 1.000000
vn 0.000000 0.000000 1.000000
vn 0.000000 1.000000 0.000000
vn 0.000000 1.000000 0.000000
vn 0.000000 0.000000 -1.000000
vn 0.000000 0.000000 -1.000000
vn 0.000000 1.000000 0.000000
vn 0.000000 1.000000 0.000001
vn 0.000000 1.000000 -0.000000
vn 0.000000 1.000000 -0.000000
vn 0.000000 1.000000 -0.000001
vn 0.000000 1.000000 -0.000001
vn 0.000000 0.000000 -1.000000
vn 0.000000 0.000000 -1.000000
vn 0.000000 -1.000000 -0.000000
vn 0.000000 -1.000000 0.000000
vn 0.000000 -1.000000 -0.000000
vn 0.000000 -1.000000 -0.000000
vn 0.000000 -1.000000 -0.000000
vn 0.000000 -1.000000 0.000000
vn 0.000000 -1.000000 -0.000000
vn 0.000000 -1.000000 -0.000000
vn 0.000000 -1.000000 0.000000
vn 0.000000 -1.000000 -0.000000
vn 0.000000 -1.000000 -0.000000
vn 0.000000 -1.000000 0.000000
vn 0.000000 -1.000000 0.000000
vn 0.000000 -1.000000 0.000000
vn 0.000000 -1.000000 0.000000
vn 0.000000 -1.000000 0.000000
vn 0.000000 -1.000000 0.000000
vn 0.000000 -1.000000 0.000000
vn 0.000000 -1.000000 0.000000
vn 0.000000 -1.000000 0.000000
vn 0.000000 -1.000000 0.000000
vn 0.000000 -1.000000 0.000000
vn 0.000000 -1.000000 0.000000
vn 0.000000 -1.000000 0.000000
vn 0.000000 -1.000000 0.000001
vn 0.000000 -1.000000 -0.000001
vn 0.000000 -1.000000 -0.000001
vn 0.000000 0.000000 -1.000000
vn 0.000000 0.000000 -1.000000
vn 0.294483 0.000000 -0.955657
vn 0.294483 0.000000 -0.955657
vn 0.000000 1.000000 -0.000001
vn 0.000000 1.000000 -0.000000
vn 0.000000 1.000000 -0.000001
vn 0.000000 1.000000 -0.000001
vn 0.000000 1.000000 0.000000
vn 0.000000 1.000000 -0.000000
vn 0.000000 1.000000 -0.000000
vn 0.000000 1.000000 -0.000000
vn 0.000000 1.000000 -0.000001
vn 0.000000 1.000000 -0.000001
vn 0.000000 1.000000 -0.000001
vn 0.000000 1.000000 -0.000001
vn -0.070726 -0.055208 -0.995967
vn -0.071821 -0.054610 -0.995921
vn 0.013527 -0.092036 -0.995664
vn 0.014654 -0.091909 -0.995660
vn -0.240810 0.970572 0.000000
vn -0.240810 0.970572 0.000000
vn -0.207206 0.978298 0.000000
vn -0.207206 0.978298 0.000000
vn -0.014655 0.091907 0.995660
vn -0.013528 0.092035 0.995664
vn 0.071819 0.054609 0.995922
vn 0.070725 0.055207 0.995967
vn 0.000000 0.000000 1.000000
vn 0.000000 0.000000 1.000000
vn 0.171999 0.005169 0.985084
vn 0.162888 0.004895 0.986632
vn 0.000000 -1.000000 0.000000
vn 0.000000 -1.000000 0.000000
vn 0.000000 -1.000000 0.000000
vn 0.000000 -1.000000 0.000000
vn 0.000000 -1.000000 0.000000
vn 0.000000 -1.000000 -0.000001
vn 0.000000 -1.000000 -0.000002
vn 0.000000 0.000000 -1.000000
vn 0.000000 0.000000 -1.000000
vn 0.000000 1.000000 -0.000002
vn 0.000000 1.000000 -0.000001
vn 0.000000 1.000000 -0.000000
vn 0.000000 1.000000 -0.000000
vn 0.000000 1.000000 -0.000001
vn 0.000000 1.000000 -0.000002
vn 0.022844 -0.090975 -0.995591
vn 0.022844 -0.090975 -0.995591
vn -0.362306 0.932059 0.000000
vn -0.362306 0.932059 0.000000
vn -0.022845 0.090973 0.995591
vn -0.022845 0.090973 0.995591
vn 0.000000 0.000000 1.000000
vn 0.000000 0.000000 1.000000
vn 0.948246 -0.306935 0.081363
vn 0.948246 -0.306935 0.081363
vn 0.948246 -0.306935 0.081363
vn 0.948246 -0.306935 0.081363
vn 0.000000 0.000000 1.000000
vn 0.000000 0.000000 1.000000
vn 0.000000 0.000000 1.000000
vn 0.000000 0.000000 1.000000
vn -0.949586 0.307370 -0.061729
vn -0.949586 0.307370 -0.061729
vn -0.949586 0.307370 -0.061729
vn -0.949586 0.307370 -0.061729
vn 0.000000 0.000000 -1.000000
vn 0.000000 0.000000 -1.000000
vn 0.000000 0.000000 -1.000000
vn 0.000000 0.000000 -1.000000
vn 0.983098 -0.162504 0.084329
vn 0.983098 -0.162504 0.084329
vn 0.983098 -0.162504 0.084329
vn 0.983098 -0.162504 0.084329
vn 0.000000 0.000000 1.000000
vn 0.000000 0.000000 1.000000
vn 0.000000 0.000000 1.000000
vn 0.000000 0.000000 1.000000
vn -0.984588 0.162750 -0.064018
vn -0.984588 0.162750 -0.064018
vn -0.984588 0.162750 -0.064018
vn -0.984588 0.162750 -0.064018
vn 0.000000 0.000000 -1.000000
vn 0.000000 0.000000 -1.000000
vn 0.000000 0.000000 -1.000000
vn 0.000000 0.000000 -1.000000
vn 0.996901 0.011787 -0.077784
vn 0.996901 0.011787 -0.077784
vn 0.996901 0.011787 -0.077784
vn 0.996901 0.011787 -0.077784
vn 0.000000 -0.149827 0.988712
vn 0.000000 -0.149827 0.988712
vn 0.000000 -0.149827 0.988712
vn 0.000000 -0.149827 0.988712
vn -0.995511 -0.014180 0.093581
vn -0.995511 -0.014180 0.093581
vn -0.995511 -0.014180 0.093581
vn -0.995511 -0.014180 0.093581
vn 0.000000 0.149824 -0.988713
vn 0.000000 0.149824 -0.988713
vn 0.000000 0.149824 -0.988713
vn 0.000000 0.149824 -0.988713
vn 0.991842 0.101259 -0.077434
vn 0.991842 0.101259 -0.077434
vn 0.991842 0.101259 -0.077434
vn 0.991842 0.101259 -0.077434
vn 0.000000 0.307104 0.951676
vn 0.000000 0.307104 0.951676
vn 0.000000 0.307104 0.951676
vn 0.000000 0.307104 0.951676
vn -0.991008 -0.096093 0.093116
vn -0.991007 -0.096093 0.093116
vn -0.991007 -0.096093 0.093116
vn -0.991007 -0.096093 0.093116
vn 0.000000 -0.307104 -0.951676
vn 0.000000 -0.307104 -0.951676
vn 0.000000 -0.307104 -0.951676
vn 0.000000 -0.307104 -0.951676
s 1
g Chair TablenChairSet1
usemtl initialShadingGroup
f 49/3/1 50/8/2 33/9/3 34/18/4
s off
f 97/97/5 98/208/6 99/207/7 100/205/8
s 2
f 55/114/9 56/56/10 43/43/11 44/128/12
s 3
f 39/5/13 40/11/14 59/16/15 60/19/16
s 4
f 62/118/17 63/63/18 36/36/19 37/126/20
s 5
f 64/1/21 49/6/22 34/7/23 35/12/24
s off
f 11/149/25 12/184/26 14/153/27 13/13/28
s 6
f 63/14/29 64/1/30 35/12/31 36/34/32
s off
f 6/154/33 5/185/34 16/131/35 15/15/36
s 7
f 37/20/37 38/190/38 61/188/39 62/30/40
s off
f 1/159/41 2/2/42 5/148/43 6/186/44
s 8
f 20/147/45 17/17/46 24/144/47 21/21/48
s 9
f 22/142/49 23/145/50 18/150/51 19/146/52
s off
f 8/158/53 7/156/54 12/155/55 11/183/56
s 1
f 50/8/2 51/23/57 48/24/58 33/9/3
s 9
f 19/146/52 18/150/51 8/158/59 11/183/60
s 3
f 38/22/61 39/5/13 60/19/16 61/26/62
s 8
f 2/2/63 17/17/46 20/147/45 5/148/64
s 3
f 40/11/14 41/37/65 58/38/66 59/16/15
s 9
f 26/137/67 27/141/68 23/145/50 22/142/49
s 1
f 46/27/69 47/28/70 52/31/71 53/32/72
s 8
f 21/21/48 24/144/47 28/140/73 25/25/74
s 3
f 41/37/65 42/39/75 57/40/76 58/38/66
s 9
f 30/136/77 31/134/78 27/141/68 26/137/67
s off
f 101/101/79 102/204/80 103/203/81 104/201/82
s 8
f 25/25/74 28/140/73 32/133/83 29/29/84
s 3
f 56/41/85 57/40/76 42/39/75 43/42/86
s 9
f 9/135/87 31/134/78 30/136/77 10/10/88
s 1
f 44/33/89 45/44/90 54/50/91 55/55/92
s 8
f 29/29/84 32/133/83 3/129/93 4/4/94
s 1
f 34/18/4 33/9/3 2/66/95 1/81/96
s 5
f 35/12/24 34/7/23 1/35/97 6/49/98
s 6
f 36/34/32 35/12/31 6/49/99 15/64/100
s 4
f 37/126/20 36/36/19 15/15/101 16/131/102
s 7
f 5/191/103 38/190/38 37/20/37 16/58/104
s 3
f 20/57/105 39/5/13 38/22/61 5/59/106
f 21/60/107 40/11/14 39/5/13 20/57/105
f 25/61/108 41/37/65 40/11/14 21/60/107
f 29/62/109 42/39/75 41/37/65 25/61/108
f 43/42/86 42/39/75 29/62/109 4/72/110
s 2
f 44/128/12 43/43/11 4/4/111 3/129/112
s 1
f 32/92/113 45/44/90 44/33/89 3/124/114
f 28/151/115 46/27/69 45/44/90 32/92/113
f 24/160/116 47/28/70 46/27/69 28/151/115
f 17/161/117 48/24/58 47/28/70 24/160/116
f 33/9/3 48/24/58 17/161/117 2/66/95
f 65/162/118 66/163/119 81/164/120 82/165/121
f 66/163/119 67/166/122 96/167/123 81/164/120
s off
f 105/105/124 106/200/125 107/199/126 108/197/127
s 1
f 94/168/128 95/169/129 68/170/130 69/171/131
s off
f 109/109/132 110/196/133 111/195/134 112/193/135
s 1
f 92/172/136 93/173/137 70/174/138 71/175/139
s 2
f 71/71/140 72/123/141 91/91/142 92/113/143
s 3
f 72/73/144 73/74/145 90/75/146 91/76/147
f 89/77/148 90/75/146 73/74/145 74/85/149
f 88/86/150 89/77/148 74/85/149 75/87/151
f 87/88/152 88/86/150 75/87/151 76/89/153
f 86/90/154 87/88/152 76/89/153 77/127/155
s 7
f 85/116/156 86/187/157 77/115/158 78/122/159
s 4
f 78/78/160 79/121/161 84/84/162 85/117/163
s 6
f 79/65/164 80/79/165 83/80/166 84/82/167
s 5
f 80/79/168 65/83/169 82/119/170 83/80/171
s 1
f 7/176/172 8/177/173 66/163/119 65/162/118
f 8/177/173 18/178/174 67/166/122 66/163/119
f 68/170/130 67/166/122 18/178/174 23/179/175
f 69/171/131 68/170/130 23/179/175 27/180/176
f 70/174/138 69/171/131 27/180/176 31/181/177
f 71/175/139 70/174/138 31/181/177 9/182/178
s 2
f 9/135/179 10/10/180 72/123/141 71/71/140
s 3
f 10/130/181 30/138/182 73/74/145 72/73/144
f 74/85/149 73/74/145 30/138/182 26/139/183
f 75/87/151 74/85/149 26/139/183 22/143/184
f 76/89/153 75/87/151 22/143/184 19/152/185
f 77/127/155 76/89/153 19/152/185 11/189/186
s 7
f 78/122/159 77/115/158 11/192/187 13/157/188
s 4
f 13/13/189 14/153/190 79/121/161 78/78/160
s 6
f 12/120/191 80/79/165 79/65/164 14/125/192
s 5
f 12/120/193 7/132/194 65/83/169 80/79/168
s 1
f 82/165/121 81/164/120 50/8/2 49/3/1
s 5
f 83/80/171 82/119/170 49/6/22 64/1/21
s 6
f 84/82/167 83/80/166 64/1/30 63/14/29
s 4
f 85/117/163 84/84/162 63/63/18 62/118/17
s 7
f 62/30/40 61/188/39 86/187/157 85/116/156
s 3
f 61/26/62 60/19/16 87/88/152 86/90/154
f 60/19/16 59/16/15 88/86/150 87/88/152
f 59/16/15 58/38/66 89/77/148 88/86/150
f 58/38/66 57/40/76 90/75/146 89/77/148
f 91/76/147 90/75/146 57/40/76 56/41/85
s 2
f 92/113/143 91/91/142 56/56/10 55/114/9
s 1
f 55/55/92 54/50/91 93/173/137 92/172/136
f 54/50/91 53/32/72 94/168/128 93/173/137
f 53/32/72 52/31/71 95/169/129 94/168/128
f 52/31/71 51/23/57 96/167/123 95/169/129
f 81/164/120 96/167/123 51/23/57 50/8/2
s off
f 47/45/195 48/215/196 98/216/197 97/48/198
f 48/46/199 51/51/200 99/52/201 98/47/202
f 51/51/203 52/53/204 100/54/205 99/52/206
f 52/53/207 47/45/208 97/48/209 100/54/210
f 45/67/211 46/213/212 102/214/213 101/70/214
f 46/68/215 53/93/216 103/94/217 102/69/218
f 53/93/219 54/95/220 104/96/221 103/94/222
f 54/95/223 45/67/224 101/70/225 104/96/226
f 95/98/227 96/211/228 106/212/229 105/102/230
f 96/99/231 67/103/232 107/104/233 106/100/234
f 67/103/235 68/106/236 108/107/237 107/104/238
f 68/106/239 95/98/240 105/102/241 108/107/242
f 93/108/243 94/209/244 110/210/245 109/112/246
f 94/110/247 69/194/248 111/198/249 110/111/250
f 69/194/251 70/202/252 112/206/253 111/198/254
f 70/202/255 93/108/256 109/112/257 112/206/258
