# This file uses centimeters as units for non-parametric coordinates.

mtllib Desk.mtl
g default
v -42.422193 1.124325 8.461023
v -31.526298 1.124325 8.461023
v -42.422193 4.123339 8.461023
v -31.526298 4.123339 8.461023
v -42.422193 4.123339 5.098676
v -31.526298 4.123339 5.098676
v -42.422193 1.124325 5.098676
v -31.526298 1.124325 5.098676
v -42.422193 4.000370 8.461023
v -31.526298 4.000370 8.461023
v -31.526298 4.000369 5.098676
v -42.422193 4.000369 5.098676
v -42.716166 3.997053 8.668337
v -31.232330 3.997053 8.668337
v -31.232330 4.126657 8.668337
v -42.716166 4.126657 8.668337
v -42.716166 4.126657 4.891362
v -31.232330 4.126657 4.891362
v -31.232330 3.997052 4.891362
v -42.716166 3.997052 4.891362
v -32.001357 1.124325 8.461023
v -32.001357 4.000370 8.461023
v -31.733024 3.997053 8.668337
v -31.733024 4.126657 8.668337
v -32.001357 4.123339 8.461023
v -32.001357 4.123339 5.098676
v -31.733024 4.126657 4.891362
v -31.733024 3.997052 4.891362
v -32.001357 4.000369 5.098676
v -32.001357 1.124325 5.098676
v -37.241934 1.124325 8.461023
v -37.241934 4.000370 8.461023
v -37.256380 3.997053 8.668337
v -37.256380 4.126657 8.668337
v -37.241934 4.123339 8.461023
v -37.241934 4.123339 5.098676
v -37.256380 4.126657 4.891362
v -37.256378 3.997052 4.891362
v -37.241934 4.000369 5.098676
v -37.241934 1.124325 5.098676
v -42.422193 3.769976 8.461023
v -37.241934 3.769976 8.461023
v -32.001357 3.769976 8.461023
v -31.526298 3.769976 8.461023
v -31.526298 3.769976 5.098676
v -32.001357 3.769976 5.098676
v -37.241934 3.769976 5.098676
v -42.422193 3.769976 5.098676
v -37.241934 3.769976 8.280745
v -37.241934 1.124325 8.280745
v -32.001357 3.769976 8.280745
v -32.001357 1.124325 8.280745
vt 0.022137 0.348773
vt 0.479525 0.350349
vt 0.012780 0.176098
vt 0.237979 0.176098
vt 0.237979 0.335697
vt 0.012780 0.335697
vt 0.820300 0.541512
vt 0.045577 0.541569
vt 0.777990 0.167578
vt 0.237351 0.166258
vt 0.000000 0.166258
vt 0.776622 0.463145
vt 0.470695 0.508813
vt 0.045743 0.783819
vt 0.776724 0.431243
vt 0.501692 0.465771
vt 0.820465 0.783763
vt 0.793644 0.470407
vt 0.482467 0.519046
vt 0.484740 0.449148
vt 0.000000 0.524525
vt 0.841385 0.810255
vt 0.024859 0.810315
vt 0.024852 0.799398
vt 0.841378 0.799339
vt 0.793640 0.438749
vt 0.793583 0.450631
vt 0.484812 0.473357
vt 0.484925 0.485239
vt 0.459583 0.350280
vt 0.450753 0.508744
vt 0.461449 0.518973
vt 0.461051 0.526114
vt 0.237351 0.345538
vt 0.000000 0.345538
vt 0.060460 0.810312
vt 0.060453 0.799396
vt 0.079521 0.783816
vt 0.079431 0.541567
vt 0.239594 0.349522
vt 0.230763 0.507986
vt 0.229589 0.518174
vt 0.229191 0.525315
vt 0.486452 0.335697
vt 0.486452 0.176098
vt 0.453183 0.810284
vt 0.453175 0.799367
vt 0.452138 0.783789
vt 1.000000 0.160630
vt 0.014014 0.494543
vt 0.231471 0.495292
vt 0.451460 0.496050
vt 0.501886 0.408802
vt 0.045730 0.764413
vt 0.776825 0.410122
vt 0.607105 0.160630
vt 0.607105 0.000000
vt 0.820452 0.764357
vt 1.000000 0.000000
vt 0.392895 0.160630
vt 0.392895 0.000000
vt 0.000000 0.160630
vt 0.499231 0.166258
vt 0.499231 0.345538
vt 0.465800 0.176098
vt 0.477465 0.166258
vt 0.465800 0.335697
vt 0.477465 0.345538
vt 0.079431 0.764397
vt 0.452048 0.764397
vt 0.452048 0.541539
vt 0.000000 0.000000
vt 0.471402 0.496119
vt 0.501785 0.429923
vt 0.484797 0.437266
vt 0.499231 0.166258
vt 0.482069 0.526187
vt 0.503051 0.166258
vt 0.000398 0.517384
vt 0.793758 0.482288
vt 0.013306 0.507237
vn 0.000000 0.000000 1.000000
vn 0.000000 0.000000 1.000000
vn 0.000000 0.000000 1.000000
vn 0.000000 0.000000 1.000000
vn 0.000000 1.000000 0.000000
vn 0.000000 1.000000 0.000000
vn 0.000000 1.000000 0.000000
vn 0.000000 1.000000 0.000000
vn 0.000000 0.000000 -1.000000
vn 0.000000 0.000000 -1.000000
vn 0.000000 0.000000 -1.000000
vn 0.000000 0.000000 -1.000000
vn 1.000000 0.000000 0.000000
vn 1.000000 0.000000 0.000000
vn 1.000000 0.000000 0.000000
vn 1.000000 0.000000 0.000000
vn -1.000000 0.000000 0.000000
vn -1.000000 0.000000 0.000000
vn -1.000000 0.000000 0.000000
vn -1.000000 0.000000 0.000000
vn 0.000000 0.000000 1.000000
vn 0.000000 0.000000 1.000000
vn 0.000000 0.000000 1.000000
vn 0.000000 0.000000 1.000000
vn 1.000000 0.000000 0.000000
vn 1.000000 0.000000 0.000000
vn 1.000000 0.000000 0.000000
vn 1.000000 0.000000 0.000000
vn 0.000000 0.000000 -1.000000
vn -0.000000 0.000000 -1.000000
vn 0.000000 0.000000 -1.000000
vn 0.000000 0.000000 -1.000000
vn 0.000000 -0.999872 -0.015996
vn 0.000000 -0.999872 -0.015996
vn 0.000000 -0.999872 -0.015996
vn 0.000000 -0.999872 -0.015996
vn 0.000000 0.999872 -0.016001
vn 0.000000 0.999872 -0.016001
vn 0.000000 0.999872 -0.016001
vn 0.000000 0.999872 -0.016001
vn 0.000000 0.999872 0.016001
vn 0.000000 0.999872 0.016001
vn 0.000000 0.999872 0.016001
vn 0.000000 0.999872 0.016001
vn -0.000000 -0.999872 0.015999
vn 0.000000 -0.999872 0.015999
vn -0.000000 -0.999872 0.016000
vn -0.000000 -0.999872 0.016000
vn -0.011283 -0.999936 0.000000
vn -0.011283 -0.999936 0.000000
vn -0.011283 -0.999936 0.000000
vn -0.011283 -0.999936 0.000000
vn -0.011285 0.999936 0.000000
vn -0.011285 0.999936 0.000000
vn -0.011285 0.999936 0.000000
vn -0.011285 0.999936 0.000000
vn 0.011283 -0.999936 0.000000
vn 0.011283 -0.999936 0.000000
vn 0.011283 -0.999936 0.000000
vn 0.011283 -0.999936 0.000000
vn 0.011285 0.999936 0.000000
vn 0.011285 0.999936 0.000000
vn 0.011285 0.999936 0.000000
vn 0.011285 0.999936 0.000000
vn 0.000000 0.000000 1.000000
vn 0.000000 0.000000 1.000000
vn 0.000000 0.000000 1.000000
vn 0.000000 0.000000 1.000000
vn 0.000000 -0.999872 -0.015997
vn 0.000000 -0.999872 -0.015996
vn 0.000000 -0.999872 -0.015998
vn 0.000000 -0.999872 -0.015998
vn 0.000000 0.000000 1.000000
vn 0.000000 0.000000 1.000000
vn 0.000000 0.000000 1.000000
vn 0.000000 0.000000 1.000000
vn 0.000000 0.999872 -0.016001
vn 0.000000 0.999872 -0.016001
vn 0.000000 0.999872 -0.016001
vn 0.000000 0.999872 -0.016001
vn 0.000000 1.000000 0.000000
vn 0.000000 1.000000 0.000000
vn 0.000000 1.000000 0.000000
vn 0.000000 1.000000 0.000000
vn 0.000000 0.999872 0.016001
vn 0.000000 0.999872 0.016001
vn 0.000000 0.999872 0.016001
vn 0.000000 0.999872 0.016001
vn 0.000000 0.000000 -1.000000
vn 0.000000 0.000000 -1.000000
vn 0.000000 0.000000 -1.000000
vn 0.000000 0.000000 -1.000000
vn 0.000000 -0.999872 0.015999
vn 0.000000 -0.999872 0.015999
vn 0.000000 -0.999872 0.015999
vn 0.000000 -0.999872 0.015999
vn 0.000000 0.000000 -1.000000
vn -0.000000 0.000000 -1.000000
vn -0.000000 0.000000 -1.000000
vn 0.000000 0.000000 -1.000000
vn 0.000000 0.000000 1.000000
vn 0.000000 0.000000 1.000000
vn 0.000000 0.000000 1.000000
vn 0.000000 0.000000 1.000000
vn 1.000000 0.000000 0.000000
vn 1.000000 0.000000 0.000000
vn 0.000000 0.000000 -1.000000
vn 0.000000 0.000000 -1.000000
vn 0.000000 0.000000 -1.000000
vn 0.000000 0.000000 -1.000000
vn 1.000000 0.000000 0.000000
vn 1.000000 0.000000 0.000000
vn 1.000000 0.000000 0.000000
vn 1.000000 0.000000 0.000000
vn 0.000000 -1.000000 0.000000
vn 0.000000 -1.000000 0.000000
vn 0.000000 -1.000000 0.000000
vn 0.000000 -1.000000 0.000000
vn -1.000000 0.000000 0.000000
vn -1.000000 0.000000 0.000000
vn -1.000000 0.000000 0.000000
vn -1.000000 0.000000 0.000000
s 1
g SchoolHallway:pCube3 Desk
usemtl initialShadingGroup
f 13/79/1 33/42/2 34/43/3 16/21/4
s 2
f 3/3/5 35/4/6 36/5/7 5/6/8
s 3
f 17/22/9 37/46/10 38/47/11 20/25/12
s off
f 14/75/13 19/26/14 18/27/15 15/20/16
f 20/28/17 13/18/18 16/80/19 17/29/20
s 4
f 41/50/21 42/51/22 32/41/23 9/81/24
s 5
f 44/53/25 45/55/26 11/15/27 10/74/28
s 6
f 12/17/29 39/48/30 47/70/31 48/58/32
s 7
f 9/81/33 32/41/34 33/42/35 13/79/36
s 8
f 34/10/37 35/4/38 3/3/39 16/11/40
s 9
f 5/6/41 36/5/42 37/34/43 17/35/44
s 10
f 38/47/45 39/48/46 12/17/47 20/25/48
s off
f 10/74/49 11/15/50 19/26/51 14/75/52
f 6/44/53 4/45/54 15/76/55 18/64/56
f 12/16/57 9/12/58 13/18/59 20/28/60
f 3/3/61 5/6/62 17/35/63 16/11/64
s 4
f 22/31/65 43/52/66 44/73/67 10/13/68
s 7
f 23/32/69 22/31/70 10/13/71 14/19/72
s 1
f 24/33/73 23/32/74 14/19/75 15/77/76
s 8
f 4/45/77 25/65/78 24/66/79 15/63/80
s 2
f 26/67/81 25/65/82 4/45/83 6/44/84
s 9
f 27/68/85 26/67/86 6/44/87 18/64/88
s 3
f 28/37/89 27/36/90 18/23/91 19/24/92
s 10
f 11/14/93 29/38/94 28/37/95 19/24/96
s 6
f 45/54/97 46/69/98 29/38/99 11/14/100
s 4
f 32/41/23 42/51/22 43/52/66 22/31/65
s 7
f 33/42/35 32/41/34 22/31/70 23/32/69
s 1
f 34/43/3 33/42/2 23/32/74 24/33/73
s 8
f 24/66/79 25/65/78 35/4/38 34/10/37
s 2
f 36/5/7 35/4/6 25/65/82 26/67/81
s 9
f 37/34/43 36/5/42 26/67/86 27/68/85
s 3
f 38/47/11 37/46/10 27/36/90 28/37/89
s 10
f 28/37/95 29/38/94 39/48/46 38/47/45
s 6
f 46/69/98 47/70/31 39/48/30 29/38/99
s 4
f 1/1/101 31/40/102 42/51/22 41/50/21
f 43/52/66 42/51/22 31/40/102 21/30/103
f 44/73/67 43/52/66 21/30/103 2/2/104
s 5
f 2/78/105 8/9/106 45/55/26 44/53/25
s 6
f 30/39/107 46/69/98 45/54/97 8/8/108
f 48/58/32 47/70/31 40/71/109 7/7/110
s off
f 40/49/111 47/56/112 49/57/113 50/59/114
f 47/56/115 46/60/116 51/61/117 49/57/118
f 46/60/119 30/62/120 52/72/121 51/61/122
g default
v -31.844370 0.526542 8.402228
v -31.566584 0.526542 8.402228
v -31.844370 1.188120 8.402228
v -31.566584 1.188120 8.402228
v -31.844370 1.188120 5.157471
v -31.566584 1.188120 5.157471
v -31.844370 0.526542 5.157471
v -31.566584 0.526542 5.157471
vt 0.417161 0.832894
vt 0.543777 0.832895
vt 0.543776 0.959511
vt 0.417160 0.959510
vt 0.797008 0.959513
vt 0.670392 0.959512
vt 0.670393 0.832896
vt 0.797009 0.832897
vn 0.000000 0.000000 1.000000
vn 0.000000 0.000000 1.000000
vn 0.000000 0.000000 1.000000
vn 0.000000 0.000000 1.000000
vn 0.000000 0.000000 -1.000000
vn 0.000000 0.000000 -1.000000
vn 0.000000 0.000000 -1.000000
vn 0.000000 0.000000 -1.000000
vn 1.000000 0.000000 0.000000
vn 1.000000 0.000000 0.000000
vn 1.000000 0.000000 0.000000
vn 1.000000 0.000000 0.000000
s off
g Desk SchoolHallway:pCube4
usemtl initialShadingGroup
f 53/82/123 54/83/124 56/84/125 55/85/126
f 57/86/127 58/87/128 60/88/129 59/89/130
f 54/83/131 60/88/132 58/87/133 56/84/134
g default
v -42.403868 0.526542 8.402228
v -42.126083 0.526542 8.402228
v -42.403868 1.188120 8.402228
v -42.126083 1.188120 8.402228
v -42.403868 1.188120 5.157471
v -42.126083 1.188120 5.157471
v -42.403868 0.526542 5.157471
v -42.126083 0.526542 5.157471
vt 0.014746 0.830605
vt 0.141188 0.830452
vt 0.141341 0.956893
vt 0.014899 0.957046
vt 0.394224 0.956587
vt 0.267782 0.956740
vt 0.267629 0.830299
vt 0.394071 0.830146
vn 0.000000 0.000000 1.000000
vn 0.000000 0.000000 1.000000
vn 0.000000 0.000000 1.000000
vn 0.000000 0.000000 1.000000
vn 0.000000 0.000000 -1.000000
vn 0.000000 0.000000 -1.000000
vn 0.000000 0.000000 -1.000000
vn 0.000000 0.000000 -1.000000
vn 1.000000 0.000000 0.000000
vn 1.000000 0.000000 0.000000
vn 1.000000 0.000000 0.000000
vn 1.000000 0.000000 0.000000
s off
g Desk SchoolHallway:pCube5
usemtl initialShadingGroup
f 61/90/135 62/91/136 64/92/137 63/93/138
f 65/94/139 66/95/140 68/96/141 67/97/142
f 62/91/143 68/96/144 66/95/145 64/92/146
