# This file uses centimeters as units for non-parametric coordinates.

mtllib FronWall.mtl
g default
v -13.406422 7.373841 42.432422
v -13.406422 15.051184 42.432422
v -13.406422 15.051184 8.452655
v -13.406422 15.051184 3.226818
v -13.406422 15.051184 -5.056395
v -13.406422 15.051184 -10.353156
v -13.406422 15.051184 -43.242192
v -13.406422 7.373841 -43.242192
v -13.406422 7.373841 -10.076463
v -13.406422 7.815904 -5.056397
v -13.406422 7.946306 3.226817
v -13.406422 7.051172 8.452655
v -14.406422 7.373841 -10.076463
v -14.406422 7.815904 -5.056397
v -14.406422 7.946306 3.226817
v -14.406422 7.051172 8.452655
v -13.406422 0.456775 8.065421
v -13.406422 0.456775 3.857142
v -13.406422 0.456775 -5.795045
v -13.406422 0.456775 -11.042919
v -14.406422 0.456775 -11.042919
v -14.406422 0.456775 -5.795045
v -14.406422 0.456775 3.857142
v -14.406422 0.456775 8.065421
v -13.406422 7.655808 42.432422
v -13.406422 7.333139 8.452655
v -13.406422 8.228274 3.226817
v -13.406422 8.097871 -5.056397
v -13.406422 7.655808 -10.165344
v -13.406422 7.655818 -43.242192
v -13.406422 15.051184 2.943007
v -13.406422 8.228274 2.943006
v -13.406422 7.946306 2.943009
v -14.406422 0.811350 3.857142
v -13.406422 0.811350 3.857142
v -13.406422 0.811350 3.573329
v -13.406422 0.811350 -5.795045
v -14.406422 0.811350 -5.795045
v -13.406422 0.811350 -5.381356
v -13.406422 7.815904 -4.642710
v -13.406422 8.097871 -4.642708
v -13.406422 15.051184 -4.642706
v -13.406422 15.051184 -10.650201
v -13.406422 7.655808 -10.514156
v -13.406422 7.373841 -10.426224
v -13.406422 0.884891 -43.242192
v -13.406422 0.884891 -11.392684
v -13.406422 0.884892 -11.042919
v -14.406422 0.884892 -11.042919
v -13.406422 15.051184 8.795205
v -13.406422 7.333139 8.795205
v -13.406422 7.051172 8.795186
v -13.406422 1.026246 42.432422
v -13.406422 1.026246 8.407970
v -13.406422 1.026246 8.065421
v -14.406422 1.026246 8.065421
v -13.249464 0.884891 -11.392684
v -13.249464 0.456775 -11.392684
v -13.249464 7.051172 8.795186
v -13.249464 1.026246 8.407970
v -13.249464 1.026246 8.065421
v -13.249464 7.051172 8.452655
v -13.249464 7.333139 8.795205
v -13.249464 7.333139 8.452655
v -13.249464 7.946306 3.226817
v -13.249464 8.228274 3.226817
v -13.249464 7.373841 -10.076463
v -13.249464 7.815904 -5.056397
v -13.249464 7.655808 -10.165344
v -13.249464 8.097871 -5.056397
v -13.249464 7.946306 2.943009
v -13.249464 8.228274 2.943006
v -13.249464 0.811350 3.857142
v -13.249464 0.811350 3.573329
v -13.249464 0.456775 3.857142
v -13.249464 0.456774 3.573329
v -13.249464 0.456775 -5.381356
v -13.249464 0.811350 -5.381356
v -13.249464 0.811350 -5.795045
v -13.249464 0.456775 -5.795045
v -13.249464 7.815904 -4.642710
v -13.249464 8.097871 -4.642708
v -13.249464 7.373841 -10.426224
v -13.249464 7.655808 -10.514156
v -13.249464 0.456775 -11.042919
v -13.249464 0.884892 -11.042919
v -13.249464 0.456775 8.407970
v -13.249464 0.456775 8.065421
v -13.406422 0.456144 3.573329
v -13.406422 0.456143 -5.381356
v -13.406422 0.450490 42.432422
v -13.406422 0.450490 8.407970
v -13.406422 0.456043 -43.242192
v -13.406422 0.456043 -11.392684
vt 0.440078 0.736407
vt 0.415689 0.477825
vt 0.762176 0.477825
vt 0.733595 0.731681
vt 0.213638 0.703966
vt 0.228621 0.485613
vt 0.241875 0.485613
vt 0.226892 0.703966
vt 0.234811 0.292927
vt 0.960781 0.725879
vt 0.621204 0.210807
vt 0.621204 0.292927
vt 0.749602 0.741900
vt 0.947284 0.725879
vt 0.954551 0.993899
vt 0.749602 0.993899
vt 0.440078 0.993899
vt 0.440078 0.746626
vt 0.733595 0.741900
vt 0.733595 0.993899
vt 0.226892 0.714185
vt 0.429097 0.746626
vt 0.429097 0.993899
vt 0.226892 0.993899
vt 0.213637 0.993899
vt 0.213637 0.714185
vt 0.187329 0.526476
vt 0.187293 0.621165
vt 0.112752 0.608737
vt 0.112788 0.514048
vt 0.187160 0.974923
vt 0.112619 0.962495
vt 0.187460 0.176914
vt 0.187452 0.198520
vt 0.112911 0.186092
vt 0.112919 0.164486
vt 0.093070 0.553003
vt 0.093066 0.659249
vt 0.020936 0.657709
vt 0.020941 0.551463
vt 0.093052 0.964351
vt 0.020922 0.962810
vt 0.020957 0.190062
vt 0.093087 0.191603
vt 0.213637 0.714185
vt 0.226892 0.714185
vt 0.429097 0.736407
vt 0.429097 0.746626
vt 0.749602 0.731681
vt 0.943845 0.715660
vt 0.947284 0.725879
vt 0.749602 0.741900
vt 0.093087 0.173652
vt 0.621204 0.207675
vt 0.440078 0.736407
vt 0.440078 0.746626
vt 0.404707 0.477825
vt 0.415689 0.477825
vt 0.020958 0.172111
vt 0.187154 0.992817
vt 0.404707 0.464974
vt 0.415689 0.464974
vt 0.112613 0.980389
vt 0.093051 0.993181
vt 0.778183 0.477825
vt 0.762176 0.477825
vt 0.762176 0.464974
vt 0.778183 0.464974
vt 0.733595 0.731681
vt 0.733595 0.741900
vt 0.957378 0.715660
vt 0.960781 0.725879
vt 0.981240 0.464974
vt 0.994774 0.464974
vt 0.994774 0.480490
vt 0.981240 0.480490
vt 0.020921 0.991640
vt 0.621204 0.135620
vt 0.236024 0.375097
vt 0.236024 0.449286
vt 0.236024 0.372268
vt 0.382238 0.121155
vt 0.236024 0.308590
vt 0.600443 0.308590
vt 0.228621 0.464974
vt 0.241875 0.464974
vt 0.038300 0.121057
vt 0.038738 0.070760
vt 0.415689 0.464951
vt 0.762176 0.464951
vt 0.236024 0.302814
vt 0.600443 0.302814
vt 0.382676 0.070858
vt 0.621204 0.130858
vt 0.596295 0.369031
vt 0.596295 0.371860
vt 0.596295 0.449286
vt 0.243613 0.135620
vt 0.243613 0.130858
vt 0.232155 0.207675
vt 0.233197 0.210807
vt 0.966045 0.993899
vt 0.104387 0.659491
vt 0.104373 0.964593
vt 0.398329 0.121159
vt 0.398767 0.070862
vt 0.405430 0.121161
vt 0.405869 0.070864
vt 0.104392 0.553245
vt 0.525200 0.121195
vt 0.525638 0.070898
vt 0.199028 0.528427
vt 0.198993 0.623115
vt 0.567029 0.064458
vt 0.457202 0.064651
vt 0.454473 0.013771
vt 0.564299 0.013578
vt 0.547176 0.121202
vt 0.531084 0.121197
vt 0.531522 0.070900
vt 0.547613 0.070904
vt 0.954578 0.121317
vt 0.955016 0.071020
vt 0.104408 0.191845
vt 0.104409 0.173894
vt 0.198860 0.976873
vt 0.198853 0.994768
vt 0.432317 0.064694
vt 0.028757 0.065403
vt 0.026027 0.014523
vt 0.429589 0.013814
vt 0.448551 0.064666
vt 0.445822 0.013786
vt 0.590660 0.064416
vt 0.574323 0.064445
vt 0.571593 0.013565
vt 0.587930 0.013536
vt 0.199160 0.178864
vt 0.199152 0.200470
vt 0.964787 0.063759
vt 0.962057 0.012879
vt 0.104372 0.993423
vt 0.005614 0.014559
vt 0.008307 0.065439
vt 0.975252 0.071026
vt 0.974850 0.121323
vt 0.006238 0.070751
vt 0.005442 0.121048
vt 0.986705 0.012836
vt 0.989477 0.063716
vn 1.000000 0.000000 0.000000
vn 1.000000 0.000000 0.000000
vn 1.000000 0.000000 0.000000
vn 1.000000 0.000000 0.000000
vn 1.000000 0.000000 0.000000
vn 1.000000 0.000000 0.000000
vn 1.000000 0.000000 0.000000
vn 1.000000 0.000000 0.000000
vn 1.000000 0.000000 0.000000
vn 1.000000 0.000000 0.000000
vn 1.000000 0.000000 0.000000
vn 1.000000 0.000000 0.000000
vn 1.000000 -0.000000 0.000000
vn 1.000000 -0.000000 0.000000
vn 1.000000 -0.000000 0.000000
vn 1.000000 -0.000000 0.000000
vn 1.000000 -0.000000 0.000000
vn 1.000000 -0.000000 0.000000
vn 1.000000 -0.000000 0.000000
vn 1.000000 -0.000000 0.000000
vn 1.000000 0.000000 0.000000
vn 1.000000 0.000000 0.000000
vn 1.000000 0.000000 0.000000
vn 1.000000 0.000000 0.000000
vn 1.000000 0.000000 0.000000
vn 1.000000 0.000000 0.000000
vn 0.000000 -0.996145 0.087720
vn 0.000000 -0.996145 0.087720
vn 0.000000 -0.996145 0.087720
vn 0.000000 -0.996145 0.087720
vn 0.000000 0.104871 -0.994486
vn 0.000000 0.099870 -0.995001
vn 0.000000 0.099870 -0.995001
vn 0.000000 0.104871 -0.994486
vn 0.000000 0.000000 1.000000
vn 0.000000 -0.138376 0.990380
vn 0.000000 -0.138376 0.990380
vn 0.000000 0.000000 1.000000
vn 0.000000 -0.985645 -0.168831
vn 0.000000 -0.985645 -0.168831
vn 0.000000 -0.985645 -0.168831
vn 0.000000 -0.985645 -0.168831
vn 0.000000 0.064140 -0.997941
vn 0.000000 0.058621 -0.998280
vn 0.000000 0.058621 -0.998280
vn 0.000000 0.064140 -0.997941
vn 0.000000 0.083864 0.996477
vn 0.000000 0.083864 0.996477
vn 0.000000 0.088000 0.996121
vn 0.000000 0.088000 0.996121
vn 1.000000 0.000000 0.000000
vn 1.000000 0.000000 0.000000
vn 1.000000 -0.000000 0.000000
vn 1.000000 0.000000 0.000000
vn 1.000000 0.000000 0.000000
vn 1.000000 0.000000 0.000000
vn 1.000000 0.000000 0.000000
vn 1.000000 0.000000 0.000000
vn 1.000000 0.000000 0.000000
vn 1.000000 0.000000 0.000000
vn 1.000000 -0.000000 0.000000
vn 1.000000 0.000000 0.000000
vn 1.000000 -0.000000 0.000000
vn 1.000000 -0.000000 0.000000
vn 0.000000 0.000000 1.000000
vn 0.000000 0.000000 1.000000
vn 1.000000 0.000000 0.000000
vn 1.000000 0.000000 0.000000
vn 0.000000 0.000000 -1.000000
vn 0.000000 0.000000 -1.000000
vn 1.000000 0.000000 0.000000
vn 1.000000 0.000000 0.000000
vn 1.000000 0.000000 0.000000
vn 1.000000 0.000000 0.000000
vn 1.000000 0.000000 0.000000
vn 1.000000 0.000000 0.000000
vn 1.000000 0.000000 0.000000
vn 1.000000 0.000000 0.000000
vn 1.000000 0.000000 0.000000
vn 1.000000 0.000000 0.000000
vn 1.000000 0.000000 0.000000
vn 1.000000 0.000000 0.000000
vn 1.000000 0.000000 0.000000
vn 1.000000 0.000000 0.000000
vn 0.000000 -0.147314 0.989090
vn 0.000000 -0.147314 0.989090
vn 1.000000 0.000000 0.000000
vn 1.000000 0.000000 0.000000
vn 1.000000 0.000000 0.000000
vn 1.000000 0.000000 0.000000
vn 1.000000 0.000000 0.000000
vn 1.000000 0.000000 0.000000
vn 1.000000 0.000000 0.000000
vn 1.000000 0.000000 0.000000
vn 0.000000 0.000000 -1.000000
vn 0.000000 0.000000 -1.000000
vn 0.000000 -0.064137 0.997941
vn 0.000000 -0.064137 0.997941
vn 0.000000 -0.064137 0.997941
vn 0.000000 -0.064137 0.997941
vn 0.000000 0.064140 -0.997941
vn 0.000000 0.064140 -0.997941
vn 0.000000 0.064140 -0.997941
vn 0.000000 0.064140 -0.997941
vn 0.000000 -0.000068 1.000000
vn 0.000000 -0.000068 1.000000
vn 0.000000 -0.000068 1.000000
vn 0.000000 -0.000068 1.000000
vn 0.000000 1.000000 0.000000
vn 0.000000 1.000000 0.000000
vn 0.000000 1.000000 0.000000
vn 0.000000 1.000000 0.000000
vn 0.000000 -0.985645 -0.168831
vn 0.000000 -0.985645 -0.168831
vn 0.000000 -0.985645 -0.168831
vn 0.000000 -0.985645 -0.168831
vn 0.000000 0.985645 0.168831
vn 0.000000 0.985645 0.168831
vn 0.000000 0.985645 0.168831
vn 0.000000 0.985645 0.168831
vn 0.000000 -0.996145 0.087720
vn 0.000000 -0.996145 0.087720
vn 0.000000 -0.996145 0.087720
vn 0.000000 -0.996145 0.087720
vn 0.000000 0.996277 -0.086205
vn 0.000000 0.996277 -0.086205
vn 0.000000 0.996277 -0.086205
vn 0.000000 0.996277 -0.086205
vn 0.000000 -0.000010 -1.000000
vn 0.000000 -0.000010 -1.000000
vn 0.000000 -0.000010 -1.000000
vn 0.000000 -0.000010 -1.000000
vn 0.000000 1.000000 0.000000
vn 0.000000 1.000000 0.000000
vn 0.000000 1.000000 0.000000
vn 0.000000 1.000000 0.000000
vn 0.000000 -0.088000 -0.996121
vn 0.000000 -0.088000 -0.996121
vn 0.000000 -0.088000 -0.996121
vn 0.000000 -0.088000 -0.996121
vn 0.000000 0.088001 0.996120
vn 0.000000 0.088001 0.996120
vn 0.000000 0.088001 0.996120
vn 0.000000 0.088001 0.996120
vn 0.000000 0.000000 1.000000
vn 0.000000 0.000000 1.000000
vn 0.000000 0.000000 1.000000
vn 0.000000 0.000000 1.000000
vn 0.000000 0.000000 -1.000000
vn 0.000000 0.000000 -1.000000
vn 0.000000 0.000000 -1.000000
vn 0.000000 0.000000 -1.000000
vn 0.000000 -0.104871 0.994486
vn 0.000000 -0.104871 0.994486
vn 0.000000 -0.104871 0.994486
vn 0.000000 -0.104871 0.994486
vn 0.000000 0.104871 -0.994486
vn 0.000000 0.104871 -0.994486
vn 0.000000 0.104871 -0.994486
vn 0.000000 0.104871 -0.994486
vn 0.000000 -0.000007 1.000000
vn 0.000000 -0.000007 1.000000
vn 0.000000 -0.000007 1.000000
vn 0.000000 -0.000007 1.000000
vn 0.000000 1.000000 0.000000
vn 0.000000 1.000000 0.000000
vn 0.000000 1.000000 0.000000
vn 0.000000 1.000000 0.000000
vn 0.000000 -0.297708 -0.954657
vn 0.000000 -0.297708 -0.954657
vn 0.000000 -0.297708 -0.954657
vn 0.000000 -0.297708 -0.954657
vn 0.000000 1.000000 0.000000
vn 0.000000 1.000000 0.000000
vn 0.000000 1.000000 0.000000
vn 0.000000 1.000000 0.000000
vn 0.000000 0.000000 1.000000
vn 0.000000 0.000000 1.000000
vn 0.000000 0.000000 1.000000
vn 0.000000 0.000000 1.000000
vn 0.000000 0.147314 -0.989090
vn 0.000000 0.147314 -0.989090
vn 0.000000 0.147314 -0.989090
vn 0.000000 0.147314 -0.989090
vn 0.000000 -0.147314 0.989090
vn 0.000000 -0.147314 0.989090
vn 0.000000 -0.147314 0.989090
vn 0.000000 -0.147314 0.989090
vn 0.000000 0.000000 -1.000000
vn 0.000000 0.000000 -1.000000
vn 0.000000 0.000000 -1.000000
vn 0.000000 0.000000 -1.000000
vn 1.000000 0.000000 0.000000
vn 1.000000 0.000000 0.000000
vn 1.000000 0.000000 0.000000
vn 1.000000 0.000000 0.000000
vn -0.000001 0.000000 1.000000
vn -0.000001 0.000000 1.000000
vn -0.000001 0.000000 1.000000
vn -0.000001 0.000000 1.000000
vn -0.000002 0.000000 -1.000000
vn -0.000002 0.000000 -1.000000
vn -0.000002 0.000000 -1.000000
vn -0.000002 0.000000 -1.000000
vn 1.000000 0.000000 0.000000
vn 1.000000 0.000000 0.000000
vn 1.000000 0.000000 0.000000
vn 1.000000 0.000000 0.000000
vn 1.000000 0.000000 0.000000
vn 1.000000 0.000000 0.000000
vn 1.000000 0.000000 0.000000
vn 1.000000 0.000000 0.000000
vn -0.000000 0.000000 1.000000
vn -0.000000 0.000000 1.000000
vn -0.000000 0.000000 1.000000
vn -0.000000 0.000000 1.000000
vn 0.000000 0.000000 -1.000000
vn 0.000000 0.000000 -1.000000
vn 0.000000 0.000000 -1.000000
vn 0.000000 0.000000 -1.000000
s 1
g FrontWall
usemtl initialShadingGroup
f 33/1/1 36/2/2 39/3/3 40/4/4
s 2
f 59/5/5 60/6/6 61/7/7 62/8/8
s 1
f 43/9/9 44/101/10 30/11/11 7/12/12
f 28/13/13 29/14/14 6/15/15 5/16/16
f 31/17/17 32/18/18 41/19/19 42/20/20
f 26/21/21 27/22/22 4/23/23 3/24/24
f 50/25/25 51/26/26 26/21/21 3/24/24
s off
f 9/27/27 10/28/28 14/29/29 13/30/30
s 5
f 10/28/31 37/31/32 38/32/33 14/29/34
s 6
f 20/33/35 48/34/36 49/35/37 21/36/38
s off
f 11/37/39 12/38/40 16/39/41 15/40/42
s 7
f 12/38/43 55/41/44 56/42/45 16/39/46
s 8
f 34/43/47 35/44/48 11/37/49 15/40/50
s 2
f 63/45/51 59/5/5 62/8/8 64/46/52
f 62/8/8 65/47/53 66/48/54 64/46/52
s 1
f 32/18/18 33/1/1 40/4/4 41/19/19
s 9
f 68/49/55 67/50/56 69/51/57 70/52/58
s 1
f 44/101/10 45/100/59 8/54/60 30/11/11
f 27/22/22 32/18/18 31/17/17 4/23/23
s 2
f 65/47/53 71/55/61 72/56/62 66/48/54
f 73/57/63 74/58/64 71/55/61 65/47/53
s 8
f 18/53/65 35/44/48 34/43/47 23/59/66
s 2
f 75/61/67 76/62/68 74/58/64 73/57/63
s 5
f 38/32/33 37/31/32 19/60/69 22/63/70
s 9
f 79/65/71 78/66/72 77/67/73 80/68/74
f 81/69/75 78/66/72 79/65/71 68/49/55
f 82/70/76 81/69/75 68/49/55 70/52/58
s 1
f 42/20/20 41/19/19 28/13/13 5/16/16
f 29/14/14 44/10/10 43/102/9 6/15/15
s 9
f 67/50/56 83/71/77 84/72/78 69/51/57
f 85/73/79 58/74/80 57/75/81 86/76/82
s 1
f 45/100/59 47/98/83 46/78/84 8/54/60
s 9
f 86/76/82 57/75/81 83/71/77 67/50/56
s 6
f 49/35/37 48/34/36 9/27/85 13/30/86
s 1
f 25/79/87 51/96/26 50/97/25 2/80/88
f 1/81/89 52/95/90 51/96/26 25/79/87
f 53/83/91 54/84/92 52/95/90 1/81/89
s 2
f 61/7/7 60/6/6 87/85/93 88/86/94
s 7
f 56/42/45 55/41/44 17/64/95 24/77/96
s off
f 52/82/97 54/87/98 60/88/99 59/93/100
f 55/41/101 12/38/102 62/103/103 61/104/104
f 51/105/105 52/82/106 59/93/107 63/106/108
f 26/107/109 51/105/110 63/106/111 64/108/112
f 12/38/113 11/37/114 65/109/115 62/103/116
f 27/110/117 26/107/118 64/108/119 66/111/120
f 10/28/121 9/27/122 67/112/123 68/113/124
f 29/114/125 28/115/126 70/116/127 69/117/128
f 33/118/129 32/119/130 72/120/131 71/121/132
f 32/119/133 27/110/134 66/111/135 72/120/136
f 36/122/137 33/118/138 71/121/139 74/123/140
f 11/37/141 35/44/142 73/124/143 65/109/144
f 35/44/145 18/53/146 75/125/147 73/124/148
f 19/60/149 37/31/150 79/126/151 80/127/152
f 40/128/153 39/129/154 78/130/155 81/131/156
f 37/31/157 10/28/158 68/113/159 79/126/160
f 41/132/161 40/128/162 81/131/163 82/133/164
f 28/115/165 41/132/166 82/133/167 70/116/168
f 45/134/169 44/135/170 84/136/171 83/137/172
f 44/135/173 29/114/174 69/117/175 84/136/176
f 48/34/177 20/33/178 85/138/179 86/139/180
f 47/140/181 45/134/182 83/137/183 57/141/184
f 9/27/185 48/34/186 86/139/187 67/112/188
f 17/64/189 55/41/190 61/104/191 88/142/192
f 39/3/193 36/2/194 89/89/195 90/90/196
f 77/143/197 78/130/198 39/129/199 90/144/200
f 74/123/201 76/145/202 89/146/203 36/122/204
f 54/84/205 53/83/206 91/91/207 92/92/208
f 46/78/209 47/98/210 94/99/211 93/94/212
f 87/147/213 60/88/214 54/87/215 92/148/216
f 57/141/217 58/149/218 94/150/219 47/140/220
