# This file uses centimeters as units for non-parametric coordinates.

mtllib Table1.mtl
g default
v -23.204147 2.862463 18.774065
v -19.462406 2.862463 19.215374
v -23.204147 3.094792 18.774065
v -19.462406 3.094792 19.215374
v -23.667893 3.094792 16.365414
v -20.290001 3.094792 16.050217
v -23.667893 2.862463 16.365414
v -20.290001 2.862463 16.050217
v -22.846901 2.862463 18.774065
v -23.310644 2.862463 16.365414
v -23.310644 3.094792 16.365414
v -22.846901 3.094792 18.774065
v -22.754295 2.862463 18.774065
v -22.754295 3.094792 18.774065
v -23.218033 3.094792 16.365414
v -23.218033 2.862463 16.365414
v -19.751778 2.862463 19.215374
v -19.751778 3.094792 19.215374
v -20.579384 3.094792 16.050217
v -20.579384 2.862463 16.050217
v -19.847908 2.862463 19.215374
v -20.675507 2.862463 16.050217
v -20.675507 3.094792 16.050217
v -19.847908 3.094792 19.215374
v -23.667893 3.094792 16.506718
v -23.310644 3.094792 16.506718
v -23.218033 3.094792 16.506718
v -20.675507 3.094792 16.191521
v -20.579384 3.094792 16.191521
v -20.290001 3.094792 16.191521
v -20.290001 2.862463 16.191521
v -20.579384 2.862463 16.191521
v -20.675507 2.862463 16.191521
v -23.218033 2.862463 16.506718
v -23.310644 2.862463 16.506718
v -23.667893 2.862463 16.506718
v -23.667893 3.094792 16.640953
v -23.310644 3.094792 16.640953
v -23.218033 3.094792 16.640953
v -20.675507 3.094792 16.325760
v -20.579384 3.094792 16.325760
v -20.290001 3.094792 16.325760
v -20.290001 2.862463 16.325760
v -20.579384 2.862463 16.325760
v -20.675507 2.862463 16.325760
v -23.218033 2.862463 16.640953
v -23.310644 2.862463 16.640953
v -23.667893 2.862463 16.640953
v -23.204147 3.094792 18.621239
v -22.846901 3.094792 18.621239
v -22.754295 3.094792 18.621239
v -19.847908 3.094792 19.062548
v -19.751778 3.094792 19.062548
v -19.462406 3.094792 19.062548
v -19.462406 2.862463 19.062548
v -19.751778 2.862463 19.062548
v -19.847908 2.862463 19.062548
v -22.754295 2.862463 18.621239
v -22.846901 2.862463 18.621239
v -23.204147 2.862463 18.621239
v -22.846901 3.094792 18.506470
v -23.204147 3.094792 18.506470
v -23.204147 2.862463 18.506470
v -22.846901 2.862463 18.506470
v -22.754295 2.862463 18.506470
v -19.847908 2.862463 18.947779
v -19.751778 2.862463 18.947779
v -19.462406 2.862463 18.947779
v -19.462406 3.094792 18.947779
v -19.751778 3.094792 18.947779
v -19.847908 3.094792 18.947779
v -22.754295 3.094792 18.506470
v -20.152378 0.426798 16.325760
v -20.248499 0.426798 16.325760
v -20.248499 0.426798 16.191521
v -20.152378 0.426798 16.191521
v -22.985619 0.426798 16.325760
v -23.078224 0.426798 16.325760
v -23.078224 0.426798 16.191521
v -22.985619 0.426798 16.191521
v -20.152378 0.426798 18.621239
v -20.248499 0.426798 18.621239
v -20.248499 0.426798 18.506470
v -20.152378 0.426798 18.506470
v -22.985619 0.426798 18.621239
v -23.078224 0.426798 18.621239
v -23.078224 0.426798 18.506470
v -22.985619 0.426798 18.506470
vt 0.333333 0.049961
vt 0.666667 0.049961
vt 0.512199 0.930579
vt 0.512199 0.912980
vt 0.462142 0.506821
vt 0.523444 0.912980
vt 0.080441 0.923024
vt 0.069521 0.923024
vt 0.069521 0.941148
vt 0.080441 0.941148
vt 1.000000 0.049961
vt 1.000000 0.073728
vt 0.000000 0.049961
vt 0.000000 0.073728
vt 0.366667 0.049961
vt 0.027398 0.941148
vt 0.027398 0.923024
vt 0.523444 0.930579
vt 0.468822 0.912980
vt 0.396667 0.049961
vt 0.391563 0.963452
vt 0.468822 0.930579
vt 0.832157 0.969838
vt 0.380229 0.963452
vt 0.639667 0.049961
vt 0.380229 0.981575
vt 0.832157 0.952238
vt 0.843829 0.952238
vt 0.391563 0.981575
vt 0.627517 0.049961
vt 0.425683 0.963452
vt 0.425683 0.981575
vt 0.843829 0.969838
vt 0.878965 0.952238
vt 0.016667 0.073728
vt 0.878965 0.969838
vt 0.468822 0.896260
vt 0.512199 0.896260
vt 0.523444 0.896260
vt 0.832157 0.935518
vt 0.843829 0.935518
vt 0.983333 0.073728
vt 0.425683 0.946234
vt 0.983333 0.049961
vt 0.060815 0.584043
vt 0.042126 0.584057
vt 0.042144 0.091774
vt 0.060834 0.091760
vt 0.016667 0.049961
vt 0.391563 0.946234
vt 0.032500 0.073728
vt 0.878965 0.935518
vt 0.525130 0.649611
vt 0.568507 0.649611
vt 0.568507 0.663907
vt 0.525130 0.663907
vt 0.579751 0.663907
vt 0.967500 0.073728
vt 0.380229 0.946234
vt 0.967500 0.049961
vt 0.112501 0.584057
vt 0.112519 0.091774
vt 0.093812 0.584043
vt 0.093830 0.091760
vt 0.032500 0.049961
vt 0.080441 0.905807
vt 0.303250 0.073728
vt 0.579751 0.649611
vt 0.932645 0.608940
vt 0.932645 0.594645
vt 0.944316 0.608940
vt 0.944316 0.594645
vt 0.979453 0.608940
vt 0.696750 0.073728
vt 0.069521 0.905807
vt 0.696750 0.049961
vt 0.178567 0.498206
vt 0.156754 0.498213
vt 0.155186 0.091786
vt 0.176996 0.091780
vt 0.303250 0.049961
vt 0.027398 0.905807
vt 0.979453 0.594645
vt 0.289712 0.073728
vt 0.525130 0.630576
vt 0.289712 0.049961
vt 0.523265 0.595212
vt 0.240343 0.498192
vt 0.238771 0.091766
vt 0.218530 0.498186
vt 0.216961 0.091760
vt 0.489145 0.595212
vt 0.710288 0.049961
vt 0.568507 0.630576
vt 0.710288 0.073728
vt 0.579751 0.630576
vt 0.932645 0.575611
vt 0.944316 0.575611
vt 0.289764 0.091760
vt 0.309455 0.091760
vt 0.309455 0.559076
vt 0.289764 0.559076
vt 0.240355 0.091760
vt 0.240355 0.559076
vt 0.260046 0.091760
vt 0.260046 0.559076
vt 0.391796 0.539703
vt 0.372007 0.539696
vt 0.372798 0.091760
vt 0.392586 0.091767
vt 0.442586 0.539697
vt 0.443376 0.091761
vt 0.422798 0.539703
vt 0.423588 0.091767
vt 0.489145 0.609933
vt 0.523265 0.609933
vt 0.477810 0.595212
vt 0.135120 0.651814
vt 0.135120 0.666535
vt 0.477810 0.609933
vt 0.082078 0.666535
vt 0.124201 0.666535
vt 0.124201 0.651814
vt 0.082078 0.651814
vt 0.489145 0.575611
vt 0.523265 0.575611
vt 0.477810 0.575611
vt 0.135120 0.632213
vt 0.124201 0.632213
vt 0.082078 0.632213
vt 0.967810 0.506852
vt 0.979453 0.575611
vt 0.627517 0.073728
vt 0.639667 0.073728
vt 0.910625 0.506848
vt 0.924884 0.506849
vt 0.910147 0.542888
vt 0.924405 0.542889
vt 0.967331 0.542892
vt 0.666667 0.073728
vt 0.528394 0.542865
vt 0.528873 0.506825
vt 0.396667 0.073728
vt 0.366667 0.073728
vt 0.515135 0.506824
vt 0.514657 0.542864
vt 0.461664 0.542861
vt 0.333333 0.073728
vt 0.509124 0.490208
vt 0.496091 0.490208
vt 0.496091 0.468291
vt 0.509124 0.468291
vt 0.492749 0.495451
vt 0.475909 0.495451
vt 0.475909 0.466055
vt 0.492749 0.466055
vt 0.523366 0.487029
vt 0.510333 0.487029
vt 0.510333 0.468291
vt 0.523366 0.468291
vt 0.472483 0.492659
vt 0.455643 0.492659
vt 0.455643 0.467527
vt 0.472483 0.467527
vt 0.341005 0.539696
vt 0.341796 0.091760
vt 0.339172 0.091760
vt 0.339172 0.559076
vt 0.116791 0.498193
vt 0.115221 0.091767
vt 0.009130 0.584057
vt 0.009148 0.091774
vn 0.000000 0.000000 1.000000
vn 0.000000 0.000000 1.000000
vn -0.145584 0.000000 0.989346
vn -0.145584 0.000000 0.989346
vn 0.000000 1.000000 0.000000
vn 0.000000 1.000000 0.000000
vn 0.000000 1.000000 0.000000
vn 0.000000 1.000000 0.000000
vn 0.000000 0.000000 -1.000000
vn 0.000000 0.000000 -1.000000
vn -0.118766 0.000000 -0.992922
vn -0.118766 0.000000 -0.992922
vn 0.000000 -1.000000 0.000000
vn 0.000000 -1.000000 0.000000
vn 0.000000 -1.000000 0.000000
vn 0.000000 -1.000000 0.000000
vn 1.000000 0.000000 0.000000
vn 1.000000 0.000000 0.000000
vn 1.000000 0.000000 0.000000
vn 1.000000 0.000000 0.000000
vn -1.000000 0.000000 0.000000
vn -1.000000 0.000000 0.000000
vn -1.000000 0.000000 0.000000
vn -1.000000 0.000000 0.000000
vn 0.000000 -1.000000 0.000000
vn 0.000000 -1.000000 0.000000
vn 0.000000 0.000000 -1.000000
vn 0.000000 0.000000 -1.000000
vn 0.000000 1.000000 0.000000
vn 0.000000 1.000000 0.000000
vn 0.000000 0.000000 1.000000
vn 0.000000 0.000000 1.000000
vn -0.145417 0.000000 0.989370
vn -0.145417 0.000000 0.989370
vn 0.000000 0.000000 1.000000
vn 0.000000 0.000000 1.000000
vn 0.000000 1.000000 0.000000
vn 0.000000 1.000000 0.000000
vn 0.000000 1.000000 0.000000
vn 0.000000 1.000000 0.000000
vn -0.118611 0.000000 -0.992941
vn -0.118611 0.000000 -0.992941
vn 0.000000 0.000000 -1.000000
vn 0.000000 0.000000 -1.000000
vn 0.000000 -1.000000 0.000000
vn 0.000000 -1.000000 0.000000
vn 0.000000 -1.000000 0.000000
vn 0.000000 -1.000000 0.000000
vn 0.000000 0.000000 1.000000
vn 0.000000 0.000000 1.000000
vn 0.000000 1.000000 0.000000
vn 0.000000 1.000000 0.000000
vn 0.000000 0.000000 -1.000000
vn 0.000000 0.000000 -1.000000
vn 0.000000 -1.000000 0.000000
vn 0.000000 -1.000000 0.000000
vn 0.000000 1.000000 0.000000
vn 0.000000 1.000000 0.000000
vn 0.000000 1.000000 0.000000
vn 0.000000 1.000000 0.000000
vn 0.000000 1.000000 -0.000000
vn 0.000000 1.000000 -0.000000
vn 0.957758 0.000000 -0.287577
vn 0.957758 0.000000 -0.287577
vn 0.000000 -1.000000 0.000000
vn 0.000000 -1.000000 0.000000
vn 0.000000 -1.000000 0.000000
vn 0.000000 -1.000000 0.000000
vn 0.000000 -1.000000 0.000000
vn 0.000000 -1.000000 0.000000
vn 0.000000 -1.000000 0.000000
vn 0.000000 -1.000000 0.000000
vn 0.000000 -1.000000 0.000000
vn 0.000000 -1.000000 0.000000
vn 0.000000 -1.000000 0.000000
vn 0.000000 -1.000000 0.000000
vn 0.000000 -1.000000 0.000000
vn 0.000000 -1.000000 0.000000
vn -0.974149 0.000000 0.225906
vn -0.974149 0.000000 0.225906
vn 0.000000 1.000000 0.000000
vn 0.000000 1.000000 0.000000
vn 0.000000 1.000000 0.000000
vn 0.000000 1.000000 0.000000
vn 0.000000 1.000000 0.000000
vn 0.000000 1.000000 0.000000
vn 0.000000 1.000000 0.000000
vn 0.000000 1.000000 0.000000
vn 0.000000 1.000000 -0.000000
vn 0.000000 1.000000 0.000000
vn 0.000000 1.000000 -0.000000
vn 0.000000 1.000000 0.000000
vn 1.000000 0.000000 0.000000
vn 1.000000 0.000000 0.000000
vn 0.957193 0.000000 -0.289451
vn 0.957193 0.000000 -0.289451
vn 0.000000 -1.000000 0.000000
vn 0.000000 -1.000000 0.000000
vn 0.000000 -1.000000 0.000000
vn 0.000000 -1.000000 0.000000
vn 0.000000 -1.000000 0.000000
vn 0.000000 -1.000000 0.000000
vn 0.000000 -1.000000 0.000000
vn 0.000000 -1.000000 0.000000
vn 0.000000 -1.000000 0.000000
vn 0.000000 -1.000000 0.000000
vn 0.000000 -1.000000 0.000000
vn 0.000000 -1.000000 0.000000
vn 0.000000 -1.000000 0.000000
vn 0.000000 -1.000000 0.000000
vn 0.000000 -1.000000 0.000000
vn 0.000000 -1.000000 0.000000
vn 0.000000 -1.000000 0.000000
vn 0.000000 -1.000000 0.000000
vn 0.000000 -1.000000 0.000000
vn 0.000000 -1.000000 0.000000
vn -0.973658 0.000000 0.228012
vn -0.973658 0.000000 0.228012
vn -1.000000 0.000000 0.000000
vn -1.000000 0.000000 0.000000
vn 0.000000 1.000000 0.000000
vn 0.000000 1.000000 0.000000
vn 0.000000 1.000000 0.000000
vn 0.000000 1.000000 0.000000
vn 0.000000 1.000000 0.000000
vn 0.000000 1.000000 0.000000
vn 1.000000 0.000000 0.000000
vn 1.000000 0.000000 0.000000
vn 0.000000 -1.000000 0.000000
vn 0.000000 -1.000000 0.000000
vn 0.000000 -1.000000 0.000000
vn 0.000000 -1.000000 0.000000
vn 0.000000 -1.000000 0.000000
vn 0.000000 -1.000000 0.000000
vn -1.000000 0.000000 0.000000
vn -1.000000 0.000000 0.000000
vn 0.000000 0.000000 1.000000
vn 0.000000 0.000000 1.000000
vn 0.000000 0.000000 1.000000
vn 0.000000 0.000000 1.000000
vn -0.984978 -0.172681 0.000000
vn -0.984978 -0.172681 0.000000
vn -0.984978 -0.172681 0.000000
vn -0.984978 -0.172681 0.000000
vn 0.000000 0.000000 -1.000000
vn 0.000000 0.000000 -1.000000
vn 0.000000 0.000000 -1.000000
vn 0.000000 0.000000 -1.000000
vn 0.984978 0.172680 0.000000
vn 0.984978 0.172680 0.000000
vn 0.984978 0.172680 0.000000
vn 0.984978 0.172680 0.000000
vn 0.000000 -0.128337 0.991731
vn 0.000000 -0.128337 0.991731
vn 0.000000 -0.128337 0.991731
vn 0.000000 -0.128337 0.991731
vn -0.995478 -0.094995 0.000000
vn -0.995478 -0.094995 0.000000
vn -0.995478 -0.094995 0.000000
vn -0.995478 -0.094995 0.000000
vn 0.000000 0.128342 -0.991730
vn 0.000000 0.128342 -0.991730
vn 0.000000 0.128342 -0.991730
vn 0.000000 0.128342 -0.991730
vn 0.995478 0.094991 0.000000
vn 0.995478 0.094991 0.000000
vn 0.995478 0.094991 0.000000
vn 0.995478 0.094991 0.000000
vn 0.000000 -0.178285 0.983979
vn 0.000000 -0.178285 0.983979
vn 0.000000 -0.178285 0.983979
vn 0.000000 -0.178285 0.983979
vn -0.986744 0.162288 0.000000
vn -0.986743 0.162288 0.000000
vn -0.986744 0.162288 0.000000
vn -0.986743 0.162288 0.000000
vn 0.000000 0.178285 -0.983979
vn 0.000000 0.178285 -0.983979
vn 0.000000 0.178285 -0.983979
vn 0.000000 0.178285 -0.983979
vn 0.986743 -0.162291 0.000000
vn 0.986743 -0.162291 0.000000
vn 0.986743 -0.162291 0.000000
vn 0.986743 -0.162291 0.000000
vn 0.000000 0.000000 1.000000
vn 0.000000 0.000000 1.000000
vn 0.000000 0.000000 1.000000
vn 0.000000 0.000000 1.000000
vn -0.995520 0.094548 0.000000
vn -0.995520 0.094548 0.000000
vn -0.995520 0.094548 0.000000
vn -0.995520 0.094548 0.000000
vn 0.000000 0.000000 -1.000000
vn 0.000000 0.000000 -1.000000
vn 0.000000 0.000000 -1.000000
vn 0.000000 0.000000 -1.000000
vn 0.995520 -0.094548 0.000000
vn 0.995520 -0.094548 0.000000
vn 0.995520 -0.094548 0.000000
vn 0.995520 -0.094548 0.000000
s 1
g Table TablenChairSet1
usemtl initialShadingGroup
f 12/144/1 9/15/2 13/20/3 14/143/4
s 2
f 11/3/5 26/4/6 27/6/7 15/18/8
s 3
f 10/146/9 11/145/10 15/142/11 16/141/12
s 4
f 34/7/13 35/8/14 10/9/15 16/10/16
s 5
f 30/42/17 31/44/18 8/11/19 6/12/20
s 6
f 7/13/21 36/49/22 25/35/23 5/14/24
s 4
f 7/16/25 10/9/15 35/8/14 36/17/26
s 3
f 5/5/27 11/145/10 10/146/9 7/147/28
s 2
f 25/19/29 26/4/6 11/3/5 5/22/30
s 1
f 1/1/31 9/15/2 12/144/1 3/148/32
f 24/133/33 21/30/34 17/25/35 18/134/36
s 2
f 23/23/37 28/27/38 29/28/39 19/33/40
s 3
f 22/137/41 23/135/42 19/136/43 20/138/44
s 4
f 32/21/45 33/24/46 22/26/47 20/29/48
s 1
f 18/134/36 17/25/35 2/2/49 4/140/50
s 2
f 19/33/40 29/28/39 30/34/51 6/36/52
s 3
f 20/138/44 19/136/43 6/131/53 8/139/54
s 4
f 31/31/55 32/21/45 20/29/48 8/32/56
f 33/24/46 34/7/13 16/10/16 22/26/47
s 3
f 16/141/12 15/142/11 23/135/42 22/137/41
s 2
f 15/18/8 27/6/7 28/27/38 23/23/37
s 1
f 14/143/4 13/20/3 21/30/34 24/133/33
s 2
f 37/37/57 38/38/58 26/4/6 25/19/29
f 27/6/7 26/4/6 38/38/58 39/39/59
f 28/27/38 27/6/7 39/39/59 40/40/60
f 29/28/39 28/27/38 40/40/60 41/41/61
f 30/34/51 29/28/39 41/41/61 42/52/62
s 5
f 42/58/63 43/60/64 31/44/18 30/42/17
s 4
f 43/43/65 44/50/66 32/21/45 31/31/55
s off
f 73/149/67 74/150/68 75/151/69 76/152/70
s 4
f 45/59/71 46/66/72 34/7/13 33/24/46
s off
f 77/153/73 78/154/74 79/155/75 80/156/76
s 4
f 36/17/26 35/8/14 47/75/77 48/82/78
s 6
f 25/35/23 36/49/22 48/65/79 37/51/80
s 2
f 49/53/81 50/54/82 61/55/83 62/56/84
f 72/57/85 61/55/83 50/54/82 51/68/86
f 71/69/87 72/57/85 51/68/86 52/70/88
f 70/71/89 71/69/87 52/70/88 53/72/90
f 69/73/91 70/71/89 53/72/90 54/83/92
s 5
f 54/74/93 55/76/94 68/93/95 69/95/96
s 4
f 55/87/97 56/92/98 67/115/99 68/116/100
s off
f 81/157/101 82/158/102 83/159/103 84/160/104
s 4
f 57/117/105 58/118/106 65/119/107 66/120/108
s off
f 85/161/109 86/162/110 87/163/111 88/164/112
s 4
f 63/121/113 64/122/114 59/123/115 60/124/116
s 6
f 62/84/117 63/86/118 60/81/119 49/67/120
s 2
f 3/85/121 12/94/122 50/54/82 49/53/81
f 51/68/86 50/54/82 12/94/122 14/96/123
f 52/70/88 51/68/86 14/96/123 24/97/124
f 53/72/90 52/70/88 24/97/124 18/98/125
f 54/83/92 53/72/90 18/98/125 4/132/126
s 5
f 2/2/127 55/76/94 54/74/93 4/140/128
s 4
f 17/125/129 56/92/98 55/87/97 2/126/130
f 21/127/131 57/117/105 56/92/98 17/125/129
f 13/128/132 58/118/106 57/117/105 21/127/131
f 9/129/133 59/123/115 58/118/106 13/128/132
f 60/124/116 59/123/115 9/129/133 1/130/134
s 6
f 49/67/120 60/81/119 1/1/135 3/148/136
s 2
f 62/56/84 61/55/83 38/38/58 37/37/57
s 6
f 37/51/80 48/65/79 63/86/118 62/84/117
s 4
f 48/82/78 47/75/77 64/122/114 63/121/113
f 65/119/107 64/122/114 47/75/77 46/66/72
f 66/120/108 65/119/107 46/66/72 45/59/71
f 67/115/99 66/120/108 45/59/71 44/50/66
f 68/116/100 67/115/99 44/50/66 43/43/65
s 5
f 69/95/96 68/93/95 43/60/64 42/58/63
s 2
f 42/52/62 41/41/61 70/71/89 69/73/91
f 41/41/61 40/40/60 71/69/87 70/71/89
f 40/40/60 39/39/59 72/57/85 71/69/87
f 39/39/59 38/38/58 61/55/83 72/57/85
s off
f 44/45/137 45/46/138 74/47/139 73/48/140
f 45/46/141 33/171/142 75/172/143 74/47/144
f 33/61/145 32/63/146 76/64/147 75/62/148
f 32/63/149 44/45/150 73/48/151 76/64/152
f 46/77/153 47/78/154 78/79/155 77/80/156
f 47/78/157 35/169/158 79/170/159 78/79/160
f 35/88/161 34/90/162 80/91/163 79/89/164
f 34/90/165 46/77/166 77/80/167 80/91/168
f 56/99/169 57/100/170 82/101/171 81/102/172
f 57/100/173 66/167/174 83/168/175 82/101/176
f 66/103/177 67/105/178 84/106/179 83/104/180
f 67/105/181 56/99/182 81/102/183 84/106/184
f 58/107/185 59/108/186 86/109/187 85/110/188
f 59/108/189 64/165/190 87/166/191 86/109/192
f 64/111/193 65/113/194 88/114/195 87/112/196
f 65/113/197 58/107/198 85/110/199 88/114/200
