# This file uses centimeters as units for non-parametric coordinates.

mtllib DoubleSidedFenceTog.mtl
g default
v 1.304670 -0.066597 -12.372443
v 1.180779 -0.066597 -12.368321
v 1.274234 1.160937 -12.493443
v 1.150283 1.147199 -12.486640
v 1.262259 1.125646 -11.897321
v 1.148606 1.114024 -11.895449
v 1.303039 -0.066597 -11.988733
v 1.191984 -0.066597 -11.989491
v 1.257530 1.827877 -12.223832
v 1.133605 1.814139 -12.217032
v 1.289799 -0.066597 -11.183196
v 1.162462 -0.066597 -11.179574
v 1.269507 1.291199 -11.333816
v 1.122414 1.283943 -11.319363
v 1.259582 1.128482 -10.552321
v 1.135483 1.118552 -10.539403
v 1.283291 -0.066596 -10.487689
v 1.159079 -0.066596 -10.480721
v 1.202077 2.085573 -11.113374
v 1.148081 2.078520 -11.098328
v 1.300837 -0.066597 -11.980749
v 1.176895 -0.066597 -11.971948
v 1.267909 1.113933 -11.890273
v 1.143961 1.100772 -11.882843
v 1.289518 1.277739 -11.348092
v 1.119754 1.263200 -11.338550
v 1.317634 -0.066597 -11.195183
v 1.147839 -0.066597 -11.184329
v 1.248338 1.896677 -11.624565
v 1.124384 1.883516 -11.617083
v 1.247338 -0.066596 -9.109627
v 1.171495 -0.066596 -9.102038
v 1.210244 1.198894 -9.117994
v 1.086738 1.182485 -9.109786
v 1.209792 1.184745 -8.519435
v 1.098176 1.169003 -8.511812
v 1.276513 -0.066596 -8.392484
v 1.152986 -0.066596 -8.382318
v 1.179650 1.874048 -8.871045
v 1.056155 1.857640 -8.862744
v 1.267159 -0.066596 -9.480875
v 1.143279 -0.066596 -9.476154
v 1.268223 1.210616 -9.660234
v 1.095874 1.195992 -9.650796
v 1.255845 1.211368 -9.129092
v 1.083524 1.196744 -9.119630
v 1.270056 -0.066596 -9.115760
v 1.146181 -0.066596 -9.111042
v 1.178450 1.890606 -9.456808
v 1.140504 1.880035 -9.453146
v 1.286769 -0.066596 -10.176905
v 1.162583 -0.066596 -10.169948
v 1.255496 1.142233 -10.544165
v 1.120740 1.133192 -10.525522
v 1.244640 1.217655 -9.675898
v 1.120605 1.207543 -9.665888
v 1.275379 -0.066596 -9.491242
v 1.151171 -0.066596 -9.484293
v 1.195260 1.935775 -10.363719
v 1.143897 1.928509 -10.352702
vt 0.010202 0.956560
vt 0.010129 0.932303
vt 0.262253 0.931550
vt 0.262325 0.955806
vt 0.410549 0.955364
vt 0.410477 0.931107
vt 0.568937 0.930633
vt 0.569010 0.954890
vt 0.813725 0.929902
vt 0.813797 0.954159
vt 0.007648 0.232202
vt 0.115489 0.226245
vt 0.056828 0.351967
vt 0.220575 0.256758
vt 0.362849 0.227058
vt 0.012017 0.922739
vt 0.011965 0.905372
vt 0.269198 0.904604
vt 0.269250 0.921970
vt 0.425852 0.921503
vt 0.425800 0.904136
vt 0.635828 0.903509
vt 0.635880 0.920875
vt 0.862285 0.902832
vt 0.862337 0.920199
vt 0.260894 0.399443
vt 0.117789 0.223865
vt 0.217075 0.253033
vt 0.166266 0.364425
vt 0.623630 0.238539
vt 0.011293 0.895015
vt 0.011214 0.868659
vt 0.260332 0.867915
vt 0.260410 0.894270
vt 0.435543 0.893747
vt 0.435464 0.867392
vt 0.579485 0.866961
vt 0.579564 0.893317
vt 0.865008 0.866109
vt 0.865086 0.892464
vt 0.732708 0.236118
vt 0.668693 0.359779
vt 0.524942 0.240964
vt 0.621834 0.241099
vt 0.560996 0.363800
vt 0.010743 0.991971
vt 0.010668 0.966697
vt 0.266783 0.965932
vt 0.266859 0.991206
vt 0.413507 0.990768
vt 0.413431 0.965494
vt 0.570546 0.965024
vt 0.570621 0.990298
vt 0.824821 0.964265
vt 0.824896 0.989539
vt 0.365381 0.229687
vt 0.522189 0.243038
vt 0.396906 0.372505
vt 0.625043 0.014236
vt 0.756329 0.014236
vt 0.009898 0.821082
vt 0.009850 0.804943
vt 0.266909 0.804175
vt 0.266957 0.820314
vt 0.410571 0.819886
vt 0.410523 0.803746
vt 0.558205 0.803305
vt 0.558253 0.819444
vt 0.808492 0.802557
vt 0.808540 0.818697
vt 0.556800 0.014237
vt 0.623401 0.014237
vt 0.430243 0.014236
vt 0.555315 0.014237
vt 0.246074 0.014236
vt 0.013044 0.856834
vt 0.012984 0.836810
vt 0.295659 0.835966
vt 0.295719 0.855990
vt 0.480264 0.855439
vt 0.480204 0.835414
vt 0.703198 0.834748
vt 0.703258 0.854773
vt 0.994512 0.833878
vt 0.994572 0.853902
vt 0.373553 0.014236
vt 0.101534 0.014236
vt 0.245206 0.014236
vt 0.029231 0.014236
vt 0.098335 0.014236
vt 0.642012 0.405191
vt 0.640435 0.625039
vt 0.753205 0.622581
vt 0.777123 0.405191
vt 0.686962 0.742330
vt 0.638344 0.627205
vt 0.640856 0.405191
vt 0.572068 0.405191
vt 0.538276 0.627075
vt 0.535325 0.628298
vt 0.570115 0.405191
vt 0.440935 0.405191
vt 0.371743 0.615195
vt 0.576602 0.745206
vt 0.405738 0.753053
vt 0.264502 0.779077
vt 0.370206 0.612806
vt 0.222971 0.641075
vt 0.382383 0.405191
vt 0.251347 0.405191
vt 0.168194 0.746261
vt 0.220282 0.638736
vt 0.118133 0.610279
vt 0.249090 0.405191
vt 0.101087 0.405191
vt 0.055290 0.734309
vt 0.116805 0.612313
vt 0.004494 0.618445
vt 0.099583 0.405191
vt 0.027292 0.405191
vn -0.032741 -0.097683 -0.994679
vn -0.032741 -0.097683 -0.994679
vn -0.032741 -0.097683 -0.994679
vn -0.032741 -0.097683 -0.994679
vn -0.129341 0.937571 -0.322849
vn -0.128536 0.956062 -0.263485
vn -0.004731 0.423517 0.905876
vn -0.004731 0.423517 0.905876
vn 0.057190 -0.068063 0.996041
vn 0.057190 -0.068063 0.996041
vn 0.057190 -0.068063 0.996041
vn 0.057190 -0.068063 0.996041
vn -0.999684 -0.025050 0.002206
vn -0.992832 -0.028117 0.116164
vn -0.997747 -0.026688 0.061556
vn -0.091859 0.371219 -0.923990
vn -0.091859 0.371219 -0.923990
vn -0.128536 0.956062 -0.263485
vn -0.129341 0.937571 -0.322849
vn -0.123211 -0.104972 -0.986813
vn -0.123211 -0.104972 -0.986813
vn -0.123211 -0.104972 -0.986813
vn -0.123211 -0.104972 -0.986813
vn -0.107694 0.944464 0.310468
vn -0.055292 0.867266 0.494765
vn 0.086758 0.504038 0.859313
vn 0.086758 0.504038 0.859313
vn 0.076755 0.053829 0.995596
vn 0.076755 0.053829 0.995596
vn 0.076755 0.053829 0.995596
vn 0.076755 0.053829 0.995596
vn -0.999710 -0.015442 -0.018488
vn -0.999190 -0.015864 -0.036982
vn -0.999482 -0.015662 -0.028108
vn -0.241094 0.253967 -0.936683
vn -0.241094 0.253967 -0.936683
vn -0.055292 0.867266 0.494765
vn -0.107694 0.944464 0.310468
vn -0.073086 0.070999 -0.994795
vn -0.073086 0.070999 -0.994795
vn -0.073086 0.070999 -0.994795
vn -0.073086 0.070999 -0.994795
vn -0.106917 0.990720 -0.083917
vn -0.103793 0.994224 -0.027318
vn 0.014152 0.409013 0.912419
vn 0.014152 0.409013 0.912419
vn 0.049769 0.113027 0.992345
vn 0.049769 0.113027 0.992345
vn 0.049769 0.113027 0.992345
vn 0.049769 0.113027 0.992345
vn -0.999656 -0.026230 0.000434
vn -0.997432 -0.026363 -0.066589
vn -0.998768 -0.026328 -0.042064
vn -0.090759 0.318138 -0.943690
vn -0.090759 0.318138 -0.943690
vn -0.103793 0.994224 -0.027318
vn -0.106917 0.990720 -0.083917
vn -0.080176 0.005738 -0.996764
vn -0.080176 0.005738 -0.996764
vn -0.080176 0.005738 -0.996764
vn -0.080176 0.005738 -0.996764
vn -0.137370 0.988008 -0.070503
vn -0.133627 0.991000 -0.007982
vn -0.001922 0.454114 0.890942
vn -0.001922 0.454114 0.890942
vn 0.060335 0.106839 0.992444
vn 0.060335 0.106839 0.992444
vn 0.060335 0.106839 0.992444
vn 0.060335 0.106839 0.992444
vn -0.998098 -0.057827 -0.021369
vn -0.998784 -0.046201 0.017193
vn -0.998650 -0.051923 -0.001752
vn -0.107307 0.337289 -0.935265
vn -0.107307 0.337289 -0.935265
vn -0.133627 0.991000 -0.007982
vn -0.137370 0.988008 -0.070503
vn -0.033877 -0.144178 -0.988972
vn -0.033877 -0.144178 -0.988972
vn -0.033877 -0.144178 -0.988972
vn -0.033877 -0.144178 -0.988972
vn -0.123129 0.989727 -0.072655
vn -0.116386 0.992402 0.039909
vn 0.004141 0.436616 0.899638
vn 0.004141 0.436616 0.899638
vn 0.047056 0.010299 0.998839
vn 0.047056 0.010299 0.998839
vn 0.047056 0.010299 0.998839
vn 0.047056 0.010299 0.998839
vn -0.992775 -0.002884 0.119956
vn -0.988196 -0.029642 -0.150297
vn -0.999783 -0.016196 -0.013102
vn -0.093296 0.278047 -0.956026
vn -0.093296 0.278047 -0.956026
vn -0.116386 0.992402 0.039909
vn -0.123129 0.989727 -0.072655
vn -0.061920 -0.298236 -0.952482
vn -0.061920 -0.298236 -0.952482
vn -0.061920 -0.298236 -0.952482
vn -0.061920 -0.298236 -0.952482
vn -0.132649 0.880817 -0.454496
vn -0.119242 0.953429 -0.277045
vn 0.018212 0.690786 0.722830
vn 0.018212 0.690786 0.722830
vn 0.058569 0.168983 0.983877
vn 0.058569 0.168983 0.983877
vn 0.058569 0.168983 0.983877
vn 0.058569 0.168983 0.983877
vn -0.998617 -0.004597 0.052376
vn -0.998724 -0.023605 -0.044643
vn -0.999750 -0.011072 0.019412
vn -0.129800 0.220288 -0.966760
vn -0.129800 0.220288 -0.966760
vn -0.119242 0.953429 -0.277045
vn -0.132649 0.880817 -0.454496
vn 0.998969 0.040057 -0.021377
vn 0.999013 0.040813 -0.017531
vn 0.999006 0.040673 -0.018243
vn 0.998969 0.040057 -0.021377
vn 0.999003 0.044607 0.001811
vn 0.999530 0.027827 0.012877
vn 0.999927 0.005942 0.010577
vn 0.999926 0.005942 0.010577
vn 0.999397 0.032080 0.013323
vn 0.999310 0.035188 0.011854
vn 0.999531 0.027732 0.012964
vn 0.999531 0.027732 0.012964
vn 0.999174 0.039031 0.011282
vn 0.992004 0.124103 0.022936
vn 0.997216 0.074330 0.006012
vn 0.996647 0.076658 0.028618
vn 0.999533 0.026450 0.015296
vn 0.999206 0.035680 0.017747
vn 0.999745 0.018339 0.013142
vn 0.999745 0.018339 0.013142
vn 0.997691 0.042837 -0.052701
vn 0.998993 0.027079 -0.035770
vn 0.999105 0.025324 -0.033884
vn 0.999221 0.023372 -0.031787
vn 0.999221 0.023372 -0.031787
vn 0.999642 0.016523 0.021058
vn 0.999503 0.027083 0.016120
vn 0.999513 0.026561 0.016364
vn 0.999450 0.029597 0.014943
vn 0.999450 0.029597 0.014943
vn -0.998098 -0.057827 -0.021370
vn -0.998784 -0.046201 0.017193
vn -0.992775 -0.002884 0.119956
vn -0.988196 -0.029642 -0.150297
vn -0.998617 -0.004597 0.052376
vn -0.998724 -0.023605 -0.044643
vn -0.999710 -0.015442 -0.018488
vn -0.999190 -0.015864 -0.036982
vn -0.999656 -0.026230 0.000434
vn -0.997432 -0.026363 -0.066589
vn -0.999684 -0.025050 0.002206
vn -0.992832 -0.028117 0.116164
s off
g DoubleSidedFenceSet
usemtl initialShadingGroup
f 1/1/1 2/2/2 4/3/3 3/4/4
f 9/5/5 10/6/6 6/7/7 5/8/8
f 5/8/9 6/7/10 8/9/11 7/10/12
s 1
f 4/11/13 6/12/14 10/13/15
s off
f 3/4/16 4/3/17 10/6/18 9/5/19
f 11/16/20 12/17/21 14/18/22 13/19/23
f 19/20/24 20/21/25 16/22/26 15/23/27
f 15/23/28 16/22/29 18/24/30 17/25/31
s 2
f 14/14/32 16/15/33 20/26/34
s off
f 13/19/35 14/18/36 20/21/37 19/20/38
f 21/31/39 22/32/40 24/33/41 23/34/42
f 29/35/43 30/36/44 26/37/45 25/38/46
f 25/38/47 26/37/48 28/39/49 27/40/50
s 3
f 24/27/51 26/28/52 30/29/53
s off
f 23/34/54 24/33/55 30/36/56 29/35/57
f 31/46/58 32/47/59 34/48/60 33/49/61
f 39/50/62 40/51/63 36/52/64 35/53/65
f 35/53/66 36/52/67 38/54/68 37/55/69
s 4
f 34/30/70 36/41/71 40/42/72
s off
f 33/49/73 34/48/74 40/51/75 39/50/76
f 41/61/77 42/62/78 44/63/79 43/64/80
f 49/65/81 50/66/82 46/67/83 45/68/84
f 45/68/85 46/67/86 48/69/87 47/70/88
s 5
f 44/43/89 46/44/90 50/45/91
s off
f 43/64/92 44/63/93 50/66/94 49/65/95
f 51/76/96 52/77/97 54/78/98 53/79/99
f 59/80/100 60/81/101 56/82/102 55/83/103
f 55/83/104 56/82/105 58/84/106 57/85/107
s 6
f 54/56/108 56/57/109 60/58/110
s off
f 53/79/111 54/78/112 60/81/113 59/80/114
s 7
f 31/91/115 33/92/116 35/93/117 37/94/118
f 33/92/116 39/95/119 35/93/117
s 8
f 45/96/120 47/97/121 41/98/122 43/99/123
s 9
f 55/100/124 57/101/125 51/102/126 53/103/127
s 8
f 49/104/128 45/96/120 43/99/123
s 9
f 59/105/129 55/100/124 53/103/127
s 10
f 19/106/130 15/107/131 13/108/132
f 15/107/131 17/109/133 11/110/134 13/108/132
s 11
f 29/111/135 25/112/136 23/113/137
f 25/112/136 27/114/138 21/115/139 23/113/137
s 12
f 9/116/140 5/117/141 3/118/142
f 5/117/141 7/119/143 1/120/144 3/118/142
s 4
f 32/59/145 38/60/146 36/41/71 34/30/70
s 5
f 42/71/147 48/72/148 46/44/90 44/43/89
s 6
f 52/73/149 58/74/150 56/57/109 54/56/108
s 2
f 12/75/151 18/86/152 16/15/33 14/14/32
s 3
f 22/87/153 28/88/154 26/28/52 24/27/51
s 1
f 2/89/155 8/90/156 6/12/14 4/11/13
