# This file uses centimeters as units for non-parametric coordinates.

mtllib Driveway.mtl
g default
v 8.982836 -0.188574 1.897666
v 8.982836 0.045880 -0.035233
v 8.982836 0.045880 1.862666
v 8.982836 -0.001006 1.897666
v 8.982836 0.022437 1.892976
v 8.982836 0.039598 1.880166
v 8.982836 0.045880 1.720203
v 8.982836 0.032147 1.704375
v 8.982836 0.045880 1.688548
v 10.125104 -0.188574 1.897666
v 10.125104 0.045880 -0.035233
v 13.032510 -0.188574 1.897666
v 13.032510 0.045880 -0.035233
v 10.125104 -0.158128 1.512906
v 13.032510 -0.158128 1.512906
v 9.669077 0.042815 1.865138
v 9.671043 0.034675 1.876023
v 9.675372 0.024000 1.883991
v 9.702080 0.009419 1.886907
v 9.727045 0.037879 1.715882
v 9.734384 0.031983 1.708130
v 9.768451 -0.005786 1.760312
v 9.742722 0.037879 1.699323
v 10.125104 0.045880 -11.595852
v 13.032510 0.045880 -11.595852
v 14.174102 -0.188574 1.897666
v 14.174102 0.045880 -0.035233
v 14.174102 0.045880 1.862666
v 14.174102 -0.001006 1.897666
v 14.174102 0.022437 1.892976
v 14.174102 0.039598 1.880166
v 14.174102 0.045880 1.720203
v 14.174102 0.032147 1.704375
v 14.174102 0.045880 1.688548
v 13.031780 -0.188574 1.897666
v 13.487829 0.042815 1.865138
v 13.485863 0.034675 1.876023
v 13.481533 0.024000 1.883991
v 13.454825 0.009419 1.886907
v 13.429858 0.037879 1.715882
v 13.422519 0.031983 1.708130
v 13.388451 -0.005786 1.760312
v 13.414181 0.037879 1.699323
vt 0.689453 0.983494
vt 0.368461 0.984684
vt 0.373094 0.541120
vt 0.573374 0.539524
vt 0.762207 0.037144
vt 0.762207 0.011846
vt 0.974747 0.011846
vt 0.974746 0.037135
vt 0.766960 0.138997
vt 0.974746 0.139004
vt 0.073016 0.463360
vt 0.232063 0.462142
vt 0.245253 0.495827
vt 0.072520 0.495200
vt 0.073313 0.459976
vt 0.232797 0.460387
vt 0.074002 0.458550
vt 0.234148 0.459494
vt 0.074897 0.459460
vt 0.240778 0.460024
vt 0.075670 0.420085
vt 0.337581 0.418569
vt 0.256261 0.489430
vt 0.243846 0.499519
vt 0.247111 0.498034
vt 0.072982 0.499864
vt 0.342200 0.556317
vt 0.067412 0.502290
vt 0.349140 0.889982
vt 0.974747 0.995593
vt 0.762207 0.995593
vt 0.343494 0.978856
vt 0.225985 0.534527
vt 0.025584 0.536092
vt 0.021643 0.978242
vt 0.422831 0.481166
vt 0.422681 0.513037
vt 0.595560 0.514306
vt 0.582098 0.480547
vt 0.582621 0.478795
vt 0.422942 0.477781
vt 0.583710 0.477906
vt 0.423208 0.476357
vt 0.590010 0.478462
vt 0.423556 0.477272
vt 0.423379 0.426780
vt 0.685727 0.426244
vt 0.605475 0.507947
vt 0.597305 0.516521
vt 0.599196 0.518005
vt 0.422866 0.517708
vt 0.605475 0.507947
vt 0.590010 0.478462
vt 0.605475 0.507947
vt 0.690610 0.575673
vt 0.583710 0.477906
vt 0.422647 0.520125
vt 0.704367 0.909028
vt 0.599196 0.518005
vn 0.004191 0.999987 0.002777
vn 0.004191 0.999987 0.002777
vn 0.004155 0.999966 0.007164
vn 0.004172 0.999978 0.005110
vn 0.000000 0.996884 0.078883
vn 0.000000 0.996884 0.078883
vn 0.000000 0.996884 0.078883
vn 0.000000 0.996884 0.078883
vn 0.000000 0.991429 0.130647
vn 0.000000 0.991429 0.130647
vn 0.000000 0.991429 0.130647
vn 0.000000 0.991429 0.130647
vn 0.007604 0.999547 0.029111
vn 0.007615 0.999666 0.024699
vn 0.007308 0.992074 -0.125439
vn 0.007495 0.996920 -0.078063
vn 0.007604 0.999547 0.029111
vn 0.005734 0.891673 0.452643
vn 0.005734 0.891673 0.452643
vn 0.007615 0.999666 0.024699
vn 0.009071 0.599052 0.800659
vn 0.010877 0.396340 0.918039
vn 0.011327 0.327241 0.944873
vn 0.009071 0.599052 0.800659
vn 0.010877 0.396340 0.918039
vn 0.006035 0.045908 0.998928
vn 0.005680 0.036526 0.999317
vn 0.011327 0.327241 0.944873
vn 0.005586 0.034016 0.999406
vn 0.005586 0.034016 0.999406
vn 0.005680 0.036526 0.999317
vn 0.006035 0.045908 0.998928
vn 0.499782 0.857229 0.124005
vn 0.499632 0.857288 0.124201
vn 0.027829 0.818339 0.574062
vn 0.001332 0.999968 0.007951
vn 0.007495 0.996920 -0.078063
vn 0.007308 0.992074 -0.125439
vn -0.000156 0.947549 0.319610
vn 0.684573 0.637616 0.353279
vn 0.684573 0.637616 0.353279
vn 0.684573 0.637616 0.353279
vn 0.563325 0.792690 0.233039
vn 0.563325 0.792690 0.233039
vn 0.563325 0.792690 0.233039
vn 0.563325 0.792690 0.233039
vn 0.429847 0.899027 0.083555
vn 0.429847 0.899027 0.083555
vn 0.429847 0.899027 0.083555
vn 0.429847 0.899027 0.083555
vn 0.429847 0.899027 0.083555
vn 0.603059 0.772855 0.197522
vn 0.603059 0.772855 0.197522
vn 0.603059 0.772855 0.197522
vn 0.603059 0.772855 0.197522
vn 0.004155 0.999966 0.007164
vn 0.001332 0.999968 0.007951
vn -0.000156 0.947549 0.319610
vn 0.004172 0.999978 0.005110
vn 0.499826 0.857211 0.123947
vn 0.499632 0.857288 0.124201
vn 0.499782 0.857229 0.124005
vn 0.499826 0.857211 0.123947
vn 0.000000 1.000000 0.000000
vn 0.000000 1.000000 0.000000
vn 0.000000 1.000000 0.000000
vn 0.000000 1.000000 0.000000
vn -0.004192 0.999987 0.002776
vn -0.004173 0.999978 0.005111
vn -0.004156 0.999966 0.007165
vn -0.004192 0.999987 0.002776
vn -0.007603 0.999547 0.029111
vn -0.007495 0.996920 -0.078063
vn -0.007308 0.992074 -0.125443
vn -0.007615 0.999666 0.024699
vn -0.007603 0.999547 0.029111
vn -0.007615 0.999666 0.024699
vn -0.005733 0.891673 0.452644
vn -0.005733 0.891673 0.452644
vn -0.009071 0.599052 0.800659
vn -0.009071 0.599052 0.800658
vn -0.011327 0.327235 0.944875
vn -0.010876 0.396340 0.918039
vn -0.010876 0.396340 0.918039
vn -0.011327 0.327235 0.944875
vn -0.005680 0.036526 0.999317
vn -0.006035 0.045908 0.998927
vn -0.005585 0.034016 0.999406
vn -0.006035 0.045908 0.998927
vn -0.005680 0.036526 0.999317
vn -0.005585 0.034016 0.999406
vn -0.500473 0.856836 0.123933
vn -0.027835 0.818267 0.574164
vn -0.500323 0.856895 0.124129
vn -0.001332 0.999968 0.007950
vn 0.000157 0.947546 0.319621
vn -0.007308 0.992074 -0.125443
vn -0.007495 0.996920 -0.078063
vn -0.684509 0.637691 0.353266
vn -0.684509 0.637691 0.353266
vn -0.684509 0.637691 0.353266
vn -0.563290 0.792717 0.233032
vn -0.563290 0.792717 0.233032
vn -0.563290 0.792717 0.233032
vn -0.563290 0.792717 0.233032
vn -0.430031 0.898993 0.082980
vn -0.430031 0.898993 0.082980
vn -0.430031 0.898993 0.082980
vn -0.430031 0.898993 0.082980
vn -0.430031 0.898993 0.082980
vn -0.603017 0.772888 0.197521
vn -0.603017 0.772888 0.197521
vn -0.603017 0.772888 0.197521
vn -0.603017 0.772888 0.197521
vn -0.004156 0.999966 0.007165
vn -0.004173 0.999978 0.005111
vn 0.000157 0.947546 0.319621
vn -0.001332 0.999968 0.007950
vn -0.500518 0.856818 0.123875
vn -0.500518 0.856818 0.123875
vn -0.500473 0.856836 0.123933
vn -0.500323 0.856895 0.124129
s off
g HouseDriveWay1
usemtl DriveWay:initialShadingGroup
f 11/1/1 2/2/2 9/3/3 23/4/4
f 14/5/5 10/6/6 12/7/7 15/8/8
f 11/9/9 14/5/10 15/8/11 13/10/12
f 3/11/13 16/12/14 20/13/15 7/14/16
f 3/11/17 6/15/18 17/16/19 16/12/20
f 6/15/21 5/17/22 18/18/23 17/16/24
f 5/17/25 4/19/26 19/20/27 18/18/28
f 1/21/29 10/22/30 19/20/31 4/19/32
f 22/23/33 23/24/34 21/25/35
f 8/26/36 7/14/37 20/13/38 21/25/39
f 16/12/40 17/16/41 22/23/42
f 17/16/43 18/18/44 19/20/45 22/23/46
f 22/23/47 18/18/48 19/20/49 10/22/50 14/27/51
f 20/13/52 16/12/53 22/23/54 21/25/55
f 9/28/56 8/26/57 21/25/58 23/24/59
f 11/29/60 23/24/61 22/23/62 14/27/63
f 11/9/64 13/10/65 25/30/66 24/31/67
f 13/32/68 43/33/69 34/34/70 27/35/71
f 28/36/72 32/37/73 40/38/74 36/39/75
f 28/36/76 36/39/77 37/40/78 31/41/79
f 31/41/80 37/40/81 38/42/82 30/43/83
f 30/43/84 38/42/85 39/44/86 29/45/87
f 26/46/88 29/45/89 39/44/90 35/47/91
f 42/48/92 41/49/93 43/50/94
f 33/51/95 41/49/96 40/38/97 32/37/98
f 36/39/99 42/52/100 37/40/101
f 37/40/102 42/52/103 39/53/104 38/42/105
f 42/54/106 15/55/107 35/47/108 39/44/109 38/56/110
f 40/38/111 41/49/112 42/48/113 36/39/114
f 34/57/115 43/50/116 41/49/117 33/51/118
f 13/58/119 15/55/120 42/54/121 43/59/122
