# This file uses centimeters as units for non-parametric coordinates.

mtllib FrontHouse3Mail.mtl
g default
v -8.106645 0.003652 -0.129850
v -8.067806 0.003652 -0.129850
v -8.106645 0.476281 -0.129850
v -8.067806 0.476281 -0.129850
v -8.106645 0.476281 -0.180442
v -8.067806 0.476281 -0.180442
v -8.106645 0.003652 -0.180442
v -8.067806 0.003652 -0.180442
v -8.198673 0.456258 -0.030850
v -7.965962 0.456258 -0.030850
v -8.198673 0.633036 -0.030850
v -7.965962 0.633036 -0.030850
v -8.198673 0.633036 -0.299610
v -7.965962 0.633036 -0.299610
v -8.198673 0.456258 -0.299610
v -7.965962 0.456258 -0.299610
vt 0.086966 0.250402
vt 0.124848 0.250440
vt 0.124387 0.711424
vt 0.086504 0.711386
vt 0.174194 0.250489
vt 0.173732 0.711473
vt 0.037620 0.250353
vt 0.037159 0.711336
vt 0.470563 0.554277
vt 0.700167 0.553748
vt 0.700568 0.728166
vt 0.470965 0.728695
vt 0.701179 0.993337
vt 0.471576 0.993866
vt 0.469952 0.289106
vt 0.699556 0.288577
vt 0.965337 0.553138
vt 0.965739 0.727555
vt 0.205392 0.554888
vt 0.205794 0.729305
vn 0.000000 0.000000 1.000000
vn 0.000000 0.000000 1.000000
vn 0.000000 0.000000 1.000000
vn 0.000000 0.000000 1.000000
vn 1.000000 0.000000 0.000000
vn 1.000000 0.000000 0.000000
vn 1.000000 0.000000 0.000000
vn 1.000000 0.000000 0.000000
vn -1.000000 0.000000 0.000000
vn -1.000000 0.000000 0.000000
vn -1.000000 0.000000 0.000000
vn -1.000000 0.000000 0.000000
vn 0.000000 0.000000 1.000000
vn 0.000000 0.000000 1.000000
vn 0.000000 0.000000 1.000000
vn 0.000000 0.000000 1.000000
vn 0.000000 1.000000 0.000000
vn 0.000000 1.000000 0.000000
vn 0.000000 1.000000 0.000000
vn 0.000000 1.000000 0.000000
vn 0.000000 -1.000000 0.000000
vn 0.000000 -1.000000 0.000000
vn 0.000000 -1.000000 0.000000
vn 0.000000 -1.000000 0.000000
vn 1.000000 0.000000 0.000000
vn 1.000000 0.000000 0.000000
vn 1.000000 0.000000 0.000000
vn 1.000000 0.000000 0.000000
vn -1.000000 0.000000 0.000000
vn -1.000000 0.000000 0.000000
vn -1.000000 0.000000 0.000000
vn -1.000000 0.000000 0.000000
s off
g Bottom H3Mail
usemtl initialShadingGroup
f 1/1/1 2/2/2 4/3/3 3/4/4
f 2/2/5 8/5/6 6/6/7 4/3/8
f 7/7/9 1/1/10 3/4/11 5/8/12
f 9/9/13 10/10/14 12/11/15 11/12/16
f 11/12/17 12/11/18 14/13/19 13/14/20
f 15/15/21 16/16/22 10/10/23 9/9/24
f 10/10/25 16/17/26 14/18/27 12/11/28
f 15/19/29 9/9/30 11/12/31 13/20/32
g default
v -8.198671 0.635431 -0.030850
v -7.965963 0.635431 -0.030850
v -8.083437 0.695716 -0.030850
v -8.083437 0.695716 -0.299610
v -8.198671 0.635431 -0.299610
v -7.965963 0.635431 -0.299610
v -8.173513 0.649729 -0.028843
v -7.991119 0.649729 -0.028843
v -8.188565 0.643110 -0.287937
v -7.976068 0.643110 -0.287937
v -8.083437 0.680492 -0.028843
v -8.083437 0.687540 -0.287937
v -7.963659 0.681239 -0.299610
v -7.963659 0.681239 -0.030850
v -7.986098 0.674543 -0.028843
v -7.970033 0.680609 -0.287937
v -8.194890 0.672228 -0.299610
v -8.194890 0.672228 -0.030850
v -8.173059 0.667481 -0.028843
v -8.187853 0.672381 -0.287937
vt 0.975177 0.168343
vt 0.978179 0.370695
vt 0.744478 0.374163
vt 0.741476 0.171811
vt 0.980328 0.515490
vt 0.746627 0.518957
vt 0.739529 0.040602
vt 0.973230 0.037135
vt 0.505350 0.267511
vt 0.325414 0.261159
vt 0.345908 0.042145
vt 0.500353 0.047597
vt 0.255640 0.025742
vt 0.213019 0.241177
vt 0.603702 0.035956
vt 0.632938 0.253611
vt 0.978771 0.410578
vt 0.745070 0.414045
vt 0.521790 0.046820
vt 0.537507 0.266269
vt 0.974700 0.136178
vt 0.740999 0.139645
vt 0.330970 0.040339
vt 0.300785 0.258184
vt 0.048193 0.865881
vt 0.424018 0.865881
vt 0.383391 0.891134
vt 0.088824 0.891134
vt 0.427739 0.946789
vt 0.391500 0.934962
vt 0.234295 0.972358
vt 0.234295 0.945470
vt 0.054298 0.930874
vt 0.089556 0.922488
vn 0.000000 -1.000000 0.000000
vn 0.000000 -1.000000 0.000000
vn 0.000000 -1.000000 0.000000
vn 0.000000 -1.000000 0.000000
vn 0.998737 -0.050249 0.000000
vn 0.998737 -0.050249 0.000000
vn 0.456567 0.889689 0.000000
vn 0.456567 0.889689 0.000000
vn -0.463552 0.886070 0.000000
vn -0.463552 0.886070 0.000000
vn -0.206210 0.978508 0.000000
vn -0.206210 0.978508 0.000000
vn 0.000000 0.999674 -0.025537
vn 0.000000 0.999674 -0.025537
vn 0.000000 0.999674 -0.025537
vn 0.000000 0.999674 -0.025537
vn 0.143626 -0.989266 -0.026910
vn 0.354862 -0.934149 -0.037918
vn 0.363812 -0.930682 -0.038363
vn 0.143626 -0.989266 -0.026910
vn -0.347838 -0.936513 -0.044178
vn -0.356994 -0.933037 -0.044687
vn -0.982892 0.174409 -0.059206
vn -0.982892 0.174409 -0.059206
vn 0.119990 0.992775 0.000000
vn 0.119990 0.992775 0.000000
vn -0.060982 -0.997770 -0.027140
vn -0.060982 -0.997770 -0.027140
vn -0.994765 0.102186 0.000000
vn -0.994765 0.102186 0.000000
vn 0.998044 -0.024765 -0.057404
vn 0.998044 -0.024765 -0.057404
vn 0.000000 -0.139022 0.990289
vn 0.000000 -0.139022 0.990289
vn 0.000000 -0.139022 0.990289
vn 0.000000 -0.139022 0.990289
vn 0.082685 -0.008581 0.996539
vn 0.082685 -0.008581 0.996539
vn 0.082685 -0.008581 0.996539
vn 0.082685 -0.008581 0.996539
vn 0.015500 0.164762 0.986212
vn 0.015500 0.164762 0.986212
vn 0.015500 0.164762 0.986212
vn 0.015500 0.164762 0.986212
vn -0.030015 0.165352 0.985778
vn -0.030015 0.165352 0.985778
vn -0.030015 0.165352 0.985778
vn -0.030015 0.165352 0.985778
vn -0.086476 0.006708 0.996231
vn -0.086476 0.006708 0.996231
vn -0.086476 0.006708 0.996231
vn -0.086476 0.006708 0.996231
s off
g H3Mail Top
usemtl initialShadingGroup
f 21/21/33 22/22/34 18/23/35 17/24/36
s 1
f 18/23/37 22/22/38 29/37/39 30/38/40
s 2
f 33/41/41 34/42/42 19/27/43 20/28/44
s off
f 26/29/45 25/30/46 23/31/47 24/32/48
s 3
f 27/33/49 35/43/50 36/44/51 28/34/52
s 4
f 31/39/53 32/40/54 26/29/55 24/32/56
s 1
f 30/38/40 29/37/39 20/25/57 19/26/58
s 4
f 27/35/59 28/36/60 32/40/54 31/39/53
s 2
f 21/21/61 17/24/62 34/42/42 33/41/41
s 3
f 36/44/51 35/43/50 23/31/63 25/30/64
s off
f 17/45/65 18/46/66 24/47/67 23/48/68
f 18/46/69 30/49/70 31/50/71 24/47/72
f 30/49/73 19/51/74 27/52/75 31/50/76
f 19/51/77 34/53/78 35/54/79 27/52/80
f 34/53/81 17/45/82 23/48/83 35/54/84
