# This file uses centimeters as units for non-parametric coordinates.

mtllib Sidewalk.mtl
g default
v 3.609784 -0.188574 1.897666
v 8.981536 -0.188574 1.897666
v 3.609784 0.045880 -0.035233
v 8.981536 0.045880 -0.035233
v 3.609784 0.045880 1.862666
v 3.609784 -0.001006 1.897666
v 3.609784 0.022437 1.892976
v 3.609784 0.039598 1.880166
v 8.981536 0.045880 1.862666
v 8.981536 0.039598 1.880166
v 8.981536 0.022437 1.892976
v 8.981536 -0.001006 1.897666
v 3.609784 0.045880 1.720203
v 3.609784 0.032147 1.704375
v 3.609784 0.045880 1.688548
v 3.609784 0.024677 1.704375
v 8.981536 0.045880 1.720203
v 8.981536 0.024677 1.704375
v 8.981536 0.045880 1.688548
v 8.981536 0.032147 1.704375
vt 0.002407 0.532455
vt 0.997608 0.535859
vt 0.996655 0.569652
vt 0.003385 0.566145
vt 0.009823 0.657664
vt 0.988861 0.657664
vt 0.988861 0.968407
vt 0.009823 0.968407
vt 0.000000 0.576028
vt 1.000000 0.579555
vt 0.998417 0.606266
vt 0.001396 0.602760
vt 0.000330 0.572756
vt 0.999692 0.576283
vt 0.001573 0.570415
vt 0.998464 0.573934
vt 0.001705 0.608678
vt 0.002640 0.605699
vt 0.997151 0.609195
vt 0.998066 0.612180
vt 0.003231 0.605687
vt 0.996559 0.609179
vn 0.000000 0.000000 1.000000
vn 0.000000 0.000000 1.000000
vn 0.000000 0.022217 0.999753
vn 0.000000 0.022217 0.999753
vn 0.000000 0.999969 0.007894
vn 0.000000 0.999969 0.007894
vn 0.000000 1.000000 0.000000
vn 0.000000 1.000000 0.000000
vn 0.000000 0.999230 0.039238
vn 0.000000 0.999230 0.039238
vn 0.000000 0.996258 -0.086432
vn 0.000000 0.996258 -0.086432
vn 0.000000 0.999230 0.039238
vn 0.000000 0.941203 0.337842
vn 0.000000 0.941203 0.337842
vn 0.000000 0.999230 0.039238
vn 0.000000 0.598177 0.801364
vn 0.000000 0.395782 0.918345
vn 0.000000 0.395782 0.918345
vn 0.000000 0.598177 0.801364
vn 0.000000 0.395782 0.918345
vn 0.000000 0.022217 0.999753
vn 0.000000 0.022217 0.999753
vn 0.000000 0.395782 0.918345
vn 0.000000 0.999969 0.007894
vn 0.000000 1.000000 0.000000
vn 0.000000 1.000000 0.000000
vn 0.000000 0.999969 0.007894
vn 0.000000 1.000000 0.000000
vn 0.000000 0.996258 -0.086432
vn 0.000000 0.996258 -0.086432
vn 0.000000 1.000000 0.000000
vn -1.000000 0.000000 0.000000
vn -1.000000 0.000000 0.000000
vn -1.000000 0.000000 0.000000
vn -1.000000 0.000000 0.000000
vn -1.000000 0.000000 0.000000
vn -1.000000 0.000000 0.000000
vn 1.000000 0.000000 0.000000
vn 1.000000 0.000000 0.000000
vn 1.000000 0.000000 0.000000
vn 1.000000 0.000000 0.000000
vn 1.000000 0.000000 0.000000
vn 1.000000 0.000000 0.000000
s off
g SideWalk1
usemtl initialShadingGroup
f 1/1/1 2/2/2 12/3/3 6/4/4
f 15/5/5 19/6/6 4/7/7 3/8/8
f 5/9/9 9/10/10 17/11/11 13/12/12
f 5/9/13 8/13/14 10/14/15 9/10/16
f 8/13/17 7/15/18 11/16/19 10/14/20
f 7/15/21 6/4/22 12/3/23 11/16/24
f 15/17/25 14/18/26 20/19/27 19/20/28
f 14/18/29 13/12/30 17/11/31 20/19/32
f 16/21/33 13/12/34 14/18/35
f 16/21/36 14/18/37 15/17/38
f 18/22/39 19/20/40 20/19/41
f 18/22/42 20/19/43 17/11/44
