# This file uses centimeters as units for non-parametric coordinates.

mtllib BackShops.mtl
g default
v -19.444681 -0.040561 -24.158166
v -11.899510 -0.040561 -24.158166
v -19.429054 6.118239 -24.158166
v -11.883882 4.590967 -24.158166
v -19.444681 2.603359 -24.158166
v -11.899510 2.603359 -24.158166
v -19.444681 2.603359 -29.360374
v -19.444681 2.425937 -22.729001
v -11.899510 2.425937 -22.729001
v -11.899510 2.883211 -22.729001
v -19.444681 2.883211 -22.729001
v -11.899510 5.018767 -29.360374
v -19.444681 6.546039 -29.360374
vt 0.397054 0.005219
vt 0.668660 0.005219
vt 0.397054 0.218690
vt 0.668660 0.218690
vt 0.978293 0.695748
vt 0.668660 0.092673
vt 0.774751 0.653198
vt 0.397054 0.112203
vt 0.668660 0.112203
vt 0.668660 0.126037
vt 0.747211 0.784939
vt 0.668660 0.432802
vt 0.397054 0.432802
vt 0.947401 0.843524
vt 0.720223 0.634859
vt 0.716640 0.651998
vt 0.397054 0.126037
vt 0.397054 0.092673
vn 0.000000 0.000000 1.000000
vn 0.000000 0.000000 1.000000
vn 0.000000 0.000000 1.000000
vn 0.000000 0.000000 1.000000
vn 0.197762 0.977001 0.079749
vn 0.197762 0.977001 0.079749
vn 0.197762 0.977001 0.079749
vn 0.197762 0.977001 0.079749
vn -0.999996 0.002095 0.001588
vn -0.999996 0.002095 0.001588
vn -0.999996 0.002095 0.001588
vn -0.999996 0.002095 0.001588
vn 0.000000 0.000000 1.000000
vn 0.000000 0.000000 1.000000
vn 0.000000 0.000000 1.000000
vn 0.000000 0.000000 1.000000
vn 0.000000 -0.992382 -0.123198
vn 0.000000 -0.992382 -0.123198
vn 0.000000 -0.992382 -0.123198
vn 0.000000 -0.992382 -0.123198
vn 0.050577 0.499726 0.864706
vn 0.050577 0.499726 0.864706
vn 0.050577 0.499726 0.864706
vn 0.050577 0.499726 0.864706
vn -0.999992 0.003934 -0.000770
vn -0.999992 0.003934 -0.000770
vn -0.999992 0.003934 -0.000770
vn -0.999992 0.003934 -0.000770
s off
g Back1 BackAssets
usemtl initialShadingGroup
f 8/8/1 9/9/2 10/10/3 11/17/4
f 3/3/5 4/4/6 12/12/7 13/13/8
f 7/5/9 5/7/10 3/11/11 13/14/12
f 1/1/13 2/2/14 6/6/15 5/18/16
f 5/18/17 6/6/18 9/9/19 8/8/20
f 4/4/21 3/3/22 11/17/23 10/10/24
f 3/11/25 5/7/26 8/15/27 11/16/28
g default
v -11.909128 -0.005944 -24.158166
v -4.363957 -0.005944 -24.158166
v -11.893499 6.378457 -24.158166
v -4.348329 4.787467 -24.158166
v -11.909128 2.637975 -24.158166
v -4.363957 2.637975 -24.158166
v -4.363957 2.637975 -29.360374
v -11.909128 2.637975 -29.360374
v -11.909128 2.460554 -22.713829
v -4.363957 2.460554 -22.713829
v -4.363957 2.917828 -22.713829
v -11.909128 2.917828 -22.713829
v -4.363957 5.215267 -29.360374
v -11.909128 6.806256 -29.360374
v -9.268318 -0.005944 -24.158166
v -9.268318 2.637975 -24.158166
v -9.268318 2.460554 -22.713831
v -9.268318 2.917828 -22.713831
v -8.027021 5.821610 -24.158166
v -8.042649 6.249410 -29.360374
v -5.590047 -0.005944 -24.158166
v -5.590047 2.637975 -24.158166
v -5.590047 2.460554 -22.713829
v -5.590047 2.917828 -22.713829
v -5.574419 4.286190 -24.158166
v -5.590047 4.713990 -29.360374
vt 0.392996 0.617813
vt 0.664134 0.617813
vt 0.392996 0.779549
vt 0.664134 0.779549
vt 0.649487 0.451236
vt 0.664134 0.692032
vt 0.453969 0.451236
vt 0.453969 0.587995
vt 0.392996 0.733067
vt 0.664134 0.733067
vt 0.664134 0.715325
vt 0.649487 0.603636
vt 0.755140 0.802448
vt 0.392996 0.926909
vt 0.488683 0.617813
vt 0.488683 0.692032
vt 0.488683 0.733067
vt 0.488683 0.715325
vt 0.488683 0.779549
vt 0.488683 0.926909
vt 0.618155 0.617813
vt 0.618155 0.692032
vt 0.618155 0.733067
vt 0.618155 0.715325
vt 0.618155 0.779549
vt 0.618155 0.926909
vt 0.725549 0.898211
vt 0.685141 0.794476
vt 0.691436 0.774104
vt 0.664134 0.926909
vt 0.399685 0.444750
vt 0.399685 0.461468
vt 0.993386 0.876067
vt 0.392996 0.715325
vt 0.392996 0.692032
vt 0.957905 0.990890
vn 0.000001 0.000000 1.000000
vn 0.000000 0.000000 1.000000
vn 0.000000 0.000000 1.000000
vn 0.000001 0.000000 1.000000
vn 0.142083 0.986559 0.080702
vn 0.314488 0.946145 0.076861
vn 0.312289 0.946867 0.076927
vn 0.142083 0.986559 0.080702
vn -0.999997 0.001976 0.001583
vn -0.999997 0.001976 0.001583
vn -0.999997 0.001976 0.001583
vn -0.999997 0.001976 0.001583
vn 0.000000 0.000000 1.000000
vn 0.000000 0.000000 1.000000
vn 0.000000 0.000000 1.000000
vn 0.000000 0.000000 1.000000
vn -0.000000 -0.992540 -0.121923
vn -0.000000 -0.992540 -0.121923
vn -0.000000 -0.992540 -0.121923
vn -0.000000 -0.992540 -0.121923
vn 0.999981 -0.005995 0.001162
vn 0.999981 -0.005995 0.001162
vn 0.999981 -0.005995 0.001162
vn 0.999981 -0.005995 0.001162
vn 0.073383 0.456422 0.886732
vn 0.072290 0.455051 0.887526
vn 0.034857 0.407333 0.912614
vn 0.034857 0.407333 0.912614
vn -0.999993 0.003723 -0.000721
vn -0.999993 0.003723 -0.000721
vn -0.999993 0.003723 -0.000721
vn -0.999993 0.003723 -0.000721
vn 0.999993 -0.003306 -0.001638
vn 0.999993 -0.003306 -0.001638
vn 0.999993 -0.003306 -0.001638
vn 0.999993 -0.003306 -0.001638
vn 0.000000 0.000000 1.000000
vn 0.000000 0.000000 1.000000
vn 0.000000 -0.992540 -0.121923
vn 0.000000 -0.992540 -0.121923
vn -0.000000 0.000000 1.000000
vn -0.000000 0.000000 1.000000
vn 0.068199 0.565353 0.822025
vn 0.068942 0.564942 0.822245
vn 0.269385 0.959859 0.078124
vn 0.270209 0.959629 0.078103
vn 0.000000 0.000000 1.000000
vn 0.000000 0.000000 1.000000
vn 0.000000 -0.992540 -0.121923
vn 0.000000 -0.992540 -0.121923
vn 0.000000 0.000000 1.000000
vn 0.000000 0.000000 1.000000
vn -0.134987 0.660341 0.738734
vn -0.134987 0.660341 0.738734
vn -0.377311 0.922878 0.077026
vn -0.377311 0.922878 0.077026
s 1
g BackAssets Back2
usemtl initialShadingGroup
f 22/27/29 30/35/30 31/36/31 25/52/32
s 2
f 16/21/33 32/37/34 33/38/35 27/32/36
s off
f 21/23/37 18/25/38 16/26/39 27/30/40
s 3
f 14/19/41 28/33/42 29/34/43 18/53/44
s 4
f 18/53/45 29/34/46 30/35/47 22/27/48
s off
f 19/31/49 17/45/50 24/46/51 23/47/52
s 5
f 31/36/53 32/37/54 16/21/55 25/52/56
s off
f 16/26/57 18/25/58 22/49/59 25/50/60
f 20/51/61 26/54/62 17/45/63 19/31/64
s 3
f 29/34/43 28/33/42 34/39/65 35/40/66
s 4
f 30/35/47 29/34/46 35/40/67 36/41/68
s 1
f 31/36/31 30/35/30 36/41/69 37/42/70
s 5
f 37/42/71 38/43/72 32/37/54 31/36/53
s 2
f 33/38/35 32/37/34 38/43/73 39/44/74
s 3
f 35/40/66 34/39/65 15/20/75 19/24/76
s 4
f 36/41/68 35/40/67 19/24/77 23/28/78
s 1
f 37/42/70 36/41/69 23/28/79 24/29/80
s 5
f 17/22/81 38/43/72 37/42/71 24/29/82
s 2
f 39/44/74 38/43/73 17/22/83 26/48/84
g default
v -4.373523 -0.005944 -24.158166
v 3.171648 -0.005944 -24.158166
v -4.357894 4.811965 -24.158166
v 3.187276 5.569028 -24.158166
v -4.373523 2.637975 -24.158166
v 3.171648 2.637975 -24.158166
v 3.171648 2.637975 -29.360374
v -4.373523 2.637975 -29.360374
v -4.373523 2.460554 -22.067381
v 3.171648 2.460554 -22.067381
v 3.171648 2.917828 -22.067381
v -4.373523 2.917828 -22.067381
v 3.171648 5.996828 -29.360374
v -4.373523 5.239764 -29.360374
v -2.487230 -0.005944 -24.158166
v -2.487230 2.637975 -24.158166
v -2.487230 2.460554 -22.067381
v -2.487230 2.917828 -22.067381
v -2.471602 6.243949 -24.158166
v -2.487230 6.671749 -29.360374
v 0.908097 -0.005944 -24.158166
v 0.908097 2.637975 -24.158166
v 0.908097 2.460554 -22.067381
v 0.908097 2.917828 -22.067381
v 0.923725 5.052385 -24.158166
v 0.908097 5.480186 -29.360374
vt 0.688843 0.006329
vt 0.911566 0.006329
vt 0.688843 0.260398
vt 0.911566 0.260398
vt 0.961521 0.593776
vt 0.911566 0.102586
vt 0.794209 0.574687
vt 0.786216 0.644752
vt 0.688843 0.178751
vt 0.911566 0.178751
vt 0.911566 0.182115
vt 0.951954 0.677629
vt 0.789428 0.468779
vt 0.688843 0.451550
vt 0.752715 0.006329
vt 0.752715 0.102586
vt 0.752715 0.178751
vt 0.752715 0.182115
vt 0.752715 0.260398
vt 0.752715 0.451550
vt 0.850231 0.006329
vt 0.850231 0.102586
vt 0.850231 0.178751
vt 0.850231 0.182115
vt 0.850231 0.260398
vt 0.850231 0.451550
vt 0.789428 0.563857
vt 0.721748 0.477857
vt 0.688843 0.182115
vt 0.721748 0.463024
vt 0.688843 0.102586
vt 0.727619 0.561297
vt 0.911566 0.451550
vt 0.725937 0.576034
vt 0.957825 0.468779
vt 0.957825 0.577734
vn 0.000000 0.000000 1.000000
vn 0.000000 0.000000 1.000000
vn 0.000000 0.000000 1.000000
vn 0.000000 0.000000 1.000000
vn -0.603290 0.794689 0.067163
vn -0.045987 0.995570 0.082008
vn -0.044643 0.995631 0.082009
vn -0.603290 0.794689 0.067163
vn -0.999993 0.003272 0.001637
vn -0.999993 0.003272 0.001637
vn -0.999993 0.003272 0.001637
vn -0.999993 0.003272 0.001637
vn 0.000000 0.000000 1.000000
vn 0.000000 0.000000 1.000000
vn 0.000000 0.000000 1.000000
vn 0.000000 0.000000 1.000000
vn 0.000000 -0.996419 -0.084555
vn 0.000000 -0.996419 -0.084555
vn 0.000000 -0.996419 -0.084555
vn 0.000000 -0.996419 -0.084555
vn 0.999989 -0.004613 0.000617
vn 0.999989 -0.004613 0.000617
vn 0.999989 -0.004613 0.000617
vn 0.999989 -0.004613 0.000617
vn -0.014057 0.614041 0.789149
vn -0.008898 0.613800 0.789411
vn -0.231196 0.609089 0.758656
vn -0.231196 0.609089 0.758656
vn -0.999982 0.005939 -0.000795
vn -0.999982 0.005939 -0.000795
vn -0.999982 0.005939 -0.000795
vn -0.999982 0.005939 -0.000795
vn 0.999996 -0.002485 -0.001604
vn 0.999996 -0.002485 -0.001604
vn 0.999996 -0.002485 -0.001604
vn 0.999996 -0.002485 -0.001604
vn 0.000000 0.000000 1.000000
vn 0.000000 0.000000 1.000000
vn 0.000000 -0.996419 -0.084555
vn 0.000000 -0.996419 -0.084555
vn 0.000000 0.000000 1.000000
vn 0.000000 0.000000 1.000000
vn 0.037423 0.626756 0.778317
vn 0.038163 0.626530 0.778462
vn 0.117757 0.989730 0.081036
vn 0.118318 0.989664 0.081029
vn 0.000000 0.000000 1.000000
vn 0.000000 0.000000 1.000000
vn 0.000000 -0.996419 -0.084555
vn 0.000000 -0.996419 -0.084555
vn 0.000000 0.000000 1.000000
vn 0.000000 0.000000 1.000000
vn -0.074910 0.656401 0.750683
vn -0.074910 0.656402 0.750683
vn -0.221798 0.971758 0.080578
vn -0.221798 0.971758 0.080578
s 1
g BackAssets Back3
usemtl initialShadingGroup
f 48/63/85 56/71/86 57/72/87 51/83/88
s 2
f 42/57/89 58/73/90 59/74/91 53/68/92
s off
f 47/59/93 44/61/94 42/62/95 53/66/96
s 3
f 40/55/97 54/69/98 55/70/99 44/85/100
s 4
f 44/85/101 55/70/102 56/71/103 48/63/104
s off
f 45/67/105 43/81/106 50/82/107 49/84/108
s 5
f 57/72/109 58/73/110 42/57/111 51/83/112
s off
f 42/62/113 44/61/114 48/86/115 51/88/116
f 46/89/117 52/90/118 43/81/119 45/67/120
s 3
f 55/70/99 54/69/98 60/75/121 61/76/122
s 4
f 56/71/103 55/70/102 61/76/123 62/77/124
s 1
f 57/72/87 56/71/86 62/77/125 63/78/126
s 5
f 63/78/127 64/79/128 58/73/110 57/72/109
s 2
f 59/74/91 58/73/90 64/79/129 65/80/130
s 3
f 61/76/122 60/75/121 41/56/131 45/60/132
s 4
f 62/77/124 61/76/123 45/60/133 49/64/134
s 1
f 63/78/126 62/77/125 49/64/135 50/65/136
s 5
f 43/58/137 64/79/128 63/78/127 50/65/138
s 2
f 65/80/130 64/79/129 43/58/139 52/87/140
