# This file uses centimeters as units for non-parametric coordinates.

mtllib Bollard.mtl
g default
v 9.233213 0.121153 5.227323
v 9.084335 0.121153 5.251973
v 8.967732 0.121153 5.347765
v 8.914642 0.121153 5.489026
v 8.939299 0.121153 5.637905
v 9.035090 0.121153 5.754510
v 9.176352 0.121153 5.807598
v 9.325229 0.121153 5.782944
v 9.441836 0.121153 5.687156
v 9.494923 0.121153 5.545890
v 9.470268 0.121153 5.397012
v 9.374476 0.121153 5.280408
v 9.233213 1.310669 5.227323
v 9.084335 1.310669 5.251973
v 8.967732 1.310669 5.347765
v 8.914642 1.310669 5.489026
v 8.939299 1.310669 5.637905
v 9.035090 1.310669 5.754510
v 9.176352 1.310669 5.807598
v 9.325229 1.310669 5.782944
v 9.441836 1.310669 5.687156
v 9.494923 1.310669 5.545890
v 9.470268 1.310669 5.397012
v 9.374476 1.310669 5.280408
v 9.204783 1.382580 5.517458
v 9.240562 1.301381 5.152366
v 9.053221 1.301381 5.183389
v 9.053221 1.391869 5.183389
v 9.240562 1.391869 5.152366
v 8.906492 1.301381 5.303927
v 8.906492 1.391869 5.303927
v 8.839689 1.301381 5.481682
v 8.839689 1.391869 5.481682
v 8.870715 1.301381 5.669023
v 8.870715 1.391869 5.669023
v 8.991251 1.301381 5.815751
v 8.991251 1.391869 5.815751
v 9.169006 1.301381 5.882551
v 9.169006 1.391869 5.882551
v 9.356345 1.301381 5.851530
v 9.356345 1.391869 5.851530
v 9.503075 1.301381 5.730990
v 9.503075 1.391869 5.730990
v 9.569874 1.301381 5.553239
v 9.569874 1.391869 5.553239
v 9.538851 1.301381 5.365898
v 9.538851 1.391869 5.365898
v 9.418313 1.301381 5.219168
v 9.418313 1.391869 5.219168
v 9.221456 1.497243 5.347305
v 9.230631 1.489319 5.253685
v 9.134145 1.497243 5.361762
v 9.095279 1.489318 5.276097
v 9.065761 1.497243 5.417941
v 8.989271 1.489318 5.363185
v 9.034626 1.497243 5.500784
v 8.941005 1.489318 5.491610
v 9.049088 1.497243 5.588097
v 8.963423 1.489318 5.626961
v 9.105264 1.497243 5.656482
v 9.050509 1.489319 5.732972
v 9.188109 1.497243 5.687615
v 9.178935 1.489318 5.781235
v 9.275420 1.497243 5.673157
v 9.314284 1.489319 5.758823
v 9.343804 1.497243 5.616980
v 9.420296 1.489318 5.671735
v 9.374938 1.497243 5.534134
v 9.468560 1.489318 5.543308
v 9.360480 1.497242 5.446823
v 9.446146 1.489318 5.407956
v 9.304301 1.497242 5.378438
v 9.359057 1.489318 5.301948
vt 0.982914 0.007546
vt 0.496244 0.010874
vt 0.496780 0.342787
vt 0.452537 0.343089
vt 0.540487 0.010571
vt 0.541022 0.342484
vt 0.584730 0.010269
vt 0.585265 0.342182
vt 0.628972 0.009966
vt 0.629508 0.341879
vt 0.673215 0.009663
vt 0.673750 0.341577
vt 0.717458 0.009361
vt 0.717993 0.341274
vt 0.761700 0.009058
vt 0.762236 0.340972
vt 0.805943 0.008756
vt 0.806478 0.340669
vt 0.850186 0.008453
vt 0.850722 0.340366
vt 0.894429 0.008151
vt 0.894964 0.340064
vt 0.938671 0.007848
vt 0.939207 0.339761
vt 0.993580 0.361205
vt 0.102911 0.356113
vt 0.102870 0.400040
vt 0.021899 0.399577
vt 0.183881 0.356576
vt 0.183839 0.400503
vt 0.264852 0.357039
vt 0.264810 0.400966
vt 0.345822 0.357502
vt 0.345781 0.401429
vt 0.426791 0.357965
vt 0.426750 0.401892
vt 0.507762 0.358428
vt 0.507720 0.402355
vt 0.588731 0.358891
vt 0.588690 0.402818
vt 0.669702 0.359354
vt 0.669660 0.403281
vt 0.750671 0.359816
vt 0.750629 0.403744
vt 0.831641 0.360279
vt 0.831600 0.404207
vt 0.912611 0.360742
vt 0.912570 0.404670
vt 0.322643 0.042094
vt 0.302532 0.070188
vt 0.377940 0.109407
vt 0.346477 0.123681
vt 0.392173 0.195350
vt 0.357788 0.191980
vt 0.361527 0.276895
vt 0.333434 0.256785
vt 0.237728 0.045834
vt 0.169429 0.057144
vt 0.155156 0.025681
vt 0.241099 0.011449
vt 0.115937 0.101089
vt 0.087843 0.080978
vt 0.091582 0.165893
vt 0.057197 0.162524
vt 0.102894 0.234192
vt 0.071431 0.248467
vt 0.146838 0.287685
vt 0.126727 0.315779
vt 0.211642 0.312039
vt 0.208272 0.346424
vt 0.279940 0.300729
vt 0.294214 0.332193
vt 0.021941 0.355650
vt 0.993539 0.405132
vt 0.452002 0.011176
vt 0.983450 0.339459
vt 0.639925 0.817108
vt 0.589981 0.774485
vt 0.568037 0.712599
vt 0.579978 0.648033
vt 0.622600 0.598087
vt 0.684487 0.576145
vt 0.749051 0.588084
vt 0.798997 0.630707
vt 0.820940 0.692593
vt 0.809001 0.757159
vt 0.766377 0.807104
vt 0.704491 0.829046
vt 0.694489 0.702597
vt 0.709897 0.897470
vt 0.575643 0.953031
vt 0.610395 0.879068
vt 0.466349 0.860056
vt 0.533427 0.813378
vt 0.418184 0.724890
vt 0.499613 0.718005
vt 0.444056 0.583750
vt 0.518019 0.618503
vt 0.537029 0.474456
vt 0.583707 0.541534
vt 0.672196 0.426293
vt 0.679081 0.507722
vt 0.813334 0.452161
vt 0.778581 0.526123
vt 0.922629 0.545137
vt 0.855551 0.591813
vt 0.970792 0.680301
vt 0.889364 0.687187
vt 0.944921 0.821441
vt 0.870961 0.786690
vt 0.851947 0.930736
vt 0.805271 0.863658
vt 0.716783 0.978901
vn 0.097536 0.000000 -0.995232
vn -0.413146 0.000000 -0.910665
vn -0.413146 0.000000 -0.910665
vn 0.097536 0.000000 -0.995232
vn -0.813133 0.000000 -0.582078
vn -0.813133 0.000000 -0.582078
vn -0.995233 0.000000 -0.097528
vn -0.995233 0.000000 -0.097528
vn -0.910659 0.000000 0.413158
vn -0.910659 0.000000 0.413158
vn -0.582079 0.000000 0.813132
vn -0.582079 0.000000 0.813132
vn -0.097532 0.000000 0.995232
vn -0.097532 0.000000 0.995232
vn 0.413142 0.000000 0.910667
vn 0.413142 0.000000 0.910667
vn 0.813133 0.000000 0.582078
vn 0.813133 0.000000 0.582078
vn 0.995233 0.000000 0.097526
vn 0.995233 0.000000 0.097526
vn 0.910659 0.000000 -0.413158
vn 0.910659 0.000000 -0.413158
vn 0.582063 0.000000 -0.813144
vn 0.582063 0.000000 -0.813144
vn 0.097533 0.000000 -0.995232
vn -0.413151 0.000000 -0.910663
vn -0.375360 0.417818 -0.827365
vn 0.088613 0.417820 -0.904198
vn -0.813133 0.000000 -0.582078
vn -0.738757 0.417817 -0.528837
vn -0.995233 0.000000 -0.097526
vn -0.904201 0.417816 -0.088606
vn -0.910662 0.000000 0.413153
vn -0.827363 0.417818 0.375364
vn -0.582074 0.000000 0.813136
vn -0.528833 0.417818 0.738758
vn -0.097532 0.000000 0.995232
vn -0.088613 0.417815 0.904201
vn 0.413151 0.000000 0.910662
vn 0.375363 0.417813 0.827366
vn 0.813135 0.000000 0.582075
vn 0.738759 0.417815 0.528834
vn 0.995233 0.000000 0.097524
vn 0.904203 0.417811 0.088607
vn 0.910663 0.000000 -0.413150
vn 0.827368 0.417809 -0.375363
vn 0.582084 0.000000 -0.813129
vn 0.528838 0.417817 -0.738755
vn -0.011938 -0.992481 0.121818
vn 0.050571 -0.992480 0.111468
vn 0.050571 -0.992480 0.111468
vn -0.011940 -0.992481 0.121818
vn 0.099532 -0.992480 0.071249
vn 0.099532 -0.992480 0.071249
vn 0.121821 -0.992480 0.011938
vn 0.121821 -0.992480 0.011937
vn 0.111468 -0.992480 -0.050571
vn 0.111468 -0.992480 -0.050572
vn 0.071247 -0.992481 -0.099529
vn 0.071248 -0.992481 -0.099529
vn 0.011938 -0.992480 -0.121820
vn 0.011938 -0.992480 -0.121820
vn -0.050571 -0.992480 -0.111469
vn -0.050571 -0.992480 -0.111469
vn -0.099532 -0.992480 -0.071250
vn -0.099533 -0.992480 -0.071249
vn -0.121825 -0.992480 -0.011937
vn -0.121825 -0.992480 -0.011939
vn -0.111472 -0.992480 0.050573
vn -0.111472 -0.992480 0.050573
vn -0.071248 -0.992480 0.099531
vn -0.071248 -0.992480 0.099531
vn -0.016530 0.985532 0.168685
vn 0.054936 0.826287 -0.560564
vn -0.232710 0.826283 -0.512935
vn 0.070020 0.985533 0.154340
vn -0.098651 0.985533 0.137817
vn 0.327857 0.826285 -0.457999
vn -0.458001 0.826284 -0.327856
vn 0.137818 0.985532 0.098656
vn -0.560571 0.826282 -0.054932
vn 0.168674 0.985533 0.016529
vn -0.512933 0.826285 0.232710
vn 0.154350 0.985532 -0.070027
vn -0.327856 0.826284 0.458001
vn 0.098654 0.985533 -0.137813
vn -0.054938 0.826282 0.560571
vn 0.016529 0.985532 -0.168681
vn 0.232707 0.826282 0.512938
vn -0.070022 0.985533 -0.154344
vn 0.458002 0.826282 0.327858
vn -0.137810 0.985533 -0.098653
vn 0.560572 0.826282 0.054931
vn -0.168679 0.985532 -0.016533
vn 0.512939 0.826280 -0.232714
vn -0.154339 0.985534 0.070019
vn -0.000001 1.000000 0.000003
s 1
g Bollard
usemtl initialShadingGroup
f 1/75/1 2/2/2 14/3/3 13/4/4
f 2/2/2 3/5/5 15/6/6 14/3/3
f 3/5/5 4/7/7 16/8/8 15/6/6
f 4/7/7 5/9/9 17/10/10 16/8/8
f 5/9/9 6/11/11 18/12/12 17/10/10
f 6/11/11 7/13/13 19/14/14 18/12/12
f 7/13/13 8/15/15 20/16/16 19/14/14
f 8/15/15 9/17/17 21/18/18 20/16/16
f 9/17/17 10/19/19 22/20/20 21/18/18
f 10/19/19 11/21/21 23/22/22 22/20/20
f 11/21/21 12/23/23 24/24/24 23/22/22
f 12/23/23 1/1/1 13/76/4 24/24/24
s 2
f 26/73/25 27/26/26 28/27/27 29/28/28
f 27/26/26 30/29/29 31/30/30 28/27/27
f 30/29/29 32/31/31 33/32/32 31/30/30
f 32/31/31 34/33/33 35/34/34 33/32/32
f 34/33/33 36/35/35 37/36/36 35/34/34
f 36/35/35 38/37/37 39/38/38 37/36/36
f 38/37/37 40/39/39 41/40/40 39/38/38
f 40/39/39 42/41/41 43/42/42 41/40/40
f 42/41/41 44/43/43 45/44/44 43/42/42
f 44/43/43 46/45/45 47/46/46 45/44/44
f 46/45/45 48/47/47 49/48/48 47/46/46
f 48/47/47 26/25/25 29/74/28 49/48/48
s 3
f 13/57/49 14/58/50 27/59/51 26/60/52
f 14/58/50 15/61/53 30/62/54 27/59/51
f 15/61/53 16/63/55 32/64/56 30/62/54
f 16/63/55 17/65/57 34/66/58 32/64/56
f 17/65/57 18/67/59 36/68/60 34/66/58
f 18/67/59 19/69/61 38/70/62 36/68/60
f 19/69/61 20/71/63 40/72/64 38/70/62
f 20/71/63 21/56/65 42/55/66 40/72/64
f 21/56/65 22/54/67 44/53/68 42/55/66
f 22/54/67 23/52/69 46/51/70 44/53/68
f 23/52/69 24/50/71 48/49/72 46/51/70
f 24/50/71 13/57/49 26/60/52 48/49/72
s 2
f 50/88/73 51/90/74 53/92/75 52/77/76
f 51/90/74 50/88/73 72/87/77 73/112/78
f 52/77/76 53/92/75 55/94/79 54/78/80
f 54/78/80 55/94/79 57/96/81 56/79/82
f 56/79/82 57/96/81 59/98/83 58/80/84
f 58/80/84 59/98/83 61/100/85 60/81/86
f 60/81/86 61/100/85 63/102/87 62/82/88
f 62/82/88 63/102/87 65/104/89 64/83/90
f 64/83/90 65/104/89 67/106/91 66/84/92
f 66/84/92 67/106/91 69/108/93 68/85/94
f 68/85/94 69/108/93 71/110/95 70/86/96
f 70/86/96 71/110/95 73/112/78 72/87/77
f 50/88/73 52/77/76 25/89/97
f 52/77/76 54/78/80 25/89/97
f 54/78/80 56/79/82 25/89/97
f 56/79/82 58/80/84 25/89/97
f 58/80/84 60/81/86 25/89/97
f 60/81/86 62/82/88 25/89/97
f 62/82/88 64/83/90 25/89/97
f 64/83/90 66/84/92 25/89/97
f 66/84/92 68/85/94 25/89/97
f 68/85/94 70/86/96 25/89/97
f 70/86/96 72/87/77 25/89/97
f 72/87/77 50/88/73 25/89/97
f 53/92/75 51/90/74 29/113/28 28/91/27
f 55/94/79 53/92/75 28/91/27 31/93/30
f 57/96/81 55/94/79 31/93/30 33/95/32
f 59/98/83 57/96/81 33/95/32 35/97/34
f 61/100/85 59/98/83 35/97/34 37/99/36
f 63/102/87 61/100/85 37/99/36 39/101/38
f 65/104/89 63/102/87 39/101/38 41/103/40
f 67/106/91 65/104/89 41/103/40 43/105/42
f 69/108/93 67/106/91 43/105/42 45/107/44
f 71/110/95 69/108/93 45/107/44 47/109/46
f 73/112/78 71/110/95 47/109/46 49/111/48
f 51/90/74 73/112/78 49/111/48 29/113/28
