# This file uses centimeters as units for non-parametric coordinates.

mtllib Donutbag.mtl
g default
v -6.018110 8.296349 4.191701
v -5.600214 5.490818 4.191701
v -3.845031 8.448636 3.925307
v -3.477090 5.845416 3.925307
v -3.845031 8.448636 2.286296
v -3.477090 5.845416 2.286296
v -6.018110 8.296349 2.019904
v -5.600214 5.490818 2.019904
v -2.916882 8.735585 3.897775
v -2.601274 6.004955 3.897775
v -2.601274 6.004955 2.313828
v -2.916882 8.735585 2.313828
v -3.845031 8.448636 3.888760
v -2.916882 8.735585 3.872717
v -2.601274 6.004955 3.872717
v -3.477090 5.845416 3.851210
v -5.600214 5.490818 4.117898
v -6.018110 8.296349 4.135370
v -6.018110 8.296349 2.076846
v -5.600214 5.490818 2.104240
v -3.477090 5.845416 2.341713
v -2.601274 6.004955 2.356093
v -2.916882 8.735585 2.355370
v -3.845031 8.448636 2.334477
v -6.007604 8.225819 4.191701
v -6.008239 8.230084 4.134565
v -6.008239 8.230084 2.085089
v -6.008685 8.233083 2.019904
v -2.910715 8.694180 2.313828
v -2.910325 8.691567 2.356093
v -2.910325 8.691567 3.872717
v -2.911769 8.701257 3.897775
v -3.837705 8.399457 3.925307
v -5.792530 6.248312 4.131329
v -5.792530 6.248312 4.191701
v -3.576434 6.645409 3.925307
v -2.748082 6.788308 3.897775
v -2.748082 6.788308 3.872717
v -2.748082 6.788308 2.356093
v -2.748082 6.788308 2.313828
v -5.792530 6.248312 2.019904
v -5.792529 6.248312 2.086432
v -5.964497 7.132056 4.191701
v -5.964022 7.128854 4.128092
v -5.964497 7.132056 2.086432
v -5.964497 7.132056 2.019904
v -2.947061 7.540272 2.313828
v -2.947061 7.540272 2.356093
v -2.947061 7.540272 3.872717
v -2.947061 7.540272 3.897775
v -3.692335 7.423515 3.925307
v -5.606408 5.532392 4.115146
v -5.606632 5.533899 4.191701
v -3.482633 5.882632 3.925307
v -2.605817 6.035451 3.897775
v -2.605776 6.035173 3.872717
v -2.605776 6.035172 2.356093
v -2.605972 6.036487 2.313828
v -5.612663 5.574382 2.019904
v -5.612131 5.570809 2.099378
v -5.137870 8.131791 4.032065
v -5.130097 8.079601 4.032065
v -4.981873 7.236074 4.032065
v -4.863466 6.441145 4.032065
v -4.766948 5.838525 4.032065
v -4.761974 5.805116 4.032065
v -4.761974 5.805116 3.921353
v -4.761974 5.805116 2.245722
v -4.761974 5.805116 2.179536
v -5.137870 8.131791 2.179536
v -5.137870 8.131791 2.252576
v -5.137870 8.131791 3.981207
v -2.937645 8.060938 3.872717
v -2.938439 8.066271 3.897775
v -3.772289 7.960285 3.925307
v -5.063396 7.783380 4.032065
v -6.013772 7.733629 4.191701
v -6.014210 7.736555 4.124855
v -6.013254 7.730158 2.086432
v -6.014366 7.737619 2.019904
v -2.937859 8.062375 2.313828
v -2.937645 8.060938 2.356093
v -4.338822 8.135300 3.824244
v -4.338822 8.135300 2.404569
v -4.096171 5.933568 3.824244
v -4.217219 6.556923 2.404569
v -4.391204 7.178409 2.404569
v -4.374234 7.611047 2.404569
v -4.096171 5.933567 2.404569
vt 0.240951 0.685815
vt 0.105968 0.674222
vt 0.105968 0.951171
vt 0.240951 0.935305
vt 0.358237 0.271436
vt 0.164351 0.271132
vt 0.163120 0.145490
vt 0.357033 0.148454
vt 0.953917 0.275553
vt 0.664530 0.276027
vt 0.597882 0.941830
vt 0.462063 0.955366
vt 0.462063 0.669657
vt 0.597882 0.684937
vt 0.641589 0.273736
vt 0.636118 0.273736
vt 0.636118 0.143365
vt 0.641589 0.143365
vt 0.332960 0.682261
vt 0.332960 0.932929
vt 0.981914 0.273736
vt 0.972688 0.273736
vt 0.695388 0.938376
vt 0.695388 0.687588
vt 0.664530 0.145148
vt 0.597882 0.678896
vt 0.695388 0.683447
vt 0.954376 0.145148
vt 0.240951 0.673568
vt 0.962933 0.276027
vt 0.962933 0.145148
vt 0.332960 0.678119
vt 0.105968 0.655923
vt 0.462063 0.661251
vt 0.972688 0.143365
vt 0.981914 0.143365
vt 0.105968 0.962110
vt 0.240951 0.944465
vt 0.655100 0.276027
vt 0.655100 0.145148
vt 0.954948 0.448455
vt 0.972845 0.480973
vt 0.972688 0.473342
vt 0.981914 0.473795
vt 0.981914 0.480973
vt 0.954834 0.438642
vt 0.470489 0.272917
vt 0.962933 0.438010
vt 0.482105 0.152130
vt 0.641589 0.480973
vt 0.641589 0.473342
vt 0.636118 0.480973
vt 0.636118 0.475022
vt 0.962933 0.448455
vt 0.663171 0.448455
vt 0.664340 0.438642
vt 0.655100 0.448455
vt 0.636118 0.012839
vt 0.641589 0.012791
vt 0.972688 0.012790
vt 0.981914 0.013019
vt 0.655100 0.439086
vt 0.655100 0.045341
vt 0.981914 0.364256
vt 0.972688 0.364007
vt 0.641589 0.364007
vt 0.636118 0.364931
vt 0.359824 0.433461
vt 0.359748 0.425688
vt 0.666365 0.044812
vt 0.332960 0.939914
vt 0.502884 0.451781
vt 0.502937 0.457207
vt 0.162420 0.413206
vt 0.162339 0.404957
vt 0.597882 0.949793
vt 0.695388 0.945242
vt 0.462063 0.967438
vt 0.163180 0.050093
vt 0.017907 0.629539
vt 0.352940 0.028334
vt 0.485367 0.032467
vt 0.017907 0.641737
vt 0.017907 0.974555
vt 0.017907 0.988494
vt 0.636118 0.007552
vt 0.641589 0.007552
vt 0.962933 0.365118
vt 0.953458 0.365552
vt 0.664530 0.364604
vt 0.484083 0.354117
vt 0.359068 0.356275
vt 0.165198 0.357636
vt 0.972688 0.007552
vt 0.981914 0.007552
vt 0.163128 0.044812
vt 0.352882 0.022452
vt 0.485319 0.027647
vt 0.036928 0.458260
vt 0.036819 0.447113
vt 0.024377 0.371089
vt 0.017520 0.276905
vt 0.022078 0.136328
vt 0.655100 0.365709
vt 0.962933 0.039346
vt 0.952082 0.039123
vt 0.952472 0.032966
vt 0.962933 0.032966
vt 0.655100 0.032966
vt 0.667054 0.032966
vt 0.369589 0.993822
vt 0.369589 0.984411
vt 0.369589 0.644177
vt 0.369589 0.634867
vt 0.902068 0.559199
vt 0.833805 0.704748
vt 0.756083 0.496280
vt 0.697152 0.645852
vt 0.318939 0.456893
vt 0.317791 0.613552
vt 0.556660 0.478451
vt 0.635393 0.499625
vt 0.596832 0.650920
vt 0.531764 0.632421
vt 0.689971 0.498866
vt 0.642186 0.649332
vt 0.477780 0.463213
vt 0.466478 0.619468
vt 0.032586 0.014834
vt 0.032652 0.021643
vn 0.080763 0.012030 0.996661
vn 0.116543 0.017414 0.993033
vn 0.116957 0.020167 0.992932
vn 0.081168 0.011735 0.996631
vn -0.989051 -0.147571 -0.000022
vn -0.989089 -0.147317 0.000006
vn -0.981226 -0.192859 -0.000107
vn -0.981573 -0.191086 -0.000000
vn 0.031349 -0.999508 0.000000
vn 0.187827 -0.982202 0.000000
vn 0.187370 -0.982289 0.000000
vn 0.031349 -0.999508 0.000000
vn -0.238033 0.971257 0.000000
vn -0.039611 0.999215 0.000000
vn -0.039771 0.999209 0.000000
vn -0.238033 0.971257 0.000000
vn 0.034113 0.005035 0.999405
vn 0.034105 0.005091 0.999405
vn 0.032560 0.005872 0.999452
vn 0.032547 0.005860 0.999453
vn 0.179212 -0.983811 0.000000
vn 0.179212 -0.983811 0.000000
vn 0.179212 -0.983811 0.000000
vn 0.179212 -0.983811 0.000000
vn -0.295369 0.955383 0.000000
vn -0.295369 0.955383 0.000000
vn -0.295369 0.955383 0.000000
vn -0.295369 0.955383 0.000000
vn -0.295369 0.955383 0.000000
vn -0.295369 0.955383 0.000000
vn 0.989062 0.147324 0.007176
vn 0.989062 0.147324 0.007176
vn 0.975241 0.221145 -0.000116
vn 0.975241 0.221145 -0.000116
vn 0.179212 -0.983810 0.000000
vn 0.179212 -0.983810 0.000000
vn 0.177409 -0.984137 0.000000
vn 0.031349 -0.999509 0.000000
vn -0.989539 -0.144263 0.000619
vn -0.981573 -0.191083 0.001172
vn -0.031387 0.999507 0.000000
vn -0.238033 0.971257 0.000000
vn -0.989087 -0.147327 0.001512
vn -0.975096 -0.221778 -0.001274
vn 0.194791 -0.980845 0.000000
vn 0.031349 -0.999509 0.000000
vn 0.179212 -0.983811 0.000000
vn 0.179212 -0.983810 0.000000
vn 0.989087 0.147328 -0.001150
vn 0.989087 0.147328 -0.001150
vn 0.975235 0.221170 0.000304
vn 0.975235 0.221170 0.000304
vn -0.295369 0.955383 0.000000
vn -0.295369 0.955383 0.000000
vn -0.045820 0.998950 0.000000
vn -0.238032 0.971257 0.000000
vn -0.989087 -0.147336 0.000000
vn -0.999967 -0.008166 0.000021
vn -0.999955 -0.004454 0.008396
vn -0.989087 -0.147335 0.000000
vn -0.989087 -0.147336 -0.000000
vn -0.999959 -0.009023 0.000145
vn -0.989086 -0.147340 -0.000004
vn -0.999910 -0.007334 0.011245
vn 0.989087 0.147336 -0.000000
vn 0.995608 0.093588 -0.002627
vn 0.999509 -0.030131 -0.008594
vn 0.989088 0.147323 -0.000015
vn 0.989087 0.147337 0.000000
vn 0.994353 0.105346 0.012824
vn 0.989088 0.147326 0.000018
vn 0.998321 -0.025223 0.052145
vn 0.028346 0.004222 0.999589
vn 0.030845 0.001318 0.999523
vn 0.030727 0.001456 0.999527
vn 0.028346 0.004222 0.999589
vn 0.128667 0.019165 0.991503
vn 0.123735 0.014253 0.992213
vn 0.079596 0.013971 0.996729
vn 0.079411 0.011827 0.996772
vn 0.118193 0.021609 0.992755
vn 0.081696 0.011431 0.996592
vn 0.031389 0.004880 0.999495
vn 0.031391 0.004880 0.999495
vn 0.982884 0.184224 -0.000226
vn 0.987368 0.158442 -0.000068
vn 0.986672 0.162721 0.000245
vn 0.982877 0.184260 0.000589
vn -0.969394 -0.245497 -0.002468
vn -0.983909 -0.178668 -0.000783
vn -0.999099 -0.042254 0.003893
vn -0.999215 -0.039625 -0.000016
vn -0.999196 -0.040082 0.000097
vn -0.999287 -0.036888 0.008090
vn 0.999469 -0.031955 -0.006398
vn 0.999487 -0.031416 -0.006262
vn 0.998891 -0.029424 0.036757
vn 0.998582 -0.032756 0.041971
vn 0.032496 0.001624 0.999470
vn 0.032643 0.001675 0.999466
vn 0.080303 0.012949 0.996686
vn 0.116986 0.014550 0.993027
vn -0.989084 -0.147352 0.000001
vn -0.989085 -0.147349 -0.000000
vn -0.989085 -0.147349 -0.000000
vn -0.989084 -0.147352 0.000001
vn 0.124587 0.018554 0.992035
vn 0.082414 0.012273 0.996523
vn 0.030591 0.004557 0.999522
vn 0.030591 0.004557 0.999522
vn 0.989081 0.147374 -0.000023
vn 0.989079 0.147387 -0.000000
vn 0.989079 0.147387 0.000000
vn 0.989080 0.147381 0.000003
vn -0.989085 -0.147347 0.000000
vn -0.989085 -0.147349 -0.000000
vn 0.183317 0.027306 0.982674
vn 0.174450 0.015543 0.984543
vn 0.165835 0.016412 0.986017
vn 0.160903 0.023872 0.986682
vn 0.163537 0.031229 0.986043
vn 0.168316 0.035377 0.985098
vn 0.177442 0.026426 0.983776
vn 0.351083 -0.936344 0.000000
vn 0.351083 -0.936344 0.000000
vn 0.351083 -0.936345 0.000000
vn 0.351083 -0.936345 0.000000
vn 0.183763 0.982971 0.000000
vn 0.183763 0.982971 0.000000
vn 0.183763 0.982971 0.000000
vn 0.183763 0.982971 0.000000
vn 0.362866 -0.931841 0.000000
vn 0.362866 -0.931841 0.000000
vn 0.362866 -0.931841 0.000000
vn 0.362866 -0.931841 0.000000
vn 0.031519 0.008559 0.999466
vn 0.031519 0.008559 0.999466
vn 0.031519 0.008559 0.999466
vn 0.031519 0.008559 0.999466
vn 0.033901 -0.000938 0.999425
vn 0.033901 -0.000938 0.999425
vn 0.033901 -0.000938 0.999425
vn 0.033901 -0.000938 0.999425
vn 0.032052 0.006132 0.999467
vn 0.032052 0.006132 0.999467
vn 0.032052 0.006132 0.999467
vn 0.032052 0.006132 0.999467
vn -0.068015 0.997684 -0.000001
vn -0.068015 0.997684 -0.000001
vn -0.068015 0.997684 -0.000001
vn -0.068015 0.997684 -0.000001
vn 0.034477 -0.001873 0.999404
vn 0.034477 -0.001873 0.999404
vn 0.034477 -0.001873 0.999404
vn 0.034477 -0.001873 0.999404
vn -0.967104 -0.254381 -0.001044
vn -0.967104 -0.254381 -0.001044
vn -0.967104 -0.254381 -0.001044
vn -0.967104 -0.254381 -0.001044
vn -0.967797 -0.251731 0.001184
vn -0.967797 -0.251731 0.001184
vn -0.967797 -0.251731 0.001184
vn -0.967797 -0.251731 0.001184
s 1
g DonutBag
usemtl initialShadingGroup
f 51/5/1 63/6/2 64/7/3 36/8/4
s 2
f 44/9/5 45/10/6 42/25/7 34/28/8
s 3
f 16/1/9 67/2/10 68/3/11 21/4/12
s 4
f 24/11/13 71/12/14 72/13/15 13/14/16
s 5
f 50/47/17 51/5/18 36/8/19 37/49/20
s 6
f 15/19/21 16/1/22 21/4/23 22/20/24
s 7
f 23/23/25 24/11/26 13/14/27 14/24/28
f 14/24/28 13/14/27 3/26/29 9/27/30
s 8
f 49/15/31 50/16/32 37/17/33 38/18/34
s 6
f 4/29/35 16/1/22 15/19/21 10/32/36
s 3
f 66/33/37 67/2/10 16/1/9 4/29/38
s 2
f 43/30/39 44/9/5 34/28/8 35/31/40
s 4
f 13/14/16 72/13/15 61/34/41 3/26/42
s 2
f 45/10/6 46/39/43 41/40/44 42/25/7
s 3
f 21/4/12 68/3/11 69/37/45 6/38/46
s 6
f 22/20/24 21/4/23 6/38/47 11/71/48
s 8
f 47/21/49 48/22/50 39/35/51 40/36/52
s 7
f 5/76/53 24/11/26 23/23/25 12/77/54
s 4
f 70/78/55 71/12/14 24/11/13 5/76/56
s 2
f 18/41/57 26/46/58 25/48/59 1/54/60
f 19/55/61 27/56/62 26/46/58 18/41/57
f 7/57/63 28/62/64 27/56/62 19/55/61
s 8
f 23/42/65 30/43/66 29/44/67 12/45/68
f 14/50/69 31/51/70 30/43/66 23/42/65
f 9/52/71 32/53/72 31/51/70 14/50/69
s 5
f 3/68/73 33/69/74 32/72/75 9/73/76
s 1
f 61/74/77 62/75/78 33/69/79 3/68/80
f 36/8/4 64/7/3 65/79/81 54/81/82
s 5
f 37/49/20 36/8/19 54/81/83 55/82/84
s 8
f 38/18/34 37/17/33 55/58/85 56/59/86
f 40/36/52 39/35/51 57/60/87 58/61/88
s 2
f 42/25/7 41/40/44 59/63/89 60/70/90
f 77/88/91 78/89/92 44/9/5 43/30/39
f 78/89/92 79/90/93 45/10/6 44/9/5
f 79/90/93 80/104/94 46/39/43 45/10/6
s 8
f 81/64/95 82/65/96 48/22/50 47/21/49
f 73/66/97 74/67/98 50/16/32 49/15/31
s 5
f 74/91/99 75/92/100 51/5/18 50/47/17
s 1
f 75/92/101 76/93/102 63/6/2 51/5/1
s 2
f 53/105/103 52/106/104 17/107/105 2/108/106
s 1
f 54/81/82 65/79/81 66/96/107 4/97/108
s 5
f 55/82/84 54/81/83 4/97/109 10/98/110
s 8
f 56/59/86 55/58/85 10/86/111 15/87/112
f 57/60/87 56/59/86 15/87/112 22/94/113
f 58/61/88 57/60/87 22/94/113 11/95/114
s 2
f 60/70/90 59/63/89 8/109/115 20/110/116
f 52/106/104 60/70/90 20/110/116 17/107/105
s 1
f 1/99/117 25/100/118 62/75/78 61/74/77
f 63/6/2 76/93/102 77/101/119 43/102/120
f 64/7/3 63/6/2 43/102/120 35/103/121
f 65/79/81 64/7/3 35/103/121 53/130/122
f 66/96/107 65/79/81 53/130/122 2/129/123
s 3
f 2/80/124 17/83/125 67/2/10 66/33/37
f 68/3/11 67/2/10 17/83/125 20/84/126
f 69/37/45 68/3/11 20/84/126 8/85/127
s 4
f 7/111/128 19/112/129 71/12/14 70/78/55
f 72/13/15 71/12/14 19/112/129 18/113/130
f 61/34/41 72/13/15 18/113/130 1/114/131
s 8
f 31/51/70 32/53/72 74/67/98 73/66/97
s 5
f 32/72/75 33/69/74 75/92/100 74/91/99
s 1
f 33/69/79 62/75/78 76/93/102 75/92/101
f 77/101/119 76/93/102 62/75/78 25/100/118
s 2
f 25/48/59 26/46/58 78/89/92 77/88/91
f 26/46/58 27/56/62 79/90/93 78/89/92
f 27/56/62 28/62/64 80/104/94 79/90/93
s 8
f 29/44/67 30/43/66 82/65/96 81/64/95
s off
f 30/117/132 31/115/133 83/116/134 84/118/135
f 39/121/136 48/122/137 87/123/138 86/124/139
f 48/122/140 82/125/141 88/126/142 87/123/143
f 57/127/144 39/121/145 86/124/146 89/128/147
f 56/119/148 57/127/149 89/128/150 85/120/151
f 82/125/152 30/117/153 84/118/154 88/126/155
f 34/28/156 42/25/157 60/70/158 52/106/159
f 53/105/160 35/31/161 34/28/162 52/106/163
