# This file uses centimeters as units for non-parametric coordinates.

mtllib BackHouse3.mtl
g default
v 15.330162 2.400630 -40.488628
v 7.677325 3.371131 -40.637646
v 15.336898 0.033207 -40.427505
v 8.104146 0.009142 -40.562569
v 15.330663 2.225274 -40.484104
v 7.705699 3.198196 -40.629986
v 15.327752 2.404608 -40.360302
v 7.676383 3.377339 -40.509388
v 7.704878 3.203662 -40.503529
v 15.328289 2.228533 -40.357590
v 15.367469 4.039145 -42.778419
v 7.438930 4.815803 -42.950924
v 7.414684 4.963569 -42.957470
v 15.367421 4.055902 -42.778851
v 15.329735 2.550463 -40.492500
v 7.653079 3.518896 -40.644192
v 15.326653 2.412479 -40.302845
v 7.674976 3.386127 -40.452068
v 15.327568 2.457472 -40.359837
v 7.667825 3.429507 -40.509865
v 15.371917 2.475839 -42.738056
v 15.372418 2.300483 -42.733528
v 15.379031 -0.024661 -42.673496
v 8.146279 -0.048727 -42.808559
v 7.720275 3.101143 -42.874969
v 7.691901 3.274078 -42.882629
v 15.414051 2.417971 -44.984047
v 7.706477 3.177025 -45.127617
v 15.421165 -0.082529 -44.919487
v 8.188413 -0.106595 -45.054550
v 15.414552 2.242615 -44.979519
v 7.734851 3.004089 -45.119957
v 15.413624 2.567804 -44.987915
v 7.682232 3.324790 -45.134163
v 14.922849 0.031830 -40.435238
v 14.916231 2.356974 -40.495270
v 14.913857 2.360233 -40.368759
v 14.913325 2.536308 -40.371471
v 14.912226 2.544179 -40.314014
v 14.913140 2.589172 -40.371002
v 14.915308 2.682162 -40.503666
v 14.952994 4.187601 -42.790020
v 12.958584 0.028822 -40.452118
v 12.987524 4.608225 -42.817833
v 12.949838 3.102786 -40.531483
v 12.947670 3.009796 -40.398819
v 12.946756 2.964803 -40.341827
v 12.947855 2.956932 -40.399284
v 12.948394 2.780857 -40.396572
v 12.950767 2.777598 -40.523087
v 13.882736 0.030321 -40.443703
v 13.875385 2.613292 -40.510391
v 13.873012 2.616552 -40.383881
v 13.872478 2.792626 -40.386593
v 13.871379 2.800497 -40.329136
v 13.872294 2.845491 -40.386124
v 13.874462 2.938481 -40.518787
v 13.912148 4.443920 -42.805141
v 11.718140 0.021166 -40.495083
v 11.746250 4.892351 -42.868336
v 11.708564 3.386913 -40.581982
v 11.706396 3.293922 -40.449318
v 11.705482 3.248929 -40.392326
v 11.706581 3.241058 -40.449787
v 11.707119 3.064983 -40.447071
v 11.709492 3.061723 -40.573586
v 10.549194 0.019335 -40.505363
v 10.577745 4.735277 -42.874607
v 10.540059 3.229838 -40.588253
v 10.537891 3.136848 -40.455589
v 10.536977 3.091855 -40.398602
v 10.538076 3.083983 -40.456059
v 10.538607 2.907909 -40.453342
v 10.540981 2.904649 -40.579857
v 9.274469 0.017432 -40.516045
v 8.569477 5.157921 -42.933578
v 8.807872 3.713248 -40.620300
v 8.822617 3.623859 -40.485970
v 8.829768 3.580479 -40.428177
v 8.831176 3.571691 -40.485497
v 8.859672 3.398015 -40.479637
v 8.860492 3.392548 -40.606094
v 15.410561 -0.067964 -44.354202
v 15.403947 2.257179 -44.414234
v 15.403446 2.432535 -44.418762
v 7.696677 3.242280 -43.618176
v 7.556072 4.098287 -43.903957
v 7.531826 4.246052 -43.910503
v 15.387438 3.479170 -43.747990
v 15.387864 3.329336 -43.744122
v 15.385722 2.456879 -43.473930
v 15.386222 2.281523 -43.469402
v 15.392836 -0.043621 -43.409370
v 8.160084 -0.067686 -43.544434
v 7.725051 3.069344 -43.610516
v 7.539662 4.205368 -41.973465
v 7.515416 4.353132 -41.980007
v 8.670209 4.547484 -41.956120
v 10.561821 4.099165 -41.908524
v 11.730326 4.256239 -41.902252
v 12.971600 3.972113 -41.851753
v 13.896224 3.807807 -41.839058
v 14.937070 3.551489 -41.823936
v 15.351497 3.419789 -41.812771
v 15.351924 3.269956 -41.808903
v 15.358824 2.361264 -42.016502
v 15.359325 2.185908 -42.011974
v 15.365560 -0.006158 -41.955379
v 8.132808 -0.030224 -42.090443
v 7.715614 3.132174 -42.157173
v 7.687241 3.305109 -42.164833
vt 0.169130 0.473810
vt 0.121538 0.476131
vt 0.115279 0.343804
vt 0.161975 0.332661
vt 0.113646 0.337526
vt 0.113189 0.328498
vt 0.160115 0.317336
vt 0.160417 0.326358
vt 0.978714 0.832299
vt 0.429629 0.296768
vt 0.429852 0.290211
vt 0.430323 0.281217
vt 0.041870 0.366841
vt 0.058483 0.782846
vt 0.039547 0.351608
vt 0.039745 0.360655
vt 0.979440 0.817174
vt 0.991417 0.817652
vt 0.990862 0.832842
vt 0.759615 0.958657
vt 0.611599 0.357194
vt 0.550760 0.364706
vt 0.548561 0.289289
vt 0.609251 0.281773
vt 0.453952 0.381442
vt 0.059118 0.801658
vt 0.045388 0.802196
vt 0.451799 0.306044
vt 0.971345 0.327892
vt 0.975622 0.252594
vt 0.554459 0.486867
vt 0.554040 0.483107
vt 0.614785 0.475407
vt 0.615257 0.479158
vt 0.457485 0.503422
vt 0.456901 0.494958
vt 0.456885 0.499687
vt 0.553966 0.478368
vt 0.614740 0.470680
vt 0.965212 0.441210
vt 0.964981 0.449719
vt 0.965007 0.445936
vt 0.456763 0.484419
vt 0.553700 0.467798
vt 0.614532 0.460132
vt 0.965689 0.430664
vt 0.044946 0.783304
vt 0.201710 0.909876
vt 0.201166 0.893801
vt 0.305589 0.975502
vt 0.305649 0.977300
vt 0.045384 0.807869
vt 0.766083 0.823811
vt 0.834068 0.826525
vt 0.852194 0.905265
vt 0.851574 0.918189
vt 0.758995 0.971581
vt 0.990816 0.837405
vt 0.039246 0.803090
vt 0.059663 0.817732
vt 0.996291 0.833611
vt 0.978094 0.845224
vt 0.773099 0.533184
vt 0.222598 0.796117
vt 0.221962 0.777304
vt 0.299281 0.788976
vt 0.299918 0.807788
vt 0.214009 0.542136
vt 0.290846 0.539531
vt 0.540233 0.799642
vt 0.540778 0.815717
vt 0.841114 0.534802
vt 0.834794 0.811399
vt 0.766809 0.808685
vt 0.408868 0.914579
vt 0.408325 0.898504
vt 0.068002 0.478437
vt 0.046760 0.479274
vt 0.062798 0.359408
vt 0.060870 0.353213
vt 0.060548 0.344178
vt 0.484802 0.494150
vt 0.485319 0.497899
vt 0.484776 0.489408
vt 0.484579 0.478828
vt 0.479577 0.300313
vt 0.481731 0.375734
vt 0.232929 0.470771
vt 0.224669 0.316040
vt 0.690852 0.267378
vt 0.693341 0.342879
vt 0.696738 0.446375
vt 0.697110 0.456973
vt 0.697267 0.461721
vt 0.697522 0.465502
vt 0.223185 0.300654
vt 0.223837 0.309654
vt 0.292392 0.467299
vt 0.285112 0.317785
vt 0.767430 0.271037
vt 0.770073 0.346397
vt 0.773774 0.449117
vt 0.774156 0.459643
vt 0.774307 0.464356
vt 0.774558 0.468126
vt 0.283811 0.302318
vt 0.284230 0.311313
vt 0.357223 0.464493
vt 0.370460 0.292078
vt 0.899332 0.249558
vt 0.894995 0.324932
vt 0.889325 0.428087
vt 0.888644 0.438649
vt 0.888283 0.443378
vt 0.888532 0.447161
vt 0.370849 0.276731
vt 0.369667 0.285694
vt 0.417910 0.461891
vt 0.696417 0.821029
vt 0.669349 0.895900
vt 0.553452 0.815322
vt 0.479113 0.782880
vt 0.479749 0.801692
vt 0.378654 0.805119
vt 0.668729 0.908824
vt 0.552832 0.828246
vt 0.378018 0.786307
vt 0.369583 0.536862
vt 0.470678 0.533436
vt 0.531163 0.531385
vt 0.539597 0.780830
vt 0.560373 0.528122
vt 0.703401 0.531526
vt 0.697143 0.805904
vt 0.050530 0.547678
vt 0.554178 0.800196
vt 0.985825 0.538245
vn -0.009144 0.025783 0.999626
vn -0.009144 0.025783 0.999626
vn -0.009144 0.025783 0.999626
vn -0.009144 0.025783 0.999626
vn -0.010990 0.015368 0.999822
vn -0.010990 0.015368 0.999822
vn -0.010990 0.015368 0.999822
vn -0.010990 0.015368 0.999821
vn -0.986810 -0.161884 0.000590
vn -0.986810 -0.161884 0.000590
vn -0.986810 -0.161884 0.000590
vn -0.986810 -0.161884 0.000590
vn -0.175208 -0.984284 0.022072
vn -0.175208 -0.984284 0.022072
vn -0.175208 -0.984284 0.022072
vn -0.175208 -0.984284 0.022072
vn 0.999820 0.003341 0.018673
vn 0.999820 0.003341 0.018673
vn 0.999820 0.003341 0.018673
vn 0.999820 0.003341 0.018673
vn -0.986808 -0.161892 0.000592
vn -0.986808 -0.161892 0.000592
vn -0.986808 -0.161892 0.000592
vn -0.986808 -0.161892 0.000592
vn 0.139283 0.826008 0.546178
vn 0.139283 0.826008 0.546178
vn 0.139283 0.826008 0.546178
vn 0.139283 0.826008 0.546178
vn 0.999820 0.003327 0.018674
vn 0.999820 0.003327 0.018674
vn 0.999820 0.003327 0.018674
vn 0.999820 0.003327 0.018674
vn -0.986808 -0.161891 0.000590
vn -0.986808 -0.161891 0.000590
vn -0.986808 -0.161891 0.000590
vn -0.986808 -0.161891 0.000590
vn -0.175204 -0.975867 0.130334
vn -0.175204 -0.975867 0.130334
vn -0.175204 -0.975867 0.130334
vn -0.175204 -0.975867 0.130334
vn 0.999820 0.003300 0.018681
vn 0.999820 0.003300 0.018681
vn 0.999820 0.003300 0.018681
vn 0.129666 0.777234 0.615706
vn 0.129666 0.777234 0.615706
vn 0.129666 0.777234 0.615706
vn 0.129666 0.777234 0.615706
vn -0.986814 -0.161857 0.000593
vn -0.986814 -0.161857 0.000593
vn -0.986814 -0.161857 0.000593
vn 0.999820 0.003327 0.018668
vn 0.999820 0.003327 0.018668
vn 0.999820 0.003327 0.018668
vn 0.999820 0.003327 0.018668
vn 0.136141 0.810196 0.570130
vn 0.136141 0.810196 0.570130
vn 0.136141 0.810196 0.570130
vn 0.136141 0.810196 0.570130
vn -0.986808 -0.161897 0.000595
vn -0.986808 -0.161897 0.000595
vn -0.986808 -0.161897 0.000595
vn -0.986808 -0.161897 0.000595
vn 0.999820 0.003345 0.018673
vn 0.999820 0.003345 0.018673
vn 0.999820 0.003345 0.018673
vn 0.999820 0.003345 0.018673
vn 0.999820 0.003325 0.018670
vn 0.999820 0.003325 0.018670
vn 0.999820 0.003325 0.018670
vn 0.999820 0.003325 0.018670
vn -0.991142 -0.132566 -0.007943
vn -0.991142 -0.132566 -0.007943
vn -0.991142 -0.132566 -0.007943
vn -0.991142 -0.132566 -0.007943
vn -0.986811 -0.161875 0.000591
vn -0.986811 -0.161875 0.000591
vn -0.986811 -0.161875 0.000591
vn -0.986811 -0.161875 0.000591
vn 0.999820 0.003326 0.018670
vn 0.999820 0.003326 0.018670
vn 0.999820 0.003326 0.018670
vn 0.999820 0.003326 0.018670
vn -0.986809 -0.161891 0.000592
vn -0.986809 -0.161891 0.000592
vn -0.986808 -0.161891 0.000592
vn 0.999820 0.003324 0.018668
vn 0.999820 0.003324 0.018668
vn 0.999820 0.003324 0.018668
vn 0.999820 0.003324 0.018668
vn -0.986808 -0.161893 0.000592
vn -0.986808 -0.161893 0.000592
vn -0.986808 -0.161893 0.000592
vn -0.986808 -0.161893 0.000592
vn 0.999820 0.003330 0.018670
vn 0.999820 0.003330 0.018670
vn 0.999820 0.003330 0.018670
vn 0.999820 0.003330 0.018670
vn 0.999820 0.003326 0.018671
vn 0.999820 0.003326 0.018671
vn 0.999820 0.003326 0.018671
vn 0.999820 0.003326 0.018671
vn -0.989985 -0.140963 -0.007638
vn -0.989985 -0.140963 -0.007638
vn -0.989985 -0.140963 -0.007638
vn -0.989985 -0.140963 -0.007638
vn -0.986811 -0.161879 0.000591
vn -0.986811 -0.161879 0.000591
vn -0.986811 -0.161879 0.000591
vn -0.986811 -0.161879 0.000591
vn 0.999820 0.003330 0.018670
vn 0.999820 0.003330 0.018670
vn 0.999820 0.003330 0.018670
vn 0.999820 0.003330 0.018670
vn -0.018754 0.025753 0.999492
vn -0.018754 0.025753 0.999492
vn -0.018754 0.025753 0.999492
vn -0.018754 0.025753 0.999492
vn -0.303264 -0.952720 0.018853
vn -0.303264 -0.952720 0.018853
vn -0.303264 -0.952720 0.018853
vn -0.303264 -0.952720 0.018853
vn -0.022068 0.015332 0.999639
vn -0.022068 0.015332 0.999639
vn -0.022068 0.015332 0.999639
vn -0.022068 0.015332 0.999639
vn -0.303570 -0.944757 0.123610
vn -0.303570 -0.944757 0.123610
vn -0.303570 -0.944757 0.123610
vn -0.303570 -0.944757 0.123610
vn 0.226063 0.762784 0.605852
vn 0.226063 0.762784 0.605852
vn 0.226063 0.762784 0.605852
vn 0.226063 0.762784 0.605852
vn 0.237147 0.793683 0.560205
vn 0.237147 0.793683 0.560205
vn 0.237147 0.793683 0.560205
vn 0.237147 0.793683 0.560205
vn 0.242466 0.808443 0.536312
vn 0.242466 0.808443 0.536312
vn 0.242466 0.808443 0.536312
vn 0.242466 0.808443 0.536312
vn -0.034758 0.025695 0.999065
vn -0.034758 0.025695 0.999065
vn -0.034758 0.025695 0.999065
vn -0.034758 0.025695 0.999065
vn 0.166094 0.822345 0.544207
vn 0.166094 0.822345 0.544207
vn 0.166094 0.822345 0.544207
vn 0.166094 0.822345 0.544207
vn 0.161573 0.806863 0.568213
vn 0.161573 0.806863 0.568213
vn 0.161573 0.806863 0.568213
vn 0.161573 0.806863 0.568213
vn 0.152316 0.774538 0.613914
vn 0.152316 0.774538 0.613914
vn 0.152316 0.774538 0.613914
vn 0.152316 0.774538 0.613914
vn -0.226257 -0.965628 0.127943
vn -0.226257 -0.965629 0.127943
vn -0.226257 -0.965629 0.127943
vn -0.226257 -0.965629 0.127943
vn -0.037147 0.015289 0.999193
vn -0.037147 0.015289 0.999193
vn -0.037147 0.015289 0.999193
vn -0.037147 0.015289 0.999193
vn -0.223889 -0.974391 0.020906
vn -0.223889 -0.974391 0.020906
vn -0.223889 -0.974391 0.020906
vn -0.223889 -0.974391 0.020906
vn -0.008175 0.025786 0.999634
vn -0.008175 0.025786 0.999634
vn -0.008175 0.025786 0.999634
vn -0.008175 0.025786 0.999634
vn -0.239354 -0.970715 0.020520
vn -0.239354 -0.970716 0.020520
vn -0.239354 -0.970716 0.020520
vn -0.239354 -0.970716 0.020520
vn -0.010741 0.015369 0.999824
vn -0.010741 0.015369 0.999824
vn -0.010741 0.015369 0.999824
vn -0.010741 0.015369 0.999824
vn -0.238921 -0.962658 0.127307
vn -0.238921 -0.962658 0.127307
vn -0.238921 -0.962658 0.127307
vn -0.238921 -0.962658 0.127307
vn 0.180862 0.770506 0.611236
vn 0.180862 0.770506 0.611236
vn 0.180862 0.770506 0.611236
vn 0.180862 0.770506 0.611236
vn 0.189429 0.802584 0.565664
vn 0.189429 0.802584 0.565664
vn 0.189429 0.802584 0.565664
vn 0.189429 0.802584 0.565664
vn 0.193556 0.817943 0.541761
vn 0.193556 0.817943 0.541761
vn 0.193556 0.817943 0.541761
vn 0.193556 0.817943 0.541761
vn -0.008834 0.025784 0.999629
vn -0.008834 0.025784 0.999629
vn -0.008834 0.025784 0.999629
vn -0.008834 0.025784 0.999629
vn -0.114573 0.830573 0.544998
vn -0.114573 0.830573 0.544998
vn -0.114573 0.830573 0.544998
vn -0.114573 0.830573 0.544998
vn -0.112547 0.814527 0.569103
vn -0.112547 0.814527 0.569103
vn -0.112547 0.814527 0.569103
vn -0.112547 0.814527 0.569103
vn -0.108301 0.781103 0.614938
vn -0.108301 0.781103 0.614938
vn -0.108301 0.781103 0.614938
vn -0.108301 0.781103 0.614938
vn 0.131254 -0.981834 0.137020
vn 0.131254 -0.981834 0.137020
vn 0.131254 -0.981834 0.137020
vn 0.131254 -0.981834 0.137020
vn -0.007438 0.015401 0.999854
vn -0.007438 0.015401 0.999854
vn -0.007438 0.015401 0.999854
vn -0.007438 0.015401 0.999854
vn 0.133024 -0.990717 0.028022
vn 0.133024 -0.990717 0.028022
vn 0.133024 -0.990717 0.028022
vn 0.133024 -0.990717 0.028022
vn -0.008257 0.025716 0.999635
vn -0.008257 0.025716 0.999635
vn -0.008257 0.025716 0.999635
vn -0.008257 0.025716 0.999635
vn 0.171568 0.832648 0.526557
vn 0.171568 0.832648 0.526557
vn 0.171568 0.832648 0.526557
vn 0.171568 0.832648 0.526557
vn 0.218328 0.810580 0.543409
vn 0.218328 0.810580 0.543409
vn 0.218328 0.810580 0.543409
vn 0.218328 0.810580 0.543409
vn 0.211994 0.779880 0.588937
vn 0.211994 0.779880 0.588937
vn 0.211994 0.779880 0.588937
vn 0.211994 0.779880 0.588937
vn -0.274649 -0.952408 0.132241
vn -0.274649 -0.952408 0.132241
vn -0.274649 -0.952408 0.132241
vn -0.274649 -0.952408 0.132241
vn -0.009608 0.023713 0.999673
vn -0.009608 0.023713 0.999673
vn -0.009608 0.023713 0.999673
vn -0.009608 0.023713 0.999673
vn -0.279820 -0.959597 0.029566
vn -0.279820 -0.959597 0.029566
vn -0.279820 -0.959597 0.029566
vn -0.279820 -0.959597 0.029566
vn -0.032006 0.020010 0.999287
vn -0.032006 0.020010 0.999287
vn -0.032006 0.020010 0.999287
vn -0.032006 0.020010 0.999287
vn -0.150989 0.831394 0.534777
vn -0.150989 0.831394 0.534777
vn -0.150989 0.831394 0.534777
vn -0.150989 0.831394 0.534777
vn -0.148840 0.815630 0.559101
vn -0.148840 0.815630 0.559101
vn -0.148840 0.815630 0.559101
vn -0.148840 0.815630 0.559101
vn -0.144265 0.782759 0.605373
vn -0.144265 0.782758 0.605373
vn -0.144265 0.782759 0.605373
vn -0.144265 0.782759 0.605373
vn 0.160912 -0.974970 0.153431
vn 0.160912 -0.974970 0.153431
vn 0.160912 -0.974970 0.153431
vn 0.160912 -0.974970 0.153431
vn -0.025639 0.029505 0.999236
vn -0.025639 0.029505 0.999236
vn -0.025639 0.029505 0.999236
vn -0.025639 0.029505 0.999236
vn 0.164926 -0.985339 0.043664
vn 0.164926 -0.985339 0.043664
vn 0.164926 -0.985339 0.043664
vn 0.164926 -0.985339 0.043664
vn 0.999820 0.003326 0.018671
vn 0.999820 0.003326 0.018671
vn 0.999820 0.003326 0.018671
vn 0.999820 0.003326 0.018671
vn 0.999820 0.003336 0.018671
vn 0.999820 0.003336 0.018671
vn 0.999820 0.003336 0.018671
vn 0.999820 0.003336 0.018671
vn -0.986808 -0.161894 0.000591
vn -0.986808 -0.161894 0.000591
vn -0.986808 -0.161894 0.000591
vn -0.986808 -0.161894 0.000591
vn -0.986808 -0.161894 0.000593
vn -0.986808 -0.161894 0.000593
vn -0.986808 -0.161894 0.000593
vn -0.986808 -0.161894 0.000593
vn 0.999820 0.003327 0.018671
vn 0.999820 0.003327 0.018671
vn 0.999820 0.003327 0.018671
vn 0.999820 0.003327 0.018671
vn 0.999820 0.003326 0.018671
vn 0.999820 0.003326 0.018671
vn 0.999820 0.003326 0.018671
vn 0.999820 0.003326 0.018671
vn 0.999820 0.003338 0.018670
vn 0.999820 0.003338 0.018670
vn 0.999820 0.003338 0.018670
vn 0.999820 0.003338 0.018670
vn 0.999820 0.003326 0.018670
vn 0.999820 0.003326 0.018670
vn 0.999820 0.003326 0.018670
vn 0.999820 0.003326 0.018670
vn -0.990699 -0.135848 -0.007824
vn -0.990699 -0.135848 -0.007824
vn -0.990699 -0.135848 -0.007824
vn -0.990699 -0.135848 -0.007824
vn -0.986810 -0.161879 0.000591
vn -0.986810 -0.161879 0.000591
vn -0.986810 -0.161879 0.000591
vn -0.986810 -0.161879 0.000591
vn 0.999820 0.003329 0.018670
vn 0.999820 0.003329 0.018670
vn 0.999820 0.003329 0.018670
vn 0.999820 0.003329 0.018670
vn 0.999820 0.003325 0.018670
vn 0.999820 0.003325 0.018670
vn 0.999820 0.003325 0.018670
vn 0.999820 0.003325 0.018670
vn -0.991801 -0.127537 -0.008124
vn -0.991801 -0.127537 -0.008124
vn -0.991801 -0.127537 -0.008124
vn -0.991801 -0.127537 -0.008124
vn -0.986810 -0.161880 0.000591
vn -0.986810 -0.161880 0.000591
vn -0.986810 -0.161880 0.000591
vn -0.986810 -0.161880 0.000591
vn -0.986809 -0.161886 0.000591
vn -0.986809 -0.161886 0.000591
vn -0.986809 -0.161886 0.000591
vn -0.986809 -0.161886 0.000591
vn -0.150987 0.831394 0.534777
vn -0.150987 0.831394 0.534777
vn -0.150987 0.831394 0.534777
vn -0.150987 0.831394 0.534777
vn 0.201521 0.828447 0.522556
vn 0.201521 0.828447 0.522556
vn 0.201521 0.828447 0.522556
vn 0.201521 0.828447 0.522556
vn -0.114574 0.830572 0.544998
vn -0.114574 0.830572 0.544998
vn -0.114574 0.830572 0.544998
vn -0.114574 0.830572 0.544998
vn 0.166093 0.822345 0.544207
vn 0.166093 0.822345 0.544207
vn 0.166093 0.822345 0.544207
vn 0.166093 0.822345 0.544207
vn 0.139282 0.826009 0.546177
vn 0.139282 0.826009 0.546177
vn 0.139282 0.826009 0.546177
vn 0.139282 0.826009 0.546177
vn 0.193558 0.817942 0.541762
vn 0.193558 0.817942 0.541762
vn 0.193558 0.817942 0.541762
vn 0.193558 0.817942 0.541762
vn 0.242453 0.808446 0.536313
vn 0.242453 0.808446 0.536313
vn 0.242453 0.808446 0.536313
vn 0.242453 0.808446 0.536313
vn 0.999820 0.003336 0.018674
vn 0.999820 0.003336 0.018674
vn 0.999820 0.003336 0.018674
vn 0.999820 0.003336 0.018674
vn 0.999820 0.003327 0.018670
vn 0.999820 0.003327 0.018670
vn 0.999820 0.003327 0.018670
vn -0.986808 -0.161894 0.000591
vn -0.986808 -0.161894 0.000591
vn -0.986808 -0.161894 0.000591
s off
g BackHouse5:BackHouse5
usemtl initialShadingGroup
f 43/1/1 51/2/2 52/3/3 50/4/4
f 53/5/5 54/6/6 48/7/7 49/8/8
f 2/9/9 6/17/10 9/18/11 8/19/12
f 52/3/13 53/5/14 49/8/15 50/4/16
f 5/14/17 1/26/18 7/27/19 10/47/20
f 12/20/21 26/53/22 111/54/23 96/55/24
f 101/21/25 102/22/26 58/23/27 44/24/28
f 104/48/29 105/49/30 11/50/31 14/51/32
f 12/20/33 96/55/34 97/56/35 13/57/36
f 54/31/37 55/32/38 47/33/39 48/34/40
f 7/27/41 19/52/42 17/59/43
f 55/32/44 56/38/45 46/39/46 47/33/47
f 20/58/48 8/19/49 18/61/50
f 1/26/51 15/60/52 19/52/53 7/27/54
f 56/38/55 57/44/56 45/45/57 46/39/58
f 16/62/59 2/9/60 8/19/61 20/58/62
f 106/64/63 107/65/64 22/66/65 21/67/66
f 108/68/67 23/69/68 22/66/69 107/65/70
f 24/63/71 109/72/72 110/73/73 25/74/74
f 26/53/75 25/74/76 110/73/77 111/54/78
f 105/49/79 106/64/80 21/67/81 11/50/82
f 86/119/83 87/120/84 28/121/85
f 27/70/86 33/71/87 89/75/88 90/76/89
f 87/120/90 88/125/91 34/126/92 28/121/93
f 84/122/94 85/123/95 91/124/96 92/127/97
f 93/128/98 83/129/99 84/122/100 92/127/101
f 30/132/102 94/133/103 95/134/104 32/136/105
f 95/134/106 86/119/107 28/121/108 32/136/109
f 27/70/110 90/76/111 91/124/112 85/123/113
f 35/77/114 3/78/115 5/13/116 36/79/117
f 37/80/118 36/79/119 5/13/120 10/16/121
f 7/15/122 38/81/123 37/80/124 10/16/125
f 39/82/126 38/83/127 7/35/128 17/37/129
f 19/36/130 40/84/131 39/82/132 17/37/133
f 15/43/134 41/85/135 40/84/136 19/36/137
f 42/86/138 103/87/139 104/25/140 14/28/141
f 59/88/142 43/1/143 50/4/144 66/89/145
f 60/90/146 100/91/147 101/21/148 44/24/149
f 46/39/150 45/45/151 61/92/152 62/93/153
f 47/33/154 46/39/155 62/93/156 63/94/157
f 63/94/158 64/95/159 48/34/160 47/33/161
f 49/8/162 48/7/163 64/96/164 65/97/165
f 65/97/166 66/89/167 50/4/168 49/8/169
f 51/2/170 35/77/171 36/79/172 52/3/173
f 53/5/174 52/3/175 36/79/176 37/80/177
f 37/80/178 38/81/179 54/6/180 53/5/181
f 55/32/182 54/31/183 38/83/184 39/82/185
f 39/82/186 40/84/187 56/38/188 55/32/189
f 40/84/190 41/85/191 57/44/192 56/38/193
f 58/23/194 102/22/195 103/87/196 42/86/197
f 67/98/198 59/88/199 66/89/200 74/99/201
f 68/100/202 99/101/203 100/91/204 60/90/205
f 62/93/206 61/92/207 69/102/208 70/103/209
f 63/94/210 62/93/211 70/103/212 71/104/213
f 71/104/214 72/105/215 64/95/216 63/94/217
f 65/97/218 64/96/219 72/106/220 73/107/221
f 73/107/222 74/99/223 66/89/224 65/97/225
f 75/108/226 67/98/227 74/99/228 82/109/229
f 68/100/230 76/110/231 98/111/232 99/101/233
f 77/112/234 78/113/235 70/103/236 69/102/237
f 78/113/238 79/114/239 71/104/240 70/103/241
f 79/114/242 80/115/243 72/105/244 71/104/245
f 80/116/246 81/117/247 73/107/248 72/106/249
f 81/117/250 82/109/251 74/99/252 73/107/253
f 6/10/254 4/118/255 75/108/256 82/109/257
f 97/29/258 98/111/259 76/110/260 13/30/261
f 78/113/262 77/112/263 16/46/264 20/40/265
f 79/114/266 78/113/267 20/40/268 18/42/269
f 8/41/270 80/115/271 79/114/272 18/42/273
f 81/117/274 80/116/275 8/12/276 9/11/277
f 6/10/278 82/109/279 81/117/280 9/11/281
f 83/129/282 29/130/283 31/131/284 84/122/285
f 31/131/286 27/70/287 85/123/288 84/122/289
f 12/20/290 87/120/291 86/119/292 26/53/293
f 12/20/294 13/57/295 88/125/296 87/120/297
f 90/76/298 89/75/299 14/51/300 11/50/301
f 91/124/302 90/76/303 11/50/304 21/67/305
f 92/127/306 91/124/307 21/67/308 22/66/309
f 23/69/310 93/128/311 92/127/312 22/66/313
f 94/133/314 24/63/315 25/74/316 95/134/317
f 26/53/318 86/119/319 95/134/320 25/74/321
f 1/26/322 5/14/323 107/65/324 106/64/325
f 5/14/326 3/135/327 108/68/328 107/65/329
f 109/72/330 4/137/331 6/17/332 110/73/333
f 6/17/334 2/9/335 111/54/336 110/73/337
f 97/56/338 96/55/339 2/9/340 16/62/341
f 16/46/342 77/112/343 98/111/344 97/29/345
f 98/111/346 77/112/347 69/102/348 99/101/349
f 100/91/350 99/101/351 69/102/352 61/92/353
f 101/21/354 100/91/355 61/92/356 45/45/357
f 45/45/358 57/44/359 102/22/360 101/21/361
f 103/87/362 102/22/363 57/44/364 41/85/365
f 104/25/366 103/87/367 41/85/368 15/43/369
f 1/26/370 105/49/371 104/48/372 15/60/373
f 1/26/374 106/64/375 105/49/376
f 96/55/377 111/54/378 2/9/379
