# This file uses centimeters as units for non-parametric coordinates.

mtllib FrontHouse2Mail.mtl
g default
v 19.189136 0.003652 -0.129850
v 19.227976 0.003652 -0.129850
v 19.189136 0.476281 -0.129850
v 19.227976 0.476281 -0.129850
v 19.189136 0.476281 -0.180442
v 19.227976 0.476281 -0.180442
v 19.189136 0.003652 -0.180442
v 19.227976 0.003652 -0.180442
v 19.097109 0.456258 -0.030850
v 19.329820 0.456258 -0.030850
v 19.097109 0.633036 -0.030850
v 19.329820 0.633036 -0.030850
v 19.097109 0.633036 -0.299610
v 19.329820 0.633036 -0.299610
v 19.097109 0.456258 -0.299610
v 19.329820 0.456258 -0.299610
vt 0.086966 0.250402
vt 0.124848 0.250440
vt 0.124387 0.711424
vt 0.086504 0.711386
vt 0.174194 0.250489
vt 0.173732 0.711473
vt 0.037620 0.250353
vt 0.037159 0.711336
vt 0.470563 0.554277
vt 0.700167 0.553748
vt 0.700568 0.728166
vt 0.470965 0.728695
vt 0.701179 0.993337
vt 0.471576 0.993866
vt 0.469952 0.289106
vt 0.699556 0.288577
vt 0.965337 0.553138
vt 0.965739 0.727555
vt 0.205392 0.554888
vt 0.205794 0.729305
vn 0.000000 0.000000 1.000000
vn 0.000000 0.000000 1.000000
vn 0.000000 0.000000 1.000000
vn 0.000000 0.000000 1.000000
vn 1.000000 0.000000 0.000000
vn 1.000000 0.000000 0.000000
vn 1.000000 0.000000 0.000000
vn 1.000000 0.000000 0.000000
vn -1.000000 0.000000 0.000000
vn -1.000000 0.000000 0.000000
vn -1.000000 0.000000 0.000000
vn -1.000000 0.000000 0.000000
vn 0.000000 0.000000 1.000000
vn 0.000000 0.000000 1.000000
vn 0.000000 0.000000 1.000000
vn 0.000000 0.000000 1.000000
vn 0.000000 1.000000 0.000000
vn 0.000000 1.000000 0.000000
vn 0.000000 1.000000 0.000000
vn 0.000000 1.000000 0.000000
vn 0.000000 -1.000000 0.000000
vn 0.000000 -1.000000 0.000000
vn 0.000000 -1.000000 0.000000
vn 0.000000 -1.000000 0.000000
vn 1.000000 0.000000 0.000000
vn 1.000000 0.000000 0.000000
vn 1.000000 0.000000 0.000000
vn 1.000000 0.000000 0.000000
vn -1.000000 0.000000 0.000000
vn -1.000000 0.000000 0.000000
vn -1.000000 0.000000 0.000000
vn -1.000000 0.000000 0.000000
s off
g Bottom H2Mail
usemtl initialShadingGroup
f 1/1/1 2/2/2 4/3/3 3/4/4
f 2/2/5 8/5/6 6/6/7 4/3/8
f 7/7/9 1/1/10 3/4/11 5/8/12
f 9/9/13 10/10/14 12/11/15 11/12/16
f 11/12/17 12/11/18 14/13/19 13/14/20
f 15/15/21 16/16/22 10/10/23 9/9/24
f 10/10/25 16/17/26 14/18/27 12/11/28
f 15/19/29 9/9/30 11/12/31 13/20/32
g default
v 19.097111 0.635431 -0.030850
v 19.329819 0.635431 -0.030850
v 19.213463 0.744233 -0.030850
v 19.213463 0.744233 -0.299610
v 19.097111 0.635431 -0.299610
v 19.329819 0.635431 -0.299610
v 19.122269 0.649729 -0.028843
v 19.304663 0.649729 -0.028843
v 19.107216 0.643110 -0.287937
v 19.319714 0.643110 -0.287937
v 19.213463 0.729937 -0.028843
v 19.213463 0.736555 -0.287937
v 19.301052 0.730638 -0.299610
v 19.301052 0.730638 -0.030850
v 19.284643 0.724349 -0.028843
v 19.296390 0.730046 -0.287937
v 19.131962 0.722175 -0.299610
v 19.131962 0.722175 -0.030850
v 19.147926 0.717717 -0.028843
v 19.137108 0.722319 -0.287937
vt 0.970396 0.173895
vt 0.973311 0.367859
vt 0.749297 0.371224
vt 0.746383 0.177260
vt 0.975666 0.524638
vt 0.751652 0.528004
vt 0.744155 0.028965
vt 0.968168 0.025600
vt 0.503244 0.264639
vt 0.332878 0.260463
vt 0.350039 0.052968
vt 0.496269 0.056551
vt 0.239504 0.036734
vt 0.204099 0.241551
vt 0.614869 0.044822
vt 0.641417 0.250974
vt 0.974556 0.450757
vt 0.750542 0.454123
vt 0.558064 0.052022
vt 0.575236 0.259362
vt 0.969226 0.095976
vt 0.745212 0.099341
vt 0.292229 0.045594
vt 0.265527 0.251874
vt 0.021999 0.765782
vt 0.455395 0.765782
vt 0.408545 0.794217
vt 0.068853 0.794217
vt 0.401823 0.955128
vt 0.371260 0.942622
vt 0.238694 0.982167
vt 0.238694 0.953734
vt 0.086906 0.938299
vt 0.116639 0.929432
vn 0.000000 -1.000000 0.000000
vn 0.000000 -1.000000 0.000000
vn 0.000000 -1.000000 0.000000
vn 0.000000 -1.000000 0.000000
vn 0.957259 0.289231 0.000000
vn 0.957259 0.289231 0.000000
vn 0.683002 0.730417 0.000000
vn 0.683002 0.730417 0.000000
vn -0.683013 0.730406 0.000000
vn -0.683013 0.730406 0.000000
vn -0.261246 0.965272 0.000000
vn -0.261246 0.965272 0.000000
vn 0.000000 0.999674 -0.025537
vn 0.000000 0.999674 -0.025537
vn 0.000000 0.999674 -0.025537
vn 0.000000 0.999674 -0.025537
vn 0.183237 -0.982748 -0.025105
vn 0.655107 -0.754436 -0.040753
vn 0.664729 -0.745958 -0.041004
vn 0.183237 -0.982748 -0.025105
vn -0.654054 -0.755032 -0.046255
vn -0.665481 -0.744962 -0.046551
vn -0.964664 -0.258804 -0.049427
vn -0.964664 -0.258804 -0.049427
vn 0.153383 0.988167 0.000000
vn 0.153383 0.988167 0.000000
vn -0.078228 -0.996610 -0.025459
vn -0.078228 -0.996610 -0.025459
vn -0.927911 0.372802 0.000000
vn -0.927911 0.372802 0.000000
vn 0.934636 -0.352710 -0.045290
vn 0.934636 -0.352710 -0.045290
vn 0.000000 -0.139022 0.990289
vn 0.000000 -0.139022 0.990289
vn 0.000000 -0.139022 0.990289
vn 0.000000 -0.139022 0.990289
vn 0.101669 0.029206 0.994389
vn 0.101669 0.029206 0.994390
vn 0.101669 0.029206 0.994390
vn 0.101669 0.029206 0.994390
vn 0.021156 0.175104 0.984322
vn 0.021156 0.175104 0.984323
vn 0.021156 0.175104 0.984323
vn 0.021156 0.175104 0.984323
vn -0.040955 0.175680 0.983595
vn -0.040955 0.175680 0.983595
vn -0.040955 0.175680 0.983595
vn -0.040955 0.175680 0.983595
vn -0.106986 0.041838 0.993380
vn -0.106986 0.041838 0.993380
vn -0.106986 0.041838 0.993380
vn -0.106986 0.041838 0.993380
s off
g H2Mail Top
usemtl initialShadingGroup
f 21/21/33 22/22/34 18/23/35 17/24/36
s 1
f 18/23/37 22/22/38 29/37/39 30/38/40
s 2
f 33/41/41 34/42/42 19/27/43 20/28/44
s off
f 26/29/45 25/30/46 23/31/47 24/32/48
s 3
f 27/33/49 35/43/50 36/44/51 28/34/52
s 4
f 31/39/53 32/40/54 26/29/55 24/32/56
s 1
f 30/38/40 29/37/39 20/25/57 19/26/58
s 4
f 27/35/59 28/36/60 32/40/54 31/39/53
s 2
f 21/21/61 17/24/62 34/42/42 33/41/41
s 3
f 36/44/51 35/43/50 23/31/63 25/30/64
s off
f 17/45/65 18/46/66 24/47/67 23/48/68
f 18/46/69 30/49/70 31/50/71 24/47/72
f 30/49/73 19/51/74 27/52/75 31/50/76
f 19/51/77 34/53/78 35/54/79 27/52/80
f 34/53/81 17/45/82 23/48/83 35/54/84
