# This file uses centimeters as units for non-parametric coordinates.

mtllib OneSideFenceSep.mtl
g default
v -12.948150 -0.066597 -8.979292
v -13.072041 -0.066597 -8.975170
v -12.978586 1.160937 -9.100293
v -13.102537 1.147199 -9.093489
v -12.990561 1.125646 -8.504170
v -13.104214 1.114024 -8.502298
v -12.949781 -0.066597 -8.595583
v -13.060836 -0.066597 -8.596340
v -12.995290 1.827877 -8.830682
v -13.119214 1.814139 -8.823881
vt 0.022857 0.943905
vt 0.022784 0.919648
vt 0.274908 0.918895
vt 0.274980 0.943151
vt 0.423204 0.942709
vt 0.423132 0.918452
vt 0.581592 0.917978
vt 0.581665 0.942235
vt 0.826380 0.917247
vt 0.826452 0.941504
vt 0.062630 0.706782
vt 0.124145 0.584787
vt 0.011835 0.590918
vt 0.106923 0.377664
vt 0.034632 0.377664
vn -0.032741 -0.097683 -0.994679
vn -0.032741 -0.097683 -0.994679
vn -0.032741 -0.097683 -0.994679
vn -0.032741 -0.097683 -0.994679
vn -0.129341 0.937571 -0.322849
vn -0.128536 0.956062 -0.263485
vn -0.004731 0.423517 0.905876
vn -0.004731 0.423517 0.905876
vn 0.057190 -0.068063 0.996041
vn 0.057190 -0.068063 0.996041
vn 0.057190 -0.068063 0.996041
vn 0.057190 -0.068063 0.996041
vn -0.091859 0.371219 -0.923990
vn -0.091859 0.371219 -0.923990
vn -0.128536 0.956062 -0.263485
vn -0.129341 0.937571 -0.322849
vn 0.999642 0.016523 0.021058
vn 0.999503 0.027083 0.016120
vn 0.999513 0.026561 0.016364
vn 0.999450 0.029597 0.014943
vn 0.999450 0.029597 0.014943
s off
g polySurface154 OneSidedMultiFence
usemtl initialShadingGroup
f 1/1/1 2/2/2 4/3/3 3/4/4
f 9/5/5 10/6/6 6/7/7 5/8/8
f 5/8/9 6/7/10 8/9/11 7/10/12
f 3/4/13 4/3/14 10/6/15 9/5/16
s 1
f 9/11/17 5/12/18 3/13/19
f 5/12/18 7/14/20 1/15/21 3/13/19
g default
v -12.963021 -0.066597 -7.790045
v -13.090357 -0.066597 -7.786424
v -12.983312 1.291199 -7.940665
v -13.130406 1.283943 -7.926212
v -12.993237 1.128482 -7.159170
v -13.117336 1.118552 -7.146252
v -12.969528 -0.066596 -7.094538
v -13.093741 -0.066596 -7.087570
v -13.050743 2.085573 -7.720223
v -13.104739 2.078520 -7.705177
vt 0.026973 0.904332
vt 0.026921 0.886965
vt 0.284154 0.886197
vt 0.284206 0.903563
vt 0.440808 0.903095
vt 0.440755 0.885729
vt 0.650784 0.885101
vt 0.650836 0.902468
vt 0.877241 0.884425
vt 0.877293 0.901792
vt 0.271842 0.751550
vt 0.377546 0.585280
vt 0.230312 0.613548
vt 0.389723 0.377665
vt 0.258688 0.377664
vn -0.123211 -0.104972 -0.986813
vn -0.123211 -0.104972 -0.986813
vn -0.123211 -0.104972 -0.986813
vn -0.123211 -0.104972 -0.986813
vn -0.107694 0.944464 0.310468
vn -0.055292 0.867266 0.494765
vn 0.086758 0.504038 0.859313
vn 0.086758 0.504038 0.859313
vn 0.076755 0.053829 0.995596
vn 0.076755 0.053829 0.995596
vn 0.076755 0.053829 0.995596
vn 0.076755 0.053829 0.995596
vn -0.241094 0.253967 -0.936683
vn -0.241094 0.253967 -0.936683
vn -0.055292 0.867266 0.494765
vn -0.107694 0.944464 0.310468
vn 0.996647 0.076658 0.028618
vn 0.999533 0.026450 0.015296
vn 0.999206 0.035680 0.017747
vn 0.999745 0.018339 0.013142
vn 0.999745 0.018339 0.013142
s off
g OneSidedMultiFence polySurface155
usemtl initialShadingGroup
f 11/16/22 12/17/23 14/18/24 13/19/25
f 19/20/26 20/21/27 16/22/28 15/23/29
f 15/23/30 16/22/31 18/24/32 17/25/33
f 13/19/34 14/18/35 20/21/36 19/20/37
s 1
f 19/26/38 15/27/39 13/28/40
f 15/27/39 17/29/41 11/30/42 13/28/40
g default
v -12.951983 -0.066597 -8.587598
v -13.075925 -0.066597 -8.578798
v -12.984911 1.113933 -8.497122
v -13.108859 1.100772 -8.489692
v -12.963301 1.277739 -7.954941
v -13.133066 1.263200 -7.945399
v -12.935186 -0.066597 -7.802032
v -13.104980 -0.066597 -7.791178
v -13.004482 1.896677 -8.231415
v -13.128436 1.883516 -8.223932
vt 0.020497 0.873156
vt 0.020418 0.846800
vt 0.269535 0.846056
vt 0.269614 0.872412
vt 0.444746 0.871889
vt 0.444668 0.845533
vt 0.588689 0.845103
vt 0.588768 0.871459
vt 0.874211 0.844250
vt 0.874290 0.870606
vt 0.175534 0.718734
vt 0.227622 0.611209
vt 0.125473 0.582752
vt 0.256431 0.377664
vt 0.108427 0.377664
vn -0.073086 0.070999 -0.994795
vn -0.073086 0.070999 -0.994795
vn -0.073086 0.070999 -0.994795
vn -0.073086 0.070999 -0.994795
vn -0.106917 0.990720 -0.083917
vn -0.103793 0.994224 -0.027318
vn 0.014152 0.409013 0.912419
vn 0.014152 0.409013 0.912419
vn 0.049769 0.113027 0.992345
vn 0.049769 0.113027 0.992345
vn 0.049769 0.113027 0.992345
vn 0.049769 0.113027 0.992345
vn -0.090759 0.318138 -0.943690
vn -0.090759 0.318138 -0.943690
vn -0.103793 0.994224 -0.027318
vn -0.106917 0.990720 -0.083917
vn 0.997691 0.042837 -0.052701
vn 0.998993 0.027079 -0.035770
vn 0.999105 0.025324 -0.033884
vn 0.999221 0.023372 -0.031787
vn 0.999221 0.023372 -0.031787
s off
g OneSidedMultiFence polySurface156
usemtl initialShadingGroup
f 21/31/43 22/32/44 24/33/45 23/34/46
f 29/35/47 30/36/48 26/37/49 25/38/50
f 25/38/51 26/37/52 28/39/53 27/40/54
f 23/34/55 24/33/56 30/36/57 29/35/58
s 1
f 29/41/59 25/42/60 23/43/61
f 25/42/60 27/44/62 21/45/63 23/43/61
g default
v -13.005482 -0.066596 -5.716476
v -13.081325 -0.066596 -5.708887
v -13.042576 1.198894 -5.724843
v -13.166082 1.182485 -5.716635
v -13.043028 1.184745 -5.126284
v -13.154644 1.169003 -5.118662
v -12.976306 -0.066596 -4.999334
v -13.099834 -0.066596 -4.989167
v -13.073170 1.874048 -5.477894
v -13.196665 1.857640 -5.469593
vt 0.017646 0.989670
vt 0.017571 0.964396
vt 0.273686 0.963631
vt 0.273761 0.988905
vt 0.420409 0.988467
vt 0.420334 0.963193
vt 0.577448 0.962723
vt 0.577524 0.987997
vt 0.831723 0.961964
vt 0.831799 0.987238
vt 0.649353 0.377664
vt 0.647775 0.597512
vt 0.760545 0.595054
vt 0.784463 0.377664
vt 0.694302 0.714803
vn -0.080176 0.005738 -0.996764
vn -0.080176 0.005738 -0.996764
vn -0.080176 0.005738 -0.996764
vn -0.080176 0.005738 -0.996764
vn -0.137370 0.988008 -0.070503
vn -0.133627 0.991000 -0.007982
vn -0.001922 0.454114 0.890942
vn -0.001922 0.454114 0.890942
vn 0.060335 0.106839 0.992444
vn 0.060335 0.106839 0.992444
vn 0.060335 0.106839 0.992444
vn 0.060335 0.106839 0.992444
vn -0.107307 0.337289 -0.935265
vn -0.107307 0.337289 -0.935265
vn -0.133627 0.991000 -0.007982
vn -0.137370 0.988008 -0.070503
vn 0.998969 0.040057 -0.021377
vn 0.999013 0.040813 -0.017531
vn 0.999006 0.040673 -0.018243
vn 0.998969 0.040057 -0.021377
vn 0.999003 0.044607 0.001811
s off
g OneSidedMultiFence polySurface157
usemtl initialShadingGroup
f 31/46/64 32/47/65 34/48/66 33/49/67
f 39/50/68 40/51/69 36/52/70 35/53/71
f 35/53/72 36/52/73 38/54/74 37/55/75
f 33/49/76 34/48/77 40/51/78 39/50/79
s 1
f 31/56/80 33/57/81 35/58/82 37/59/83
f 33/57/81 39/60/84 35/58/82
g default
v -12.985660 -0.066596 -6.087725
v -13.109541 -0.066596 -6.083003
v -12.984597 1.210616 -6.267083
v -13.156946 1.195992 -6.257645
v -12.996975 1.211368 -5.735941
v -13.169296 1.196744 -5.726480
v -12.982764 -0.066596 -5.722609
v -13.106639 -0.066596 -5.717891
v -13.074370 1.890606 -6.063657
v -13.112315 1.880035 -6.059995
vt 0.019835 0.789792
vt 0.019786 0.773652
vt 0.276846 0.772884
vt 0.276894 0.789024
vt 0.420508 0.788595
vt 0.420459 0.772455
vt 0.568141 0.772014
vt 0.568190 0.788154
vt 0.818428 0.771267
vt 0.818477 0.787406
vt 0.645684 0.599679
vt 0.648196 0.377665
vt 0.579408 0.377665
vt 0.545616 0.599548
vt 0.583942 0.717680
vn -0.033877 -0.144178 -0.988972
vn -0.033877 -0.144178 -0.988972
vn -0.033877 -0.144178 -0.988972
vn -0.033877 -0.144178 -0.988972
vn -0.123129 0.989727 -0.072655
vn -0.116386 0.992402 0.039909
vn 0.004141 0.436616 0.899638
vn 0.004141 0.436616 0.899638
vn 0.047056 0.010299 0.998839
vn 0.047056 0.010299 0.998839
vn 0.047056 0.010299 0.998839
vn 0.047056 0.010299 0.998839
vn -0.093296 0.278047 -0.956026
vn -0.093296 0.278047 -0.956026
vn -0.116386 0.992402 0.039909
vn -0.123129 0.989727 -0.072655
vn 0.999530 0.027827 0.012877
vn 0.999927 0.005942 0.010577
vn 0.999926 0.005942 0.010577
vn 0.999397 0.032080 0.013323
vn 0.992004 0.124103 0.022936
s off
g OneSidedMultiFence polySurface158
usemtl initialShadingGroup
f 41/61/85 42/62/86 44/63/87 43/64/88
f 49/65/89 50/66/90 46/67/91 45/68/92
f 45/68/93 46/67/94 48/69/95 47/70/96
f 43/64/97 44/63/98 50/66/99 49/65/100
s 1
f 45/71/101 47/72/102 41/73/103 43/74/104
f 49/75/105 45/71/101 43/74/104
g default
v -12.966051 -0.066596 -6.783754
v -13.090236 -0.066596 -6.776797
v -12.997324 1.142233 -7.151015
v -13.132080 1.133192 -7.132371
v -13.008180 1.217655 -6.282748
v -13.132215 1.207543 -6.272737
v -12.977441 -0.066596 -6.098091
v -13.101649 -0.066596 -6.091143
v -13.057560 1.935775 -6.970568
v -13.108923 1.928509 -6.959551
vt 0.010771 0.828073
vt 0.010711 0.808049
vt 0.293386 0.807204
vt 0.293446 0.827229
vt 0.477991 0.826677
vt 0.477931 0.806653
vt 0.700925 0.805987
vt 0.700985 0.826011
vt 0.992239 0.805117
vt 0.992299 0.825141
vt 0.542666 0.600771
vt 0.577455 0.377665
vt 0.448276 0.377665
vt 0.379083 0.587668
vt 0.413079 0.725527
vn -0.061920 -0.298236 -0.952482
vn -0.061920 -0.298236 -0.952482
vn -0.061920 -0.298236 -0.952482
vn -0.061920 -0.298236 -0.952482
vn -0.132649 0.880817 -0.454496
vn -0.119242 0.953429 -0.277045
vn 0.018212 0.690786 0.722830
vn 0.018212 0.690786 0.722830
vn 0.058569 0.168983 0.983877
vn 0.058569 0.168983 0.983877
vn 0.058569 0.168983 0.983877
vn 0.058569 0.168983 0.983877
vn -0.129800 0.220288 -0.966760
vn -0.129800 0.220288 -0.966760
vn -0.119242 0.953429 -0.277045
vn -0.132649 0.880817 -0.454496
vn 0.999310 0.035188 0.011854
vn 0.999531 0.027732 0.012964
vn 0.999531 0.027732 0.012964
vn 0.999174 0.039031 0.011282
vn 0.997216 0.074330 0.006012
s off
g OneSidedMultiFence polySurface159
usemtl initialShadingGroup
f 51/76/106 52/77/107 54/78/108 53/79/109
f 59/80/110 60/81/111 56/82/112 55/83/113
f 55/83/114 56/82/115 58/84/116 57/85/117
f 53/79/118 54/78/119 60/81/120 59/80/121
s 1
f 55/86/122 57/87/123 51/88/124 53/89/125
f 59/90/126 55/86/122 53/89/125
